<svg width="239" height="250" viewBox="0 0 239 250" fill="none" xmlns="http://www.w3.org/2000/svg">
<path d="M173.074 34.3324H65.9209V199.375H173.074V34.3324Z" fill="white"/>
<path d="M176.718 202.989H62.3066V30.7244H176.718V202.989ZM69.5646 195.761H169.49V37.9523H69.5345L69.5646 195.761Z" fill="#37474F"/>
<path d="M173.074 96.751H65.9209V100.401H173.074V96.751Z" fill="#37474F"/>
<path d="M173.074 69.5381H65.9209V73.1882H173.074V69.5381Z" fill="#37474F"/>
<path d="M143.74 41.247V97.8292H147.053V41.247H143.74Z" fill="#37474F"/>
<path d="M117.841 41.247V97.8292H121.154V41.247H117.841Z" fill="#37474F"/>
<path d="M91.9404 41.247V97.8292H95.2532V41.247H91.9404Z" fill="#37474F"/>
<path d="M179.784 30.1161H59.2109V43.3311H179.784V30.1161Z" fill="#37474F"/>
<path d="M179.784 30.1161H59.2109V39.3317H179.784V30.1161Z" fill="#263238"/>
<path d="M184.343 23.5087H54.6572V36.7236H184.343V23.5087Z" fill="#37474F"/>
<path d="M62.3069 43.3371H8.73633V202.989H62.3069V43.3371Z" fill="#DBDBDB"/>
<path d="M57.5604 48.6857H13.4824V51.6251H57.5604V48.6857Z" fill="#C7C7C7"/>
<path d="M57.5604 54.0946H13.4824V57.0339H57.5604V54.0946Z" fill="#C7C7C7"/>
<path d="M57.5604 59.5035H13.4824V62.4428H57.5604V59.5035Z" fill="#C7C7C7"/>
<path d="M57.5604 64.9062H13.4824V67.8456H57.5604V64.9062Z" fill="#C7C7C7"/>
<path d="M57.5604 70.3151H13.4824V73.2545H57.5604V70.3151Z" fill="#C7C7C7"/>
<path d="M57.5604 75.724H13.4824V78.6633H57.5604V75.724Z" fill="#C7C7C7"/>
<path d="M57.5604 81.1328H13.4824V84.0721H57.5604V81.1328Z" fill="#C7C7C7"/>
<path d="M57.5604 86.5417H13.4824V89.481H57.5604V86.5417Z" fill="#C7C7C7"/>
<path d="M57.5604 91.9506H13.4824V94.8899H57.5604V91.9506Z" fill="#C7C7C7"/>
<path d="M57.5604 97.3594H13.4824V100.299H57.5604V97.3594Z" fill="#C7C7C7"/>
<path d="M57.5604 102.762H13.4824V105.702H57.5604V102.762Z" fill="#C7C7C7"/>
<path d="M57.5604 108.171H13.4824V111.11H57.5604V108.171Z" fill="#C7C7C7"/>
<path d="M57.5604 118.989H13.4824V121.928H57.5604V118.989Z" fill="#C7C7C7"/>
<path d="M57.5604 124.398H13.4824V127.337H57.5604V124.398Z" fill="#C7C7C7"/>
<path d="M57.5604 129.807H13.4824V132.746H57.5604V129.807Z" fill="#C7C7C7"/>
<path d="M57.5604 135.215H13.4824V138.155H57.5604V135.215Z" fill="#C7C7C7"/>
<path d="M57.5604 140.618H13.4824V143.558H57.5604V140.618Z" fill="#C7C7C7"/>
<path d="M57.5604 146.027H13.4824V148.966H57.5604V146.027Z" fill="#C7C7C7"/>
<path d="M57.5604 151.436H13.4824V154.375H57.5604V151.436Z" fill="#C7C7C7"/>
<path d="M57.5604 156.845H13.4824V159.784H57.5604V156.845Z" fill="#C7C7C7"/>
<path d="M57.5604 162.254H13.4824V165.193H57.5604V162.254Z" fill="#C7C7C7"/>
<path d="M57.5604 167.662H13.4824V170.602H57.5604V167.662Z" fill="#C7C7C7"/>
<path d="M57.5604 173.071H13.4824V176.011H57.5604V173.071Z" fill="#C7C7C7"/>
<path d="M57.5604 178.48H13.4824V181.42H57.5604V178.48Z" fill="#C7C7C7"/>
<path d="M57.5604 183.883H13.4824V186.822H57.5604V183.883Z" fill="#C7C7C7"/>
<path d="M57.5604 189.292H13.4824V192.231H57.5604V189.292Z" fill="#C7C7C7"/>
<path d="M57.5604 194.701H13.4824V197.64H57.5604V194.701Z" fill="#C7C7C7"/>
<path d="M230.258 43.3371H176.688V202.989H230.258V43.3371Z" fill="#DBDBDB"/>
<path d="M225.512 48.6857H181.434V51.6251H225.512V48.6857Z" fill="#C7C7C7"/>
<path d="M225.512 54.0946H181.434V57.0339H225.512V54.0946Z" fill="#C7C7C7"/>
<path d="M225.512 59.5035H181.434V62.4428H225.512V59.5035Z" fill="#C7C7C7"/>
<path d="M225.512 64.9062H181.434V67.8456H225.512V64.9062Z" fill="#C7C7C7"/>
<path d="M225.512 70.3151H181.434V73.2545H225.512V70.3151Z" fill="#C7C7C7"/>
<path d="M225.512 75.724H181.434V78.6633H225.512V75.724Z" fill="#C7C7C7"/>
<path d="M225.512 81.1328H181.434V84.0721H225.512V81.1328Z" fill="#C7C7C7"/>
<path d="M225.512 86.5417H181.434V89.481H225.512V86.5417Z" fill="#C7C7C7"/>
<path d="M225.512 91.9506H181.434V94.8899H225.512V91.9506Z" fill="#C7C7C7"/>
<path d="M225.512 97.3594H181.434V100.299H225.512V97.3594Z" fill="#C7C7C7"/>
<path d="M225.512 102.762H181.434V105.702H225.512V102.762Z" fill="#C7C7C7"/>
<path d="M225.512 108.171H181.434V111.11H225.512V108.171Z" fill="#C7C7C7"/>
<path d="M225.512 118.989H181.434V121.928H225.512V118.989Z" fill="#C7C7C7"/>
<path d="M225.512 124.398H181.434V127.337H225.512V124.398Z" fill="#C7C7C7"/>
<path d="M225.512 129.807H181.434V132.746H225.512V129.807Z" fill="#C7C7C7"/>
<path d="M225.512 135.215H181.434V138.155H225.512V135.215Z" fill="#C7C7C7"/>
<path d="M225.512 140.618H181.434V143.558H225.512V140.618Z" fill="#C7C7C7"/>
<path d="M225.512 146.027H181.434V148.966H225.512V146.027Z" fill="#C7C7C7"/>
<path d="M225.512 151.436H181.434V154.375H225.512V151.436Z" fill="#C7C7C7"/>
<path d="M225.512 156.845H181.434V159.784H225.512V156.845Z" fill="#C7C7C7"/>
<path d="M225.512 162.254H181.434V165.193H225.512V162.254Z" fill="#C7C7C7"/>
<path d="M225.512 167.662H181.434V170.602H225.512V167.662Z" fill="#C7C7C7"/>
<path d="M225.512 173.071H181.434V176.011H225.512V173.071Z" fill="#C7C7C7"/>
<path d="M225.512 178.48H181.434V181.42H225.512V178.48Z" fill="#C7C7C7"/>
<path d="M225.512 183.883H181.434V186.822H225.512V183.883Z" fill="#C7C7C7"/>
<path d="M225.512 189.292H181.434V192.231H225.512V189.292Z" fill="#C7C7C7"/>
<path d="M225.512 194.701H181.434V197.64H225.512V194.701Z" fill="#C7C7C7"/>
<path d="M131.255 120.916C130.93 131.571 132.327 144.407 127.039 154.14C122.901 161.754 115.071 166.494 107.126 169.313C89.6589 175.511 65.9093 174.68 55.3265 157.001C51.1102 149.936 51.3632 135.92 59.5909 131.397C63.8072 129.09 68.6258 128.849 73.2998 127.963C79.4314 126.807 84.0211 123.747 87.2195 118.386C93.4776 107.906 93.0018 99.847 94.9352 88.1439C95.3026 85.9755 95.9772 83.8614 98.2781 82.1809C100.356 80.4231 102.873 79.2652 105.56 78.832C107.88 78.0273 110.363 77.808 112.788 78.1935C117.962 79.1331 122.606 84.3312 126.413 87.6319C130.219 90.9326 131.906 94.2936 131.833 99.4434C131.791 106.605 131.472 113.761 131.255 120.916Z" fill="#263238"/>
<path d="M132.188 126.024C131.863 116.23 131.339 106.467 130.881 96.6848C130.881 96.6246 130.791 96.6185 130.791 96.6848C130.93 104.744 130.966 112.797 131.213 120.856C131.454 128.752 132.243 136.854 131.815 144.75C130.803 162.464 112.065 168.283 97.0851 166.271C96.4044 166.181 96.3382 167.277 97.0309 167.343C110.234 168.698 126.364 165.38 131.454 151.303C134.218 143.6 132.459 134.041 132.188 126.024Z" fill="#263238"/>
<path d="M95.9049 87.2825C95.8979 87.2485 95.8795 87.2179 95.8526 87.1959C95.8257 87.1739 95.792 87.1619 95.7573 87.1619C95.7225 87.1619 95.6889 87.1739 95.662 87.1959C95.6351 87.2179 95.6166 87.2485 95.6097 87.2825C94.4051 96.9799 93.9533 108.364 87.7795 116.447C84.7263 120.4 80.5507 123.339 75.7993 124.88C72.0348 126.084 68.1498 125.922 64.2709 126.385C49.1164 128.192 47.4058 148.34 57.6935 157.031C57.9043 157.212 58.2296 156.851 58.0188 156.652C50.8451 149.984 49.1646 138.727 56.013 131.077C61.5062 124.94 70.9506 127.741 78.0339 124.741C92.7125 118.525 95.1279 101.431 95.9049 87.2825Z" fill="#263238"/>
<path d="M97.4641 128.62C81.7254 144.575 61.9271 178.143 65.6133 184.943C69.7272 192.526 91.6457 170.156 91.5614 168.849C91.4951 167.861 99.2109 147.473 105.059 132.643C110.908 117.814 101.361 124.651 97.4641 128.62Z" fill="#F7A9A0"/>
<path d="M91.7061 168.849C92.3807 166.669 102.873 139.787 105.873 131.282C108.872 122.777 106.09 120.151 97.5246 127.939C88.9596 135.727 70.1791 161.736 65.8966 175.523C61.7647 188.822 68.6131 188.822 77.6479 182.69C85.0445 177.697 91.7061 168.849 91.7061 168.849Z" fill="#172090"/>
<path d="M106.999 126.693C106.999 126.849 106.969 127.006 106.945 127.174C106.894 127.247 106.826 127.307 106.748 127.347C106.669 127.388 106.581 127.41 106.493 127.409C106.395 127.409 106.298 127.382 106.215 127.331C106.131 127.28 106.063 127.206 106.018 127.119C105.973 127.032 105.953 126.934 105.959 126.836C105.966 126.738 106 126.644 106.056 126.564C106.113 126.484 106.19 126.421 106.28 126.382C106.37 126.343 106.469 126.329 106.566 126.342C106.664 126.355 106.755 126.395 106.832 126.457C106.908 126.519 106.966 126.6 106.999 126.693ZM89.1399 137.944C89.0322 137.943 88.9265 137.974 88.8365 138.033C88.7464 138.092 88.676 138.176 88.6342 138.276C88.5925 138.375 88.5812 138.485 88.6019 138.59C88.6227 138.696 88.6744 138.793 88.7506 138.869C88.8268 138.945 88.9239 138.997 89.0296 139.018C89.1353 139.039 89.2448 139.027 89.3441 138.986C89.4434 138.944 89.528 138.873 89.5871 138.783C89.6462 138.693 89.6772 138.588 89.676 138.48C89.676 138.338 89.6195 138.201 89.519 138.101C89.4184 138 89.2821 137.944 89.1399 137.944ZM97.8133 137.944C97.7059 137.944 97.6008 137.976 97.5116 138.036C97.4223 138.096 97.3528 138.181 97.312 138.28C97.2711 138.379 97.2607 138.489 97.2821 138.594C97.3036 138.699 97.3558 138.796 97.4322 138.871C97.5086 138.947 97.6058 138.998 97.7113 139.018C97.8169 139.039 97.9261 139.027 98.025 138.985C98.1239 138.943 98.2082 138.873 98.267 138.783C98.3258 138.693 98.3566 138.587 98.3554 138.48C98.3554 138.409 98.3414 138.339 98.3141 138.273C98.2867 138.208 98.2467 138.149 98.1963 138.099C98.1459 138.049 98.0861 138.01 98.0203 137.983C97.9546 137.956 97.8842 137.943 97.8133 137.944ZM93.4766 132.384C93.3692 132.384 93.2641 132.416 93.1748 132.476C93.0856 132.536 93.0161 132.621 92.9752 132.721C92.9344 132.82 92.924 132.929 92.9454 133.035C92.9668 133.14 93.0191 133.236 93.0955 133.312C93.1719 133.388 93.2691 133.439 93.3746 133.459C93.4802 133.479 93.5893 133.468 93.6883 133.426C93.7872 133.384 93.8715 133.313 93.9303 133.223C93.9891 133.133 94.0199 133.028 94.0187 132.921C94.0187 132.85 94.0046 132.779 93.9773 132.714C93.95 132.649 93.91 132.589 93.8596 132.539C93.8092 132.489 93.7493 132.45 93.6836 132.424C93.6179 132.397 93.5475 132.384 93.4766 132.384ZM102.156 132.384C102.048 132.383 101.943 132.414 101.853 132.473C101.763 132.532 101.692 132.617 101.65 132.716C101.609 132.816 101.597 132.925 101.618 133.031C101.639 133.137 101.691 133.234 101.767 133.31C101.843 133.386 101.94 133.438 102.046 133.458C102.152 133.479 102.261 133.468 102.36 133.426C102.46 133.384 102.544 133.314 102.603 133.224C102.662 133.134 102.693 133.028 102.692 132.921C102.692 132.778 102.636 132.642 102.535 132.541C102.435 132.441 102.298 132.384 102.156 132.384ZM80.4725 149.551C80.3648 149.549 80.2591 149.58 80.1691 149.639C80.079 149.699 80.0086 149.783 79.9668 149.883C79.925 149.982 79.9138 150.091 79.9345 150.197C79.9552 150.303 80.007 150.4 80.0832 150.476C80.1593 150.552 80.2565 150.604 80.3622 150.625C80.4679 150.645 80.5774 150.634 80.6767 150.592C80.776 150.551 80.8606 150.48 80.9197 150.39C80.9788 150.3 81.0097 150.194 81.0085 150.087C81.0085 150.016 80.9945 149.946 80.9672 149.88C80.9399 149.815 80.8998 149.755 80.8494 149.706C80.799 149.656 80.7392 149.616 80.6734 149.59C80.6077 149.563 80.5374 149.55 80.4664 149.551H80.4725ZM89.1459 149.551C89.0382 149.549 88.9326 149.58 88.8425 149.639C88.7524 149.699 88.682 149.783 88.6403 149.883C88.5985 149.982 88.5872 150.091 88.608 150.197C88.6287 150.303 88.6804 150.4 88.7566 150.476C88.8328 150.552 88.9299 150.604 89.0356 150.625C89.1414 150.645 89.2509 150.634 89.3501 150.592C89.4494 150.551 89.534 150.48 89.5931 150.39C89.6522 150.3 89.6832 150.194 89.682 150.087C89.682 150.016 89.6679 149.946 89.6406 149.88C89.6133 149.815 89.5733 149.755 89.5228 149.706C89.4724 149.656 89.4126 149.616 89.3469 149.59C89.2812 149.563 89.2108 149.55 89.1399 149.551H89.1459ZM97.8194 149.551C97.7119 149.551 97.6068 149.583 97.5176 149.642C97.4283 149.702 97.3588 149.787 97.318 149.887C97.2771 149.986 97.2668 150.095 97.2882 150.201C97.3096 150.306 97.3618 150.403 97.4382 150.478C97.5146 150.554 97.6118 150.605 97.7173 150.625C97.8229 150.645 97.9321 150.634 98.031 150.592C98.13 150.55 98.2142 150.479 98.273 150.39C98.3319 150.3 98.3626 150.194 98.3615 150.087C98.3615 150.015 98.3472 149.945 98.3195 149.879C98.2918 149.813 98.2513 149.753 98.2002 149.703C98.1491 149.653 98.0886 149.614 98.0222 149.588C97.9558 149.562 97.8847 149.549 97.8133 149.551H97.8194ZM84.8092 143.991C84.7015 143.99 84.5958 144.021 84.5058 144.08C84.4157 144.139 84.3453 144.224 84.3035 144.323C84.2618 144.422 84.2505 144.532 84.2712 144.638C84.292 144.743 84.3437 144.84 84.4199 144.917C84.4961 144.993 84.5932 145.045 84.6989 145.065C84.8046 145.086 84.9141 145.075 85.0134 145.033C85.1127 144.991 85.1973 144.921 85.2564 144.831C85.3155 144.741 85.3465 144.635 85.3453 144.527C85.3453 144.456 85.3312 144.386 85.3039 144.321C85.2766 144.255 85.2365 144.196 85.1861 144.146C85.1357 144.096 85.0759 144.057 85.0102 144.03C84.9444 144.004 84.8741 143.99 84.8032 143.991H84.8092ZM93.4826 143.991C93.3752 143.991 93.2701 144.023 93.1809 144.083C93.0916 144.143 93.0221 144.228 92.9813 144.327C92.9404 144.427 92.93 144.536 92.9515 144.641C92.9729 144.747 93.0251 144.843 93.1015 144.919C93.1779 144.994 93.2751 145.045 93.3806 145.066C93.4862 145.086 93.5954 145.074 93.6943 145.032C93.7932 144.99 93.8775 144.92 93.9363 144.83C93.9951 144.74 94.0259 144.635 94.0247 144.527C94.0248 144.456 94.0105 144.385 93.9828 144.319C93.9551 144.253 93.9145 144.194 93.8635 144.144C93.8124 144.094 93.7519 144.055 93.6855 144.029C93.619 144.002 93.548 143.99 93.4766 143.991H93.4826ZM80.4664 161.145C80.3587 161.144 80.2531 161.175 80.163 161.234C80.073 161.293 80.0026 161.378 79.9608 161.477C79.919 161.577 79.9078 161.686 79.9285 161.792C79.9492 161.897 80.001 161.995 80.0771 162.071C80.1533 162.147 80.2505 162.199 80.3562 162.219C80.4619 162.24 80.5714 162.229 80.6707 162.187C80.77 162.145 80.8546 162.075 80.9137 161.985C80.9728 161.895 81.0037 161.789 81.0025 161.681C81.0025 161.539 80.946 161.403 80.8455 161.302C80.745 161.202 80.6086 161.145 80.4664 161.145ZM89.1399 161.145C89.0322 161.144 88.9265 161.175 88.8365 161.234C88.7464 161.293 88.676 161.378 88.6342 161.477C88.5925 161.577 88.5812 161.686 88.6019 161.792C88.6227 161.897 88.6744 161.995 88.7506 162.071C88.8268 162.147 88.9239 162.199 89.0296 162.219C89.1353 162.24 89.2448 162.229 89.3441 162.187C89.4434 162.145 89.528 162.075 89.5871 161.985C89.6462 161.895 89.6772 161.789 89.676 161.681C89.676 161.539 89.6195 161.403 89.519 161.302C89.4184 161.202 89.2821 161.145 89.1399 161.145ZM76.1297 155.598C76.0223 155.598 75.9172 155.63 75.8279 155.69C75.7387 155.75 75.6692 155.835 75.6283 155.934C75.5875 156.033 75.5771 156.143 75.5985 156.248C75.6199 156.353 75.6722 156.45 75.7486 156.526C75.825 156.601 75.9222 156.652 76.0277 156.672C76.1333 156.693 76.2424 156.681 76.3414 156.639C76.4403 156.597 76.5246 156.527 76.5834 156.437C76.6422 156.347 76.673 156.242 76.6718 156.134C76.6718 156.063 76.6578 155.993 76.6304 155.928C76.6031 155.862 76.5631 155.803 76.5127 155.753C76.4623 155.703 76.4025 155.664 76.3367 155.637C76.271 155.61 76.2006 155.597 76.1297 155.598ZM84.8092 155.598C84.7015 155.597 84.5958 155.628 84.5058 155.687C84.4157 155.746 84.3453 155.831 84.3035 155.93C84.2618 156.029 84.2505 156.139 84.2712 156.244C84.292 156.35 84.3437 156.447 84.4199 156.523C84.4961 156.6 84.5932 156.651 84.6989 156.672C84.8046 156.693 84.9141 156.681 85.0134 156.64C85.1127 156.598 85.1973 156.528 85.2564 156.437C85.3155 156.347 85.3465 156.242 85.3453 156.134C85.3453 156.063 85.3312 155.993 85.3039 155.928C85.2766 155.862 85.2365 155.803 85.1861 155.753C85.1357 155.703 85.0759 155.664 85.0102 155.637C84.9444 155.61 84.8741 155.597 84.8032 155.598H84.8092ZM93.4826 155.598C93.3752 155.598 93.2701 155.63 93.1809 155.69C93.0916 155.75 93.0221 155.835 92.9813 155.934C92.9404 156.033 92.93 156.143 92.9515 156.248C92.9729 156.353 93.0251 156.45 93.1015 156.526C93.1779 156.601 93.2751 156.652 93.3806 156.672C93.4862 156.693 93.5954 156.681 93.6943 156.639C93.7932 156.597 93.8775 156.527 93.9363 156.437C93.9951 156.347 94.0259 156.242 94.0247 156.134C94.0248 156.063 94.0105 155.992 93.9828 155.926C93.9551 155.86 93.9145 155.801 93.8635 155.751C93.8124 155.701 93.7519 155.662 93.6855 155.635C93.619 155.609 93.548 155.596 93.4766 155.598H93.4826ZM71.799 172.764C71.6933 172.765 71.5902 172.798 71.5029 172.857C71.4155 172.917 71.3477 173.001 71.3081 173.099C71.2684 173.197 71.2587 173.305 71.28 173.408C71.3014 173.512 71.3529 173.607 71.4281 173.681C71.5033 173.756 71.5988 173.806 71.7027 173.826C71.8065 173.847 71.914 173.836 72.0116 173.795C72.1092 173.754 72.1925 173.685 72.2512 173.597C72.3098 173.509 72.3411 173.406 72.3411 173.3C72.3412 173.228 72.3267 173.157 72.2987 173.091C72.2706 173.025 72.2295 172.965 72.1778 172.915C72.1261 172.865 72.0648 172.826 71.9977 172.8C71.9305 172.774 71.8589 172.762 71.787 172.764H71.799ZM80.4785 172.764C80.3725 172.764 80.2688 172.796 80.1807 172.855C80.0925 172.913 80.0238 172.997 79.9832 173.095C79.9427 173.193 79.932 173.301 79.9527 173.405C79.9734 173.509 80.0245 173.604 80.0994 173.679C80.1744 173.754 80.2699 173.805 80.3739 173.826C80.4779 173.847 80.5857 173.836 80.6836 173.796C80.7816 173.755 80.8653 173.686 80.9242 173.598C80.9831 173.51 81.0146 173.406 81.0146 173.3C81.0146 173.229 81.0003 173.158 80.9726 173.092C80.9449 173.026 80.9044 172.967 80.8533 172.917C80.8023 172.867 80.7417 172.828 80.6753 172.801C80.6089 172.775 80.5379 172.763 80.4664 172.764H80.4785ZM76.1297 167.205C76.0223 167.205 75.9172 167.237 75.8279 167.297C75.7387 167.356 75.6692 167.441 75.6283 167.541C75.5875 167.64 75.5771 167.749 75.5985 167.855C75.6199 167.96 75.6722 168.057 75.7486 168.132C75.825 168.208 75.9222 168.259 76.0277 168.279C76.1333 168.299 76.2424 168.288 76.3414 168.246C76.4403 168.204 76.5246 168.134 76.5834 168.044C76.6422 167.954 76.673 167.848 76.6718 167.741C76.6718 167.67 76.6578 167.6 76.6304 167.534C76.6031 167.469 76.5631 167.409 76.5127 167.36C76.4623 167.31 76.4025 167.27 76.3367 167.244C76.271 167.217 76.2006 167.204 76.1297 167.205ZM84.8092 167.205C84.7015 167.204 84.5958 167.234 84.5058 167.294C84.4157 167.353 84.3453 167.437 84.3035 167.537C84.2618 167.636 84.2505 167.745 84.2712 167.851C84.292 167.957 84.3437 168.054 84.4199 168.13C84.4961 168.206 84.5932 168.258 84.6989 168.279C84.8046 168.299 84.9141 168.288 85.0134 168.246C85.1127 168.205 85.1973 168.134 85.2564 168.044C85.3155 167.954 85.3465 167.849 85.3453 167.741C85.3453 167.67 85.3312 167.6 85.3039 167.534C85.2766 167.469 85.2365 167.409 85.1861 167.36C85.1357 167.31 85.0759 167.27 85.0102 167.244C84.9444 167.217 84.8741 167.204 84.8032 167.205H84.8092ZM71.793 184.371C71.6872 184.372 71.5842 184.405 71.4968 184.464C71.4095 184.524 71.3417 184.608 71.3021 184.706C71.2624 184.804 71.2526 184.912 71.274 185.015C71.2954 185.119 71.3469 185.214 71.4221 185.288C71.4973 185.362 71.5928 185.413 71.6966 185.433C71.8005 185.453 71.9079 185.442 72.0055 185.402C72.1031 185.361 72.1865 185.292 72.2452 185.204C72.3038 185.116 72.3351 185.013 72.3351 184.907C72.3351 184.836 72.3209 184.765 72.2932 184.699C72.2655 184.633 72.2249 184.574 72.1739 184.524C72.1228 184.474 72.0623 184.434 71.9958 184.408C71.9294 184.382 71.8584 184.369 71.787 184.371H71.793ZM67.4563 178.811C67.3486 178.81 67.2429 178.841 67.1529 178.9C67.0628 178.959 66.9924 179.044 66.9506 179.143C66.9089 179.243 66.8976 179.352 66.9183 179.458C66.9391 179.564 66.9908 179.661 67.067 179.737C67.1432 179.813 67.2403 179.865 67.346 179.886C67.4517 179.906 67.5612 179.895 67.6605 179.853C67.7598 179.811 67.8444 179.741 67.9035 179.651C67.9626 179.561 67.9935 179.455 67.9924 179.348C67.9924 179.277 67.9783 179.206 67.951 179.141C67.9237 179.076 67.8836 179.016 67.8332 178.966C67.7828 178.917 67.723 178.877 67.6573 178.851C67.5915 178.824 67.5212 178.811 67.4503 178.811H67.4563ZM76.1297 178.811C76.0223 178.811 75.9172 178.843 75.8279 178.903C75.7387 178.963 75.6692 179.048 75.6283 179.148C75.5875 179.247 75.5771 179.356 75.5985 179.462C75.6199 179.567 75.6722 179.663 75.7486 179.739C75.825 179.815 75.9222 179.866 76.0277 179.886C76.1333 179.906 76.2424 179.895 76.3414 179.853C76.4403 179.811 76.5246 179.74 76.5834 179.65C76.6422 179.56 76.673 179.455 76.6718 179.348C76.6718 179.277 76.6578 179.206 76.6304 179.141C76.6031 179.076 76.5631 179.016 76.5127 178.966C76.4623 178.917 76.4025 178.877 76.3367 178.851C76.271 178.824 76.2006 178.811 76.1297 178.811Z" fill="white"/>
<path d="M85.4844 193.273L87.0564 183.847L89.3151 167.12C89.3151 167.12 83.9966 157.833 87.0805 151.171C88.6405 147.792 102.307 126.813 108.053 122.597C113.474 118.676 121.305 122.874 124.208 125.94C135.447 137.769 140.747 161.26 144.783 193.255L85.4844 193.273Z" fill="#F7A9A0"/>
<path d="M87.4534 180.889L89.3146 167.126C89.3146 167.126 83.9961 157.839 87.08 151.171C88.64 147.792 102.307 126.813 108.053 122.597C113.474 118.682 121.304 122.874 124.207 125.946C133.941 136.185 139.223 155.182 143.084 180.871L87.4534 180.889Z" fill="#172090"/>
<path d="M110.523 166.843C107.899 166.613 105.261 166.579 102.632 166.741C101.331 166.837 100.036 166.994 98.7414 167.181C98.097 167.271 97.4525 167.343 96.802 167.409C96.126 167.494 95.4421 167.494 94.7661 167.409C94.7588 167.407 94.751 167.406 94.7433 167.407C94.7356 167.408 94.7282 167.411 94.7218 167.415C94.7155 167.42 94.7102 167.425 94.7066 167.432C94.703 167.439 94.7012 167.447 94.7012 167.455C94.7012 167.462 94.703 167.47 94.7066 167.477C94.7102 167.484 94.7155 167.49 94.7218 167.494C94.7282 167.499 94.7356 167.501 94.7433 167.502C94.751 167.503 94.7588 167.503 94.7661 167.5C95.395 167.645 96.0329 167.747 96.6755 167.807C97.2992 167.849 97.925 167.849 98.5487 167.807C99.8738 167.723 101.193 167.572 102.518 167.476C105.186 167.271 107.855 167.072 110.535 167.06C110.564 167.059 110.591 167.046 110.61 167.024C110.629 167.003 110.639 166.974 110.637 166.946C110.636 166.917 110.623 166.89 110.601 166.871C110.58 166.852 110.552 166.842 110.523 166.843Z" fill="#263238"/>
<path d="M116.486 170.265C114.399 169.663 112.279 169.18 110.137 168.819C109.065 168.638 107.993 168.53 106.909 168.439C106.391 168.397 105.873 168.367 105.355 168.343C104.837 168.319 104.21 168.343 103.638 168.343C103.578 168.343 103.56 168.427 103.638 168.433C104.174 168.488 104.704 168.626 105.234 168.711L106.836 168.951C107.909 169.114 108.981 169.289 110.053 169.445C112.197 169.753 114.335 170.078 116.468 170.457C116.582 170.463 116.606 170.295 116.486 170.265Z" fill="#263238"/>
<path d="M87.0557 183.847C87.3569 181.052 87.658 178.251 88.0134 175.463C88.3688 172.674 88.676 169.873 89.0494 167.084L89.1036 167.283C88.304 166.145 87.6466 164.913 87.1461 163.615C86.6327 162.328 86.261 160.989 86.0378 159.622C85.821 158.249 85.7604 156.857 85.8571 155.471C86.0134 154.088 86.3579 152.732 86.881 151.442C87.9223 148.909 89.2157 146.488 90.7419 144.214C92.2314 141.923 93.8566 139.722 95.6087 137.625C93.9884 139.817 92.4706 142.088 91.0491 144.407C89.6162 146.704 88.3887 149.122 87.381 151.635C86.8857 152.879 86.5654 154.187 86.4293 155.52C86.354 156.858 86.4206 158.201 86.6281 159.525C86.8325 160.854 87.182 162.157 87.6701 163.41C88.1403 164.666 88.7633 165.86 89.5252 166.964L89.5855 167.054V167.157C89.212 169.945 88.7723 172.722 88.3808 175.511C87.9893 178.3 87.5074 181.07 87.0557 183.847Z" fill="#263238"/>
<path d="M91.0498 144.202C91.0816 143.827 91.1563 143.457 91.2727 143.1C91.3826 142.743 91.5133 142.393 91.6642 142.052C91.8147 141.714 91.9714 141.377 92.1521 141.052C92.332 140.724 92.5332 140.408 92.7544 140.106C92.5255 140.823 92.2304 141.498 91.9412 142.172C91.6521 142.847 91.3329 143.509 91.0498 144.202Z" fill="#263238"/>
<path d="M42.2436 240.393H196.751L202.51 211.433H36.4854L42.2436 240.393Z" fill="#172090"/>
<path opacity="0.12" d="M36.4912 211.433L38.5512 221.787H200.443L202.503 211.433H36.4912Z" fill="black"/>
<path d="M33.5939 218.233L205.4 218.233V209.421L33.5939 209.421V218.233Z" fill="#172090"/>
<path d="M203.455 206.639C202.93 207.153 202.267 207.503 201.546 207.645C201.894 208.521 201.965 209.482 201.75 210.4C201.534 211.317 201.042 212.147 200.341 212.776C200.544 213.233 200.611 213.739 200.534 214.234C200.456 214.728 200.237 215.189 199.904 215.562C199.571 215.935 199.137 216.203 198.654 216.335C198.172 216.467 197.662 216.457 197.185 216.306C196.76 217.106 196.173 217.808 195.46 218.367C194.748 218.926 193.926 219.329 193.048 219.551C192.17 219.773 191.256 219.808 190.363 219.655C189.471 219.502 188.62 219.163 187.867 218.661C187.468 219.373 186.9 219.975 186.212 220.414C185.525 220.853 184.74 221.116 183.927 221.179C183.113 221.242 182.297 221.104 181.55 220.776C180.803 220.448 180.149 219.941 179.645 219.3C178.087 220.43 176.169 220.951 174.254 220.763C172.338 220.576 170.558 219.693 169.249 218.282C168.526 218.948 167.611 219.369 166.635 219.486C165.43 219.691 164.165 219.553 162.985 219.836C161.31 220.239 160.305 221.444 159.01 222.45C157.715 223.456 155.396 223.835 154.149 222.811C152.798 225.204 150.881 227.23 148.566 228.709C146.25 230.189 143.607 231.078 140.868 231.298C136.163 231.659 130.303 229.413 129.189 224.594C128 225.621 126.582 226.348 125.055 226.715C123.528 227.082 121.935 227.079 120.41 226.705C118.884 226.331 117.47 225.598 116.285 224.567C115.101 223.535 114.18 222.235 113.6 220.775C109.908 222.317 105.126 223.347 102.759 219.787C101.765 220.935 100.382 221.676 98.8761 221.867C97.3699 222.058 95.8462 221.687 94.5972 220.823C90.8387 224.805 84.0987 229.611 79.6535 224.347C75.8469 227.762 69.4924 230.015 66.2157 224.949C63.0294 226.823 58.9879 228.509 55.4823 226.666C53.1694 225.461 51.6757 222.992 52.0551 220.468C51.1581 220.637 50.2313 220.538 49.3897 220.185C48.5481 219.831 47.8288 219.239 47.3209 218.48C45.8151 219.197 44.9598 217.625 43.7732 216.619C41.4904 214.662 38.4727 216.089 36.0936 214.415C32.2387 211.71 35.5515 207.386 38.6414 205.982C38.5002 205.006 38.603 204.01 38.9408 203.083C39.2786 202.157 39.8408 201.328 40.577 200.672C41.3133 200.016 42.2008 199.552 43.16 199.322C44.1193 199.093 45.1205 199.105 46.0741 199.357C45.8499 197.837 46.0926 196.285 46.7703 194.906C47.4479 193.527 48.5284 192.386 49.8687 191.635C53.9765 189.322 58.7469 191.34 61.7585 194.484C63.246 192.223 65.3002 190.393 67.7163 189.174C70.1323 187.955 72.8257 187.392 75.5276 187.539C78.8886 187.72 83.3578 189.695 84.9841 192.828C86.0915 192.191 87.287 191.722 88.5318 191.436C90.8757 190.887 93.3257 190.996 95.6117 191.751C97.8977 192.505 99.9311 193.876 101.488 195.713C103.479 194.977 105.633 194.801 107.717 195.202C109.801 195.603 111.736 196.567 113.311 197.989C114.28 196.644 115.567 195.558 117.056 194.83C118.546 194.102 120.193 193.753 121.85 193.816C123.507 193.879 125.123 194.35 126.554 195.189C127.985 196.027 129.186 197.207 130.05 198.622C131.63 196.78 133.61 195.324 135.838 194.363C138.067 193.403 140.485 192.964 142.909 193.08C145.333 193.196 147.698 193.865 149.824 195.034C151.951 196.203 153.782 197.842 155.179 199.827C158.13 194.604 164.081 194.303 169.785 194.942C171.592 195.134 172.797 195.122 174.435 194.369C175.037 194.098 175.555 193.707 176.152 193.448C177.395 192.894 178.722 192.552 180.079 192.436C182.809 192.196 185.548 192.783 187.939 194.123C188.993 194.725 190.071 196.243 191.083 196.658C192.354 197.176 194.697 196.435 196.161 196.628C198.787 196.984 201.582 198.218 203.286 200.332C204.738 202.2 205.34 204.874 203.455 206.639Z" fill="#455A64"/>
<path d="M54.3266 204.187C55.5312 201.688 54.3266 197.218 51.1765 195.935C48.0263 194.653 43.7378 197.086 43.0391 199.839C42.3404 202.591 45.352 207.193 47.8215 207.524C50.5802 207.874 53.4352 206.024 54.3266 204.187Z" fill="#172090"/>
<path opacity="0.12" d="M41.7191 200.501C43.9537 202.416 47.664 204.115 50.6997 203.989C49.5125 205.454 48.1627 206.779 46.6762 207.94C46.5919 208.012 46.6762 208.169 46.7907 208.102C50.2721 205.783 53.6993 201.591 53.8499 197.261C53.8499 197.2 53.7716 197.2 53.7655 197.261C53.6179 198.475 53.2742 199.656 52.7476 200.76C51.543 198.17 48.1338 196.225 45.5198 195.61C45.503 195.605 45.4847 195.606 45.4689 195.614C45.453 195.622 45.441 195.636 45.4354 195.652C45.4298 195.669 45.4311 195.687 45.439 195.703C45.447 195.719 45.4608 195.731 45.4776 195.737C46.2775 196.06 47.0596 196.426 47.8206 196.833C46.3751 198.11 45.2849 200.597 45.6101 202.507C44.2911 201.918 43.0392 201.189 41.8757 200.332C41.7974 200.242 41.6167 200.417 41.7191 200.501ZM50.8322 203.838C49.582 203.752 48.3486 203.5 47.1641 203.091C48.9535 203.193 50.7292 202.725 52.2357 201.754C51.8176 202.481 51.3486 203.177 50.8322 203.838ZM52.6392 200.959C52.5428 201.158 52.4404 201.35 52.332 201.561C51.1557 202.158 49.8835 202.544 48.5735 202.7C49.8178 201.918 50.7882 200.769 51.3502 199.411C51.8257 199.887 52.2572 200.405 52.6392 200.959ZM51.278 199.321C50.7988 200.167 50.2183 200.952 49.5493 201.658C49.3023 201.603 49.0614 201.531 48.8205 201.453C49.2095 201.161 49.5223 200.78 49.7321 200.342C49.9418 199.903 50.0424 199.421 50.0251 198.935C50.3624 198.977 50.7058 199.037 51.0551 199.11L51.278 199.321ZM48.7121 198.863C48.822 199.038 48.911 199.226 48.9771 199.423C49.0322 199.666 49.0545 199.915 49.0433 200.164C48.6422 200.221 48.234 200.205 47.8387 200.116C47.9304 199.699 48.0699 199.295 48.2543 198.911C48.423 198.875 48.5615 198.869 48.7121 198.863ZM48.9349 198.863C49.2711 198.862 49.6071 198.882 49.9408 198.923C49.8533 199.325 49.7241 199.716 49.5553 200.092L49.0915 200.158C49.1633 199.944 49.1865 199.717 49.1594 199.493C49.1323 199.269 49.0557 199.053 48.9349 198.863ZM49.483 200.23C49.2581 200.661 48.9559 201.047 48.5916 201.368C48.3718 201.281 48.1567 201.183 47.9471 201.073C47.8362 200.811 47.7927 200.525 47.8206 200.242C48.0813 200.363 48.3657 200.425 48.6532 200.423C48.9407 200.421 49.2242 200.355 49.483 200.23ZM47.917 196.875C48.9455 197.428 49.9074 198.097 50.7841 198.869C49.4205 198.418 47.9362 198.504 46.6341 199.11C46.9562 198.309 47.388 197.557 47.917 196.875ZM46.5618 199.284C47.0702 199.091 47.6001 198.96 48.1399 198.893C47.9054 199.164 47.7415 199.489 47.6627 199.839C47.5839 200.189 47.5927 200.553 47.6881 200.899C47.1875 200.606 46.743 200.227 46.3751 199.778C46.4353 199.622 46.5015 199.459 46.5618 199.296V199.284ZM46.2847 200.043C46.673 200.523 47.1534 200.919 47.6976 201.21C48.2417 201.501 48.8386 201.68 49.4529 201.736C49.1032 202.093 48.7222 202.417 48.3145 202.706C47.7845 202.778 47.2364 202.826 46.6582 202.88C46.363 202.766 46.0558 202.651 45.7727 202.525C45.8645 201.687 46.0359 200.86 46.2847 200.055V200.043Z" fill="black"/>
<path d="M106.963 203.254C108.168 200.748 106.963 196.285 103.813 194.996C100.663 193.707 96.3684 196.152 95.6697 198.899C94.971 201.645 97.9887 206.259 100.488 206.579C103.235 206.922 106.072 205.115 106.963 203.254Z" fill="#172090"/>
<path opacity="0.12" d="M94.3564 199.568C96.591 201.477 100.295 203.181 103.337 203.055C102.15 204.52 100.8 205.846 99.3135 207.006C99.2292 207.079 99.3135 207.229 99.4279 207.169C102.909 204.85 106.337 200.652 106.487 196.327C106.487 196.316 106.483 196.305 106.475 196.297C106.467 196.289 106.456 196.285 106.445 196.285C106.434 196.285 106.423 196.289 106.415 196.297C106.407 196.305 106.403 196.316 106.403 196.327C106.254 197.541 105.911 198.723 105.385 199.827C104.18 197.237 100.771 195.291 98.157 194.677C98.1403 194.671 98.122 194.672 98.1061 194.68C98.0903 194.688 98.0783 194.702 98.0727 194.719C98.0671 194.736 98.0684 194.754 98.0763 194.77C98.0842 194.786 98.0981 194.798 98.1149 194.803C98.9153 195.125 99.6975 195.491 100.458 195.899C99.0123 197.176 97.9221 199.658 98.2474 201.567C96.9274 200.982 95.6752 200.255 94.513 199.399C94.4046 199.309 94.254 199.477 94.3564 199.568ZM103.457 202.904C102.207 202.816 100.973 202.563 99.7893 202.152C101.578 202.26 103.353 201.792 104.855 200.814C104.443 201.545 103.975 202.244 103.457 202.904ZM105.264 200.025C105.168 200.224 105.066 200.417 104.957 200.628C103.781 201.225 102.509 201.61 101.199 201.766C102.443 200.984 103.413 199.835 103.975 198.477C104.458 198.95 104.894 199.469 105.276 200.025H105.264ZM103.897 198.381C103.424 199.231 102.845 200.019 102.175 200.724C101.928 200.669 101.684 200.598 101.446 200.513C101.835 200.222 102.148 199.841 102.357 199.402C102.567 198.964 102.668 198.481 102.65 197.995C102.988 198.036 103.331 198.096 103.68 198.176L103.897 198.381ZM101.337 197.929C101.445 198.106 101.533 198.294 101.602 198.489C101.658 198.732 101.68 198.981 101.669 199.23C101.267 199.285 100.859 199.267 100.464 199.176C100.557 198.76 100.697 198.356 100.88 197.971C101.048 197.941 101.199 197.929 101.349 197.929H101.337ZM101.56 197.929C101.896 197.931 102.232 197.952 102.566 197.989C102.48 198.393 102.349 198.785 102.175 199.158C102.024 199.158 101.867 199.212 101.717 199.23C101.791 199.015 101.816 198.787 101.791 198.56C101.766 198.334 101.692 198.117 101.572 197.923L101.56 197.929ZM102.108 199.303C101.882 199.732 101.58 200.118 101.217 200.441C100.997 200.354 100.782 200.255 100.572 200.146C100.462 199.883 100.418 199.598 100.446 199.315C100.709 199.437 100.995 199.499 101.285 199.496C101.575 199.492 101.86 199.424 102.12 199.297L102.108 199.303ZM100.542 195.948C101.571 196.499 102.532 197.166 103.409 197.935C102.045 197.486 100.561 197.574 99.2593 198.182C99.5847 197.379 100.021 196.625 100.554 195.942L100.542 195.948ZM99.187 198.357C99.6946 198.161 100.225 198.029 100.765 197.965C100.531 198.237 100.367 198.562 100.288 198.912C100.209 199.262 100.218 199.625 100.313 199.971C99.8183 199.678 99.3797 199.299 99.0184 198.851L99.187 198.357ZM98.9099 199.116C99.2992 199.594 99.7798 199.99 100.324 200.281C100.868 200.571 101.464 200.751 102.078 200.808C101.727 201.163 101.346 201.488 100.94 201.778C100.41 201.844 99.8616 201.899 99.2834 201.947H99.2533C98.9581 201.838 98.6509 201.724 98.3678 201.597C98.4723 200.756 98.6578 199.927 98.922 199.122L98.9099 199.116Z" fill="black"/>
<path d="M147.126 214.607C149.848 214.005 152.625 210.325 151.715 207.06C150.806 203.796 146.24 201.886 143.638 203.019C141.036 204.151 139.247 209.361 140.512 211.518C141.922 213.909 145.132 215.029 147.126 214.607Z" fill="#172090"/>
<path opacity="0.12" d="M142.307 202.392C142.169 205.326 143.102 209.295 145.06 211.62C143.176 211.579 141.303 211.327 139.476 210.867C139.362 210.867 139.308 211.024 139.416 211.06C143.379 212.385 148.794 212.517 152.318 209.982C152.323 209.973 152.326 209.964 152.326 209.954C152.325 209.944 152.322 209.935 152.316 209.927C152.31 209.919 152.302 209.913 152.293 209.91C152.283 209.907 152.273 209.907 152.264 209.909C151.214 210.539 150.069 210.992 148.873 211.253C150.198 208.729 149.626 204.826 148.511 202.386C148.506 202.37 148.494 202.356 148.478 202.348C148.462 202.34 148.444 202.339 148.427 202.344C148.41 202.35 148.396 202.362 148.388 202.378C148.38 202.394 148.379 202.412 148.385 202.429C148.632 203.258 148.833 204.101 148.987 204.952C147.09 204.591 144.464 205.259 143.151 206.687C142.798 205.285 142.596 203.849 142.548 202.404C142.542 202.266 142.313 202.254 142.307 202.392ZM145.253 211.626C144.557 210.585 144 209.457 143.596 208.271C144.609 209.748 146.067 210.863 147.758 211.451C146.928 211.57 146.091 211.628 145.253 211.626ZM148.644 211.295C148.427 211.343 148.21 211.379 147.993 211.409C146.799 210.848 145.714 210.079 144.789 209.138C146.169 209.643 147.672 209.706 149.089 209.319C149.003 209.99 148.854 210.652 148.644 211.295ZM149.102 209.211C148.141 209.355 147.165 209.379 146.198 209.283C146.089 209.054 145.994 208.819 145.915 208.578C146.384 208.705 146.876 208.716 147.35 208.611C147.824 208.506 148.266 208.288 148.638 207.976C148.814 208.273 148.977 208.58 149.126 208.898C149.12 209.006 149.114 209.108 149.102 209.211ZM147.897 206.904C147.823 207.098 147.728 207.284 147.614 207.458C147.462 207.655 147.279 207.826 147.072 207.964C146.783 207.684 146.548 207.353 146.379 206.988C146.763 206.802 147.167 206.661 147.584 206.567L147.897 206.904ZM148.035 207.085C148.241 207.347 148.43 207.623 148.602 207.91C148.234 208.093 147.846 208.232 147.445 208.325L147.102 208C147.315 207.926 147.509 207.806 147.669 207.647C147.83 207.489 147.953 207.297 148.029 207.085H148.035ZM147.295 208.355C146.815 208.446 146.323 208.446 145.843 208.355C145.776 208.13 145.724 207.901 145.686 207.669C145.83 207.418 146.038 207.21 146.289 207.066C146.35 207.342 146.471 207.6 146.644 207.823C146.817 208.046 147.037 208.228 147.289 208.355H147.295ZM148.981 205.061C149.173 206.211 149.234 207.379 149.162 208.542C148.684 207.19 147.705 206.073 146.427 205.422C147.255 205.183 148.113 205.062 148.975 205.061H148.981ZM146.234 205.476C146.702 205.755 147.131 206.093 147.511 206.482C147.153 206.463 146.796 206.533 146.471 206.685C146.146 206.837 145.864 207.068 145.65 207.356C145.576 206.779 145.604 206.194 145.735 205.627L146.234 205.476ZM145.47 205.723C145.328 206.324 145.308 206.947 145.412 207.555C145.515 208.163 145.74 208.745 146.072 209.265C145.576 209.207 145.086 209.104 144.608 208.958C144.229 208.578 143.849 208.181 143.458 207.753C143.361 207.446 143.277 207.151 143.193 206.838C143.912 206.392 144.672 206.017 145.463 205.717L145.47 205.723Z" fill="black"/>
<path d="M188.692 207.97C185.976 207.368 183.193 203.687 184.103 200.423C185.012 197.158 189.578 195.249 192.18 196.387C194.782 197.526 196.571 202.724 195.306 204.88C193.902 207.271 190.686 208.392 188.692 207.97Z" fill="#172090"/>
<path opacity="0.12" d="M193.276 195.767C193.225 197.211 193.023 198.647 192.674 200.049C191.367 198.622 188.735 197.959 186.837 198.315C186.992 197.463 187.193 196.621 187.44 195.791C187.442 195.783 187.444 195.774 187.443 195.765C187.442 195.756 187.44 195.748 187.436 195.74C187.432 195.732 187.427 195.725 187.42 195.72C187.413 195.714 187.406 195.709 187.397 195.707C187.389 195.704 187.38 195.703 187.372 195.703C187.363 195.704 187.354 195.706 187.347 195.71C187.339 195.714 187.332 195.72 187.326 195.726C187.32 195.733 187.316 195.74 187.313 195.749C186.199 198.188 185.633 202.091 186.952 204.615C185.756 204.355 184.61 203.901 183.561 203.272C183.556 203.269 183.551 203.266 183.545 203.265C183.539 203.264 183.534 203.264 183.528 203.265C183.522 203.266 183.517 203.269 183.512 203.272C183.508 203.275 183.504 203.279 183.5 203.284C183.497 203.289 183.495 203.294 183.494 203.299C183.493 203.305 183.493 203.311 183.494 203.316C183.495 203.322 183.497 203.327 183.5 203.332C183.504 203.337 183.508 203.341 183.512 203.344C187.03 205.886 192.445 205.753 196.414 204.422C196.517 204.386 196.462 204.205 196.354 204.236C194.524 204.689 192.649 204.941 190.764 204.988C192.722 202.657 193.662 198.688 193.517 195.755C193.505 195.616 193.276 195.628 193.276 195.767ZM188.06 204.802C189.751 204.213 191.21 203.099 192.222 201.621C191.821 202.808 191.264 203.936 190.566 204.976C189.728 204.983 188.89 204.928 188.06 204.814V204.802ZM186.735 202.669C188.153 203.056 189.655 202.993 191.036 202.489C190.107 203.429 189.02 204.2 187.825 204.766C187.608 204.729 187.391 204.693 187.181 204.645C186.97 204.014 186.821 203.365 186.735 202.706V202.669ZM186.693 202.254C186.849 201.935 187.012 201.652 187.187 201.332C187.558 201.645 188 201.863 188.474 201.968C188.948 202.072 189.44 202.061 189.909 201.935C189.827 202.174 189.733 202.41 189.626 202.639C188.657 202.736 187.68 202.711 186.717 202.567C186.705 202.471 186.705 202.368 186.693 202.266V202.254ZM188.229 199.923C188.645 200.013 189.05 200.152 189.433 200.338C189.262 200.705 189.025 201.038 188.735 201.32C188.53 201.177 188.347 201.004 188.193 200.808C188.078 200.637 187.983 200.453 187.909 200.26C188.024 200.158 188.126 200.043 188.229 199.935V199.923ZM188.723 201.35C188.614 201.465 188.5 201.573 188.385 201.676C187.984 201.583 187.594 201.446 187.223 201.266C187.393 200.977 187.582 200.699 187.789 200.435C187.866 200.649 187.989 200.844 188.151 201.004C188.312 201.165 188.508 201.287 188.723 201.362V201.35ZM189.566 200.405C189.817 200.548 190.025 200.756 190.168 201.007C190.126 201.239 190.072 201.468 190.006 201.694C189.528 201.784 189.038 201.784 188.56 201.694C188.811 201.567 189.03 201.387 189.204 201.166C189.378 200.946 189.501 200.69 189.566 200.417V200.405ZM189.397 198.772C188.12 199.428 187.142 200.546 186.663 201.899C186.59 200.733 186.651 199.563 186.843 198.411C187.708 198.415 188.568 198.541 189.397 198.784V198.772ZM190.09 198.983C190.225 199.547 190.256 200.131 190.18 200.706C189.965 200.418 189.682 200.188 189.356 200.036C189.03 199.885 188.672 199.817 188.313 199.839C188.693 199.447 189.122 199.107 189.59 198.827C189.759 198.893 189.927 198.935 190.09 198.995V198.983ZM192.662 200.188C192.583 200.495 192.493 200.79 192.397 201.103C191.999 201.531 191.626 201.929 191.246 202.308C190.767 202.455 190.275 202.558 189.777 202.615C190.109 202.095 190.333 201.514 190.437 200.905C190.54 200.297 190.521 199.674 190.379 199.074C191.174 199.371 191.938 199.745 192.662 200.188Z" fill="black"/>
<path d="M76.0098 219.197C73.2933 218.625 70.5166 214.915 71.4201 211.65C72.3236 208.386 76.8952 206.476 79.4973 207.615C82.0993 208.753 83.8942 213.957 82.6293 216.107C81.2199 218.505 78.0095 219.625 76.0098 219.197Z" fill="#172090"/>
<path opacity="0.12" d="M80.5931 206.994C80.5487 208.439 80.3468 209.875 79.9908 211.277C78.6838 209.849 76.0576 209.187 74.1603 209.542C74.3054 208.693 74.4964 207.853 74.7325 207.024C74.7389 207.008 74.7384 206.989 74.7311 206.973C74.7237 206.956 74.7102 206.943 74.6934 206.937C74.6766 206.931 74.658 206.931 74.6416 206.938C74.6252 206.946 74.6124 206.959 74.6061 206.976C73.4857 209.416 72.9195 213.325 74.2447 215.842C73.0484 215.583 71.9028 215.129 70.8536 214.499C70.8054 214.499 70.7572 214.541 70.7994 214.571C74.3169 217.113 79.7378 216.981 83.7011 215.65C83.8095 215.613 83.7493 215.439 83.6409 215.463C81.8138 215.922 79.9409 216.175 78.0574 216.216C80.0149 213.885 80.9485 209.915 80.81 206.988C80.822 206.85 80.5992 206.862 80.5931 206.994ZM75.377 216.029C77.0698 215.437 78.5299 214.321 79.5451 212.843C79.1426 214.029 78.5857 215.157 77.8887 216.198C77.0489 216.211 76.2092 216.161 75.377 216.047V216.029ZM74.0519 213.891C75.4689 214.28 76.9717 214.219 78.3525 213.716C77.425 214.657 76.338 215.426 75.1421 215.987L74.4976 215.872C74.2885 215.233 74.1393 214.576 74.0519 213.909V213.891ZM74.0098 213.481C74.1664 213.156 74.329 212.849 74.5037 212.554C74.8753 212.866 75.317 213.084 75.791 213.189C76.265 213.294 76.7574 213.282 77.2262 213.156C77.1454 213.394 77.0508 213.627 76.9431 213.855C75.9763 213.953 75.0011 213.931 74.0399 213.788C74.0218 213.704 74.0218 213.602 74.0098 213.499V213.481ZM75.5276 211.138C75.9439 211.232 76.348 211.374 76.7323 211.56C76.559 211.922 76.3247 212.252 76.0396 212.536C75.8352 212.394 75.6526 212.224 75.4975 212.03C75.3784 211.859 75.2832 211.672 75.2144 211.475C75.3469 211.385 75.4433 211.271 75.5276 211.138ZM76.0215 212.572L75.6842 212.891C75.2831 212.797 74.8934 212.659 74.5217 212.481C74.6965 212.194 74.8875 211.916 75.0939 211.65C75.1685 211.87 75.2925 212.069 75.4565 212.233C75.6205 212.397 75.82 212.521 76.0396 212.596L76.0215 212.572ZM76.8648 211.62C77.1146 211.765 77.3223 211.972 77.4671 212.222C77.4308 212.457 77.3764 212.689 77.3045 212.915C76.8266 213.002 76.3368 213.002 75.8589 212.915C76.1129 212.792 76.3364 212.614 76.5135 212.394C76.6905 212.175 76.8167 211.918 76.8828 211.644L76.8648 211.62ZM76.6961 209.988C75.4207 210.643 74.4445 211.762 73.9676 213.114C73.8955 211.95 73.9561 210.782 74.1483 209.632C75.0235 209.632 75.8941 209.76 76.7323 210.012L76.6961 209.988ZM77.3948 210.199C77.5252 210.765 77.5538 211.351 77.4791 211.927C77.2652 211.638 76.9824 211.406 76.6563 211.254C76.3302 211.101 75.9713 211.032 75.6119 211.054C75.995 210.668 76.4239 210.33 76.8889 210.048L77.3948 210.199ZM79.9607 211.403C79.8824 211.716 79.792 212.005 79.7017 212.319C79.7017 212.319 79.7017 212.319 79.6716 212.319C79.2801 212.746 78.9006 213.144 78.5212 213.523C78.0408 213.666 77.5491 213.767 77.0515 213.825C77.3834 213.306 77.6078 212.725 77.7113 212.118C77.8147 211.51 77.7952 210.889 77.6538 210.289C78.464 210.587 79.2428 210.964 79.9788 211.415L79.9607 211.403Z" fill="black"/>
<path d="M65.6139 184.919C69.1556 189.991 78.7988 190.942 102.862 195.67C106.186 196.321 117.088 174.065 113.589 173.192C109.156 172.084 91.7186 168.747 90.4115 168.662C79.3951 167.958 63.2107 181.486 65.6139 184.919Z" fill="#F7A9A0"/>
<path d="M108.776 172.09C108.776 172.09 118.973 173.626 124.075 176.095C130.911 179.396 135.453 185.064 137.211 187.539C140.885 192.737 146.174 207.837 142.084 210.12C138.392 212.186 133.766 196.478 133.766 196.478C133.766 196.478 141.126 211.716 136.217 213.385C131.309 215.053 126.972 196.52 126.972 196.52C126.972 196.52 134.2 212.343 128.851 213.264C124.822 213.963 119.949 197.387 119.949 197.387C119.949 197.387 126.05 211.036 121.936 211.927C117.389 212.945 111.938 197.887 111.938 197.887C101.096 198.399 95.7233 194.207 92.2539 190.774C91.4167 189.954 108.776 172.09 108.776 172.09Z" fill="#F7A9A0"/>
<path d="M131.544 191.057C132.471 192.815 133.429 194.586 134.194 196.423C134.959 198.26 135.67 200.122 136.266 202.019C137.097 204.486 137.639 207.041 137.88 209.632C137.109 205.067 134.453 198.453 133.664 196.616C132.875 194.779 132.218 192.912 131.447 191.081C131.465 191.033 131.544 191.015 131.544 191.057Z" fill="#263238"/>
<path d="M124.876 193.713C125.966 196.014 127.135 198.254 128.122 200.597C129.11 202.941 129.833 205.235 130.652 207.633C130.718 207.813 130.598 207.789 130.526 207.602C129.61 205.241 128.58 203.133 127.641 200.778C126.701 198.423 125.834 196.044 124.822 193.737C124.804 193.701 124.864 193.671 124.876 193.713Z" fill="#263238"/>
<path d="M118.739 194.966C120.494 198.449 121.885 202.105 122.889 205.874C122.949 206.055 122.793 206.006 122.726 205.82C121.413 202.17 120.413 199.296 118.618 195.032C118.588 194.966 118.697 194.875 118.739 194.966Z" fill="#263238"/>
<path d="M130.116 179.974C131.305 180.747 132.414 181.634 133.429 182.624C134.459 183.601 135.41 184.658 136.272 185.786C136.712 186.347 137.103 186.937 137.513 187.521C137.922 188.105 138.278 188.726 138.585 189.328C139.265 190.574 139.818 191.886 140.235 193.243C139.88 192.641 139.633 191.972 139.241 191.376L138.735 190.454C138.561 190.153 138.368 189.852 138.187 189.563C137.445 188.375 136.641 187.227 135.778 186.124C134.935 185.015 134.025 183.949 133.086 182.919C132.61 182.401 132.128 181.895 131.628 181.402C131.128 180.908 130.64 180.45 130.116 179.974Z" fill="#263238"/>
<path d="M110.902 172.09L89.8209 195.58C89.8209 195.58 68.5047 190.683 65.3666 185.22C63.3006 181.606 79.3465 167.048 91.4592 168.747L110.902 172.09Z" fill="#172090"/>
<path d="M81.0034 173.3C81.0046 173.408 80.9736 173.514 80.9145 173.604C80.8554 173.694 80.7708 173.764 80.6715 173.806C80.5722 173.848 80.4628 173.859 80.357 173.838C80.2513 173.817 80.1542 173.766 80.078 173.69C80.0018 173.613 79.9501 173.516 79.9294 173.41C79.9086 173.305 79.9199 173.195 79.9617 173.096C80.0034 172.997 80.0738 172.912 80.1639 172.853C80.254 172.794 80.3596 172.763 80.4673 172.764C80.6095 172.764 80.7458 172.821 80.8464 172.921C80.9469 173.022 81.0034 173.158 81.0034 173.3ZM89.1408 172.764C89.0347 172.764 88.9311 172.796 88.8429 172.854C88.7548 172.913 88.6861 172.997 88.6455 173.095C88.6049 173.193 88.5943 173.301 88.615 173.405C88.6357 173.509 88.6867 173.604 88.7617 173.679C88.8367 173.754 88.9322 173.805 89.0362 173.826C89.1402 173.847 89.248 173.836 89.3459 173.795C89.4439 173.755 89.5276 173.686 89.5865 173.598C89.6454 173.51 89.6768 173.406 89.6768 173.3C89.6768 173.158 89.6204 173.022 89.5198 172.921C89.4193 172.821 89.2829 172.764 89.1408 172.764ZM97.8142 172.764C97.7084 172.765 97.6054 172.798 97.518 172.857C97.4307 172.917 97.3629 173.001 97.3233 173.099C97.2836 173.197 97.2738 173.305 97.2952 173.408C97.3166 173.512 97.3681 173.607 97.4433 173.681C97.5185 173.756 97.614 173.806 97.7178 173.826C97.8217 173.847 97.9291 173.836 98.0267 173.795C98.1243 173.754 98.2077 173.685 98.2664 173.597C98.325 173.509 98.3563 173.406 98.3563 173.3C98.3563 173.229 98.3422 173.159 98.3149 173.094C98.2876 173.028 98.2476 172.969 98.1972 172.919C98.1467 172.869 98.0869 172.83 98.0212 172.803C97.9555 172.777 97.8851 172.763 97.8142 172.764ZM106.494 172.764C106.388 172.764 106.284 172.796 106.196 172.854C106.108 172.913 106.039 172.997 105.998 173.095C105.958 173.193 105.947 173.301 105.968 173.405C105.989 173.509 106.04 173.604 106.115 173.679C106.19 173.754 106.285 173.805 106.389 173.826C106.493 173.847 106.601 173.836 106.699 173.795C106.797 173.755 106.88 173.686 106.939 173.598C106.998 173.51 107.03 173.406 107.03 173.3C107.03 173.158 106.973 173.022 106.873 172.921C106.772 172.821 106.636 172.764 106.494 172.764ZM71.7878 184.371C71.6821 184.372 71.579 184.405 71.4917 184.464C71.4043 184.524 71.3366 184.608 71.2969 184.706C71.2573 184.804 71.2475 184.912 71.2689 185.015C71.2902 185.119 71.3417 185.214 71.4169 185.288C71.4921 185.362 71.5877 185.413 71.6915 185.433C71.7953 185.453 71.9028 185.442 72.0004 185.402C72.098 185.361 72.1814 185.292 72.24 185.204C72.2986 185.116 72.3299 185.013 72.3299 184.907C72.3299 184.836 72.3159 184.766 72.2886 184.7C72.2613 184.635 72.2212 184.576 72.1708 184.526C72.1204 184.476 72.0606 184.437 71.9949 184.41C71.9291 184.383 71.8588 184.37 71.7878 184.371ZM80.4673 184.371C80.3613 184.371 80.2576 184.402 80.1695 184.461C80.0813 184.52 80.0126 184.604 79.9721 184.702C79.9315 184.8 79.9209 184.908 79.9416 185.012C79.9622 185.116 80.0133 185.211 80.0883 185.286C80.1632 185.361 80.2588 185.412 80.3627 185.433C80.4667 185.453 80.5745 185.443 80.6725 185.402C80.7704 185.362 80.8541 185.293 80.913 185.205C80.9719 185.117 81.0034 185.013 81.0034 184.907C81.0034 184.765 80.9469 184.628 80.8464 184.528C80.7458 184.427 80.6095 184.371 80.4673 184.371ZM89.1408 184.371C89.0347 184.371 88.9311 184.402 88.8429 184.461C88.7548 184.52 88.6861 184.604 88.6455 184.702C88.6049 184.8 88.5943 184.908 88.615 185.012C88.6357 185.116 88.6867 185.211 88.7617 185.286C88.8367 185.361 88.9322 185.412 89.0362 185.433C89.1402 185.453 89.248 185.443 89.3459 185.402C89.4439 185.362 89.5276 185.293 89.5865 185.205C89.6454 185.117 89.6768 185.013 89.6768 184.907C89.6768 184.765 89.6204 184.628 89.5198 184.528C89.4193 184.427 89.2829 184.371 89.1408 184.371ZM97.8142 184.371C97.7084 184.372 97.6054 184.405 97.518 184.464C97.4307 184.524 97.3629 184.608 97.3233 184.706C97.2836 184.804 97.2738 184.912 97.2952 185.015C97.3166 185.119 97.3681 185.214 97.4433 185.288C97.5185 185.362 97.614 185.413 97.7178 185.433C97.8217 185.453 97.9291 185.442 98.0267 185.402C98.1243 185.361 98.2077 185.292 98.2664 185.204C98.325 185.116 98.3563 185.013 98.3563 184.907C98.3563 184.836 98.3422 184.766 98.3149 184.7C98.2876 184.635 98.2476 184.576 98.1972 184.526C98.1467 184.476 98.0869 184.437 98.0212 184.41C97.9555 184.383 97.8851 184.37 97.8142 184.371ZM76.1306 178.811C76.0231 178.811 75.9181 178.843 75.8288 178.903C75.7395 178.963 75.6701 179.048 75.6292 179.148C75.5884 179.247 75.578 179.356 75.5994 179.462C75.6208 179.567 75.673 179.663 75.7495 179.739C75.8259 179.815 75.923 179.866 76.0286 179.886C76.1341 179.906 76.2433 179.895 76.3423 179.853C76.4412 179.811 76.5254 179.74 76.5843 179.65C76.6431 179.56 76.6739 179.455 76.6727 179.348C76.6727 179.277 76.6586 179.206 76.6313 179.141C76.604 179.076 76.564 179.016 76.5136 178.966C76.4631 178.916 76.4033 178.877 76.3376 178.851C76.2719 178.824 76.2015 178.811 76.1306 178.811ZM84.8101 178.811C84.7023 178.81 84.5967 178.841 84.5067 178.9C84.4166 178.959 84.3462 179.044 84.3044 179.143C84.2626 179.243 84.2514 179.352 84.2721 179.458C84.2928 179.563 84.3446 179.661 84.4208 179.737C84.4969 179.813 84.5941 179.865 84.6998 179.885C84.8055 179.906 84.915 179.895 85.0143 179.853C85.1136 179.811 85.1982 179.741 85.2573 179.651C85.3164 179.561 85.3473 179.455 85.3461 179.348C85.3461 179.277 85.3321 179.206 85.3048 179.141C85.2774 179.076 85.2374 179.016 85.187 178.966C85.1366 178.916 85.0768 178.877 85.011 178.851C84.9453 178.824 84.8749 178.811 84.804 178.811H84.8101ZM93.4835 178.811C93.376 178.811 93.271 178.843 93.1817 178.903C93.0924 178.963 93.023 179.048 92.9821 179.148C92.9413 179.247 92.9309 179.356 92.9523 179.462C92.9737 179.567 93.026 179.663 93.1024 179.739C93.1788 179.815 93.2759 179.866 93.3815 179.886C93.487 179.906 93.5962 179.895 93.6952 179.853C93.7941 179.811 93.8783 179.74 93.9372 179.65C93.996 179.56 94.0268 179.455 94.0256 179.348C94.0256 179.276 94.0114 179.205 93.9837 179.14C93.956 179.074 93.9154 179.014 93.8644 178.964C93.8133 178.914 93.7528 178.875 93.6863 178.849C93.6199 178.823 93.5489 178.81 93.4775 178.811H93.4835ZM102.163 178.811C102.055 178.81 101.95 178.841 101.86 178.9C101.77 178.959 101.699 179.044 101.657 179.143C101.616 179.243 101.604 179.352 101.625 179.458C101.646 179.563 101.697 179.661 101.774 179.737C101.85 179.813 101.947 179.865 102.053 179.885C102.158 179.906 102.268 179.895 102.367 179.853C102.466 179.811 102.551 179.741 102.61 179.651C102.669 179.561 102.7 179.455 102.699 179.348C102.699 179.277 102.685 179.206 102.658 179.141C102.63 179.076 102.59 179.016 102.54 178.966C102.489 178.916 102.43 178.877 102.364 178.851C102.298 178.824 102.228 178.811 102.157 178.811H102.163ZM76.1306 190.418C76.0231 190.418 75.9181 190.45 75.8288 190.51C75.7395 190.57 75.6701 190.655 75.6292 190.754C75.5884 190.854 75.578 190.963 75.5994 191.068C75.6208 191.174 75.673 191.27 75.7495 191.346C75.8259 191.421 75.923 191.472 76.0286 191.493C76.1341 191.513 76.2433 191.501 76.3423 191.459C76.4412 191.417 76.5254 191.347 76.5843 191.257C76.6431 191.167 76.6739 191.062 76.6727 190.954C76.6727 190.883 76.6586 190.813 76.6313 190.748C76.604 190.682 76.564 190.623 76.5136 190.573C76.4631 190.523 76.4033 190.484 76.3376 190.457C76.2719 190.431 76.2015 190.417 76.1306 190.418ZM84.8101 190.418C84.7023 190.417 84.5967 190.448 84.5067 190.507C84.4166 190.566 84.3462 190.651 84.3044 190.75C84.2626 190.849 84.2514 190.959 84.2721 191.065C84.2928 191.17 84.3446 191.267 84.4208 191.344C84.4969 191.42 84.5941 191.472 84.6998 191.492C84.8055 191.513 84.915 191.502 85.0143 191.46C85.1136 191.418 85.1982 191.348 85.2573 191.258C85.3164 191.168 85.3473 191.062 85.3461 190.954C85.3461 190.883 85.3321 190.813 85.3048 190.748C85.2774 190.682 85.2374 190.623 85.187 190.573C85.1366 190.523 85.0768 190.484 85.011 190.457C84.9453 190.431 84.8749 190.417 84.804 190.418H84.8101ZM93.4895 190.418C93.3458 190.418 93.2079 190.475 93.1062 190.577C93.0046 190.679 92.9474 190.817 92.9474 190.96C92.9474 191.031 92.9615 191.101 92.9888 191.167C93.0161 191.232 93.0562 191.292 93.1066 191.341C93.157 191.391 93.2168 191.431 93.2825 191.457C93.3483 191.484 93.4186 191.497 93.4895 191.496L94.0196 190.894C94.0048 190.762 93.9421 190.64 93.8432 190.551C93.7444 190.462 93.6164 190.413 93.4835 190.412L93.4895 190.418Z" fill="white"/>
<path d="M77.016 172.547C78.9675 171.132 84.4667 167.831 91.4717 168.711C91.532 168.711 91.538 168.819 91.4717 168.813C86.1833 168.662 79.0458 171.427 77.016 172.632C77.01 172.662 76.9678 172.59 77.016 172.547Z" fill="#263238"/>
<path d="M84.0617 191.629C86.2421 188.925 88.561 186.341 90.892 183.763C93.223 181.185 95.548 178.595 97.9452 176.071C99.2944 174.643 100.644 173.21 102.047 171.855C102.083 171.819 102.149 171.855 102.119 171.915C99.9449 174.613 97.626 177.215 95.3191 179.805C93.0122 182.395 90.6631 184.973 88.302 187.527C86.9649 188.967 85.6036 190.382 84.2002 191.743C84.1279 191.81 84.0015 191.707 84.0617 191.629Z" fill="#263238"/>
<path d="M110.944 171.782C109.649 171.393 108.329 171.093 106.993 170.885C105.662 170.632 104.325 170.409 102.994 170.192C100.337 169.765 94.7538 168.56 89.8449 168.572C89.7907 168.572 90.0677 168.837 90.1219 168.837C92.459 168.711 109.204 172.041 110.601 172.138C110.545 172.227 110.495 172.319 110.45 172.415C110.45 172.487 110.492 172.571 110.565 172.523C110.739 172.409 110.86 172.264 111.023 172.138C111.054 172.115 111.078 172.084 111.091 172.048C111.105 172.012 111.108 171.972 111.099 171.935C111.091 171.897 111.072 171.862 111.044 171.835C111.017 171.808 110.982 171.79 110.944 171.782Z" fill="#263238"/>
<path d="M128.051 127.415C148.192 144.985 164.033 166.693 162.985 172.12C161.088 182.227 147.807 182.859 145.771 180.673C137.615 171.837 129.008 154.719 119.684 135.619C111.354 118.549 121.419 121.639 128.051 127.415Z" fill="#172090"/>
<path d="M124.382 126.873C124.383 126.981 124.352 127.087 124.293 127.177C124.234 127.267 124.15 127.337 124.05 127.379C123.951 127.421 123.842 127.432 123.736 127.411C123.63 127.39 123.533 127.339 123.457 127.262C123.381 127.186 123.329 127.089 123.308 126.983C123.287 126.878 123.299 126.768 123.34 126.669C123.382 126.57 123.453 126.485 123.543 126.426C123.633 126.367 123.738 126.336 123.846 126.337C123.988 126.337 124.125 126.394 124.225 126.494C124.326 126.595 124.382 126.731 124.382 126.873ZM123.846 137.944C123.738 137.943 123.633 137.974 123.543 138.033C123.453 138.092 123.382 138.176 123.34 138.276C123.299 138.375 123.287 138.485 123.308 138.59C123.329 138.696 123.381 138.793 123.457 138.869C123.533 138.945 123.63 138.997 123.736 139.018C123.842 139.039 123.951 139.027 124.05 138.986C124.15 138.944 124.234 138.873 124.293 138.783C124.352 138.693 124.383 138.588 124.382 138.48C124.382 138.338 124.326 138.201 124.225 138.101C124.125 138 123.988 137.944 123.846 137.944ZM132.52 137.944C132.412 137.944 132.307 137.976 132.218 138.036C132.128 138.096 132.059 138.181 132.018 138.28C131.977 138.379 131.967 138.489 131.988 138.594C132.01 138.699 132.062 138.796 132.138 138.871C132.215 138.947 132.312 138.998 132.417 139.018C132.523 139.039 132.632 139.027 132.731 138.985C132.83 138.943 132.914 138.873 132.973 138.783C133.032 138.693 133.063 138.587 133.062 138.48C133.062 138.409 133.048 138.339 133.02 138.273C132.993 138.208 132.953 138.149 132.902 138.099C132.852 138.049 132.792 138.01 132.726 137.983C132.661 137.956 132.59 137.943 132.52 137.944ZM119.497 132.384C119.39 132.383 119.284 132.414 119.194 132.473C119.104 132.532 119.033 132.617 118.992 132.716C118.95 132.816 118.939 132.925 118.959 133.031C118.98 133.137 119.032 133.234 119.108 133.31C119.184 133.386 119.281 133.438 119.387 133.458C119.493 133.479 119.602 133.468 119.702 133.426C119.801 133.384 119.885 133.314 119.945 133.224C120.004 133.134 120.035 133.028 120.033 132.921C120.033 132.778 119.977 132.642 119.876 132.541C119.776 132.441 119.639 132.384 119.497 132.384ZM128.171 132.384C128.063 132.383 127.957 132.414 127.867 132.473C127.777 132.532 127.707 132.617 127.665 132.716C127.623 132.816 127.612 132.925 127.633 133.031C127.654 133.137 127.705 133.234 127.781 133.31C127.858 133.386 127.955 133.438 128.06 133.458C128.166 133.479 128.276 133.468 128.375 133.426C128.474 133.384 128.559 133.314 128.618 133.224C128.677 133.134 128.708 133.028 128.707 132.921C128.707 132.78 128.652 132.646 128.554 132.546C128.456 132.445 128.323 132.388 128.183 132.384H128.171ZM132.507 149.551C132.4 149.551 132.295 149.583 132.206 149.642C132.116 149.702 132.047 149.787 132.006 149.887C131.965 149.986 131.955 150.095 131.976 150.201C131.998 150.306 132.05 150.403 132.126 150.478C132.203 150.554 132.3 150.605 132.405 150.625C132.511 150.645 132.62 150.634 132.719 150.592C132.818 150.55 132.902 150.479 132.961 150.389C133.02 150.3 133.051 150.194 133.05 150.087C133.05 149.946 132.994 149.81 132.895 149.71C132.795 149.609 132.661 149.552 132.52 149.551H132.507ZM141.187 149.551C141.079 149.549 140.974 149.58 140.884 149.639C140.793 149.699 140.723 149.783 140.681 149.882C140.639 149.982 140.628 150.091 140.649 150.197C140.67 150.303 140.721 150.4 140.798 150.476C140.874 150.552 140.971 150.604 141.077 150.625C141.182 150.645 141.292 150.634 141.391 150.592C141.49 150.551 141.575 150.48 141.634 150.39C141.693 150.3 141.724 150.194 141.723 150.087C141.723 150.016 141.709 149.946 141.682 149.88C141.654 149.815 141.614 149.755 141.564 149.706C141.513 149.656 141.454 149.616 141.388 149.59C141.322 149.563 141.252 149.55 141.181 149.551H141.187ZM149.674 149.581C149.571 149.62 149.483 149.689 149.42 149.779C149.358 149.87 149.324 149.977 149.324 150.087C149.324 150.229 149.381 150.365 149.481 150.466C149.582 150.566 149.718 150.623 149.86 150.623C149.953 150.622 150.045 150.599 150.126 150.553C150.207 150.508 150.275 150.443 150.324 150.364L149.674 149.581ZM128.171 143.991C128.063 143.99 127.957 144.021 127.867 144.08C127.777 144.139 127.707 144.224 127.665 144.323C127.623 144.422 127.612 144.532 127.633 144.638C127.654 144.743 127.705 144.84 127.781 144.917C127.858 144.993 127.955 145.044 128.06 145.065C128.166 145.086 128.276 145.075 128.375 145.033C128.474 144.991 128.559 144.921 128.618 144.831C128.677 144.741 128.708 144.635 128.707 144.527C128.707 144.387 128.652 144.253 128.554 144.152C128.456 144.052 128.323 143.994 128.183 143.991H128.171ZM136.844 143.991C136.737 143.991 136.632 144.023 136.542 144.083C136.453 144.143 136.384 144.228 136.343 144.327C136.302 144.427 136.292 144.536 136.313 144.641C136.334 144.747 136.387 144.843 136.463 144.919C136.539 144.994 136.637 145.045 136.742 145.066C136.848 145.086 136.957 145.074 137.056 145.032C137.155 144.99 137.239 144.92 137.298 144.83C137.357 144.74 137.387 144.635 137.386 144.527C137.386 144.386 137.331 144.251 137.231 144.15C137.132 144.05 136.997 143.993 136.856 143.991H136.844ZM145.066 144.244C145.015 144.33 144.988 144.428 144.988 144.527C144.987 144.598 145 144.669 145.027 144.734C145.053 144.8 145.093 144.86 145.142 144.91C145.192 144.961 145.252 145.001 145.317 145.028C145.383 145.055 145.453 145.069 145.524 145.069C145.601 145.07 145.677 145.054 145.747 145.021C145.536 144.756 145.307 144.503 145.078 144.244H145.066ZM132.748 161.194C132.863 161.392 132.965 161.591 133.074 161.796C133.076 161.766 133.076 161.736 133.074 161.706C133.078 161.597 133.05 161.49 132.991 161.398C132.933 161.307 132.848 161.235 132.748 161.194ZM141.181 161.145C141.073 161.144 140.968 161.175 140.877 161.234C140.787 161.293 140.717 161.378 140.675 161.477C140.633 161.576 140.622 161.686 140.643 161.792C140.664 161.897 140.715 161.995 140.792 162.071C140.868 162.147 140.965 162.199 141.071 162.219C141.176 162.24 141.286 162.229 141.385 162.187C141.484 162.145 141.569 162.075 141.628 161.985C141.687 161.895 141.718 161.789 141.717 161.681C141.717 161.539 141.661 161.403 141.56 161.302C141.459 161.202 141.323 161.145 141.181 161.145ZM149.854 161.145C149.747 161.144 149.641 161.175 149.551 161.234C149.461 161.293 149.39 161.378 149.349 161.477C149.307 161.576 149.296 161.686 149.316 161.792C149.337 161.897 149.389 161.995 149.465 162.071C149.541 162.147 149.638 162.199 149.744 162.219C149.85 162.24 149.959 162.229 150.059 162.187C150.158 162.145 150.242 162.075 150.302 161.985C150.361 161.895 150.392 161.789 150.39 161.681C150.391 161.542 150.337 161.409 150.24 161.309C150.143 161.209 150.011 161.15 149.872 161.145H149.854ZM158.323 161.181C158.211 161.232 158.12 161.319 158.064 161.429C158.008 161.538 157.99 161.663 158.015 161.784C158.039 161.904 158.104 162.013 158.198 162.091C158.293 162.17 158.411 162.215 158.534 162.217C158.669 162.218 158.8 162.168 158.901 162.079C158.733 161.796 158.54 161.495 158.341 161.194L158.323 161.181ZM136.838 155.586C136.731 155.586 136.626 155.618 136.536 155.678C136.447 155.738 136.378 155.823 136.337 155.922C136.296 156.021 136.286 156.131 136.307 156.236C136.328 156.341 136.381 156.438 136.457 156.513C136.533 156.589 136.631 156.64 136.736 156.66C136.842 156.681 136.951 156.669 137.05 156.627C137.149 156.585 137.233 156.515 137.292 156.425C137.351 156.335 137.381 156.229 137.38 156.122C137.377 155.984 137.321 155.852 137.223 155.755C137.126 155.657 136.994 155.601 136.856 155.598L136.838 155.586ZM145.518 155.586C145.41 155.585 145.304 155.616 145.214 155.675C145.124 155.734 145.054 155.818 145.012 155.918C144.97 156.017 144.959 156.127 144.98 156.232C145 156.338 145.052 156.435 145.128 156.511C145.204 156.587 145.302 156.639 145.407 156.66C145.513 156.681 145.623 156.669 145.722 156.628C145.821 156.586 145.906 156.515 145.965 156.425C146.024 156.335 146.055 156.23 146.054 156.122C146.051 155.985 145.995 155.854 145.899 155.757C145.803 155.659 145.673 155.603 145.536 155.598L145.518 155.586ZM154.727 156.014L154.474 155.682C154.392 155.634 154.298 155.609 154.203 155.61C154.07 155.624 153.947 155.687 153.857 155.786C153.768 155.886 153.718 156.015 153.718 156.149C153.718 156.283 153.768 156.412 153.857 156.512C153.947 156.611 154.07 156.674 154.203 156.688C154.345 156.687 154.481 156.63 154.583 156.53C154.684 156.43 154.742 156.294 154.745 156.152C154.749 156.11 154.749 156.068 154.745 156.026L154.727 156.014ZM141.181 172.764C141.075 172.764 140.971 172.796 140.883 172.854C140.795 172.913 140.726 172.997 140.686 173.095C140.645 173.193 140.634 173.301 140.655 173.405C140.676 173.509 140.727 173.604 140.802 173.679C140.877 173.754 140.972 173.805 141.076 173.826C141.18 173.847 141.288 173.836 141.386 173.795C141.484 173.755 141.568 173.686 141.627 173.598C141.686 173.51 141.717 173.406 141.717 173.3C141.717 173.158 141.661 173.022 141.56 172.921C141.459 172.821 141.323 172.764 141.181 172.764ZM149.854 172.764C149.748 172.764 149.645 172.796 149.557 172.854C149.468 172.913 149.4 172.997 149.359 173.095C149.319 173.193 149.308 173.301 149.329 173.405C149.349 173.509 149.4 173.604 149.475 173.679C149.55 173.754 149.646 173.805 149.75 173.826C149.854 173.847 149.962 173.836 150.06 173.795C150.157 173.755 150.241 173.686 150.3 173.598C150.359 173.51 150.39 173.406 150.39 173.3C150.391 173.161 150.337 173.027 150.24 172.927C150.143 172.827 150.011 172.769 149.872 172.764H149.854ZM158.534 172.764C158.428 172.764 158.324 172.796 158.236 172.854C158.148 172.913 158.079 172.997 158.039 173.095C157.998 173.193 157.987 173.301 158.008 173.405C158.029 173.509 158.08 173.604 158.155 173.679C158.23 173.754 158.325 173.805 158.429 173.826C158.533 173.847 158.641 173.836 158.739 173.795C158.837 173.755 158.921 173.686 158.98 173.598C159.038 173.51 159.07 173.406 159.07 173.3C159.07 173.161 159.016 173.027 158.919 172.927C158.823 172.827 158.691 172.769 158.552 172.764H158.534ZM136.85 167.205C136.743 167.205 136.638 167.237 136.548 167.297C136.459 167.356 136.39 167.441 136.349 167.541C136.308 167.64 136.298 167.749 136.319 167.855C136.34 167.96 136.393 168.057 136.469 168.132C136.545 168.208 136.643 168.259 136.748 168.279C136.854 168.299 136.963 168.288 137.062 168.246C137.161 168.204 137.245 168.133 137.304 168.044C137.363 167.954 137.393 167.848 137.392 167.741C137.392 167.599 137.336 167.462 137.235 167.362C137.135 167.261 136.998 167.205 136.856 167.205H136.85ZM145.53 167.205C145.422 167.204 145.316 167.234 145.226 167.294C145.136 167.353 145.066 167.437 145.024 167.537C144.982 167.636 144.971 167.745 144.992 167.851C145.012 167.957 145.064 168.054 145.14 168.13C145.217 168.206 145.314 168.258 145.419 168.279C145.525 168.299 145.635 168.288 145.734 168.246C145.833 168.205 145.918 168.134 145.977 168.044C146.036 167.954 146.067 167.849 146.066 167.741C146.066 167.6 146.01 167.464 145.911 167.364C145.812 167.263 145.677 167.206 145.536 167.205H145.53ZM154.203 167.205C154.096 167.205 153.991 167.237 153.901 167.297C153.812 167.356 153.743 167.441 153.702 167.541C153.661 167.64 153.651 167.749 153.672 167.855C153.693 167.96 153.746 168.057 153.822 168.132C153.898 168.208 153.996 168.259 154.101 168.279C154.207 168.299 154.316 168.288 154.415 168.246C154.514 168.204 154.598 168.133 154.657 168.044C154.716 167.954 154.746 167.848 154.745 167.741C154.745 167.599 154.689 167.462 154.588 167.362C154.488 167.261 154.351 167.205 154.209 167.205H154.203ZM145.53 178.811C145.422 178.81 145.316 178.841 145.226 178.9C145.136 178.959 145.066 179.044 145.024 179.143C144.982 179.243 144.971 179.352 144.992 179.458C145.012 179.564 145.064 179.661 145.14 179.737C145.217 179.813 145.314 179.865 145.419 179.885C145.525 179.906 145.635 179.895 145.734 179.853C145.833 179.811 145.918 179.741 145.977 179.651C146.036 179.561 146.067 179.455 146.066 179.348C146.066 179.206 146.01 179.071 145.911 178.971C145.812 178.87 145.677 178.813 145.536 178.811H145.53ZM154.203 178.811C154.096 178.811 153.991 178.843 153.901 178.903C153.812 178.963 153.743 179.048 153.702 179.148C153.661 179.247 153.651 179.356 153.672 179.462C153.693 179.567 153.746 179.663 153.822 179.739C153.898 179.815 153.996 179.866 154.101 179.886C154.207 179.906 154.316 179.895 154.415 179.853C154.514 179.811 154.598 179.74 154.657 179.65C154.716 179.56 154.746 179.455 154.745 179.348C154.745 179.205 154.689 179.069 154.588 178.968C154.488 178.868 154.351 178.811 154.209 178.811H154.203Z" fill="white"/>
<path d="M142.446 176.727C140.971 174.439 139.579 172.078 138.17 169.741C136.76 167.404 135.363 165.054 133.99 162.693C131.279 158.025 128.761 153.255 126.334 148.436C124.961 145.708 123.563 143.015 122.256 140.233C122.214 140.142 122.07 140.233 122.1 140.299C123.365 143.511 124.726 146.672 126.184 149.78L126.123 149.701C125.798 149.262 125.473 148.822 125.154 148.376C124.521 147.497 123.949 146.599 123.347 145.678C123.304 145.605 123.19 145.678 123.232 145.75C123.884 147.004 124.62 148.211 125.437 149.364C125.836 149.903 126.266 150.418 126.726 150.906L126.768 150.942C127.436 152.327 128.117 153.707 128.834 155.074C131.334 159.931 134.076 164.659 137.049 169.241C137.893 170.524 138.742 171.8 139.627 173.059C140.513 174.318 141.434 175.535 142.374 176.776C142.386 176.854 142.494 176.806 142.446 176.727Z" fill="#263238"/>
<path d="M149.108 178.715C145.289 173.24 147.205 162.35 151.421 136.209C152.023 132.595 179.453 132.312 179.031 136.209C178.501 141.112 173.61 160.489 172.339 163.314C166.093 177.288 151.692 182.431 149.108 178.715Z" fill="#F7A9A0"/>
<path d="M178.14 139.582C179.278 136.655 184.513 120.428 184.765 116.314C185.018 112.201 184.928 100.305 181.796 99.7868C178.664 99.2688 178.417 102.75 178.417 102.75C178.417 102.75 177.58 97.7328 174.381 97.4919C171.183 97.251 170.972 102.69 170.972 102.69C170.972 102.69 169.738 97.6003 166.527 97.5943C163.317 97.5883 164.07 103.081 164.07 103.081C164.07 103.081 163.154 98.3773 160.51 99.4675C157.33 100.793 159.992 109.279 159.36 113.797C159.215 114.827 154.975 134.396 154.975 134.396L178.14 139.582Z" fill="#F7A9A0"/>
<path d="M163.985 102.612C165.931 108.858 165.702 111.924 164.039 118.14C164.009 118.266 164.184 118.338 164.226 118.218C166.407 112.273 167.238 108.466 164.286 102.503C164.142 102.208 163.895 102.317 163.985 102.612Z" fill="#263238"/>
<path d="M170.822 102.196C172.273 108.858 172.056 112.189 170.822 118.832C170.822 118.923 170.966 118.965 170.99 118.868C172.797 112.46 173.526 108.629 171.201 102.178C171.063 101.883 170.755 101.895 170.822 102.196Z" fill="#263238"/>
<path d="M178.356 103.081C179.295 109.635 179.211 113.321 177.151 119.585C177.139 119.615 177.14 119.649 177.153 119.679C177.166 119.709 177.19 119.733 177.22 119.745C177.251 119.757 177.285 119.756 177.315 119.743C177.345 119.73 177.368 119.706 177.38 119.675C180.097 113.465 180.235 108.9 178.549 103.075C178.44 102.678 178.296 102.672 178.356 103.081Z" fill="#263238"/>
<path d="M151.023 139.516C151.023 139.516 148.849 131.62 148.662 127.933C148.475 124.247 152.824 110.279 155.89 111.068C159.859 112.062 158.938 120.627 157.938 124.759C157.938 124.759 167.117 127.048 167.786 133.336C168.454 139.624 151.023 139.516 151.023 139.516Z" fill="#F7A9A0"/>
<path d="M156.901 111.677C159.865 115.188 158.202 120.531 157.503 124.615C157.49 124.674 157.492 124.736 157.508 124.795C157.524 124.854 157.553 124.908 157.595 124.953C157.636 124.998 157.688 125.033 157.745 125.053C157.803 125.074 157.864 125.08 157.925 125.072C161.708 126.277 166.695 129.102 167.924 133.107C167.932 133.129 167.947 133.147 167.967 133.158C167.987 133.169 168.01 133.173 168.032 133.168C168.055 133.164 168.075 133.152 168.089 133.134C168.103 133.116 168.111 133.094 168.11 133.071C167.375 128.59 162.689 125.422 158.473 124.362C159.226 120.181 160.66 114.724 156.901 111.647C156.907 111.628 156.877 111.653 156.901 111.677Z" fill="#263238"/>
<path d="M179.465 145.063L147.632 154.098C147.632 154.098 141.284 174.963 145.319 180.197C149.638 185.792 169.677 177.119 173.664 164.928L179.465 145.063Z" fill="#172090"/>
<path d="M167.762 150.087C167.762 150.193 167.73 150.296 167.671 150.385C167.612 150.473 167.529 150.541 167.431 150.582C167.333 150.623 167.225 150.633 167.121 150.613C167.017 150.592 166.922 150.541 166.847 150.466C166.772 150.391 166.721 150.295 166.7 150.191C166.679 150.087 166.69 149.98 166.73 149.882C166.771 149.784 166.84 149.7 166.928 149.641C167.016 149.582 167.12 149.551 167.226 149.551C167.368 149.551 167.504 149.607 167.605 149.708C167.705 149.808 167.762 149.945 167.762 150.087ZM175.899 149.551C175.792 149.551 175.687 149.583 175.597 149.642C175.508 149.702 175.439 149.787 175.398 149.887C175.357 149.986 175.347 150.095 175.368 150.201C175.389 150.306 175.442 150.403 175.518 150.478C175.594 150.554 175.692 150.605 175.797 150.625C175.903 150.645 176.012 150.634 176.111 150.592C176.21 150.55 176.294 150.479 176.353 150.39C176.412 150.3 176.442 150.194 176.441 150.087C176.441 150.016 176.427 149.946 176.4 149.88C176.373 149.815 176.332 149.755 176.282 149.706C176.232 149.656 176.172 149.616 176.106 149.59C176.04 149.563 175.97 149.55 175.899 149.551ZM149.873 161.145C149.765 161.144 149.659 161.175 149.569 161.234C149.479 161.293 149.409 161.378 149.367 161.477C149.325 161.577 149.314 161.686 149.335 161.792C149.356 161.897 149.407 161.995 149.483 162.071C149.56 162.147 149.657 162.199 149.762 162.219C149.868 162.24 149.978 162.229 150.077 162.187C150.176 162.145 150.261 162.075 150.32 161.985C150.379 161.895 150.41 161.789 150.409 161.681C150.409 161.539 150.352 161.403 150.252 161.302C150.151 161.202 150.015 161.145 149.873 161.145ZM158.552 161.145C158.444 161.144 158.339 161.175 158.249 161.234C158.159 161.293 158.088 161.378 158.047 161.477C158.005 161.577 157.994 161.686 158.014 161.792C158.035 161.897 158.087 161.995 158.163 162.071C158.239 162.147 158.336 162.199 158.442 162.219C158.548 162.24 158.657 162.229 158.756 162.187C158.856 162.145 158.94 162.075 158.999 161.985C159.059 161.895 159.089 161.789 159.088 161.681C159.088 161.539 159.032 161.403 158.931 161.302C158.831 161.202 158.694 161.145 158.552 161.145ZM167.226 161.145C167.118 161.144 167.012 161.175 166.922 161.234C166.832 161.293 166.762 161.378 166.72 161.477C166.678 161.577 166.667 161.686 166.688 161.792C166.708 161.897 166.76 161.995 166.836 162.071C166.913 162.147 167.01 162.199 167.115 162.219C167.221 162.24 167.331 162.229 167.43 162.187C167.529 162.145 167.614 162.075 167.673 161.985C167.732 161.895 167.763 161.789 167.762 161.681C167.762 161.539 167.705 161.403 167.605 161.302C167.504 161.202 167.368 161.145 167.226 161.145ZM154.209 155.586C154.102 155.586 153.997 155.618 153.908 155.678C153.818 155.738 153.749 155.823 153.708 155.922C153.667 156.021 153.657 156.131 153.678 156.236C153.7 156.341 153.752 156.438 153.828 156.514C153.905 156.589 154.002 156.64 154.107 156.66C154.213 156.681 154.322 156.669 154.421 156.627C154.52 156.585 154.604 156.515 154.663 156.425C154.722 156.335 154.753 156.229 154.752 156.122C154.748 155.981 154.69 155.847 154.588 155.749C154.487 155.651 154.351 155.596 154.209 155.598V155.586ZM162.889 155.586C162.781 155.585 162.676 155.616 162.586 155.675C162.495 155.734 162.425 155.819 162.383 155.918C162.341 156.017 162.33 156.127 162.351 156.232C162.372 156.338 162.423 156.435 162.5 156.511C162.576 156.588 162.673 156.639 162.779 156.66C162.884 156.681 162.994 156.669 163.093 156.628C163.192 156.586 163.277 156.516 163.336 156.425C163.395 156.335 163.426 156.23 163.425 156.122C163.423 156.051 163.408 155.98 163.379 155.915C163.349 155.85 163.307 155.791 163.255 155.742C163.203 155.693 163.142 155.655 163.075 155.631C163.008 155.606 162.936 155.595 162.865 155.598L162.889 155.586ZM171.562 155.586C171.455 155.586 171.35 155.618 171.261 155.678C171.171 155.738 171.102 155.823 171.061 155.922C171.02 156.021 171.01 156.131 171.031 156.236C171.053 156.341 171.105 156.438 171.181 156.514C171.258 156.589 171.355 156.64 171.46 156.66C171.566 156.681 171.675 156.669 171.774 156.627C171.873 156.585 171.957 156.515 172.016 156.425C172.075 156.335 172.106 156.229 172.104 156.122C172.101 155.981 172.043 155.847 171.941 155.749C171.84 155.651 171.704 155.596 171.562 155.598V155.586ZM149.879 172.752C149.773 172.752 149.669 172.784 149.581 172.842C149.493 172.901 149.424 172.985 149.384 173.083C149.343 173.181 149.332 173.289 149.353 173.393C149.374 173.497 149.425 173.592 149.5 173.667C149.575 173.742 149.67 173.793 149.774 173.814C149.878 173.835 149.986 173.824 150.084 173.783C150.182 173.743 150.266 173.674 150.325 173.586C150.383 173.498 150.415 173.394 150.415 173.288C150.412 173.147 150.353 173.013 150.251 172.915C150.15 172.817 150.014 172.763 149.873 172.764L149.879 172.752ZM158.558 172.752C158.452 172.752 158.349 172.784 158.26 172.842C158.172 172.901 158.104 172.985 158.063 173.083C158.022 173.181 158.012 173.289 158.032 173.393C158.053 173.497 158.104 173.592 158.179 173.667C158.254 173.742 158.35 173.793 158.454 173.814C158.558 173.835 158.665 173.824 158.763 173.783C158.861 173.743 158.945 173.674 159.004 173.586C159.063 173.498 159.094 173.394 159.094 173.288C159.091 173.147 159.032 173.013 158.931 172.915C158.829 172.817 158.693 172.763 158.552 172.764L158.558 172.752ZM167.232 172.752C167.126 172.752 167.022 172.784 166.934 172.842C166.846 172.901 166.777 172.985 166.736 173.083C166.696 173.181 166.685 173.289 166.706 173.393C166.727 173.497 166.778 173.592 166.853 173.667C166.928 173.742 167.023 173.793 167.127 173.814C167.231 173.835 167.339 173.824 167.437 173.783C167.535 173.743 167.619 173.674 167.677 173.586C167.736 173.498 167.768 173.394 167.768 173.288C167.765 173.147 167.706 173.013 167.604 172.915C167.503 172.817 167.367 172.763 167.226 172.764L167.232 172.752ZM145.548 167.193C145.44 167.192 145.335 167.222 145.245 167.282C145.155 167.341 145.084 167.425 145.042 167.525C145.001 167.624 144.989 167.733 145.01 167.839C145.031 167.945 145.083 168.042 145.159 168.118C145.235 168.194 145.332 168.246 145.438 168.267C145.544 168.287 145.653 168.276 145.752 168.234C145.852 168.193 145.936 168.122 145.995 168.032C146.054 167.942 146.085 167.837 146.084 167.729C146.083 167.658 146.067 167.589 146.039 167.525C146.01 167.46 145.97 167.402 145.919 167.353C145.868 167.305 145.808 167.266 145.742 167.241C145.676 167.215 145.606 167.203 145.536 167.205L145.548 167.193ZM154.222 167.193C154.114 167.193 154.009 167.225 153.92 167.285C153.83 167.344 153.761 167.429 153.72 167.529C153.679 167.628 153.669 167.737 153.69 167.843C153.712 167.948 153.764 168.045 153.84 168.12C153.917 168.196 154.014 168.247 154.12 168.267C154.225 168.287 154.334 168.276 154.433 168.234C154.532 168.192 154.616 168.122 154.675 168.032C154.734 167.942 154.765 167.836 154.764 167.729C154.762 167.658 154.746 167.588 154.718 167.523C154.689 167.458 154.648 167.4 154.596 167.351C154.544 167.302 154.484 167.264 154.417 167.239C154.351 167.214 154.28 167.202 154.209 167.205L154.222 167.193ZM162.901 167.193C162.793 167.192 162.688 167.222 162.598 167.282C162.508 167.341 162.437 167.425 162.395 167.525C162.354 167.624 162.342 167.733 162.363 167.839C162.384 167.945 162.436 168.042 162.512 168.118C162.588 168.194 162.685 168.246 162.791 168.267C162.896 168.287 163.006 168.276 163.105 168.234C163.205 168.193 163.289 168.122 163.348 168.032C163.407 167.942 163.438 167.837 163.437 167.729C163.436 167.656 163.419 167.585 163.39 167.519C163.36 167.453 163.317 167.393 163.263 167.344C163.21 167.295 163.147 167.258 163.078 167.234C163.01 167.21 162.937 167.2 162.865 167.205L162.901 167.193ZM171.574 167.193C171.467 167.193 171.362 167.225 171.273 167.285C171.183 167.344 171.114 167.429 171.073 167.529C171.032 167.628 171.022 167.737 171.043 167.843C171.065 167.948 171.117 168.045 171.193 168.12C171.27 168.196 171.367 168.247 171.472 168.267C171.578 168.287 171.687 168.276 171.786 168.234C171.885 168.192 171.969 168.122 172.028 168.032C172.087 167.942 172.118 167.836 172.117 167.729C172.115 167.658 172.099 167.588 172.071 167.523C172.042 167.458 172 167.4 171.949 167.351C171.897 167.302 171.837 167.264 171.77 167.239C171.704 167.214 171.633 167.202 171.562 167.205L171.574 167.193ZM145.548 178.799C145.44 178.798 145.335 178.829 145.245 178.888C145.155 178.947 145.084 179.032 145.042 179.131C145.001 179.231 144.989 179.34 145.01 179.446C145.031 179.552 145.083 179.649 145.159 179.725C145.235 179.801 145.332 179.853 145.438 179.874C145.544 179.894 145.653 179.883 145.752 179.841C145.852 179.799 145.936 179.729 145.995 179.639C146.054 179.549 146.085 179.443 146.084 179.336C146.083 179.265 146.067 179.196 146.039 179.131C146.01 179.067 145.97 179.009 145.919 178.96C145.868 178.911 145.808 178.873 145.742 178.848C145.676 178.822 145.606 178.81 145.536 178.812L145.548 178.799ZM154.222 178.799C154.114 178.799 154.009 178.831 153.92 178.891C153.83 178.951 153.761 179.036 153.72 179.136C153.679 179.235 153.669 179.344 153.69 179.45C153.712 179.555 153.764 179.651 153.84 179.727C153.917 179.803 154.014 179.854 154.12 179.874C154.225 179.894 154.334 179.883 154.433 179.841C154.532 179.799 154.616 179.728 154.675 179.638C154.734 179.548 154.765 179.443 154.764 179.336C154.762 179.265 154.746 179.195 154.718 179.13C154.689 179.065 154.648 179.007 154.596 178.958C154.544 178.909 154.484 178.871 154.417 178.846C154.351 178.821 154.28 178.809 154.209 178.812L154.222 178.799Z" fill="white"/>
<path d="M148.674 161.332C152.228 160.525 155.734 159.525 159.239 158.525C162.745 157.525 166.256 156.526 169.738 155.435C171.701 154.833 173.671 154.231 175.616 153.526C175.67 153.526 175.652 153.418 175.616 153.43C172.069 154.231 168.551 155.237 165.051 156.194C161.552 157.152 158.028 158.194 154.535 159.242C152.565 159.844 150.602 160.447 148.656 161.151C148.542 161.188 148.572 161.356 148.674 161.332Z" fill="#263238"/>
<path d="M148.764 153.749C148.27 153.797 147.776 153.899 147.288 153.996C147.251 154.007 147.217 154.027 147.19 154.054C147.162 154.081 147.142 154.115 147.132 154.152C146.589 156.008 146.204 157.917 145.819 159.808C145.433 161.699 145.102 163.543 144.795 165.422C144.626 166.428 144.481 167.446 144.367 168.433C143.752 169.662 143.378 170.997 143.265 172.367C143.265 172.383 143.271 172.398 143.282 172.409C143.294 172.421 143.309 172.427 143.325 172.427C143.341 172.427 143.356 172.421 143.367 172.409C143.379 172.398 143.385 172.383 143.385 172.367C143.536 171.151 143.85 169.962 144.319 168.831C144.014 171.311 144.081 173.822 144.517 176.282C143.915 172.608 144.819 168.777 145.421 165.163C145.722 163.356 146.065 161.549 146.421 159.742C146.776 157.935 147.192 156.158 147.523 154.357C147.945 154.195 148.372 154.038 148.776 153.845C148.783 153.839 148.788 153.831 148.791 153.822C148.794 153.813 148.795 153.803 148.794 153.794C148.793 153.785 148.79 153.776 148.784 153.768C148.779 153.76 148.772 153.753 148.764 153.749Z" fill="#263238"/>
<path d="M116.485 122.717C116.202 123.741 111.01 130.276 106.288 129.879C104.752 129.746 105.083 121.32 105.083 121.32L104.969 120.717L103.343 111.93L113.817 105.732L115.329 104.913C115.329 104.913 115.618 107.322 115.931 110.388C115.931 110.526 115.961 110.665 115.973 110.815C115.986 110.966 116.022 111.153 116.034 111.309C116.094 111.761 116.142 112.225 116.19 112.689C116.226 113.038 116.257 113.381 116.281 113.749C116.305 114.116 116.341 114.483 116.371 114.851C116.587 117.467 116.625 120.096 116.485 122.717Z" fill="#F7A9A0"/>
<path d="M115.944 110.37C114.971 112.784 113.484 114.959 111.587 116.741C109.69 118.524 107.428 119.873 104.957 120.693L103.331 111.906L113.817 105.732L115.329 104.913C115.329 104.913 115.618 107.334 115.944 110.37Z" fill="#263238"/>
<path d="M92.2781 97.6846C90.6579 113.291 99.8252 116.025 103.192 116.357C106.246 116.67 116.69 117.35 119.913 101.991C123.135 86.632 116.389 80.9521 109.438 79.8619C102.487 78.7717 93.8984 82.0785 92.2781 97.6846Z" fill="#F7A9A0"/>
<path d="M97.5369 94.0587C97.8962 94.0347 98.254 93.9925 98.609 93.9322C98.9937 93.94 99.3703 93.8215 99.6811 93.5949C99.7667 93.5052 99.8198 93.3894 99.8318 93.266C99.8438 93.1426 99.8141 93.0188 99.7474 92.9142C99.5833 92.7313 99.3738 92.5948 99.1401 92.5187C98.9063 92.4425 98.6567 92.4294 98.4163 92.4806C97.9112 92.5083 97.4345 92.723 97.0791 93.0829C97.0097 93.1707 96.9661 93.2761 96.9532 93.3873C96.9403 93.4984 96.9587 93.611 97.0062 93.7123C97.0538 93.8137 97.1286 93.8997 97.2223 93.9609C97.3161 94.0221 97.425 94.0559 97.5369 94.0587Z" fill="#263238"/>
<path d="M108.728 93.9744C108.375 93.8943 108.027 93.7938 107.686 93.6732C107.305 93.6177 106.953 93.4377 106.686 93.1612C106.618 93.0592 106.586 92.9378 106.595 92.8157C106.604 92.6937 106.653 92.578 106.734 92.4866C106.924 92.3295 107.153 92.226 107.396 92.1868C107.64 92.1477 107.89 92.1742 108.119 92.2638C108.608 92.3758 109.037 92.6656 109.324 93.0769C109.38 93.1739 109.407 93.2846 109.404 93.3964C109.4 93.5082 109.365 93.6167 109.303 93.7099C109.241 93.8031 109.155 93.8772 109.053 93.9239C108.951 93.9706 108.839 93.9881 108.728 93.9744Z" fill="#263238"/>
<path d="M105.939 98.6604C105.939 98.6243 106.018 98.7206 106.012 98.7628C105.873 99.8229 105.897 101.064 106.825 101.509C106.825 101.509 106.825 101.576 106.825 101.57C105.644 101.287 105.644 99.6422 105.939 98.6604Z" fill="#263238"/>
<path d="M106.999 97.6425C108.722 97.6847 108.517 101.124 106.921 101.094C105.325 101.064 105.554 97.6124 106.999 97.6425Z" fill="#263238"/>
<path d="M107.661 97.8654C107.95 98.0762 108.227 98.4376 108.583 98.4978C108.938 98.558 109.341 98.2207 109.637 97.8955C109.667 97.8955 109.691 97.8955 109.691 97.9376C109.661 98.6002 109.372 99.2628 108.655 99.317C107.938 99.3712 107.577 98.7628 107.45 98.1123C107.45 97.9557 107.547 97.781 107.661 97.8654Z" fill="#263238"/>
<path d="M99.4404 97.9015C99.4404 97.8593 99.3501 97.9437 99.3501 97.9858C99.3139 99.058 99.0911 100.275 98.1033 100.564C98.0671 100.564 98.0671 100.624 98.1033 100.624C99.2959 100.51 99.5729 98.8953 99.4404 97.9015Z" fill="#263238"/>
<path d="M98.5605 96.6968C96.8559 96.4499 96.4885 99.8831 98.0666 100.112C99.6447 100.341 99.994 96.9077 98.5605 96.6968Z" fill="#263238"/>
<path d="M97.8137 96.8475C97.5185 96.998 97.2113 97.2992 96.8921 97.2871C96.5729 97.2751 96.2898 96.8715 96.0729 96.4921C96.0729 96.4499 96.0248 96.4921 96.0187 96.5222C95.9284 97.1727 96.0729 97.8834 96.6873 98.0762C97.3017 98.2689 97.7354 97.7329 97.9582 97.1004C98.0124 96.98 97.9401 96.7872 97.8137 96.8475Z" fill="#263238"/>
<path d="M104.253 106.972C103.994 107.219 103.735 107.575 103.343 107.575C102.945 107.565 102.555 107.469 102.199 107.292C102.191 107.29 102.184 107.291 102.177 107.293C102.17 107.296 102.164 107.3 102.159 107.305C102.154 107.311 102.151 107.317 102.149 107.324C102.148 107.332 102.148 107.339 102.15 107.346C102.299 107.56 102.503 107.729 102.741 107.835C102.979 107.941 103.241 107.98 103.5 107.948C103.719 107.896 103.918 107.778 104.07 107.612C104.222 107.446 104.322 107.238 104.355 107.015C104.373 106.936 104.289 106.936 104.253 106.972Z" fill="#263238"/>
<path d="M100.066 102.804C100.066 102.804 99.7346 104.382 99.6804 105.135C99.6804 105.202 99.8551 105.25 100.108 105.286C100.108 105.286 100.108 105.286 100.138 105.286C100.774 105.45 101.443 105.435 102.072 105.242C102.7 105.05 103.263 104.688 103.698 104.196C103.758 104.129 103.668 104.045 103.596 104.087C102.591 104.673 101.426 104.92 100.271 104.792C100.229 104.581 100.927 102.112 100.813 102.094C100.225 102.102 99.6415 102.191 99.0781 102.359C99.6804 99.0579 100.795 95.8716 101.337 92.5769C101.345 92.5522 101.343 92.5253 101.331 92.5021C101.319 92.4789 101.298 92.4615 101.274 92.4535C101.249 92.4455 101.222 92.4477 101.199 92.4595C101.176 92.4714 101.158 92.4919 101.15 92.5167C99.7346 95.7632 98.9697 99.5518 98.2649 102.949C98.1686 103.371 99.7587 102.913 100.066 102.804Z" fill="#263238"/>
<path d="M100.368 105.009C100.74 105.634 101.267 106.153 101.898 106.515C102.248 106.704 102.649 106.776 103.042 106.719C103.904 106.599 104.012 105.84 103.934 105.165C103.891 104.809 103.806 104.46 103.681 104.123C102.699 104.765 101.539 105.075 100.368 105.009Z" fill="#263238"/>
<path d="M101.897 106.515C102.247 106.704 102.648 106.776 103.042 106.719C103.903 106.599 104.012 105.84 103.933 105.165C103.492 105.131 103.052 105.245 102.683 105.489C102.314 105.734 102.037 106.095 101.897 106.515Z" fill="#FF9CBD"/>
<path d="M119.263 101.088C115.649 100.829 116.161 95.1609 116.161 95.1609C116.161 95.1609 112.114 94.4562 112.361 87.8547C112.361 87.8547 110.072 91.6674 104.482 92.0168C103.278 92.0951 107.494 89.3846 107.494 89.3846C107.494 89.3846 101.844 93.0829 93.2609 90.7519C92.6586 90.5893 95.3329 81.6689 102.428 79.0909C109.524 76.513 115.541 78.8078 119.414 83.4698C119.414 83.4698 124.232 86.1923 124.407 90.9868C124.582 95.7813 120.661 101.19 119.263 101.088Z" fill="#263238"/>
<path d="M122.039 98.6785C123.236 96.7063 123.93 94.4704 124.06 92.1672C124.19 89.864 123.753 87.564 122.786 85.4695C119.485 78.1092 107.643 75.1879 99.8311 80.398C99.8311 80.398 113.263 77.9887 117.804 84.0481C122.346 90.1074 122.039 98.6785 122.039 98.6785Z" fill="#172090"/>
<path d="M117.227 102.6C117.227 102.6 120.732 97.781 122.931 98.9856C125.129 100.19 122.443 107.304 119.817 108.225C119.489 108.368 119.135 108.442 118.777 108.444C118.42 108.447 118.065 108.376 117.736 108.238C117.406 108.099 117.108 107.896 116.859 107.639C116.61 107.382 116.415 107.077 116.287 106.744L117.227 102.6Z" fill="#F7A9A0"/>
<path d="M122.112 101.022C122.154 101.022 122.16 101.076 122.112 101.094C120.269 101.799 119.281 103.503 118.576 105.226C119.13 104.563 119.877 104.202 120.774 104.864C120.823 104.901 120.774 104.973 120.72 104.961C120.4 104.852 120.054 104.846 119.73 104.943C119.406 105.04 119.121 105.236 118.913 105.503C118.571 105.949 118.276 106.429 118.034 106.936C117.944 107.099 117.648 107.009 117.715 106.822V106.78C117.733 104.449 119.6 101.214 122.112 101.022Z" fill="#263238"/>
<path d="M137.741 80.8497C136.154 78.4956 135.295 75.7262 135.272 72.887C135.272 62.7981 146.355 54.6186 160.009 54.6186C173.664 54.6186 184.735 62.7981 184.735 72.887C184.735 82.9759 173.664 91.1494 160.009 91.1494C153.384 91.1494 147.361 89.2341 142.946 86.096L134.429 88.2643L137.741 80.8497Z" fill="white"/>
<path d="M137.742 80.8498C136.193 78.6291 135.316 76.0094 135.217 73.3038C135.118 70.5982 135.8 67.9212 137.181 65.5929C138.559 63.2686 140.405 61.2564 142.602 59.6842C144.788 58.1004 147.209 56.8688 149.776 56.0341C152.336 55.1874 154.99 54.6575 157.679 54.456C160.37 54.2729 163.073 54.4104 165.732 54.8656C166.388 54.9981 167.063 55.0884 167.713 55.2631L169.665 55.7871L171.574 56.4617C172.213 56.6906 172.815 56.9978 173.435 57.2628C175.886 58.4117 178.126 59.9653 180.061 61.8585C182.019 63.7645 183.486 66.1163 184.337 68.713C185.165 71.3378 185.192 74.1497 184.416 76.7901C183.61 79.4016 182.179 81.7772 180.248 83.7108C178.349 85.6285 176.137 87.2073 173.706 88.3788C171.275 89.5568 168.69 90.3862 166.027 90.8423C163.373 91.3194 160.671 91.4731 157.98 91.3001C155.29 91.1399 152.633 90.6359 150.071 89.8003C147.502 88.9683 145.075 87.7497 142.873 86.1864H142.988L134.453 88.2824L134.314 88.3186L134.375 88.1921L137.742 80.8498ZM137.742 80.8498L134.489 88.2644L134.411 88.174L142.916 85.9394H142.976L143.03 85.9755C147.477 88.9455 152.655 90.6354 157.998 90.8604C160.654 91.0038 163.317 90.8258 165.93 90.3303C168.544 89.8832 171.083 89.0723 173.471 87.921C175.859 86.7726 178.031 85.2221 179.892 83.3374C181.753 81.4653 183.129 79.1686 183.904 76.6456C184.637 74.1149 184.604 71.4234 183.807 68.9117C182.99 66.4042 181.578 64.1312 179.693 62.2862C177.806 60.4307 175.619 58.9075 173.224 57.7808C172.622 57.5218 172.02 57.2146 171.418 56.9918L169.55 56.3232L167.629 55.7992C166.99 55.6245 166.328 55.5402 165.683 55.4016C163.065 54.9506 160.403 54.8051 157.751 54.968C155.09 55.1434 152.46 55.643 149.921 56.4557C147.39 57.2457 144.998 58.4264 142.831 59.9552C140.653 61.4827 138.808 63.4378 137.41 65.7014C136.025 67.9898 135.311 70.6218 135.35 73.2966C135.431 75.9875 136.259 78.6029 137.742 80.8498Z" fill="#263238"/>
<path d="M150.287 69.7911V76.5793H149.01V73.6821H145.927V76.5793H144.607V69.7911H145.927V72.5377H149.01V69.7911H150.287Z" fill="#263238"/>
<path d="M156.419 75.4228V76.5793H151.703V69.7911H156.329V70.9476H153.022V72.604H155.883V73.6761H153.022V75.4409L156.419 75.4228Z" fill="#263238"/>
<path d="M157.443 76.5793V69.7911H158.762V75.4228H162.262V76.5793H157.443Z" fill="#263238"/>
<path d="M163.033 76.5793V69.7911H164.352V75.4228H167.816V76.5793H163.033Z" fill="#263238"/>
<path d="M171.086 76.6275C170.618 76.6345 170.155 76.5357 169.731 76.3384C169.335 76.152 168.98 75.8877 168.689 75.5614C168.103 74.9098 167.779 74.0645 167.779 73.1882C167.778 72.7422 167.864 72.3003 168.032 71.8872C168.194 71.4792 168.431 71.1053 168.731 70.785C169.028 70.4638 169.386 70.2057 169.785 70.026C170.203 69.8362 170.657 69.7396 171.116 69.7429C171.581 69.7383 172.041 69.8414 172.459 70.0441C172.852 70.239 173.203 70.5068 173.495 70.8332C174.072 71.4903 174.395 72.332 174.405 73.2063C174.407 73.6504 174.321 74.0905 174.152 74.5013C173.997 74.9135 173.764 75.2919 173.465 75.6156C173.166 75.9316 172.811 76.189 172.417 76.3745C171.997 76.5537 171.543 76.64 171.086 76.6275ZM169.116 73.2063C169.115 73.4947 169.16 73.7814 169.249 74.0556C169.332 74.32 169.463 74.5669 169.634 74.7844C169.798 74.9931 170.003 75.1655 170.237 75.2903C170.498 75.419 170.786 75.4858 171.077 75.4858C171.368 75.4858 171.656 75.419 171.917 75.2903C172.152 75.1617 172.357 74.9852 172.52 74.7723C172.689 74.5512 172.819 74.3026 172.905 74.0375C173.014 73.7724 173.081 73.492 173.104 73.2063C173.104 72.9176 173.057 72.6308 172.965 72.357C172.88 72.0924 172.747 71.8454 172.574 71.6282C172.411 71.4205 172.206 71.25 171.971 71.1283C171.709 71.0035 171.422 70.9388 171.131 70.9388C170.841 70.9388 170.554 71.0035 170.291 71.1283C170.055 71.2554 169.85 71.4322 169.689 71.6463C169.52 71.8648 169.392 72.1116 169.309 72.3751C169.202 72.6403 169.137 72.9208 169.116 73.2063Z" fill="#263238"/>
<path d="M175.543 74.0315V69.7249H176.82V74.0315H175.543ZM175.543 76.5793V75.1397H176.82V76.5793H175.543Z" fill="#263238"/>
</svg>
