<svg width="267" height="250" viewBox="0 0 267 250" fill="none" xmlns="http://www.w3.org/2000/svg">
<path d="M227.986 0.0234375H161.925V68.8882H227.986V0.0234375Z" fill="#E0E0E0"/>
<path d="M223.513 0.0234375H157.452V68.8882H223.513V0.0234375Z" fill="#FAFAFA"/>
<path d="M223.53 68.9059H157.428V0H223.53V68.9059ZM157.463 68.8648H223.489V0.0411482H157.463V68.8648Z" fill="#E0E0E0"/>
<path d="M214.63 9.28186H166.328V59.6299H214.63V9.28186Z" fill="white"/>
<path d="M166.328 59.965C165.992 60.4717 165.597 60.9373 165.153 61.3523C164.382 62.1635 163.301 63.2627 162.084 64.4619C160.867 65.6611 159.733 66.7251 158.927 67.4834C158.511 67.9287 158.043 68.3233 157.534 68.659C157.868 68.1524 158.263 67.6885 158.71 67.2776C159.48 66.4605 160.567 65.3613 161.784 64.1562C163.001 62.9512 164.136 61.8872 164.947 61.1348C165.359 60.6908 165.822 60.2981 166.328 59.965Z" fill="#E0E0E0"/>
<path d="M214.63 59.8474C215.138 60.1821 215.604 60.5768 216.017 61.0231C216.828 61.7931 217.934 62.8748 219.127 64.0916C220.32 65.3084 221.39 66.4429 222.148 67.2482C222.594 67.6647 222.988 68.1324 223.324 68.6414C222.817 68.3073 222.353 67.9125 221.943 67.4657C221.131 66.6957 220.026 65.6082 218.821 64.3914C217.616 63.1746 216.552 62.04 215.8 61.2288C215.356 60.817 214.963 60.3531 214.63 59.8474Z" fill="#E0E0E0"/>
<path d="M214.483 9.41709C214.821 8.91117 215.215 8.44569 215.659 8.0298C216.429 7.21271 217.517 6.11346 218.728 4.91428C219.938 3.7151 221.079 2.65112 221.884 1.89869C222.302 1.45225 222.772 1.05754 223.283 0.723022C222.946 1.22524 222.551 1.6868 222.108 2.09855C221.338 2.91564 220.25 4.02077 219.033 5.21996C217.816 6.41914 216.682 7.489 215.871 8.2473C215.457 8.69177 214.991 9.08456 214.483 9.41709Z" fill="#E0E0E0"/>
<path d="M166.198 9.54048C165.692 9.203 165.227 8.80852 164.811 8.36481C163.999 7.59475 162.894 6.50725 161.701 5.29632C160.508 4.08538 159.432 2.94498 158.68 2.13965C158.233 1.722 157.838 1.2523 157.504 0.740601C158.007 1.07889 158.471 1.47331 158.885 1.91627C159.697 2.68633 160.802 3.77382 162.001 4.99064C163.2 6.20746 164.27 7.34198 165.028 8.15319C165.473 8.56673 165.865 9.03255 166.198 9.54048Z" fill="#E0E0E0"/>
<path d="M214.483 59.6299C214.483 59.6299 214.483 59.5418 214.483 59.383C214.483 59.2243 214.483 58.9833 214.483 58.6835C214.483 58.0487 214.483 57.1434 214.483 55.9618C214.483 53.6105 214.454 50.0835 214.436 45.7041C214.436 36.8866 214.377 24.3246 214.342 9.25841L214.524 9.44064L166.363 9.47003L166.58 9.25841C166.58 27.734 166.58 45.0281 166.551 59.6064L166.363 59.4242L201.239 59.5182L211.038 59.5653H213.631H214.301H214.53H214.318H213.672H211.115L201.357 59.6123L166.363 59.7063H166.181V59.5241C166.181 44.9458 166.181 27.6517 166.181 9.17612V8.95862H166.398H214.559H214.748V9.29368C214.706 24.3834 214.677 36.9866 214.653 45.8335C214.653 50.2187 214.618 53.6752 214.606 56.05C214.606 57.2257 214.606 58.1133 214.606 58.7364C214.606 59.0245 214.606 59.2478 214.606 59.4183C214.575 59.4942 214.534 59.5654 214.483 59.6299Z" fill="#E0E0E0"/>
<path d="M198.541 26.3937H182.423V42.5122H198.541V26.3937Z" fill="#EBEBEB"/>
<path d="M239.237 182.117C242.834 180.259 247.079 180.018 251.076 180.677C253.221 181.029 255.461 181.676 256.925 183.287C258.388 184.897 258.659 187.742 256.984 189.13C255.984 189.953 254.591 190.076 253.298 190.064C250.165 190.023 246.691 189.477 244.192 191.358C242.764 192.433 241.841 194.22 240.113 194.749C238.384 195.279 236.586 194.279 235.675 192.774C234.859 191.207 234.68 189.386 235.175 187.69C235.377 186.511 235.849 185.394 236.553 184.428C237.258 183.461 238.176 182.67 239.237 182.117Z" fill="#EBEBEB"/>
<path d="M230.983 166.169C233.188 169.314 237.449 168.273 239.448 166.357C241.447 164.441 242.275 161.654 243.034 158.997C244.797 152.937 246.561 146.576 245.244 140.404C244.936 138.536 244.123 136.788 242.893 135.349C241.594 133.979 239.601 133.162 237.779 133.644C235.621 134.232 234.252 136.33 233.311 138.347C230.454 144.283 228.955 150.781 228.926 157.369C228.926 160.432 229.278 163.647 231.007 166.187" fill="#EBEBEB"/>
<path d="M224.476 179.795C226.869 176.956 227.321 172.817 226.24 169.261C225.158 165.705 222.772 162.683 220.003 160.214C216.742 157.314 212.949 155.076 208.834 153.625C207.24 152.979 205.525 152.689 203.808 152.772C202.951 152.824 202.12 153.083 201.386 153.527C200.651 153.972 200.036 154.588 199.593 155.323C198.418 157.563 199.546 160.285 200.769 162.501C202.922 166.408 205.375 170.142 208.105 173.67C210.31 176.503 212.808 179.301 216.176 180.583C219.544 181.864 223.007 181.711 224.788 179.407" fill="#EBEBEB"/>
<path d="M230.837 213.613C230.953 213.145 231.02 212.666 231.037 212.185C231.137 211.144 231.26 209.833 231.413 208.287C231.608 206.365 231.901 204.454 232.289 202.562C232.804 200.261 233.5 198.005 234.37 195.813C235.224 193.622 236.386 191.564 237.82 189.7C238.985 188.184 240.473 186.947 242.176 186.079C243.332 185.505 244.573 185.12 245.85 184.938C246.331 184.92 246.808 184.849 247.273 184.727C246.79 184.677 246.304 184.677 245.821 184.727C244.496 184.826 243.2 185.162 241.994 185.72C240.202 186.57 238.629 187.821 237.397 189.377C235.905 191.266 234.7 193.366 233.823 195.608C232.938 197.832 232.248 200.13 231.76 202.474C231.391 204.387 231.135 206.32 230.996 208.264C230.872 209.921 230.825 211.262 230.808 212.19C230.764 212.664 230.774 213.141 230.837 213.613Z" fill="#E0E0E0"/>
<path d="M231.101 210.615C231.144 210.396 231.158 210.173 231.142 209.951C231.142 209.451 231.142 208.822 231.142 208.052C231.142 206.406 231.142 204.025 231.225 201.086C231.372 195.208 231.877 188.871 232.859 179.924C233.782 171.536 235.028 161.766 236.339 155.417C236.621 153.977 236.927 152.672 237.168 151.538C237.409 150.403 237.644 149.416 237.849 148.599L238.296 146.759C238.363 146.545 238.401 146.324 238.408 146.1C238.311 146.3 238.234 146.509 238.179 146.723C238.038 147.201 237.855 147.807 237.632 148.54C237.385 149.327 237.138 150.303 236.85 151.444C236.562 152.584 236.262 153.871 235.933 155.312C234.307 162.822 233.084 170.414 232.271 178.055C231.289 186.996 230.848 195.137 230.813 201.039C230.778 203.978 230.813 206.371 230.913 208.017C230.96 208.787 231.001 209.416 231.031 209.916C231.026 210.151 231.05 210.386 231.101 210.615Z" fill="#E0E0E0"/>
<path d="M230.672 204.02C230.725 203.36 230.725 202.698 230.672 202.039C230.596 200.763 230.425 198.923 230.084 196.672C229.644 194.035 229.055 191.424 228.321 188.853C227.474 185.691 226.385 182.597 225.064 179.601C222.354 173.135 218.669 167.903 215.465 164.646C214.756 163.902 214.002 163.201 213.208 162.548C212.861 162.254 212.549 161.96 212.238 161.731L211.362 161.143C210.835 160.747 210.279 160.391 209.698 160.079C209.598 160.208 212.05 161.654 215.159 164.952C219.089 169.348 222.24 174.381 224.476 179.836C225.774 182.815 226.874 185.877 227.768 189C228.627 191.875 229.191 194.514 229.626 196.742C230.061 198.97 230.267 200.798 230.414 202.033C230.448 202.701 230.535 203.365 230.672 204.02Z" fill="#E0E0E0"/>
<path d="M215.964 222.613L217.533 244.175H245.232L246.808 222.613H215.964Z" fill="#E0E0E0"/>
<path d="M250.112 214.113H213.29V222.613H250.112V214.113Z" fill="#E0E0E0"/>
<path d="M213.29 243.346V245.703H215.018H249.506V243.346H213.29Z" fill="#EBEBEB"/>
<path d="M216.716 249.847L215.018 245.703H248.183L246.208 249.847H216.716Z" fill="#E0E0E0"/>
<path d="M246.291 229.661C246.291 229.661 246.255 229.732 246.167 229.855L245.75 230.408L244.139 232.471L244.063 232.565L243.998 232.465L240.03 226.986H240.259L236.356 232.512L236.233 232.671L236.098 232.506L231.471 227.004H231.736L231.483 227.321L227.368 232.512L227.227 232.682L227.104 232.506L223.195 226.98H223.424L218.598 232.477L218.51 232.571L218.445 232.465L216.94 229.931C216.781 229.661 216.658 229.438 216.552 229.261C216.504 229.185 216.465 229.105 216.435 229.02C216.435 229.02 216.499 229.091 216.599 229.232L217.028 229.884L218.604 232.365H218.457C219.685 230.919 221.296 229.038 223.189 226.822L223.306 226.681L223.412 226.828L227.357 232.33H227.086L231.201 227.133C231.289 227.022 231.377 226.916 231.454 226.81L231.589 226.645L231.724 226.81L236.339 232.33H236.08C237.503 230.343 238.831 228.497 240.018 226.833L240.136 226.669L240.248 226.833C241.811 229.061 243.134 230.948 244.127 232.377H243.986L245.668 230.366L246.114 229.843C246.226 229.732 246.285 229.655 246.291 229.661Z" fill="#F5F5F5"/>
<path d="M247.196 222.472C247.196 222.566 240.253 222.642 231.695 222.642C223.136 222.642 216.193 222.566 216.193 222.472C216.193 222.378 223.13 222.295 231.695 222.295C240.259 222.295 247.196 222.372 247.196 222.472Z" fill="#F5F5F5"/>
<path d="M248.577 245.932C248.577 246.032 241.03 246.109 231.73 246.109C222.431 246.109 214.883 246.032 214.883 245.932C214.883 245.832 222.425 245.762 231.73 245.762C241.036 245.762 248.577 245.838 248.577 245.932Z" fill="#F5F5F5"/>
<path d="M10.4463 224.059V249.659H47.8854H89.1808V224.059H10.4463Z" fill="#F5F5F5"/>
<path d="M7.14258 216.905V224.059H91.9318V216.905H47.8854H7.14258Z" fill="#E0E0E0"/>
<path d="M49.5366 249.659H89.1801V224.059H91.9312V216.905H47.8848V223.4L49.5366 249.659Z" fill="#E0E0E0"/>
<path d="M37.4216 228.191H21.4561V232.047H37.4216V228.191Z" fill="#E0E0E0"/>
<path d="M39.9089 236.862H19.4053V244.998H39.9089V236.862Z" fill="white"/>
<path d="M22.5615 191.334V216.934H59.9948H101.29V191.334H22.5615Z" fill="#F5F5F5"/>
<path d="M19.2578 184.174V191.334H104.047V184.174H59.9947H19.2578Z" fill="#E0E0E0"/>
<path d="M61.646 216.934H101.289V191.334H104.046V184.174H59.9941V190.67L61.646 216.934Z" fill="#E0E0E0"/>
<path d="M49.5369 195.461H33.5713V199.317H49.5369V195.461Z" fill="#E0E0E0"/>
<path d="M52.0173 204.137H31.5137V212.273H52.0173V204.137Z" fill="white"/>
<path d="M266.724 249.847C266.724 249.935 207.012 250 133.368 250C59.7239 250 0 249.935 0 249.847C0 249.759 59.7004 249.718 133.362 249.718C207.023 249.718 266.724 249.765 266.724 249.847Z" fill="#263238"/>
<path d="M103.765 204.701L34.9888 204.666C31.0501 204.699 27.2595 203.166 24.4507 200.405C21.642 197.643 20.0449 193.88 20.0107 189.941V20.5447C20.0526 16.6081 21.6555 12.849 24.4673 10.0935C27.2791 7.33795 31.0697 5.81127 35.0064 5.84888L103.783 5.89003C112.06 5.89003 118.761 12.4855 118.191 20.5859L118.156 189.982C118.755 198.118 112.042 204.707 103.765 204.701Z" fill="#263238"/>
<path d="M103.847 10.7162H90.5093C89.6309 10.7362 88.7965 11.1041 88.1892 11.7389C87.5819 12.3738 87.2514 13.2237 87.2703 14.1021V16.5181C87.2814 17.3914 86.9474 18.2338 86.3409 18.8623C85.7344 19.4908 84.9045 19.8546 84.0313 19.8746H58.0314C57.5968 19.8647 57.1683 19.7692 56.7706 19.5937C56.3729 19.4181 56.0136 19.1659 55.7134 18.8515C55.4131 18.5371 55.1778 18.1666 55.0208 17.7611C54.8638 17.3557 54.7882 16.9233 54.7983 16.4887V14.0727C54.8172 13.1943 54.4868 12.3444 53.8795 11.7095C53.2722 11.0747 52.4377 10.7068 51.5594 10.6868H35.1941C32.4106 10.6852 29.7405 11.789 27.7707 13.7555C25.8009 15.7221 24.6926 18.3903 24.6895 21.1737V189.512C24.6887 190.89 24.9593 192.254 25.4859 193.528C26.0125 194.801 26.7848 195.958 27.7586 196.933C28.7324 197.908 29.8887 198.682 31.1614 199.21C32.4342 199.738 33.7985 200.01 35.1764 200.011L103.835 200.052C106.619 200.052 109.288 198.946 111.257 196.979C113.226 195.011 114.333 192.342 114.334 189.559L114.369 21.2149C114.369 19.8342 114.097 18.4671 113.568 17.1918C113.039 15.9165 112.264 14.758 111.286 13.7828C110.309 12.8076 109.149 12.0348 107.872 11.5086C106.596 10.9823 105.228 10.7131 103.847 10.7162Z" fill="#172090"/>
<path d="M107.775 30.097C107.775 30.1441 105.923 30.197 103.66 30.2146C101.397 30.2322 99.5449 30.2146 99.5449 30.1617C99.5449 30.1088 101.397 30.0618 103.66 30.0441C105.923 30.0265 107.775 30.05 107.775 30.097Z" fill="white"/>
<path d="M107.792 32.2192C107.792 32.2662 105.94 32.3191 103.677 32.3367C101.414 32.3544 99.5625 32.3367 99.5625 32.2838C99.5625 32.2309 101.414 32.1839 103.677 32.1663C105.94 32.1486 107.792 32.1604 107.792 32.2192Z" fill="white"/>
<path d="M107.81 34.3295C107.81 34.3765 105.958 34.4294 103.695 34.447C101.432 34.4647 99.5801 34.447 99.5801 34.3941C99.5801 34.3412 101.432 34.2942 103.695 34.2766C105.958 34.2589 107.81 34.2766 107.81 34.3295Z" fill="white"/>
<path d="M32.584 36.8102H32.7603H33.2365L35 36.7632L34.953 36.8161C34.953 36.4222 34.953 35.9931 34.953 35.5346C34.953 35.2995 34.953 35.0702 34.953 34.7998C34.9805 34.6582 35.0523 34.529 35.1579 34.4308C35.2635 34.3326 35.3976 34.2704 35.5408 34.2531C35.8229 34.2531 36.0757 34.2531 36.3814 34.2531C36.5445 34.2783 36.6932 34.3608 36.801 34.4857C36.9087 34.6107 36.9684 34.77 36.9692 34.935C36.9692 35.5346 36.9692 36.1577 36.9692 36.8043L36.8869 36.722H39.1148L39.0325 36.8102C39.0325 35.9108 39.0325 34.9879 39.0325 34.0356C39.0325 33.8005 39.0325 33.5654 39.0325 33.3302C39.0207 33.2244 38.9863 33.1224 38.9315 33.0311C38.8767 32.9398 38.8029 32.8614 38.7151 32.8012L37.7452 31.843L36.8046 30.9142L36.3461 30.4675C36.2287 30.3113 36.0698 30.1912 35.8876 30.1207C35.8004 30.0969 35.7089 30.0935 35.6202 30.1109C35.5315 30.1282 35.448 30.1657 35.3762 30.2206C35.241 30.3323 35.0999 30.4969 34.9647 30.6262L34.1359 31.3786C33.6303 31.9018 33.1072 32.3779 32.7251 32.8306C32.6144 33.0919 32.5758 33.3781 32.6134 33.6594V34.4471C32.6134 34.9291 32.6134 35.3524 32.6134 35.711C32.6134 36.0695 32.6134 36.2988 32.6134 36.5222C32.6216 36.618 32.6216 36.7144 32.6134 36.8102C32.6134 36.8102 32.6134 36.722 32.6134 36.5457C32.6134 36.3693 32.6134 36.0637 32.6134 35.7462C32.6134 35.4288 32.6134 34.9585 32.6134 34.4706C32.6134 34.2237 32.6134 33.9533 32.6134 33.6712C32.6134 33.5301 32.6134 33.3831 32.6134 33.2362C32.6131 33.0732 32.6557 32.9131 32.7368 32.7718C33.1483 32.2662 33.6421 31.8195 34.1476 31.2787L34.8236 30.4557C34.9593 30.3074 35.1026 30.1661 35.2528 30.0325C35.3434 29.9628 35.4489 29.915 35.561 29.8925C35.6731 29.8701 35.7889 29.8738 35.8994 29.9032C36.1096 29.9785 36.2948 30.1108 36.4343 30.2852L36.8928 30.732L37.8333 31.6549L38.8092 32.6131C38.9 32.695 38.9827 32.7855 39.056 32.8835C39.1324 32.9941 39.1734 33.1253 39.1736 33.2597C39.1736 33.4948 39.1736 33.73 39.1736 33.971C39.1736 34.9174 39.1736 35.8462 39.1736 36.7455V36.8278H39.0854H36.8634H36.7811V36.7455C36.7811 36.0989 36.7811 35.4758 36.7811 34.8821C36.7854 34.7521 36.7416 34.625 36.6581 34.5253C36.5746 34.4255 36.4572 34.36 36.3285 34.3413C36.0757 34.3413 35.77 34.3413 35.5232 34.3413C35.4072 34.3537 35.2981 34.4024 35.2115 34.4805C35.1249 34.5587 35.0653 34.6622 35.0411 34.7763C35.0411 34.9997 35.0411 35.2583 35.0411 35.4876V36.8161H34.9882H33.2247H32.7545L32.584 36.8102Z" fill="white"/>
<path d="M73.6623 176.174C80.7235 176.174 86.4477 170.45 86.4477 163.388C86.4477 156.327 80.7235 150.603 73.6623 150.603C66.6012 150.603 60.877 156.327 60.877 163.388C60.877 170.45 66.6012 176.174 73.6623 176.174Z" fill="white"/>
<path d="M65.8203 166.328L69.0122 165.575C69.2034 165.531 69.374 165.423 69.4958 165.27C69.6176 165.116 69.6834 164.925 69.6824 164.729V164.07C69.6824 164.07 69.5472 162.953 70.6053 162.895C71.3577 162.842 76.1603 162.895 76.1603 162.895C76.1603 162.895 77.4241 162.895 77.4065 163.865V164.823C77.4068 164.983 77.4583 165.139 77.5534 165.268C77.6486 165.397 77.7825 165.492 77.9356 165.54L81.3979 166.586C81.5751 166.64 81.7659 166.625 81.9332 166.546C82.1005 166.467 82.2323 166.328 82.3032 166.157L82.744 165.087C82.8279 164.893 82.8661 164.682 82.8557 164.47C82.8219 163.891 82.6174 163.334 82.2679 162.871C81.5801 161.989 78.3412 159.932 72.1689 160.208C66.2906 160.49 65.0091 162.971 64.674 163.565C64.4501 164.087 64.4107 164.669 64.5623 165.217L64.821 165.804C64.8983 165.996 65.0413 166.154 65.2244 166.25C65.4075 166.346 65.6187 166.373 65.8203 166.328Z" fill="#172090"/>
<g opacity="0.2">
<path d="M73.6624 131.275C78.5549 131.275 82.521 127.309 82.521 122.416C82.521 117.524 78.5549 113.558 73.6624 113.558C68.7699 113.558 64.8037 117.524 64.8037 122.416C64.8037 127.309 68.7699 131.275 73.6624 131.275Z" fill="white"/>
</g>
<path d="M71.2406 123.457C71.8088 123.457 72.2693 122.996 72.2693 122.428C72.2693 121.86 71.8088 121.4 71.2406 121.4C70.6725 121.4 70.2119 121.86 70.2119 122.428C70.2119 122.996 70.6725 123.457 71.2406 123.457Z" fill="white"/>
<path d="M74.6902 122.428C74.6902 122.632 74.6299 122.831 74.5169 123C74.4038 123.169 74.2432 123.301 74.0552 123.379C73.8672 123.457 73.6604 123.477 73.4608 123.437C73.2613 123.397 73.078 123.3 72.9341 123.156C72.7902 123.012 72.6923 122.828 72.6526 122.629C72.6129 122.429 72.6333 122.223 72.7111 122.035C72.789 121.847 72.9208 121.686 73.09 121.573C73.2592 121.46 73.4581 121.4 73.6615 121.4C73.9344 121.4 74.196 121.508 74.3889 121.701C74.5819 121.894 74.6902 122.155 74.6902 122.428Z" fill="white"/>
<path d="M77.1131 122.428C77.1143 122.633 77.0544 122.834 76.9412 123.005C76.828 123.176 76.6664 123.31 76.4772 123.389C76.2879 123.468 76.0794 123.489 75.8781 123.449C75.6769 123.409 75.492 123.311 75.347 123.166C75.2019 123.021 75.1033 122.836 75.0635 122.634C75.0238 122.433 75.0448 122.225 75.1238 122.035C75.2029 121.846 75.3364 121.685 75.5074 121.571C75.6784 121.458 75.8793 121.398 76.0844 121.399C76.3572 121.399 76.6189 121.508 76.8118 121.701C77.0047 121.894 77.1131 122.155 77.1131 122.428Z" fill="white"/>
<path d="M72.2693 119.971C72.2682 120.174 72.2068 120.373 72.0931 120.541C71.9794 120.709 71.8183 120.84 71.6302 120.917C71.4422 120.994 71.2355 121.014 71.0363 120.973C70.8372 120.933 70.6544 120.835 70.5111 120.69C70.3679 120.546 70.2705 120.363 70.2313 120.164C70.192 119.964 70.2127 119.758 70.2908 119.57C70.3688 119.382 70.5007 119.222 70.6697 119.109C70.8387 118.997 71.0374 118.936 71.2406 118.936C71.3762 118.936 71.5104 118.963 71.6356 119.015C71.7608 119.067 71.8745 119.144 71.9701 119.24C72.0657 119.336 72.1413 119.45 72.1927 119.576C72.2441 119.701 72.2701 119.835 72.2693 119.971Z" fill="white"/>
<path d="M74.6902 119.971C74.6891 120.174 74.6277 120.373 74.514 120.541C74.4003 120.709 74.2392 120.84 74.0511 120.917C73.863 120.994 73.6564 121.014 73.4572 120.973C73.2581 120.933 73.0753 120.835 72.932 120.69C72.7888 120.546 72.6914 120.363 72.6522 120.164C72.6129 119.964 72.6336 119.758 72.7117 119.57C72.7897 119.382 72.9216 119.222 73.0906 119.109C73.2596 118.997 73.4583 118.936 73.6615 118.936C73.7971 118.936 73.9313 118.963 74.0565 119.015C74.1817 119.067 74.2954 119.144 74.391 119.24C74.4866 119.336 74.5623 119.45 74.6136 119.576C74.665 119.701 74.691 119.835 74.6902 119.971Z" fill="white"/>
<path d="M77.1131 119.971C77.1131 120.176 77.0523 120.376 76.9383 120.546C76.8244 120.717 76.6625 120.849 76.4731 120.927C76.2837 121.006 76.0754 121.026 75.8745 120.985C75.6737 120.945 75.4893 120.846 75.3449 120.7C75.2004 120.555 75.1024 120.37 75.0631 120.169C75.0239 119.968 75.0452 119.76 75.1244 119.571C75.2036 119.382 75.3371 119.221 75.508 119.108C75.6789 118.995 75.8795 118.935 76.0844 118.936C76.22 118.936 76.3543 118.963 76.4794 119.015C76.6046 119.067 76.7183 119.144 76.8139 119.24C76.9095 119.336 76.9852 119.45 77.0365 119.576C77.0879 119.701 77.1139 119.835 77.1131 119.971Z" fill="white"/>
<path d="M72.2693 124.862C72.2693 125.065 72.209 125.264 72.096 125.433C71.9829 125.602 71.8223 125.734 71.6343 125.812C71.4463 125.89 71.2395 125.91 71.0399 125.871C70.8404 125.831 70.6571 125.733 70.5132 125.589C70.3694 125.445 70.2714 125.262 70.2317 125.062C70.192 124.863 70.2124 124.656 70.2902 124.468C70.3681 124.28 70.4999 124.119 70.6691 124.006C70.8383 123.893 71.0372 123.833 71.2406 123.833C71.5135 123.833 71.7751 123.941 71.968 124.134C72.161 124.327 72.2693 124.589 72.2693 124.862Z" fill="white"/>
<path d="M74.6902 124.862C74.6902 125.065 74.6299 125.264 74.5169 125.433C74.4038 125.602 74.2432 125.734 74.0552 125.812C73.8672 125.89 73.6604 125.91 73.4608 125.871C73.2613 125.831 73.078 125.733 72.9341 125.589C72.7902 125.445 72.6923 125.262 72.6526 125.062C72.6129 124.863 72.6333 124.656 72.7111 124.468C72.789 124.28 72.9208 124.119 73.09 124.006C73.2592 123.893 73.4581 123.833 73.6615 123.833C73.9344 123.833 74.196 123.941 74.3889 124.134C74.5819 124.327 74.6902 124.589 74.6902 124.862Z" fill="white"/>
<path d="M77.1131 124.862C77.1143 125.067 77.0544 125.268 76.9412 125.439C76.828 125.61 76.6664 125.743 76.4772 125.822C76.2879 125.901 76.0794 125.922 75.8781 125.883C75.6769 125.843 75.492 125.744 75.347 125.599C75.2019 125.454 75.1033 125.269 75.0635 125.068C75.0238 124.867 75.0448 124.658 75.1238 124.469C75.2029 124.28 75.3364 124.118 75.5074 124.005C75.6784 123.892 75.8793 123.832 76.0844 123.833C76.3572 123.833 76.6189 123.941 76.8118 124.134C77.0047 124.327 77.1131 124.589 77.1131 124.862Z" fill="white"/>
<g opacity="0.2">
<path d="M48.2327 131.275C53.1252 131.275 57.0913 127.309 57.0913 122.416C57.0913 117.524 53.1252 113.558 48.2327 113.558C43.3402 113.558 39.374 117.524 39.374 122.416C39.374 127.309 43.3402 131.275 48.2327 131.275Z" fill="white"/>
</g>
<path d="M44.0769 121.258V123.333C44.0769 123.376 44.0936 123.416 44.1234 123.446C44.1531 123.475 44.1935 123.492 44.2356 123.492H45.4113C45.4476 123.492 45.4829 123.505 45.5112 123.527L47.3158 124.938C47.3395 124.957 47.3683 124.969 47.3986 124.973C47.4289 124.976 47.4596 124.971 47.4869 124.957C47.5142 124.943 47.5369 124.922 47.5525 124.896C47.568 124.87 47.5757 124.839 47.5745 124.809V119.912C47.5759 119.882 47.5688 119.853 47.554 119.826C47.5392 119.8 47.5173 119.779 47.4908 119.765C47.4643 119.751 47.4344 119.744 47.4045 119.746C47.3746 119.749 47.3459 119.759 47.3217 119.777L45.5582 121.035C45.5299 121.053 45.4975 121.063 45.4642 121.064H44.2356C44.2118 121.065 44.1883 121.07 44.1669 121.081C44.1454 121.091 44.1265 121.106 44.1114 121.125C44.0963 121.143 44.0854 121.165 44.0795 121.188C44.0735 121.211 44.0726 121.235 44.0769 121.258Z" fill="white"/>
<path d="M50.9129 125.955C50.8627 125.956 50.8143 125.937 50.7777 125.902C50.7404 125.865 50.7194 125.814 50.7194 125.761C50.7194 125.708 50.7404 125.658 50.7777 125.62C51.2322 125.167 51.5908 124.627 51.8321 124.032C52.0735 123.437 52.1927 122.8 52.1827 122.158C52.0795 121.042 51.5813 120 50.7777 119.219C50.7535 119.202 50.7331 119.181 50.7178 119.156C50.7026 119.131 50.6928 119.103 50.6891 119.074C50.6855 119.045 50.688 119.016 50.6967 118.988C50.7053 118.96 50.7198 118.934 50.7391 118.912C50.7585 118.89 50.7823 118.873 50.809 118.861C50.8357 118.849 50.8646 118.843 50.8938 118.843C50.9231 118.843 50.952 118.849 50.9786 118.861C51.0052 118.873 51.0289 118.891 51.0481 118.913C51.9372 119.761 52.4851 120.904 52.5883 122.128C52.5989 122.824 52.4697 123.514 52.2081 124.158C51.9466 124.803 51.5581 125.388 51.0658 125.879C51.027 125.923 50.972 125.951 50.9129 125.955Z" fill="white"/>
<path d="M49.7966 124.968C49.769 124.968 49.7416 124.962 49.7163 124.951C49.691 124.94 49.6683 124.923 49.6496 124.903C49.6119 124.865 49.5908 124.813 49.5908 124.759C49.5908 124.705 49.6119 124.653 49.6496 124.615C49.9738 124.351 50.2379 124.021 50.4244 123.647C50.611 123.273 50.7156 122.864 50.7312 122.446C50.6689 121.557 50.2843 120.721 49.6496 120.095C49.6119 120.056 49.5908 120.004 49.5908 119.95C49.5908 119.897 49.6119 119.845 49.6496 119.806C49.6871 119.769 49.7378 119.748 49.7907 119.748C49.8436 119.748 49.8943 119.769 49.9318 119.806C50.6533 120.507 51.0854 121.453 51.1427 122.458C51.1274 122.931 51.0115 123.397 50.8027 123.822C50.5939 124.248 50.2971 124.624 49.9318 124.927C49.9133 124.942 49.8918 124.954 49.8685 124.961C49.8452 124.968 49.8207 124.97 49.7966 124.968Z" fill="white"/>
<path d="M48.802 123.921C48.7494 123.919 48.6993 123.899 48.6609 123.863C48.6415 123.844 48.6261 123.822 48.6156 123.797C48.605 123.772 48.5996 123.745 48.5996 123.719C48.5996 123.692 48.605 123.665 48.6156 123.64C48.6261 123.616 48.6415 123.593 48.6609 123.575C49.9071 122.34 48.702 120.941 48.6609 120.882C48.6245 120.843 48.6043 120.792 48.6043 120.738C48.6043 120.685 48.6245 120.633 48.6609 120.594C48.6994 120.557 48.7511 120.535 48.8049 120.535C48.8588 120.535 48.9105 120.557 48.9489 120.594C48.9489 120.594 50.4597 122.358 48.9489 123.845C48.9311 123.867 48.9088 123.885 48.8835 123.899C48.8582 123.912 48.8304 123.919 48.802 123.921Z" fill="white"/>
<g opacity="0.2">
<path d="M96.9114 131.275C101.804 131.275 105.77 127.309 105.77 122.416C105.77 117.524 101.804 113.558 96.9114 113.558C92.0189 113.558 88.0527 117.524 88.0527 122.416C88.0527 127.309 92.0189 131.275 96.9114 131.275Z" fill="white"/>
</g>
<path d="M96.9696 125.479C96.8974 125.479 96.828 125.451 96.7763 125.4C96.7247 125.35 96.6949 125.281 96.6934 125.209V119.624C96.703 119.559 96.7359 119.499 96.7861 119.455C96.8363 119.412 96.9004 119.388 96.9667 119.388C97.033 119.388 97.0971 119.412 97.1473 119.455C97.1975 119.499 97.2304 119.559 97.24 119.624V125.209C97.2385 125.28 97.2096 125.348 97.1592 125.398C97.1088 125.449 97.0409 125.478 96.9696 125.479Z" fill="white"/>
<path d="M99.6209 122.687H94.2069C94.1347 122.687 94.0653 122.659 94.0136 122.608C93.962 122.557 93.9322 122.489 93.9307 122.416C93.9307 122.38 93.9378 122.345 93.9518 122.312C93.9658 122.278 93.9862 122.248 94.0119 122.223C94.0377 122.198 94.0682 122.178 94.1017 122.165C94.1351 122.152 94.1709 122.145 94.2069 122.146H99.6209C99.6566 122.145 99.6921 122.152 99.7253 122.165C99.7585 122.178 99.7886 122.198 99.8139 122.223C99.8392 122.249 99.8591 122.279 99.8724 122.312C99.8857 122.345 99.8921 122.381 99.8913 122.416C99.8913 122.488 99.8628 122.557 99.8121 122.608C99.7614 122.658 99.6926 122.687 99.6209 122.687Z" fill="white"/>
<path d="M43.2535 102.301V103.347H39.4561V98.6444H43.1653V99.679H40.7787V100.478H42.8831V101.478H40.7787V102.342L43.2535 102.301Z" fill="white"/>
<path d="M48.2735 103.347V100.837L47.0567 102.883H46.4689L45.2579 100.908V103.347H44.0117V98.6444H45.111L46.7745 101.378L48.397 98.6444H49.5021V103.347H48.2735Z" fill="white"/>
<path d="M54.2514 102.301V103.347H50.4775V98.6444H54.1927V99.679H51.806V100.478H53.9046V101.478H51.806V102.342L54.2514 102.301Z" fill="white"/>
<path d="M57.0613 102.077H56.3559V103.347H55.0156V98.6444H57.1789C57.5619 98.6355 57.9425 98.7077 58.2957 98.856C58.591 98.9764 58.8445 99.1808 59.0247 99.4439C59.2003 99.7213 59.2903 100.044 59.2833 100.373C59.2897 100.687 59.2061 100.997 59.0423 101.266C58.876 101.526 58.6367 101.73 58.3545 101.854L59.3538 103.347H57.9195L57.0613 102.077ZM57.6961 99.8436C57.5189 99.7058 57.2969 99.6388 57.073 99.6555H56.3559V101.043H57.0966C57.3186 101.06 57.5394 100.997 57.7197 100.866C57.7913 100.803 57.8475 100.724 57.8841 100.635C57.9208 100.546 57.9369 100.451 57.9313 100.355C57.9383 100.253 57.9206 100.152 57.8796 100.059C57.8386 99.9654 57.7757 99.8836 57.6961 99.8201V99.8436Z" fill="white"/>
<path d="M63.1689 100.866H64.3446V102.83C64.0601 103.03 63.7442 103.181 63.41 103.277C63.0681 103.377 62.7139 103.428 62.3577 103.429C61.8924 103.435 61.4326 103.328 61.0175 103.118C60.6321 102.916 60.309 102.613 60.0828 102.242C59.8634 101.854 59.748 101.415 59.748 100.969C59.748 100.523 59.8634 100.085 60.0828 99.6966C60.3115 99.3251 60.6365 99.0224 61.0233 98.8208C61.4462 98.6087 61.9141 98.5018 62.3871 98.5092C62.7899 98.5053 63.1895 98.5812 63.5628 98.7326C63.9036 98.8728 64.2059 99.0925 64.4445 99.3733L63.5922 100.143C63.4471 99.9747 63.2664 99.8403 63.0631 99.7498C62.8598 99.6593 62.639 99.6151 62.4165 99.6202C62.2356 99.6071 62.054 99.6331 61.884 99.6964C61.714 99.7597 61.5596 99.8588 61.4314 99.9871C61.3031 100.115 61.2039 100.27 61.1406 100.44C61.0773 100.61 61.0514 100.791 61.0645 100.972C61.0617 101.216 61.1203 101.457 61.235 101.672C61.3423 101.873 61.5057 102.038 61.7052 102.148C61.9186 102.268 62.16 102.329 62.4048 102.324C62.6545 102.326 62.9015 102.271 63.1278 102.166L63.1689 100.866Z" fill="white"/>
<path d="M69.0005 102.301V103.347H65.2031V98.6444H68.9182V99.679H66.5258V100.478H68.6302V101.478H66.5258V102.342L69.0005 102.301Z" fill="white"/>
<path d="M74.2499 98.6033V103.306H73.1507L71.0521 100.814V103.347H69.7412V98.6444H70.8405L72.9331 101.166V98.6444L74.2499 98.6033Z" fill="white"/>
<path d="M76.2194 103.118C75.8349 102.917 75.5135 102.614 75.2906 102.242C75.1168 101.959 75.0027 101.643 74.9555 101.315C74.9082 100.986 74.9287 100.651 75.0157 100.331C75.1027 100.01 75.2544 99.7109 75.4614 99.4512C75.6684 99.1916 75.9263 98.977 76.2194 98.8208C76.6321 98.6098 77.0902 98.5028 77.5538 98.5092C77.9572 98.5042 78.3574 98.5822 78.7294 98.7385C79.0676 98.8856 79.3644 99.1137 79.5935 99.4027L78.7412 100.173C78.6104 100.001 78.4414 99.8612 78.2477 99.7653C78.0539 99.6694 77.8405 99.6198 77.6243 99.6203C77.3847 99.6148 77.1477 99.6715 76.9365 99.7848C76.7401 99.8969 76.5792 100.062 76.4721 100.261C76.3637 100.481 76.3074 100.724 76.3074 100.969C76.3074 101.215 76.3637 101.457 76.4721 101.678C76.5779 101.878 76.7391 102.043 76.9365 102.154C77.1472 102.269 77.3841 102.328 77.6243 102.324C77.8409 102.324 78.0544 102.273 78.2482 102.176C78.4419 102.079 78.6107 101.939 78.7412 101.766L79.5935 102.536C79.366 102.827 79.0688 103.055 78.7294 103.2C78.3574 103.356 77.9572 103.435 77.5538 103.429C77.0902 103.436 76.6321 103.329 76.2194 103.118Z" fill="white"/>
<path d="M82.7035 101.637V103.347H81.3632V101.631L79.5586 98.6151H80.9694L82.0922 100.496L83.2149 98.6151H84.514L82.7035 101.637Z" fill="white"/>
<path d="M87.8466 103.118C87.46 102.918 87.1364 102.615 86.9119 102.242C86.6925 101.854 86.5771 101.415 86.5771 100.969C86.5771 100.523 86.6925 100.085 86.9119 99.6967C87.1383 99.3254 87.4614 99.0226 87.8466 98.8208C88.2591 98.6091 88.7173 98.5021 89.181 98.5092C89.5846 98.5026 89.9851 98.5807 90.3566 98.7385C90.6948 98.8856 90.9916 99.1137 91.2207 99.4027L90.3684 100.173C90.2379 100 90.069 99.8606 89.8752 99.7647C89.6813 99.6688 89.4678 99.6193 89.2515 99.6202C89.012 99.6161 88.7754 99.6727 88.5637 99.7848C88.3673 99.8968 88.2064 100.062 88.0993 100.261C87.9909 100.481 87.9346 100.724 87.9346 100.969C87.9346 101.215 87.9909 101.457 88.0993 101.678C88.2051 101.878 88.3663 102.043 88.5637 102.154C88.7749 102.268 89.0115 102.326 89.2515 102.324C89.4682 102.324 89.6819 102.273 89.8757 102.177C90.0695 102.08 90.2382 101.939 90.3684 101.766L91.2207 102.536C90.9932 102.827 90.696 103.055 90.3566 103.2C89.9851 103.358 89.5846 103.436 89.181 103.429C88.7173 103.437 88.2591 103.33 87.8466 103.118Z" fill="white"/>
<path d="M94.9007 102.418H92.8962L92.5259 103.335H91.1621L93.2489 98.6326H94.5657L96.6642 103.335H95.2711L94.9007 102.418ZM94.5069 101.431L93.919 99.9141L93.3312 101.431H94.5069Z" fill="white"/>
<path d="M97.04 98.6033H98.3803V102.277H100.638V103.347H97.04V98.6033Z" fill="white"/>
<path d="M101.167 98.6033H102.507V102.277H104.765V103.347H101.167V98.6033Z" fill="white"/>
<path d="M224.505 25.9764L212.584 17.2412L211.062 31.6372L195.901 33.2244L207.546 44.8635L198.635 53.3577L211.256 54.2865L212.719 65.614L222.707 57.1786L236.239 65.614L240.018 51.653L254.961 49.5544L241.864 40.2372L248.924 27.8339L237.555 30.4322L234.357 15.1779L224.505 25.9764Z" fill="white"/>
<path d="M224.505 25.9764L225.152 25.2416C225.587 24.7655 226.222 24.0659 227.051 23.1372L234.304 15.1309L234.404 15.0192L234.434 15.1661C235.316 19.3456 236.409 24.5068 237.655 30.4145L237.532 30.3322L248.9 27.7164L249.159 27.6576L249.03 27.8927L241.976 40.3019L241.935 40.1314L255.043 49.4369L255.331 49.6426L254.979 49.6955L240.042 51.7999L240.165 51.6941L236.385 65.6552L236.332 65.8551L236.156 65.7434L225.722 59.2596L222.624 57.3315H222.806L212.813 65.7669L212.602 65.9432L212.566 65.667C212.065 61.8225 211.577 58.0467 211.103 54.3394L211.238 54.4687L198.611 53.4988H198.288L198.523 53.2754L207.429 44.7695V44.9634L195.819 33.3126L195.637 33.1303H195.889L211.05 31.5608L210.956 31.6314C211.544 25.9999 212.078 21.2149 212.508 17.2294V17.106L212.607 17.1824L221.425 23.6956L223.706 25.3886L224.482 25.9764C224.482 25.9764 224.223 25.8 223.706 25.4297L221.413 23.772L212.513 17.3058L212.631 17.2529C212.22 21.2385 211.72 26.0234 211.138 31.6549V31.7372H211.056L195.907 33.342L195.978 33.1362L207.629 44.7636L207.728 44.8635L207.623 44.9576L198.723 53.4576L198.635 53.2108L211.255 54.1337H211.373V54.2571C211.851 57.9565 212.341 61.7324 212.843 65.5847L212.596 65.4847L222.589 57.0493L222.677 56.9788L222.771 57.0376L225.863 58.9657L236.303 65.473L236.074 65.5611C237.373 60.7585 238.649 56.05 239.859 51.6001V51.506H239.959L254.896 49.4133L254.838 49.672L241.746 40.3431L241.652 40.2725L241.711 40.1726L248.765 27.7752L248.895 27.9515L237.52 30.538H237.42V30.4322L234.252 15.1485L234.381 15.1838L227.074 23.2136L225.158 25.2827C224.729 25.753 224.505 25.9764 224.505 25.9764Z" fill="#263238"/>
<path d="M222.606 31.2904L221.819 42.7061C221.785 43.1587 221.587 43.5835 221.262 43.9006C220.938 44.2177 220.509 44.4054 220.055 44.4285C219.581 44.4536 219.115 44.2956 218.754 43.9871C218.393 43.6786 218.164 43.2431 218.115 42.7708L216.94 31.2845C216.918 31.0794 216.94 30.872 217.005 30.6762C217.07 30.4803 217.175 30.3005 217.315 30.1486C217.454 29.9968 217.625 29.8764 217.814 29.7956C218.004 29.7147 218.209 29.6752 218.415 29.6797L221.196 29.7326C221.392 29.7385 221.585 29.7839 221.763 29.8661C221.941 29.9484 222.101 30.0657 222.233 30.2112C222.364 30.3567 222.465 30.5272 222.53 30.7127C222.594 30.8981 222.62 31.0946 222.606 31.2904Z" fill="#172090"/>
<path d="M217.116 49.7602C217.29 50.2827 217.616 50.7417 218.051 51.0793C218.487 51.4168 219.013 51.6177 219.562 51.6566C220.112 51.6954 220.66 51.5705 221.139 51.2976C221.617 51.0247 222.004 50.616 222.251 50.1232C222.497 49.6305 222.592 49.0758 222.523 48.5292C222.454 47.9826 222.225 47.4686 221.864 47.0523C221.503 46.636 221.027 46.336 220.496 46.1902C219.965 46.0444 219.402 46.0593 218.879 46.2332C218.531 46.3481 218.21 46.5306 217.932 46.7703C217.655 47.0101 217.428 47.3022 217.264 47.63C217.1 47.9577 217.003 48.3147 216.977 48.6803C216.952 49.0458 216.999 49.4128 217.116 49.7602Z" fill="#172090"/>
<path d="M232.047 31.2904L231.253 42.7061C231.222 43.1596 231.025 43.5858 230.7 43.9034C230.375 44.221 229.944 44.4079 229.49 44.4285C229.015 44.4551 228.549 44.2976 228.187 43.9888C227.826 43.68 227.598 43.2437 227.55 42.7708L226.345 31.2845C226.323 31.0794 226.345 30.872 226.41 30.6762C226.475 30.4803 226.58 30.3005 226.72 30.1486C226.86 29.9968 227.03 29.8764 227.22 29.7956C227.409 29.7147 227.614 29.6752 227.82 29.6797L230.607 29.7326C230.805 29.7346 231.002 29.7771 231.183 29.8576C231.365 29.9381 231.528 30.0549 231.663 30.2007C231.798 30.3466 231.902 30.5185 231.968 30.7059C232.034 30.8933 232.061 31.0922 232.047 31.2904Z" fill="#172090"/>
<path d="M226.551 49.7602C226.726 50.2827 227.051 50.7417 227.487 51.0793C227.922 51.4168 228.448 51.6177 228.997 51.6566C229.547 51.6954 230.096 51.5705 230.574 51.2976C231.053 51.0247 231.44 50.616 231.686 50.1232C231.933 49.6305 232.027 49.0758 231.958 48.5292C231.89 47.9826 231.66 47.4686 231.3 47.0523C230.939 46.636 230.463 46.336 229.931 46.1902C229.4 46.0444 228.838 46.0593 228.315 46.2332C227.614 46.4679 227.035 46.971 226.704 47.6322C226.373 48.2933 226.318 49.0586 226.551 49.7602Z" fill="#172090"/>
<path d="M216.894 174.798C216.859 174.25 216.693 173.718 216.41 173.247C216.126 172.777 215.734 172.381 215.265 172.094C200.81 162.524 189.912 141.315 188.813 123.357C188.783 122.334 188.754 121.3 188.719 120.253C187.813 93.254 184.016 62.1752 180.706 55.1389C173.623 40.1667 153.208 38.3679 153.208 38.3679C125.021 36.3517 119.989 58.0134 117.144 77.7528C115.38 90.0209 108.556 133.844 108.556 133.844L113.734 135.848C119.842 153.901 133.58 168.532 151.444 175.257C156.641 177.214 161.043 178.002 163.107 176.321C171.349 184.685 181.539 190.872 192.763 194.326C197.319 195.708 202.086 196.636 206.824 196.19C209.904 195.902 213.149 194.885 214.983 192.398C215.784 191.321 216.261 190.038 216.358 188.7C216.455 187.361 216.168 186.023 215.531 184.842C214.894 183.66 213.934 182.685 212.762 182.031C211.59 181.376 210.256 181.07 208.917 181.147C209.986 177.679 217.017 178.702 216.894 174.798Z" fill="#263238"/>
<path d="M163.277 121.488C163.277 121.488 173.582 117.061 178.902 116.056C184.222 115.051 221.397 105.475 221.397 105.475L183.029 72.5975L191.493 62.2986C191.493 62.2986 219.992 79.3047 240.254 92.866C240.388 92.9418 240.516 93.0283 240.636 93.1247C252.158 102.195 248.125 117.996 236.292 125.42C230.414 129.118 204.549 140.257 199.57 142.697C189.577 147.564 189.724 147.399 189.724 147.399L163.277 121.488Z" fill="#FFBF9D"/>
<path d="M156.957 46.3272L155.194 44.646L136.136 52.3231C134.805 52.3908 133.548 52.9589 132.617 53.9137C131.686 54.8685 131.15 56.1396 131.116 57.4725L131.281 119.56C131.281 123.774 132.098 127.419 134.643 130.775L137.318 134.302C143.42 142.362 155.976 141.697 160.831 132.821C161.122 132.317 161.347 131.778 161.501 131.216C161.624 130.758 161.718 130.293 161.784 129.823C162.371 124.832 162.371 120.5 162.371 120.5C162.712 115.016 162.824 112.764 162.824 112.817C162.824 112.87 174.498 111.471 177.655 96.493C179.225 89.0392 178.925 78.7874 178.484 68.7002C177.861 54.7509 168.179 46.3272 156.957 46.3272Z" fill="#FFBF9D"/>
<path d="M155.776 78.6581C155.756 79.1628 155.54 79.6397 155.173 79.9868C154.806 80.3339 154.318 80.5237 153.813 80.5157C153.565 80.5227 153.319 80.4803 153.088 80.3908C152.858 80.3014 152.647 80.1667 152.469 79.9947C152.291 79.8228 152.149 79.617 152.052 79.3895C151.955 79.162 151.904 78.9173 151.902 78.6699C151.924 78.1651 152.14 77.6885 152.507 77.3408C152.873 76.993 153.361 76.8014 153.866 76.8064C154.114 76.7994 154.36 76.842 154.591 76.9318C154.823 77.0216 155.033 77.1568 155.211 77.3294C155.389 77.5019 155.531 77.7084 155.628 77.9366C155.725 78.1648 155.775 78.4101 155.776 78.6581Z" fill="#263238"/>
<path d="M174.686 79.2107C174.666 79.7169 174.449 80.1953 174.081 80.5435C173.713 80.8918 173.224 81.0822 172.717 81.0741C172.47 81.0804 172.225 81.0373 171.995 80.9475C171.764 80.8577 171.555 80.7229 171.377 80.5511C171.2 80.3792 171.059 80.1737 170.962 79.9466C170.865 79.7195 170.814 79.4753 170.812 79.2283C170.831 78.7226 171.047 78.2442 171.414 77.8959C171.781 77.5475 172.27 77.3569 172.776 77.3649C173.023 77.3578 173.27 77.4003 173.5 77.4897C173.731 77.5792 173.942 77.7138 174.119 77.8858C174.297 78.0577 174.439 78.2635 174.537 78.491C174.634 78.7185 174.685 78.9632 174.686 79.2107Z" fill="#263238"/>
<path d="M176.48 72.7033C176.227 72.9444 174.816 71.7863 172.729 71.6864C170.643 71.5865 169.067 72.5505 168.856 72.2742C168.75 72.1567 169.014 71.6864 169.708 71.2573C170.64 70.6798 171.729 70.4047 172.823 70.4696C173.907 70.5192 174.947 70.9124 175.792 71.5923C176.409 72.1273 176.603 72.5975 176.48 72.7033Z" fill="#263238"/>
<path d="M155.329 72.9208C155.053 73.1324 153.765 71.8333 151.702 71.5217C149.639 71.2102 147.969 72.0096 147.787 71.7216C147.693 71.5923 147.999 71.1749 148.739 70.7987C149.726 70.3192 150.836 70.155 151.92 70.3284C152.994 70.4897 153.989 70.9902 154.759 71.7568C155.317 72.3388 155.464 72.8267 155.329 72.9208Z" fill="#263238"/>
<path d="M162.613 88.0928C162.613 87.9693 163.912 87.8106 166.028 87.6519C166.563 87.6225 167.069 87.5402 167.204 87.1816C167.273 86.635 167.177 86.0802 166.928 85.5886L165.558 81.4738C163.659 75.5954 162.313 70.7693 162.554 70.6988C162.795 70.6282 164.518 75.325 166.416 81.2093C166.867 82.6553 167.302 84.0387 167.721 85.3594C167.892 85.9472 168.203 86.6761 167.892 87.4638C167.804 87.6474 167.676 87.8088 167.517 87.936C167.359 88.0633 167.173 88.153 166.975 88.1986C166.675 88.2616 166.369 88.2873 166.064 88.275C163.93 88.2633 162.613 88.2104 162.613 88.0928Z" fill="#263238"/>
<path d="M162.812 112.829C155.697 112.578 148.79 110.358 142.861 106.416C142.861 106.416 147.423 117.126 162.607 116.473L162.812 112.829Z" fill="#FF9A6C"/>
<path d="M147.975 64.8029C148.052 64.215 150.139 64.0034 152.461 63.1687C154.782 62.334 156.575 61.2406 156.993 61.6638C157.187 61.8696 156.993 62.4633 156.317 63.1804C155.428 64.0742 154.347 64.7541 153.157 65.1686C151.966 65.5831 150.697 65.7213 149.445 65.5729C148.493 65.4201 147.952 65.085 147.975 64.8029Z" fill="#263238"/>
<path d="M175.099 64.7851C174.705 65.2378 173.294 64.6735 171.572 64.5618C169.849 64.4501 168.362 64.7205 168.045 64.2091C167.909 63.9622 168.168 63.4978 168.826 63.0863C169.71 62.5907 170.722 62.3696 171.733 62.4512C172.743 62.5329 173.706 62.9136 174.499 63.5448C175.099 64.0621 175.251 64.55 175.099 64.7851Z" fill="#263238"/>
<path d="M131.493 83.978C131.493 83.978 142.168 87.2992 148.211 60.9525C150.274 51.9469 158.627 44.6519 158.627 44.6519L155.241 43.629C155.241 43.629 134.191 49.5603 133.832 49.8542C133.474 50.1481 128.542 60.7409 128.542 60.7409L131.493 83.978Z" fill="#263238"/>
<path d="M134.127 82.9963C134.179 81.8735 133.01 79.1519 131.91 78.9226C128.971 78.3348 123.61 78.2819 123.181 85.812C122.593 96.105 133.051 94.5708 133.086 94.2768C133.121 93.9829 133.95 86.8878 134.127 82.9963Z" fill="#FFBF9D"/>
<path d="M130.165 90.1973C130.124 90.162 129.977 90.3149 129.665 90.4383C129.229 90.5979 128.747 90.5789 128.325 90.3854C127.261 89.9269 126.444 88.1458 126.497 86.2706C126.524 85.387 126.745 84.5202 127.143 83.7311C127.258 83.415 127.448 83.1316 127.697 82.9053C127.946 82.679 128.246 82.5166 128.572 82.432C128.781 82.3891 128.998 82.4209 129.186 82.5218C129.374 82.6228 129.521 82.7866 129.6 82.9846C129.724 83.2785 129.647 83.4842 129.7 83.5019C129.753 83.5195 129.93 83.3432 129.871 82.914C129.827 82.6564 129.699 82.4206 129.506 82.2439C129.232 82.0153 128.881 81.9015 128.525 81.9265C128.098 81.9869 127.694 82.1552 127.35 82.4154C127.006 82.6757 126.735 83.0193 126.561 83.4137C126.066 84.2964 125.798 85.2881 125.779 86.3C125.727 88.375 126.679 90.3737 128.131 90.891C128.403 90.987 128.693 91.0205 128.98 90.989C129.267 90.9574 129.544 90.8616 129.788 90.7087C130.129 90.4442 130.2 90.2208 130.165 90.1973Z" fill="#FF9A6C"/>
<path d="M138.735 78.9403C138.735 78.905 139.323 78.8991 140.275 78.6287C141.646 78.2115 142.901 77.4833 143.944 76.5007C144.664 75.8299 145.305 75.0784 145.854 74.2611C146.469 73.3102 146.99 72.3023 147.412 71.2514C148.3 68.8036 149.04 66.3048 149.628 63.7683C150.285 61.2378 151.07 58.7422 151.979 56.291C152.725 54.2884 153.621 52.345 154.66 50.4773C155.359 49.2177 156.145 48.0078 157.011 46.8563C157.317 46.4507 157.599 46.1567 157.752 45.9451C157.83 45.8352 157.921 45.7346 158.022 45.6453C157.955 45.7629 157.878 45.875 157.793 45.9804C157.64 46.1979 157.387 46.5036 157.099 46.9209C156.267 48.09 155.507 49.3091 154.824 50.5714C153.815 52.4424 152.941 54.3833 152.208 56.3792C151.362 58.6306 150.592 61.1583 149.857 63.8388C149.265 66.3859 148.513 68.8931 147.606 71.3454C147.179 72.4109 146.643 73.4294 146.007 74.3845C145.443 75.2129 144.782 75.9707 144.038 76.6418C142.968 77.6303 141.675 78.3461 140.27 78.7286C139.77 78.8676 139.254 78.9387 138.735 78.9403Z" fill="#263238"/>
<path d="M124.668 122.857C124.613 122.697 124.575 122.532 124.556 122.364C124.492 121.999 124.404 121.517 124.292 120.9L123.369 115.31L123.616 115.274C123.669 115.65 123.728 116.062 123.786 116.491V116.45L124.004 116.914L123.745 117.008C122.17 111.589 121.06 106.045 120.43 100.437C120.032 96.8788 119.822 93.3017 119.801 89.7211C119.836 85.959 119.801 81.9617 120.818 77.9644C121.226 76.3189 121.857 74.7368 122.693 73.2617C123.512 71.8508 124.464 70.522 125.538 69.2939C127.631 66.8779 129.888 64.7969 131.945 62.7336L142.997 51.8587C146.136 48.7961 148.687 46.3095 150.474 44.5578L152.526 42.5944L153.066 42.0889C153.125 42.0266 153.192 41.9731 153.266 41.9302C153.218 42.0004 153.163 42.0655 153.102 42.1242L152.596 42.6591L150.603 44.6871L143.232 52.0997L132.251 63.0393C130.2 65.1144 127.948 67.207 125.891 69.5937C123.691 72.0053 122.108 74.9137 121.276 78.0702C120.289 81.9734 120.3 85.9531 120.259 89.6976C120.29 98.8957 121.547 108.049 123.998 116.914L123.739 117.008C123.669 116.85 123.592 116.685 123.534 116.544C123.481 116.115 123.428 115.697 123.381 115.327L123.628 115.286C123.974 117.684 124.245 119.571 124.439 120.894C124.521 121.517 124.586 122.005 124.633 122.369C124.658 122.531 124.67 122.694 124.668 122.857Z" fill="#455A64"/>
<path d="M116.562 75.2722C116.6 75.1187 116.661 74.972 116.744 74.8372L117.332 73.6262C117.855 72.5799 118.678 71.0927 119.753 69.2998C120.829 67.5069 122.205 65.4142 123.827 63.1628C125.45 60.9114 127.354 58.5424 129.5 56.1558C131.645 53.7692 133.82 51.6353 135.872 49.766C137.923 47.8967 139.857 46.3213 141.539 45.0634C143.22 43.8054 144.595 42.8237 145.583 42.1947L146.723 41.4658C146.851 41.3748 146.989 41.2998 147.135 41.2424C147.028 41.3588 146.908 41.4615 146.776 41.5481L145.706 42.3417C144.754 43.0177 143.396 44.0346 141.756 45.3279C140.116 46.6211 138.229 48.2259 136.178 50.0835C134.126 51.941 132.004 54.1042 129.87 56.4673C127.736 58.8304 125.849 61.2112 124.192 63.4214C122.534 65.6317 121.158 67.7008 120.077 69.4702C118.995 71.2396 118.102 72.6916 117.531 73.7144L116.855 74.8901C116.773 75.0288 116.675 75.1571 116.562 75.2722Z" fill="#455A64"/>
<path d="M208.193 249.718L193.432 204.737L192.257 161.989C191.898 154.618 191.352 143.837 191.352 143.837C186.537 128.777 171.23 116.062 171.23 116.062L162.542 117.361C162.213 126.766 147.846 135.296 137.547 129.065C133.732 126.326 130.799 119.589 130.799 119.589L113.275 128.036L125.314 214.077C125.314 214.077 113.44 236.233 113.44 249.683L208.193 249.718Z" fill="#455A64"/>
<g opacity="0.3">
<path d="M124.14 203.826C126.297 209.328 130.535 214.172 136.079 216.217C141.622 218.263 148.423 217.105 152.42 212.743C154.872 210.068 156.094 206.494 156.876 202.95C157.513 199.825 157.992 196.67 158.31 193.497C160.168 177.402 161.52 161.167 160.033 145.019L157.834 126.396L151.474 129.982L148.535 196.301L124.14 203.826Z" fill="black"/>
</g>
<path d="M162.754 117.003C162.754 117.003 175.528 113.793 185.915 113.517L203.144 109.167L206.083 139.946L189.63 150.491L162.754 117.003Z" fill="#455A64"/>
<path d="M132.34 164.329L102.096 179.507C102.096 179.507 93.719 134.62 113.188 128.036L114.317 134.408L132.34 164.329Z" fill="#455A64"/>
<path d="M190.412 125.714C190.412 125.714 190.412 125.785 190.412 125.914C190.412 126.043 190.441 126.267 190.459 126.502C190.494 127.049 190.547 127.819 190.606 128.8C190.735 130.799 190.888 133.691 191.07 137.259C191.429 144.407 191.852 154.306 192.246 165.187C192.64 176.068 192.957 185.979 193.157 193.127C193.245 196.689 193.322 199.593 193.369 201.598C193.369 202.579 193.404 203.361 193.41 203.902C193.41 204.149 193.41 204.349 193.41 204.49C193.419 204.556 193.419 204.623 193.41 204.69C193.402 204.623 193.402 204.556 193.41 204.49C193.41 204.337 193.398 204.141 193.375 203.902C193.375 203.355 193.316 202.585 193.275 201.598C193.198 199.581 193.093 196.695 192.963 193.133C192.705 185.967 192.375 176.086 191.964 165.199C191.552 154.312 191.153 144.437 190.876 137.271C190.718 133.709 190.594 130.805 190.506 128.806C190.465 127.825 190.435 127.043 190.412 126.508V125.92C190.402 125.852 190.402 125.782 190.412 125.714Z" fill="#263238"/>
<path d="M102.095 179.507C102.095 179.507 102.13 179.478 102.212 179.431L102.583 179.225L104.017 178.472L109.307 175.762L126.843 166.91L130.522 165.07L130.446 165.258C129.927 163.725 129.315 162.225 128.612 160.767C127.936 159.344 127.436 157.933 126.901 156.605C125.902 153.942 124.862 151.626 124.015 149.68C123.169 147.735 122.498 146.153 122.069 145.083C121.858 144.537 121.693 144.113 121.593 143.82C121.534 143.677 121.487 143.529 121.452 143.379C121.528 143.514 121.593 143.656 121.646 143.802L122.169 145.036C122.634 146.118 123.345 147.67 124.197 149.598C125.05 151.526 126.131 153.848 127.136 156.511C127.654 157.834 128.189 159.238 128.865 160.626C129.572 162.09 130.19 163.596 130.716 165.134L130.769 165.264L130.646 165.328L126.972 167.174L109.39 175.945L104.07 178.59L102.612 179.295L102.23 179.466C102.187 179.487 102.142 179.5 102.095 179.507Z" fill="#263238"/>
<path d="M165.058 93.1482C163.893 92.3394 162.534 91.8527 161.12 91.7374C160.678 91.6814 160.23 91.7276 159.809 91.8726C159.506 92.0188 159.238 92.2282 159.023 92.4868C158.808 92.7454 158.651 93.0471 158.563 93.3715C158.394 94.0218 158.319 94.6928 158.339 95.3643C158.318 95.619 158.359 95.875 158.457 96.1108C158.596 96.3013 158.78 96.4545 158.992 96.5571C159.204 96.6596 159.438 96.7082 159.674 96.6987C161.272 96.8308 162.876 96.5367 164.324 95.8463" fill="#FF9A6C"/>
<path d="M105.939 177.573C112.123 191.94 123.874 206.524 131.116 209.193C141.903 213.166 150.832 211.191 154.971 198.024C159.109 184.856 156.452 126.426 156.452 126.426L138.464 125.397L135.125 175.757C135.125 175.757 133.139 171.847 129.641 165.681" fill="#FFBF9D"/>
<path d="M183.028 72.5916L178.496 69.288L177.802 63.6095C177.802 63.6095 169.62 63.8211 169.12 59.4359C169.12 59.4359 164.417 60.688 164.629 56.05C164.629 56.05 162.231 54.4217 163.106 52.9227C163.982 51.4237 170.748 49.1782 171.136 49.0547C171.524 48.9313 175.945 47.9908 175.945 47.9908L174.634 46.5329L171.107 46.9092C171.107 46.9092 168.979 48.9137 167.221 49.1606C165.464 49.4074 165.346 48.6609 165.346 48.6609C165.346 48.6609 163.342 46.5329 165.969 44.3991C168.22 42.6806 170.913 41.6387 173.735 41.3953C175.498 41.2718 177.849 44.6519 177.849 44.6519L179.754 48.0319C179.754 48.0319 183.516 47.5323 184.768 50.3833V52.3878C184.768 52.3878 187.525 52.0116 188.654 55.274L189.406 58.1544C189.406 58.1544 192.663 62.4103 192.786 64.168" fill="#FFBF9D"/>
<path d="M192.798 64.1974C192.798 64.1974 192.769 64.0387 192.692 63.7506C192.556 63.325 192.382 62.912 192.175 62.5162C191.35 61.0149 190.406 59.5819 189.353 58.2309V58.2015C189.124 57.3432 188.865 56.3674 188.589 55.3211C188.341 54.5449 187.889 53.8503 187.278 53.3107C186.588 52.7343 185.7 52.4496 184.803 52.5171H184.686V52.3995C184.686 51.7823 184.686 51.1004 184.686 50.395V50.442C184.305 49.5862 183.611 48.9089 182.746 48.5492C181.814 48.1752 180.805 48.0359 179.807 48.1436H179.725L179.683 48.0731L177.767 44.693C177.352 44.1162 176.897 43.5701 176.403 43.0589C175.914 42.5264 175.342 42.0759 174.71 41.7245C174.397 41.5624 174.046 41.4873 173.693 41.507C173.323 41.507 172.953 41.5951 172.576 41.6539C171.819 41.7964 171.072 41.9928 170.343 42.2418C168.832 42.7249 167.42 43.4712 166.169 44.4461C165.52 44.9059 165.05 45.5771 164.841 46.3448C164.779 46.7354 164.805 47.1347 164.917 47.5139C165.029 47.8931 165.224 48.2427 165.487 48.5375H165.517V48.5904C165.562 48.68 165.628 48.758 165.708 48.8182C165.789 48.8783 165.882 48.9191 165.981 48.9372C166.215 48.9994 166.457 49.0252 166.698 49.0136C167.207 48.9991 167.708 48.8853 168.174 48.6785C169.139 48.2237 170.032 47.6296 170.825 46.915L171.025 46.7328L171.066 46.6975H171.113L174.64 46.3213H174.716L174.769 46.3801L176.08 47.8438L176.256 48.0378L175.998 48.0966L171.442 49.1018C170.001 49.5407 168.585 50.0548 167.198 50.6419C166.516 50.9241 165.852 51.2297 165.205 51.5531C164.564 51.846 163.97 52.2323 163.442 52.6993C163.22 52.9293 163.09 53.2325 163.077 53.5517C163.081 53.8764 163.175 54.1938 163.347 54.4687C163.711 55.0266 164.178 55.5096 164.723 55.8913L164.782 55.9324V56.0147C164.782 56.3028 164.782 56.6025 164.811 56.8788C164.84 57.1617 164.903 57.44 164.999 57.7077C165.165 58.2327 165.516 58.6797 165.987 58.9656C166.953 59.4465 168.062 59.5533 169.102 59.2654L169.22 59.2596V59.3948C169.278 59.8622 169.432 60.3125 169.673 60.7172C169.914 61.1219 170.236 61.4723 170.619 61.7461C171.345 62.2667 172.16 62.6512 173.023 62.8806C174.572 63.306 176.172 63.5156 177.779 63.5037H177.867V63.586C178.131 65.8374 178.355 67.7009 178.537 69.2704V69.2233L181.888 71.704L182.746 72.3506L183.028 72.5799L182.722 72.38L181.847 71.7628L178.461 69.3292V69.2939C178.261 67.742 178.026 65.8668 177.738 63.6213L177.838 63.7036C176.209 63.7333 174.585 63.5354 173.011 63.1158C172.12 62.8784 171.279 62.48 170.531 61.9401C170.121 61.6519 169.775 61.2815 169.516 60.8523C169.257 60.4232 169.09 59.9448 169.026 59.4477L169.179 59.5535C168.636 59.6842 168.078 59.7356 167.521 59.7063C166.939 59.6839 166.371 59.5226 165.863 59.2361C165.34 58.9188 164.948 58.4245 164.758 57.8429C164.655 57.5563 164.585 57.2583 164.553 56.9553C164.517 56.6555 164.553 56.3674 164.523 56.0441L164.582 56.1676C163.999 55.7672 163.503 55.2533 163.124 54.6568C162.923 54.3377 162.814 53.9698 162.807 53.5928C162.819 53.2005 162.979 52.8271 163.253 52.5465C163.801 52.0577 164.417 51.6518 165.082 51.3414C165.734 51.0064 166.404 50.7007 167.092 50.4185C168.485 49.8265 169.907 49.3065 171.354 48.8608L175.945 47.8438L175.862 48.0966L174.51 46.6329L174.64 46.6858L171.113 47.062L171.201 47.0209L170.989 47.209C170.174 47.9394 169.254 48.5455 168.262 49.0077C167.761 49.2286 167.222 49.3485 166.675 49.3604C166.399 49.3748 166.123 49.345 165.858 49.2723C165.703 49.2419 165.56 49.1716 165.441 49.0685C165.322 48.9654 165.233 48.8329 165.181 48.6844L165.223 48.7667C164.93 48.4387 164.715 48.0493 164.593 47.6271C164.471 47.2049 164.445 46.7607 164.517 46.3272C164.616 45.9027 164.8 45.5026 165.058 45.1515C165.199 44.9869 165.328 44.8224 165.481 44.6695C165.634 44.5167 165.787 44.3815 165.952 44.2522C167.233 43.2587 168.68 42.4986 170.225 42.0066C170.969 41.757 171.729 41.5605 172.5 41.4188C172.882 41.36 173.258 41.3012 173.646 41.2718C174.053 41.2479 174.459 41.3331 174.822 41.5187C175.48 41.8871 176.075 42.3573 176.585 42.9119C177.086 43.4372 177.55 43.997 177.973 44.5872L179.871 47.979L179.748 47.9144C180.794 47.8013 181.851 47.9529 182.822 48.3552C183.743 48.7388 184.48 49.4632 184.88 50.3774V50.442C184.88 51.1474 184.88 51.8293 184.88 52.4466L184.762 52.3408C185.717 52.2742 186.661 52.5844 187.39 53.2049C188.019 53.7717 188.486 54.4961 188.742 55.3034C189.012 56.3498 189.259 57.3256 189.483 58.1838C190.528 59.5501 191.454 61.0035 192.251 62.5279C192.453 62.9309 192.616 63.3521 192.739 63.7859C192.77 63.9211 192.79 64.0588 192.798 64.1974Z" fill="#FF9A6C"/>
<path d="M184.738 66.5017C184.703 66.531 184.403 66.2254 183.845 65.8198C183.119 65.3026 182.329 64.8835 181.493 64.5736C180.65 64.2528 179.786 63.9877 178.907 63.78C178.231 63.6565 177.796 63.6683 177.79 63.6154C178.164 63.5145 178.555 63.4984 178.936 63.5684C179.846 63.7147 180.739 63.9551 181.599 64.2855C182.472 64.5999 183.286 65.0611 184.003 65.6493C184.309 65.8746 184.56 66.1659 184.738 66.5017Z" fill="#FF9A6C"/>
<path d="M186.067 58.2543C185.845 58.3112 185.615 58.3388 185.385 58.3366L183.528 58.4424C181.958 58.5188 179.789 58.6011 177.397 58.6775L174.017 58.7657C173.103 58.7668 172.191 58.8198 171.283 58.9244C170.671 58.9901 170.065 59.1081 169.473 59.2771C169.061 59.4064 168.844 59.5181 168.832 59.4946C169.004 59.3473 169.204 59.2354 169.42 59.1654C170.005 58.9489 170.612 58.7952 171.23 58.7069C172.146 58.5753 173.069 58.5007 173.993 58.4835L177.373 58.366C179.766 58.2954 181.935 58.2484 183.504 58.2249H185.362C185.597 58.2113 185.834 58.2212 186.067 58.2543Z" fill="#FF9A6C"/>
<path d="M182.294 52.9815C182.071 53.057 181.84 53.1044 181.606 53.1225L179.719 53.4047C178.12 53.6398 175.922 53.9925 173.506 54.4334C171.09 54.8743 168.909 55.3446 167.333 55.6914L165.47 56.1029C165.243 56.1658 165.011 56.2052 164.776 56.2204C164.987 56.1134 165.21 56.0344 165.441 55.9853C165.87 55.856 166.505 55.6855 167.286 55.4798C168.85 55.08 171.025 54.5804 173.447 54.1277C175.869 53.6751 178.085 53.3694 179.69 53.1931C180.489 53.099 181.142 53.0344 181.594 53.005C181.826 52.9726 182.06 52.9647 182.294 52.9815Z" fill="#FF9A6C"/>
<path d="M174.851 44.3344C174.927 44.3344 175.145 44.7988 175.11 45.4513C175.074 46.1038 174.816 46.5741 174.739 46.5388C174.663 46.5035 174.78 46.0274 174.804 45.4337C174.828 44.84 174.763 44.3579 174.851 44.3344Z" fill="#FF9A6C"/>
<path d="M118.966 83.9956C123.957 90.5793 136.889 109.643 142.18 116.462C143.291 117.902 146.53 117.373 147.958 116.244C151.356 113.575 157.305 108.932 160.855 106.38C161.212 106.125 161.514 105.8 161.742 105.426C161.971 105.051 162.121 104.634 162.185 104.2C162.249 103.766 162.224 103.324 162.113 102.899C162.001 102.475 161.806 102.078 161.537 101.731L136.301 68.9588C136.025 68.6001 135.678 68.3026 135.281 68.0853C134.884 67.868 134.446 67.7355 133.995 67.6963C133.544 67.657 133.09 67.7119 132.661 67.8574C132.232 68.0029 131.839 68.2358 131.505 68.5414L119.384 79.6103C118.781 80.1584 118.404 80.9114 118.327 81.7223C118.25 82.5332 118.478 83.3437 118.966 83.9956Z" fill="#455A64"/>
<path d="M138.006 183.492L135.125 175.757L138.453 125.409C138.453 125.409 131.833 113.34 131.093 110.666C130.352 107.991 130.17 100.32 130.17 100.32L134.808 105.698C134.808 105.698 134.937 96.4518 134.937 93.3539C134.937 93.3539 135.596 81.7324 135.707 80.1159C135.819 78.4993 137.471 77.6411 138.511 77.6411C139.552 77.6411 140.586 79.5574 140.586 79.5574L142.003 98.5739C142.003 98.5739 144.354 88.5807 145.224 87.2463C146.094 85.9119 149.169 85.2888 151.232 85.4358H151.291C151.637 85.4845 151.961 85.6352 152.222 85.8687C152.483 86.1021 152.668 86.4079 152.754 86.7469C152.841 87.086 152.824 87.4431 152.707 87.7728C152.59 88.1025 152.377 88.3898 152.096 88.5983L149.374 90.5029L148.346 100.043C148.346 100.043 150.85 91.8138 152.178 90.7498C153.507 89.6858 155.864 90.7498 156.293 91.9255C156.722 93.1012 155.118 95.4525 155.118 95.4525L154.671 101.331C154.671 101.331 156.434 98.8267 157.31 97.4982C158.186 96.1696 160.426 97.4982 160.696 98.086C160.967 98.6738 159.109 105.111 159.109 105.111L156.452 126.467L157.293 157.216" fill="#FFBF9D"/>
<path d="M157.293 157.187C157.293 157.187 157.293 157.01 157.293 156.658C157.293 156.305 157.264 155.776 157.234 155.094C157.193 153.713 157.129 151.679 157.046 149.039C156.894 143.749 156.67 136.072 156.388 126.443C157.164 120.13 158.052 112.964 159.021 105.087C159.368 103.911 159.703 102.689 160.015 101.454C160.174 100.837 160.326 100.214 160.456 99.585C160.52 99.2675 160.579 98.9501 160.62 98.6327C160.638 98.4941 160.638 98.3539 160.62 98.2153C160.541 98.0918 160.444 97.9808 160.332 97.8861C159.844 97.4751 159.244 97.2175 158.61 97.1454C158.306 97.1084 157.999 97.1836 157.746 97.3571C157.512 97.5732 157.313 97.8252 157.158 98.1036L154.807 101.484L154.53 101.889L154.566 101.401C154.701 99.5732 154.854 97.5511 155.007 95.523V95.4878V95.4584C155.419 94.8427 155.76 94.182 156.024 93.4891C156.154 93.1515 156.224 92.7931 156.229 92.431C156.216 92.0795 156.064 91.7476 155.806 91.5081C155.278 90.9843 154.592 90.6495 153.854 90.5558C153.496 90.4819 153.124 90.513 152.783 90.6454C152.442 90.7778 152.147 91.006 151.932 91.3024C151.515 91.9581 151.159 92.6507 150.868 93.3715C150.568 94.0946 150.28 94.8294 150.004 95.5818C149.457 97.0749 148.952 98.6033 148.47 100.149L148.188 100.09C148.511 97.0925 148.864 93.8477 149.216 90.5558V90.4147L149.275 90.3795L151.85 88.5748C152.064 88.4511 152.247 88.2814 152.388 88.0781C152.528 87.8748 152.621 87.6429 152.661 87.3991C152.698 87.1578 152.68 86.9114 152.61 86.6776C152.54 86.4439 152.419 86.2285 152.256 86.0471C152.083 85.8708 151.875 85.7342 151.644 85.6469C151.414 85.5596 151.167 85.5237 150.921 85.5416C150.395 85.527 149.868 85.5505 149.346 85.6121C148.291 85.7185 147.263 86.0132 146.313 86.4821C145.849 86.7047 145.468 87.0691 145.225 87.5226C144.996 88.0085 144.799 88.5093 144.637 89.0216C144.308 90.0503 144.008 91.1025 143.726 92.1606C143.158 94.2768 142.621 96.4165 142.115 98.5798L141.886 99.5379L141.81 98.5562C141.622 95.9933 141.416 93.2657 141.222 90.4735C140.944 86.7937 140.671 83.1491 140.405 79.5398V79.6045C140.088 78.9951 139.652 78.4554 139.123 78.0173C138.606 77.5823 137.889 77.7881 137.289 78.0702C136.681 78.3505 136.203 78.8533 135.955 79.4751C135.847 79.791 135.793 80.123 135.796 80.4568L135.731 81.5032C135.571 84.2778 135.41 87.021 135.249 89.7329C135.179 91.0907 135.067 92.4428 135.032 93.783C134.997 95.1233 135.032 96.4636 134.991 97.7979C134.963 100.455 134.936 103.077 134.909 105.663V106.051L134.656 105.757L130.065 100.408L130.312 100.308C130.382 102.695 130.5 105.052 130.723 107.362C130.808 108.502 130.989 109.633 131.264 110.742C131.647 111.801 132.091 112.837 132.592 113.846C134.544 117.878 136.596 121.699 138.577 125.35V125.385C137.001 148.61 135.796 166.41 135.167 175.733C136.114 178.325 136.825 180.259 137.301 181.553C137.53 182.193 137.707 182.675 137.824 182.999C137.942 183.322 137.989 183.487 137.989 183.487L137.801 183.01L137.254 181.57C136.766 180.283 136.043 178.355 135.067 175.768C135.655 166.445 136.831 148.64 138.324 125.414V125.479C136.337 121.829 134.28 118.014 132.316 113.969C131.805 112.951 131.355 111.903 130.97 110.83C130.674 109.707 130.477 108.561 130.382 107.403C130.153 105.087 130.035 102.73 129.965 100.349V99.9494L130.229 100.255L134.867 105.634L134.609 105.728C134.636 103.134 134.664 100.508 134.691 97.8508C134.691 96.5223 134.705 95.186 134.732 93.8418C134.762 92.4957 134.873 91.1437 134.944 89.7858C135.104 87.066 135.265 84.3228 135.426 81.5561L135.485 80.5156C135.486 80.1519 135.546 79.7908 135.661 79.4458C135.941 78.7523 136.472 78.1899 137.148 77.8704C137.479 77.7065 137.835 77.5973 138.2 77.5471C138.397 77.5194 138.597 77.5334 138.788 77.5882C138.971 77.6468 139.144 77.7341 139.3 77.8468C139.866 78.312 140.334 78.8856 140.675 79.5339V79.5633V79.5986C140.946 83.2001 141.218 86.8427 141.492 90.5264C141.698 93.2951 141.904 96.0462 142.08 98.6091H141.78C142.294 96.4459 142.833 94.3023 143.397 92.1782C143.679 91.1201 143.985 90.0679 144.314 89.0275C144.474 88.4992 144.671 87.9827 144.902 87.4814C145.171 86.9697 145.598 86.5578 146.119 86.3058C147.1 85.8142 148.165 85.5092 149.258 85.4064C149.796 85.3396 150.338 85.3141 150.88 85.33C151.165 85.3108 151.45 85.3534 151.717 85.4548C151.984 85.5563 152.226 85.7142 152.426 85.9178C152.719 86.2388 152.894 86.6503 152.922 87.0842C152.95 87.5182 152.829 87.9486 152.579 88.3044C152.419 88.5337 152.22 88.7328 151.991 88.8923L149.416 90.691L149.475 90.5852C149.122 93.883 148.77 97.1278 148.44 100.12L148.158 100.061C148.64 98.4935 149.154 96.9671 149.698 95.4819C149.975 94.7294 150.286 93.9888 150.574 93.2599C150.873 92.5203 151.239 91.8099 151.668 91.1378C151.786 90.9657 151.929 90.8114 152.091 90.6793C152.261 90.5571 152.447 90.4583 152.643 90.3853C153.034 90.2598 153.448 90.2237 153.854 90.2795C154.656 90.3837 155.401 90.747 155.977 91.3141C156.276 91.6086 156.452 92.0056 156.47 92.4251C156.465 92.8271 156.39 93.225 156.247 93.6008C155.977 94.3157 155.624 94.9964 155.195 95.6288V95.5642C155.036 97.6157 154.883 99.6379 154.748 101.443L154.507 101.354L156.858 97.986L157.146 97.5687C157.248 97.4149 157.375 97.2797 157.523 97.169C157.825 96.9608 158.192 96.869 158.557 96.9103C159.246 96.9909 159.897 97.2731 160.426 97.7215C160.569 97.835 160.689 97.9747 160.779 98.133C160.814 98.3156 160.814 98.503 160.779 98.6856C160.738 99.0148 160.679 99.3381 160.615 99.6555C160.479 100.296 160.326 100.919 160.168 101.542C159.85 102.777 159.509 103.988 159.168 105.175C158.181 113.052 157.281 120.218 156.494 126.531C156.735 136.166 156.929 143.849 157.082 149.134C157.14 151.767 157.187 153.801 157.217 155.188C157.217 155.87 157.217 156.393 157.246 156.752C157.276 157.11 157.293 157.187 157.293 157.187Z" fill="#FF9A6C"/>
<path d="M135.125 116.462C135.012 115.772 134.955 115.074 134.955 114.375C134.89 113.082 134.825 111.3 134.772 109.325C134.719 107.35 134.684 105.569 134.672 104.276C134.639 103.578 134.657 102.879 134.725 102.183C134.83 102.874 134.885 103.571 134.89 104.27C134.955 105.563 135.019 107.344 135.078 109.319C135.137 111.295 135.166 113.076 135.172 114.369C135.205 115.067 135.189 115.766 135.125 116.462Z" fill="#FF9A6C"/>
<path d="M164.324 95.8287C164.146 95.9632 163.947 96.0684 163.736 96.1403C163.19 96.3821 162.618 96.5615 162.031 96.6752C161.157 96.85 160.261 96.8896 159.374 96.7928C159.098 96.7588 158.835 96.6601 158.604 96.5047C158.481 96.4135 158.38 96.296 158.307 96.1608C158.235 96.0256 158.194 95.876 158.187 95.7229C158.162 95.1558 158.183 94.5876 158.251 94.0241C158.315 93.4437 158.53 92.8903 158.875 92.4193C159.04 92.1915 159.251 92.0003 159.493 91.8577C159.736 91.715 160.006 91.6241 160.285 91.5904C161.182 91.5433 162.079 91.6731 162.925 91.9725C163.487 92.1692 164.022 92.4358 164.518 92.7661C164.711 92.87 164.886 93.0051 165.035 93.1658C164.333 92.7805 163.597 92.4597 162.837 92.2077C162.018 91.9526 161.159 91.849 160.303 91.902C160.064 91.9328 159.833 92.0123 159.626 92.1356C159.419 92.259 159.239 92.4235 159.098 92.6191C158.789 93.0524 158.598 93.559 158.545 94.0887C158.481 94.629 158.458 95.1733 158.475 95.717C158.475 96.2226 158.939 96.4636 159.409 96.5282C160.266 96.6357 161.133 96.6198 161.984 96.4812C162.778 96.3176 163.56 96.0996 164.324 95.8287Z" fill="#263238"/>
<path d="M231.754 108.638C231.225 108.706 230.69 108.706 230.161 108.638C227.591 108.464 225.088 107.745 222.819 106.527C222.337 106.301 221.888 106.01 221.484 105.663C221.974 105.856 222.451 106.08 222.913 106.333C224.051 106.874 225.23 107.324 226.44 107.679C227.656 108.027 228.898 108.275 230.155 108.42C230.692 108.461 231.226 108.534 231.754 108.638Z" fill="#FF9A6C"/>
<path d="M85.5537 94.6227V89.2291L94.0237 80.3596C94.7162 79.6138 95.2622 78.948 95.6617 78.362C96.0879 77.7494 96.3942 77.19 96.5806 76.684C96.7937 76.1513 96.9003 75.6186 96.9003 75.0859C96.9003 74.0737 96.5673 73.3146 95.9015 72.8086C95.2356 72.3025 94.2767 72.0495 93.0249 72.0495C91.9595 72.0495 90.8674 72.2492 89.7487 72.6487C88.6567 73.0216 87.5647 73.6342 86.4726 74.4866L84.1953 69.1329C85.4205 68.174 86.9121 67.4149 88.67 66.8556C90.4279 66.2963 92.2258 66.0166 94.0636 66.0166C96.2477 66.0166 98.0722 66.3362 99.5371 66.9755C101.029 67.6147 102.161 68.5469 102.933 69.7722C103.706 70.9707 104.092 72.4623 104.092 74.2469C104.092 75.0992 103.999 75.9382 103.812 76.7639C103.626 77.5629 103.333 78.362 102.933 79.161C102.534 79.9335 102.014 80.7325 101.375 81.5582C100.736 82.3839 99.9633 83.2362 99.0577 84.1152L92.5854 90.5076V88.6698H105.131V94.6227H85.5537Z" fill="white"/>
<path d="M62.517 94.6228V88.6698H68.7896V72.5689H72.1456L64.0352 77.2034L61.3584 71.8897L70.947 66.4561H76.1009V88.6698H81.974V94.6228H62.517Z" fill="white"/>
<path d="M38.6401 94.6228V88.6698H44.9126V72.5689H48.2687L40.1583 77.2034L37.4814 71.8897L47.0701 66.4561H52.224V88.6698H58.097V94.6228H38.6401Z" fill="white"/>
</svg>
