<svg width="347" height="220" viewBox="0 0 347 220" fill="none" xmlns="http://www.w3.org/2000/svg">
<path d="M332.639 133.928C340.153 132.131 344.788 124.583 342.991 117.068C341.194 109.554 333.645 104.919 326.131 106.716C318.616 108.513 313.981 116.062 315.778 123.576C317.576 131.091 325.124 135.725 332.639 133.928Z" fill="white"/>
<path d="M329.384 106.339L329.609 106.368L330.275 106.417L330.764 106.446L331.347 106.539C331.833 106.605 332.314 106.705 332.786 106.838C334.089 107.169 335.335 107.693 336.482 108.394C339.519 110.244 341.737 113.182 342.684 116.609C343.632 120.037 343.238 123.697 341.582 126.844C341.259 127.433 340.894 127.999 340.491 128.537C340.084 129.09 339.639 129.613 339.159 130.104C338.656 130.592 338.119 131.045 337.554 131.46C336.399 132.315 335.113 132.976 333.745 133.418C330.916 134.37 327.852 134.37 325.022 133.418C323.656 132.974 322.37 132.313 321.214 131.46C320.651 131.042 320.114 130.589 319.609 130.104C319.132 129.61 318.687 129.087 318.277 128.537C317.874 127.999 317.509 127.433 317.186 126.844C315.725 124.058 315.231 120.866 315.781 117.768C316.143 115.835 316.911 114 318.033 112.385C319.155 110.769 320.606 109.409 322.291 108.394C323.438 107.693 324.684 107.168 325.987 106.838C326.459 106.704 326.94 106.605 327.426 106.539L328.008 106.446L328.498 106.417L329.164 106.368L329.389 106.339C329.314 106.328 329.238 106.328 329.164 106.339H328.498H328.008C327.827 106.339 327.631 106.388 327.421 106.417C326.925 106.469 326.434 106.559 325.952 106.686C324.629 106.999 323.361 107.512 322.193 108.208C320.469 109.224 318.981 110.596 317.828 112.231C316.675 113.867 315.884 115.73 315.507 117.695C315.036 120.179 315.241 122.743 316.099 125.121C316.326 125.753 316.596 126.37 316.907 126.966C317.57 128.185 318.393 129.309 319.354 130.309C319.869 130.809 320.417 131.273 320.994 131.699C322.181 132.583 323.503 133.268 324.91 133.726C327.807 134.705 330.946 134.705 333.843 133.726C335.25 133.267 336.572 132.583 337.759 131.699C338.337 131.275 338.885 130.81 339.399 130.309C339.89 129.807 340.344 129.27 340.76 128.704C341.172 128.152 341.543 127.571 341.871 126.966C342.183 126.37 342.452 125.754 342.679 125.121C343.537 122.743 343.741 120.179 343.271 117.695C342.894 115.73 342.103 113.867 340.95 112.231C339.797 110.596 338.309 109.224 336.584 108.208C335.417 107.511 334.149 106.998 332.825 106.686C332.343 106.561 331.852 106.471 331.357 106.417C331.146 106.388 330.95 106.353 330.769 106.339H330.28H329.609C329.534 106.328 329.459 106.328 329.384 106.339Z" fill="#E0E0E0"/>
<path d="M319.471 101.439C319.003 101.438 318.545 101.576 318.155 101.835C317.766 102.094 317.462 102.464 317.282 102.896C317.103 103.328 317.056 103.804 317.147 104.263C317.238 104.722 317.463 105.144 317.794 105.475C318.125 105.806 318.547 106.031 319.006 106.122C319.465 106.213 319.941 106.166 320.373 105.986C320.805 105.807 321.174 105.503 321.434 105.113C321.693 104.724 321.831 104.266 321.83 103.798C321.83 103.172 321.582 102.572 321.139 102.13C320.697 101.687 320.096 101.439 319.471 101.439Z" fill="white"/>
<path d="M319.471 101.439C319.471 101.468 319.682 101.473 320.029 101.576C320.52 101.724 320.95 102.028 321.253 102.442C321.497 102.772 321.645 103.164 321.681 103.573C321.716 103.982 321.636 104.393 321.452 104.76C321.267 105.126 320.984 105.435 320.634 105.65C320.285 105.865 319.882 105.98 319.471 105.98C319.061 105.98 318.658 105.865 318.308 105.65C317.959 105.435 317.676 105.126 317.491 104.76C317.306 104.393 317.227 103.982 317.262 103.573C317.297 103.164 317.445 102.772 317.689 102.442C317.991 102.029 318.419 101.724 318.908 101.576C319.261 101.473 319.471 101.468 319.471 101.439C319.277 101.389 319.073 101.389 318.879 101.439C318.332 101.548 317.842 101.85 317.499 102.29C317.237 102.617 317.064 103.006 316.995 103.419C316.926 103.832 316.965 104.256 317.107 104.65C317.281 105.137 317.602 105.559 318.025 105.857C318.449 106.155 318.954 106.315 319.471 106.315C319.989 106.315 320.494 106.155 320.917 105.857C321.34 105.559 321.661 105.137 321.836 104.65C321.978 104.256 322.016 103.832 321.948 103.419C321.879 103.006 321.706 102.617 321.444 102.29C321.1 101.851 320.61 101.549 320.064 101.439C319.869 101.388 319.665 101.388 319.471 101.439Z" fill="#E0E0E0"/>
<path d="M329.197 126.785C328.952 126.8 328.706 126.765 328.475 126.683C328.244 126.6 328.032 126.471 327.852 126.304C327.672 126.137 327.528 125.935 327.428 125.711C327.329 125.486 327.276 125.244 327.273 124.998C327.35 124.541 327.586 124.126 327.94 123.827C328.293 123.528 328.741 123.364 329.205 123.364C329.668 123.364 330.116 123.528 330.469 123.827C330.823 124.126 331.059 124.541 331.136 124.998C331.131 125.245 331.077 125.488 330.977 125.713C330.876 125.938 330.73 126.14 330.549 126.307C330.368 126.474 330.155 126.602 329.922 126.684C329.69 126.767 329.443 126.801 329.197 126.785ZM330.489 122.291H327.92L327.273 114.719H331.121L330.489 122.291Z" fill="#E0E0E0"/>
<path d="M12.1006 133.403C16.9694 135.309 22.2152 136.055 27.4225 135.583C32.6298 135.111 37.6556 133.432 42.1019 130.681C33.0511 128.253 20.1577 128.621 12.1006 133.403Z" fill="#EBEBEB"/>
<path d="M6.68164 124.626C10.8386 126.253 15.3173 126.889 19.7627 126.483C24.208 126.078 28.4979 124.643 32.2922 122.291C24.5679 120.231 13.564 120.544 6.68164 124.626Z" fill="#EBEBEB"/>
<path d="M3.15234 116.628C6.48021 117.931 10.0659 118.441 13.6252 118.117C17.1844 117.793 20.6193 116.645 23.6574 114.763C17.4506 113.103 8.63962 113.358 3.15234 116.628Z" fill="#EBEBEB"/>
<path d="M40.8292 101.546C43.2014 106.286 44.4364 111.514 44.4364 116.814C44.4364 122.114 43.2014 127.341 40.8292 132.081C37.5447 123.168 36.737 110.117 40.8292 101.546Z" fill="#EBEBEB"/>
<path d="M31.475 96.8863C33.498 100.932 34.5513 105.393 34.5513 109.917C34.5513 114.44 33.498 118.901 31.475 122.947C28.6702 115.336 27.9849 104.204 31.475 96.8863Z" fill="#EBEBEB"/>
<path d="M23.0798 94.0424C24.6998 97.2836 25.5431 100.857 25.5431 104.481C25.5431 108.104 24.6998 111.678 23.0798 114.919C20.833 108.825 20.2799 99.9017 23.0798 94.0424Z" fill="#EBEBEB"/>
<path d="M0 95.129C3.19153 102.506 11.9535 109.755 19.8002 111.493C15.9527 102.897 8.39489 96.294 0 95.129Z" fill="#EBEBEB"/>
<path d="M53.9085 142.88C53.7519 143.051 45.0976 135.376 34.5244 125.747C23.9512 116.119 15.5515 108.145 15.7032 107.973C15.8549 107.802 24.5386 115.477 35.0873 125.106C45.636 134.734 54.0652 142.708 53.9085 142.88Z" fill="#EBEBEB"/>
<path d="M239.83 56.4587C238.828 62.749 239.305 69.186 241.223 75.26C243.14 81.3339 246.446 86.878 250.878 91.4529C251.431 80.0623 247.622 64.8095 239.83 56.4587Z" fill="#EBEBEB"/>
<path d="M248.871 47.731C248.018 53.0983 248.425 58.5904 250.062 63.7729C251.698 68.9554 254.518 73.6859 258.298 77.5903C258.773 67.8787 255.523 54.858 248.871 47.731Z" fill="#EBEBEB"/>
<path d="M257.476 41.4409C256.791 45.7425 257.117 50.1444 258.428 54.2982C259.739 58.4519 261.999 62.2435 265.029 65.3725C265.396 57.5748 262.802 47.1485 257.476 41.4409Z" fill="#EBEBEB"/>
<path d="M285.231 82.3825C280.202 86.4359 274.298 89.2628 267.987 90.6391C261.676 92.0155 255.131 91.9037 248.871 90.3124C258.637 84.1104 273.948 79.7343 285.231 82.3825Z" fill="#EBEBEB"/>
<path d="M288.349 70.0325C284.056 73.495 279.015 75.9095 273.626 77.0846C268.238 78.2597 262.649 78.163 257.305 76.8023C265.651 71.4912 278.73 67.7759 288.349 70.0325Z" fill="#EBEBEB"/>
<path d="M289.548 59.2929C286.111 62.0634 282.075 63.9955 277.762 64.936C273.448 65.8765 268.975 65.7997 264.696 64.7116C271.368 60.4628 281.843 57.4867 289.548 59.2929Z" fill="#EBEBEB"/>
<path d="M282.269 32.0964C274.32 37.8137 267.966 50.1295 267.941 59.9244C277.149 53.1106 283.047 42.3954 282.269 32.0964Z" fill="#EBEBEB"/>
<path d="M239.424 108.703C239.194 108.585 246.047 96.2304 254.789 81.1735C263.531 66.1165 270.8 54.0014 271.045 54.1434C271.29 54.2854 264.408 66.6109 255.675 81.6826C246.942 96.7542 239.683 108.845 239.424 108.703Z" fill="#EBEBEB"/>
<path d="M289.122 171.339C284.491 169.307 279.451 168.382 274.401 168.637C269.35 168.892 264.429 170.32 260.026 172.808C268.69 175.51 281.158 175.647 289.122 171.339Z" fill="#EBEBEB"/>
<path d="M294.017 180.052C290.064 178.321 285.762 177.533 281.452 177.751C277.142 177.97 272.942 179.188 269.185 181.31C276.576 183.586 287.218 183.709 294.017 180.052Z" fill="#EBEBEB"/>
<path d="M297.13 187.884C293.966 186.497 290.521 185.866 287.07 186.041C283.618 186.216 280.255 187.192 277.247 188.892C283.16 190.743 291.682 190.821 297.13 187.884Z" fill="#EBEBEB"/>
<path d="M260.144 201.017C258.038 196.344 257.049 191.245 257.254 186.124C257.46 181.003 258.855 175.999 261.329 171.51C264.158 180.253 264.427 192.892 260.144 201.017Z" fill="#EBEBEB"/>
<path d="M269.004 205.878C267.209 201.889 266.367 197.537 266.546 193.167C266.724 188.796 267.918 184.527 270.032 180.698C272.421 188.158 272.661 198.947 269.004 205.878Z" fill="#EBEBEB"/>
<path d="M277.007 208.932C275.567 205.739 274.891 202.253 275.032 198.753C275.173 195.252 276.127 191.833 277.819 188.765C279.748 194.737 279.939 203.391 277.007 208.932Z" fill="#EBEBEB"/>
<path d="M299.348 208.786C296.548 201.536 288.363 194.194 280.85 192.216C284.227 200.665 291.281 207.337 299.348 208.786Z" fill="#EBEBEB"/>
<path d="M249.096 160.575C249.253 160.418 257.344 168.167 267.168 177.884C276.993 187.6 284.825 195.613 284.668 195.77C284.511 195.926 276.42 188.183 266.596 178.461C256.771 168.74 248.939 160.732 249.096 160.575Z" fill="#EBEBEB"/>
<path d="M265.983 0H65.5928V220H265.983V0Z" fill="#FAFAFA"/>
<path d="M32.2714 48.8797C40.3422 46.3829 44.8609 37.8162 42.3641 29.7454C39.8673 21.6745 31.3005 17.1559 23.2297 19.6527C15.1589 22.1495 10.6403 30.7162 13.1371 38.787C15.6338 46.8579 24.2006 51.3765 32.2714 48.8797Z" fill="white"/>
<path d="M27.7298 18.968C27.8121 18.9842 27.8956 18.994 27.9794 18.9974L28.7039 19.0512L29.2374 19.0904C29.4332 19.0904 29.6437 19.154 29.8738 19.1883C30.4063 19.2603 30.933 19.3699 31.45 19.5163C32.8742 19.8752 34.2357 20.4479 35.4883 21.2148C38.5103 23.0279 40.807 25.8364 41.9843 29.1581C43.1615 32.4799 43.1458 36.1078 41.9399 39.4193C41.6938 40.0908 41.4027 40.7449 41.0686 41.3773C40.7173 42.0219 40.3198 42.6403 39.8791 43.2276C39.4291 43.8329 38.9385 44.4069 38.4106 44.9457C37.859 45.4727 37.2736 45.9632 36.6582 46.4142C35.3947 47.3529 33.9881 48.0818 32.4926 48.5729C30.9515 49.0711 29.3444 49.3351 27.7249 49.3561C26.1042 49.3347 24.4958 49.0724 22.9523 48.5778C21.4667 48.0847 20.0701 47.3558 18.816 46.4191C18.1985 45.9708 17.613 45.4801 17.0636 44.9506C16.5372 44.4105 16.0467 43.8366 15.5951 43.2325C14.7148 42.0758 14.0196 40.7894 13.5343 39.4193C12.3347 36.1067 12.3226 32.4804 13.5003 29.16C14.6779 25.8396 16.9721 23.0312 19.9908 21.2148C21.2435 20.4401 22.6069 19.8608 24.0341 19.4967C24.5493 19.3499 25.0744 19.2403 25.6054 19.1687C25.8354 19.1345 26.0459 19.0904 26.2417 19.0708L26.7753 19.0317L27.5046 19.0072L27.7494 18.9778C27.6665 18.9672 27.5826 18.9672 27.4997 18.9778H26.7704L26.2613 19.0072C26.0606 19.0072 25.8501 19.061 25.6152 19.0904C25.0784 19.1492 24.5467 19.2474 24.0243 19.3841C22.5765 19.7248 21.1897 20.2861 19.9125 21.0484C16.8167 22.8674 14.4551 25.7125 13.2374 29.0903C12.0196 32.4682 12.0225 36.1657 13.2455 39.5416C13.493 40.2355 13.789 40.9111 14.1315 41.5633C14.4909 42.2242 14.8966 42.8588 15.3455 43.4625C15.7945 44.081 16.2851 44.6681 16.814 45.2198C17.377 45.7661 17.9755 46.2747 18.6055 46.7422C19.8992 47.7042 21.3386 48.4528 22.8691 48.9596C24.4517 49.4685 26.1017 49.7375 27.7641 49.7575C29.4269 49.739 31.0774 49.4683 32.659 48.9547C34.1916 48.453 35.6318 47.7039 36.9226 46.7373C37.5557 46.2754 38.1544 45.7683 38.7141 45.2198C39.2403 44.6657 39.7308 44.0788 40.1826 43.4625C40.6298 42.8577 41.0354 42.2231 41.3966 41.5633C41.7356 40.91 42.0299 40.2346 42.2777 39.5416C43.2155 36.9413 43.4403 34.1374 42.9287 31.4209C42.5147 29.271 41.6487 27.2337 40.3879 25.4438C39.1271 23.6539 37.5005 22.1524 35.6156 21.0386C34.3385 20.2763 32.9516 19.715 31.5038 19.3743C30.9798 19.2376 30.4464 19.1394 29.9081 19.0806C29.678 19.0513 29.4626 19.0121 29.2668 18.9974H28.7284H27.999C27.9111 18.9752 27.8205 18.9653 27.7298 18.968Z" fill="#E0E0E0"/>
<path d="M39.3121 49.4099C38.8009 49.4099 38.3012 49.5615 37.8762 49.8455C37.4512 50.1295 37.1199 50.5331 36.9243 51.0054C36.7287 51.4777 36.6775 51.9973 36.7772 52.4987C36.8769 53 37.1231 53.4606 37.4845 53.822C37.846 54.1835 38.3065 54.4296 38.8079 54.5294C39.3092 54.6291 39.8289 54.5779 40.3012 54.3823C40.7734 54.1867 41.1771 53.8554 41.4611 53.4304C41.7451 53.0053 41.8966 52.5056 41.8966 51.9945C41.8973 51.6549 41.8309 51.3185 41.7012 51.0046C41.5716 50.6908 41.3812 50.4056 41.1411 50.1655C40.901 49.9254 40.6158 49.735 40.3019 49.6053C39.9881 49.4757 39.6517 49.4093 39.3121 49.4099Z" fill="white"/>
<path d="M39.3119 49.4099C39.3119 49.4442 39.542 49.4442 39.9287 49.5617C40.4655 49.7245 40.9347 50.0579 41.265 50.5113C41.5377 50.8749 41.7038 51.3073 41.7446 51.76C41.7854 52.2127 41.6994 52.6678 41.4961 53.0744C41.2928 53.4809 40.9804 53.8228 40.5937 54.0618C40.2071 54.3007 39.7615 54.4273 39.307 54.4273C38.8525 54.4273 38.4069 54.3007 38.0203 54.0618C37.6336 53.8228 37.3212 53.4809 37.1179 53.0744C36.9146 52.6678 36.8286 52.2127 36.8694 51.76C36.9102 51.3073 37.0763 50.8749 37.349 50.5113C37.6786 50.0571 38.148 49.7235 38.6853 49.5617C39.0672 49.4442 39.3021 49.4442 39.2972 49.4099C39.0852 49.3563 38.8631 49.3563 38.6511 49.4099C38.0547 49.5327 37.5207 49.862 37.1434 50.34C36.8587 50.6981 36.6698 51.1228 36.5945 51.5741C36.5191 52.0254 36.5598 52.4884 36.7127 52.9196C36.9016 53.4542 37.2516 53.917 37.7144 54.2443C38.1773 54.5717 38.7303 54.7475 39.2972 54.7475C39.8641 54.7475 40.4171 54.5717 40.88 54.2443C41.3429 53.917 41.6929 53.4542 41.8818 52.9196C42.034 52.4886 42.0747 52.0261 42.0003 51.5751C41.9258 51.1241 41.7386 50.6992 41.4559 50.34C41.0778 49.863 40.5442 49.5339 39.9483 49.4099C39.7392 49.3593 39.521 49.3593 39.3119 49.4099Z" fill="#E0E0E0"/>
<path d="M28.097 41.2402C27.8278 41.2605 27.5573 41.2248 27.3026 41.1355C27.0478 41.0462 26.8143 40.9052 26.6166 40.7214C26.4189 40.5375 26.2614 40.3147 26.154 40.067C26.0465 39.8194 25.9914 39.5522 25.9922 39.2822C26.0364 38.7524 26.2781 38.2586 26.6693 37.8987C27.0606 37.5387 27.5728 37.339 28.1044 37.339C28.636 37.339 29.1482 37.5387 29.5394 37.8987C29.9307 38.2586 30.1724 38.7524 30.2166 39.2822C30.2118 39.5518 30.1525 39.8176 30.0422 40.0637C29.9319 40.3097 29.773 40.5309 29.5749 40.7138C29.3769 40.8968 29.1438 41.0377 28.8898 41.1282C28.6358 41.2187 28.3662 41.2568 28.097 41.2402ZM29.5117 36.3452H26.6971L25.9922 28.0433H30.1774L29.5117 36.3452Z" fill="#E0E0E0"/>
<path d="M52.3983 78.1166L42.6523 90.2072C44.8355 93.4705 47.017 96.7485 49.1969 100.041C51.2503 96.8208 52.5973 93.2015 53.1492 89.4223C53.701 85.643 53.4451 81.7897 52.3983 78.1166Z" fill="#263238"/>
<path d="M18.6672 63.9456C21.4133 61.361 25.2167 60.103 28.9809 59.8876C32.7452 59.6723 36.5045 60.4212 40.1415 61.4247C42.1827 61.9876 44.2435 62.6533 45.9371 63.926C49.0259 66.2462 52.4671 69.3447 53.4363 73.0796C55.3551 80.4759 54.4153 87.9995 53.588 90.075C52.5356 92.7379 49.5007 94.1819 46.9602 95.5084L14.6533 73.1286C14.6799 71.4082 15.0485 69.7103 15.7376 68.1338C16.4267 66.5572 17.4226 65.1335 18.6672 63.9456Z" fill="#263238"/>
<path d="M15.4019 68.9532L21.0703 66.3392C19.8417 74.9299 23.5717 92.8603 23.8458 101.534C20.8256 98.9349 13.209 90.5645 12.4796 86.6387C11.7503 82.713 8.16716 70.1378 15.4019 68.9532Z" fill="#263238"/>
<path d="M15.2942 82.4584C14.1146 76.418 16.1851 68.0965 22.2696 67.2056L36.8762 67.1175C41.5607 67.0931 45.4571 70.0545 46.955 74.46C47.0284 74.6803 46.955 74.4013 47.0186 74.5726L48.9766 87.696L54.4296 108.744C53.6268 114.755 45.6627 118.534 37.9384 121.961C37.7573 121.471 36.3378 116.993 36.3378 116.993C36.3378 116.993 34.3357 109.161 34.3357 109.195C34.3357 109.229 24.3402 110.414 20.2039 100.908C18.1333 96.2035 16.562 89.1694 15.2942 82.4584Z" fill="#FFBF9D"/>
<path d="M22.1911 88.9247C22.2704 89.2593 22.478 89.5494 22.7691 89.7325C23.0603 89.9157 23.4117 89.9771 23.7477 89.9037C24.0766 89.843 24.368 89.6543 24.558 89.379C24.748 89.1037 24.8209 88.7642 24.7609 88.4352C24.6805 88.1012 24.4727 87.8119 24.1818 87.6289C23.891 87.446 23.5402 87.384 23.2043 87.4562C23.0409 87.485 22.8848 87.546 22.7451 87.6357C22.6054 87.7254 22.4849 87.8419 22.3906 87.9786C22.2964 88.1152 22.2302 88.2692 22.1959 88.4316C22.1617 88.594 22.16 88.7616 22.1911 88.9247Z" fill="#263238"/>
<path d="M17.7908 85.9534C17.9915 86.0758 18.7698 85.1164 20.1355 84.764C21.5012 84.4115 22.6858 84.8423 22.7886 84.6367C22.8424 84.5437 22.6075 84.2843 22.0886 84.0787C21.39 83.8218 20.6291 83.7876 19.9103 83.9808C19.1973 84.1595 18.5606 84.5628 18.0943 85.1311C17.7565 85.5618 17.6929 85.8996 17.7908 85.9534Z" fill="#263238"/>
<path d="M33.9596 85.9387C34.0389 86.2734 34.2465 86.5635 34.5377 86.7466C34.8288 86.9297 35.1802 86.9912 35.5162 86.9177C35.68 86.8895 35.8365 86.8289 35.9765 86.7394C36.1165 86.6499 36.2372 86.5333 36.3316 86.3965C36.426 86.2597 36.4921 86.1055 36.5261 85.9428C36.5601 85.7802 36.5612 85.6123 36.5295 85.4492C36.4513 85.1149 36.2446 84.8249 35.9543 84.6417C35.6639 84.4585 35.3132 84.3969 34.9778 84.4702C34.8142 84.4991 34.6579 84.5601 34.518 84.6497C34.3781 84.7393 34.2573 84.8558 34.1627 84.9923C34.068 85.1288 34.0013 85.2828 33.9665 85.4452C33.9316 85.6076 33.9293 85.7754 33.9596 85.9387Z" fill="#263238"/>
<path d="M30.7579 82.571C30.9586 82.6934 31.7369 81.734 33.1075 81.3815C34.4781 81.0291 35.6529 81.4598 35.7606 81.2542C35.8144 81.1612 35.5745 80.9018 35.0557 80.6962C34.3571 80.4394 33.5962 80.4052 32.8774 80.5983C32.1661 80.778 31.5313 81.1812 31.0663 81.7486C30.7579 82.1794 30.6747 82.5123 30.7579 82.571Z" fill="#263238"/>
<path d="M29.2892 94.4168C29.2892 94.3385 28.3885 94.4168 26.9641 94.5882C26.6067 94.642 26.2592 94.6567 26.1368 94.4364C26.0148 94.0828 26.0029 93.7005 26.1025 93.3399C26.2151 92.4099 26.3277 91.4358 26.4501 90.403C26.9053 86.2471 27.1403 82.8696 26.9739 82.85C26.8074 82.8304 26.3032 86.208 25.8627 90.354C25.7599 91.3771 25.6571 92.3512 25.5641 93.291C25.4529 93.768 25.5136 94.269 25.7354 94.7056C25.8167 94.8166 25.9228 94.9071 26.0451 94.97C26.1674 95.0328 26.3028 95.0664 26.4403 95.0679C26.6481 95.0732 26.8556 95.0502 27.0571 94.9993C28.4472 94.7105 29.2892 94.4952 29.2892 94.4168Z" fill="#263238"/>
<path d="M46.5489 102.268C46.5489 102.268 45.0804 109.914 34.9429 111.544L34.3311 109.214C38.9683 108.075 43.1981 105.67 46.5489 102.268Z" fill="#FF9A6C"/>
<path d="M29.9104 77.5194C30.1405 77.8571 31.4621 77.3285 33.1166 77.1082C34.7712 76.8879 36.1809 76.9858 36.3082 76.6187C36.362 76.4327 36.0438 76.1292 35.4271 75.9187C34.6117 75.6551 33.7469 75.5811 32.8986 75.7024C32.0503 75.8237 31.2409 76.1371 30.5321 76.6187C30.0279 76.9907 29.8076 77.3578 29.9104 77.5194Z" fill="#263238"/>
<path d="M17.1449 81.6556C17.4679 81.9053 18.3246 81.3375 19.4553 81.0291C20.5861 80.7207 21.5993 80.6962 21.7364 80.3144C21.7951 80.1333 21.5601 79.8641 21.0658 79.6781C20.4124 79.4702 19.712 79.4616 19.0538 79.6534C18.3956 79.8452 17.8094 80.2287 17.37 80.755C17.0519 81.1759 17.0029 81.5333 17.1449 81.6556Z" fill="#263238"/>
<path d="M15.6275 72.7125C15.8429 71.0678 17.2428 69.7461 18.8288 69.2469C20.4403 68.8261 22.1384 68.8737 23.7238 69.3839C30.5131 71.2587 35.6871 78.6844 42.4373 80.7109C44.0918 81.2004 45.7512 79.9228 47.2687 80.7549C48.7861 81.5871 50.0588 83.2024 49.7847 84.9255C50.3499 83.6718 50.7308 82.3429 50.9154 80.9801C51.0032 80.2971 50.9442 79.6032 50.7425 78.9448C50.5407 78.2864 50.2008 77.6786 49.7455 77.162C49.0113 76.418 47.9491 75.9823 47.4498 75.067C47.0092 74.2642 47.1169 73.2754 46.8477 72.3992C46.5138 71.5226 45.9771 70.7375 45.2813 70.1084C41.9478 66.6819 37.8556 63.833 33.2201 62.619C30.1857 61.7746 26.9784 61.7746 23.9441 62.619C20.909 63.506 18.2909 65.4487 16.5624 68.0965C15.5834 69.6531 14.5359 71.2636 15.6422 72.737" fill="#263238"/>
<path d="M47.4688 82.0178C47.4981 81.7095 52.1777 78.4983 53.6756 83.9758C55.1441 89.2918 49.4757 89.6442 49.4267 89.4925C49.3778 89.3407 47.4688 82.0178 47.4688 82.0178Z" fill="#FFBF9D"/>
<path d="M50.5235 87.0303C50.5235 87.0058 50.6312 87.0695 50.8074 87.0988C51.0547 87.1314 51.3051 87.0684 51.5074 86.9226C51.9969 86.5653 52.2466 85.5471 51.9969 84.5779C51.8874 84.1185 51.6748 83.69 51.3753 83.3248C51.282 83.1714 51.1524 83.0433 50.9979 82.952C50.8433 82.8606 50.6686 82.8088 50.4893 82.801C50.3734 82.7992 50.2605 82.8385 50.1709 82.912C50.0813 82.9855 50.0206 83.0884 49.9998 83.2024C49.9704 83.3689 50.0291 83.4668 49.9998 83.4814C49.9704 83.4961 49.8627 83.4276 49.8431 83.1926C49.8384 83.0535 49.8816 82.917 49.9655 82.8059C50.0238 82.729 50.0973 82.6649 50.1816 82.6177C50.2658 82.5705 50.3589 82.5413 50.455 82.5318C50.685 82.5151 50.9154 82.5581 51.1238 82.6567C51.3323 82.7554 51.5116 82.9063 51.6445 83.0947C51.9975 83.4928 52.2464 83.9721 52.3689 84.4898C52.6235 85.5716 52.3689 86.7219 51.6396 87.1527C51.5082 87.2335 51.3602 87.2835 51.2067 87.2987C51.0532 87.314 50.8983 87.2942 50.7536 87.2408C50.5676 87.1527 50.5088 87.045 50.5235 87.0303Z" fill="#FF9A6C"/>
<path d="M48.8691 78.7235C48.7442 78.7036 48.6214 78.6725 48.502 78.6305C48.2622 78.5522 47.9048 78.4592 47.4594 78.2928C46.2084 77.7981 45.0138 77.1712 43.8958 76.4229C42.2585 75.2916 40.6848 74.0709 39.182 72.7663C37.3636 71.1614 35.4134 69.7123 33.3521 68.4343C32.2689 67.8071 31.1198 67.3015 29.9256 66.9266C28.8116 66.5913 27.661 66.3925 26.4991 66.3343C24.5239 66.2277 22.5462 66.4934 20.6692 67.1175C19.4004 67.5322 18.1923 68.1133 17.0762 68.8455C16.6749 69.0951 16.3861 69.335 16.1854 69.472C16.0853 69.5523 15.9789 69.6243 15.8672 69.6874C15.9523 69.5925 16.0475 69.5071 16.1511 69.4329C16.4276 69.1933 16.7186 68.9709 17.0224 68.7671C18.1257 67.9939 19.334 67.3823 20.6104 66.9511C22.5054 66.2921 24.5101 66.0061 26.5138 66.1092C27.6968 66.161 28.869 66.3583 30.0039 66.6966C31.2158 67.0762 32.3828 67.5866 33.4842 68.2189C35.5661 69.5035 37.5316 70.9678 39.3582 72.595C40.8494 73.9023 42.4064 75.1325 44.0231 76.2809C45.1236 77.0359 46.2959 77.6802 47.523 78.2047C47.9587 78.3858 48.316 78.4935 48.5461 78.5865C48.6582 78.6209 48.7665 78.6668 48.8691 78.7235Z" fill="#455A64"/>
<path d="M47.9294 80.5836C48.3895 82.0178 48.8594 83.5206 48.5217 84.9891C48.1839 86.4576 46.7203 87.7841 45.2616 87.3876C44.077 87.0695 43.4211 85.8261 42.9414 84.6954C41.5512 81.4256 40.4205 78.0529 39.0254 74.8026L47.9294 80.5836Z" fill="#263238"/>
<path d="M16.2783 69.8343C16.2783 69.8636 16.7238 69.6238 17.5706 69.3741C18.7737 69.038 20.0317 68.9448 21.2712 69.1C22.1243 69.1949 22.9646 69.382 23.7774 69.658C24.7119 69.9859 25.6257 70.37 26.5137 70.8084C28.5583 71.7905 30.4764 73.0166 32.2262 74.46C33.1513 75.2334 34.0079 76.0558 34.8939 76.79C35.739 77.5146 36.6674 78.1357 37.6596 78.6403C39.3484 79.4514 41.1235 80.0689 42.9511 80.4808C44.5028 80.8431 45.7755 81.0536 46.6566 81.1955L47.6698 81.3473C47.787 81.3734 47.9073 81.3833 48.0272 81.3766C47.9144 81.335 47.7981 81.3039 47.6796 81.2836L46.6762 81.078C45.8048 80.8969 44.5419 80.6571 43.0049 80.2655C41.2046 79.8293 39.4579 79.1956 37.7967 78.376C36.8275 77.8774 35.9206 77.2662 35.0946 76.5551C34.2233 75.8257 33.3716 74.9985 32.4367 74.2153C30.662 72.7569 28.7137 71.5237 26.6361 70.544C25.735 70.1105 24.8081 69.7329 23.8606 69.4133C23.0283 69.1391 22.168 68.9585 21.2957 68.8748C20.03 68.7358 18.7492 68.8642 17.5363 69.2518C17.2098 69.3585 16.8922 69.4911 16.5867 69.6483C16.4759 69.6958 16.3721 69.7584 16.2783 69.8343Z" fill="#455A64"/>
<path d="M46.6172 76.746C46.7938 76.8355 46.9814 76.9014 47.1752 76.9418L48.7318 77.3823L49.2556 77.5243C49.4604 77.5847 49.6759 77.5997 49.887 77.5683C50.017 77.5482 50.1361 77.4843 50.2248 77.3872C50.273 77.3334 50.3078 77.2691 50.3265 77.1994C50.3452 77.1296 50.3473 77.0565 50.3325 76.9858C50.2573 76.7427 50.1085 76.5289 49.9066 76.3739L47.6843 74.274L47.5228 74.5236C48.1466 74.7735 48.8092 74.9126 49.4808 74.9348C50.1444 74.9585 50.8071 74.8657 51.4387 74.6607C51.6022 74.6151 51.7575 74.544 51.8989 74.4502C51.9834 74.401 52.0561 74.3338 52.1119 74.2535C52.1677 74.1731 52.2053 74.0816 52.2219 73.9852C52.2292 73.8865 52.212 73.7875 52.1719 73.697C52.1318 73.6064 52.0699 73.5272 51.9919 73.4663C51.8691 73.3701 51.7381 73.2849 51.6003 73.2118C50.7202 72.7141 49.9089 72.1036 49.1871 71.3958C48.5383 70.721 47.938 70.0013 47.3906 69.242C47.4812 69.4795 47.6013 69.7048 47.7479 69.9126C48.1175 70.5006 48.5473 71.0485 49.0304 71.5475C49.7515 72.2982 50.5756 72.9426 51.4779 73.4614C51.7276 73.5985 51.9674 73.76 51.9674 73.9509C51.9674 74.1418 51.6639 74.2985 51.3849 74.3719C50.7824 74.5625 50.1513 74.6469 49.5199 74.6215C48.8911 74.6008 48.2704 74.4734 47.6843 74.2446L46.9256 73.946L47.5277 74.4943L49.7745 76.5697C49.9367 76.6854 50.0624 76.845 50.1367 77.0299C50.1709 77.1816 50.0633 77.304 49.8919 77.3383C49.5317 77.3583 49.171 77.3085 48.8297 77.1914L47.2486 76.839C47.0427 76.7825 46.8307 76.7513 46.6172 76.746Z" fill="#455A64"/>
<path d="M31.1544 96.7028C31.3376 96.3279 31.6138 96.006 31.9564 95.7678C32.2991 95.5297 32.6971 95.3831 33.1124 95.342C33.4097 95.2999 33.7124 95.318 34.0026 95.3954C34.2927 95.4728 34.5643 95.6078 34.8011 95.7923C35.0266 95.969 35.1915 96.2113 35.2731 96.4858C35.3546 96.7603 35.3488 97.0534 35.2564 97.3245C35.0944 97.608 34.8525 97.8377 34.5609 97.9848C34.2693 98.1319 33.9409 98.1899 33.6165 98.1517C32.9435 98.0762 32.2917 97.87 31.6977 97.5447C31.5179 97.4755 31.3521 97.3743 31.2082 97.2462C31.1443 97.184 31.1001 97.1046 31.0809 97.0176C31.0618 96.9305 31.0686 96.8398 31.1005 96.7567" fill="#FF9A6C"/>
<path d="M33.9837 93.6973C33.7683 93.7365 34.0865 95.1658 33.083 96.4385C32.0796 97.7112 30.5132 97.907 30.5474 98.1175C30.5474 98.2105 30.9488 98.3182 31.5998 98.186C32.4441 98.0055 33.1998 97.5386 33.739 96.8643C34.2482 96.221 34.487 95.4046 34.4047 94.5882C34.3215 93.9812 34.0816 93.6679 33.9837 93.6973Z" fill="#263238"/>
<path d="M34.4193 110.947C34.4193 110.947 24.1986 116.067 21.4819 122.7C18.7652 129.333 19.333 133.538 20.1602 140.361C20.9875 147.185 24.6392 172.761 26.3769 177.166C27.7328 180.593 29.4901 184.998 38.5556 183.427C47.6211 181.856 54.4104 180.681 54.4104 180.681V108.314C54.4104 108.314 51.3853 114.423 44.1652 114.995C39.6178 115.358 34.4193 110.947 34.4193 110.947Z" fill="#172090"/>
<path d="M34.5752 166.765C34.8007 166.66 35.0349 166.575 35.2752 166.51C35.7304 166.358 36.3961 166.163 37.2332 165.947C39.3938 165.384 41.5926 164.978 43.812 164.733C46.0317 164.485 48.2663 164.397 50.4986 164.469C51.3552 164.498 52.0454 164.537 52.5251 164.586C52.7723 164.597 53.0181 164.629 53.2593 164.684C53.0119 164.709 52.7627 164.709 52.5153 164.684C52.0258 164.684 51.3503 164.65 50.4937 164.64C48.2715 164.624 46.0502 164.739 43.8414 164.983C41.6334 165.233 39.4416 165.61 37.2772 166.114C36.4451 166.309 35.7745 166.476 35.3192 166.603C35.0775 166.683 34.8281 166.737 34.5752 166.765Z" fill="#263238"/>
<path d="M30.5373 128.892C30.5564 129.024 30.5662 129.156 30.5666 129.289C30.5666 129.573 30.5666 129.949 30.6058 130.424C30.6401 131.403 30.6841 132.838 30.7624 134.6C30.9125 139.186 31.4827 143.75 32.4659 148.232C33.0301 150.692 33.7845 153.104 34.7225 155.447C35.507 157.357 36.4914 159.178 37.6595 160.881C38.4483 162.023 39.3273 163.1 40.2881 164.102C40.6209 164.464 40.9097 164.719 41.086 164.905C41.1863 164.994 41.2781 165.092 41.3601 165.198C41.2502 165.122 41.1471 165.037 41.0517 164.944C40.8608 164.768 40.5622 164.528 40.2195 164.17C39.2232 163.19 38.3157 162.124 37.5077 160.984C36.3185 159.283 35.3188 157.458 34.5267 155.54C33.5656 153.19 32.7962 150.766 32.226 148.291C31.2325 143.787 30.6833 139.196 30.5862 134.585C30.5275 132.823 30.5128 131.394 30.5128 130.41C30.5128 129.92 30.5128 129.553 30.5128 129.269C30.5086 129.143 30.5168 129.017 30.5373 128.892Z" fill="#263238"/>
<path d="M54.4105 212.689C54.3419 212.689 54.2832 166.711 54.2832 110.002C54.2832 53.2941 54.3419 7.31067 54.4105 7.31067C54.479 7.31067 54.5377 53.2794 54.5377 110.002C54.5377 166.726 54.4839 212.689 54.4105 212.689Z" fill="#263238"/>
<path d="M59.5355 145.491C59.5355 145.491 60.9355 144.116 59.56 143.166C58.1845 142.216 57.7929 142.187 55.0224 142.676C52.2518 143.166 50.5239 144.018 50.2889 145.403C50.2138 145.786 50.2185 146.181 50.3027 146.563C50.387 146.944 50.5489 147.304 50.7784 147.62C50.7784 147.62 49.3882 148.271 49.4225 150.557L50.1812 152.726C50.1812 152.726 49.168 154.322 49.5987 155.663C49.8207 156.419 50.2808 157.083 50.9106 157.557C50.9106 157.557 50.1127 160.494 50.9106 162.041C51.7085 163.588 54.2783 166.784 54.2783 166.784L54.2294 158.409C54.2294 158.409 59.8439 154.757 60.0789 152.878C60.3138 150.998 59.7607 150.494 59.7607 150.494C59.7607 150.494 61.1558 149.177 59.839 148.002C59.8488 147.983 61.0774 146.553 59.5355 145.491Z" fill="#FFBF9D"/>
<path d="M59.5988 150.499C59.1523 150.836 58.6829 151.142 58.1939 151.414C57.3177 151.962 56.094 152.701 54.7674 153.558C54.1066 153.989 53.485 154.41 52.9465 154.826C52.477 155.194 52.0559 155.62 51.6934 156.094C51.4484 156.414 51.2399 156.76 51.0717 157.126C51.0214 157.267 50.9626 157.404 50.8955 157.538C50.9565 156.968 51.1828 156.429 51.5465 155.986C51.8983 155.485 52.3147 155.032 52.785 154.64C53.3283 154.204 53.95 153.778 54.6157 153.348C55.9422 152.486 57.1807 151.766 58.0862 151.262C58.5679 150.965 59.0739 150.71 59.5988 150.499Z" fill="#FF9A6C"/>
<path d="M59.8482 147.983C59.7107 148.066 59.5625 148.13 59.4076 148.174L58.179 148.614C57.1462 148.991 55.7315 149.495 54.1651 150.141C53.4391 150.433 52.7342 150.775 52.0554 151.164C51.1701 151.753 50.4599 152.57 49.9995 153.529C49.8722 153.808 49.8331 153.974 49.8135 153.969C49.8828 153.365 50.1317 152.795 50.5281 152.334C50.9029 151.79 51.3801 151.325 51.933 150.964C52.6162 150.557 53.3297 150.203 54.0672 149.906C55.6238 149.255 57.0727 148.776 58.1203 148.438C58.6489 148.271 59.0748 148.149 59.3734 148.071C59.5273 148.021 59.6868 147.992 59.8482 147.983Z" fill="#FF9A6C"/>
<path d="M59.6383 145.369C59.2145 145.515 58.7789 145.625 58.3363 145.697C57.5286 145.878 56.4174 146.118 55.1888 146.406C53.9602 146.695 52.8686 146.999 52.0903 147.263C51.312 147.527 50.8763 147.782 50.8518 147.753C50.8274 147.723 50.9448 147.655 51.1358 147.522C51.4201 147.354 51.7181 147.21 52.0266 147.092C53.0389 146.712 54.0758 146.401 55.1301 146.162C56.3636 145.868 57.4845 145.672 58.302 145.52C58.7404 145.42 59.1886 145.369 59.6383 145.369Z" fill="#FF9A6C"/>
<path d="M108.606 99.6298H82.1777V106.62H108.606V99.6298Z" fill="#E0E0E0"/>
<path d="M97.4351 113.962C97.4277 113.92 97.4277 113.877 97.4351 113.835C97.4351 113.742 97.4351 113.625 97.4351 113.478C97.4351 113.15 97.4351 112.69 97.4351 112.102C97.4351 110.898 97.4351 109.165 97.391 106.972L97.4742 107.056L71.0413 107.109C71.1001 107.046 70.9043 107.242 71.1735 106.972V110.536C71.1735 111.701 71.1735 112.851 71.1735 113.962L71.0413 113.835L89.8772 113.894L95.4379 113.928H96.9407H97.3323H97.4742C97.4338 113.936 97.3923 113.936 97.3518 113.928H96.9749H95.5064L89.98 113.967L71.0511 114.026H70.9189V106.997C71.1882 106.728 70.9924 106.923 71.056 106.865L97.4889 106.914H97.5672V106.997C97.5672 109.204 97.533 110.957 97.5232 112.176C97.5232 112.758 97.5232 113.209 97.5232 113.532C97.5232 113.674 97.5232 113.786 97.5232 113.879C97.496 113.909 97.4666 113.937 97.4351 113.962Z" fill="#263238"/>
<path d="M228.968 170.617H202.54V177.607H228.968V170.617Z" fill="#E0E0E0"/>
<path d="M143.668 152.628H117.24V159.618H143.668V152.628Z" fill="#EBEBEB"/>
<path d="M217.808 184.974C217.808 184.974 217.808 184.925 217.808 184.847V184.484C217.808 184.156 217.808 183.696 217.808 183.109C217.808 181.905 217.808 180.172 217.764 177.979L217.842 178.062L191.409 178.116L191.547 177.979V179.766C191.547 180.358 191.547 180.945 191.547 181.528V184.954L191.414 184.822L210.25 184.881L215.806 184.92H217.314H217.705C217.751 184.913 217.797 184.913 217.842 184.92H217.72H217.343H215.875L210.348 184.954L191.419 185.013H191.287V177.984L191.419 177.852L217.852 177.901H217.935V177.984C217.935 180.191 217.901 181.944 217.891 183.163C217.891 183.745 217.891 184.195 217.891 184.523C217.891 184.661 217.891 184.778 217.891 184.866C217.869 184.906 217.841 184.942 217.808 184.974Z" fill="#263238"/>
<path d="M143.668 44.4927H117.24V51.4828H143.668V44.4927Z" fill="#E0E0E0"/>
<path d="M95.4768 15.0837H69.0488V22.0738H95.4768V15.0837Z" fill="#EBEBEB"/>
<path d="M132.494 58.8497C132.494 58.8497 132.494 58.8008 132.494 58.7225C132.494 58.6441 132.494 58.5071 132.494 58.3602C132.494 58.0323 132.494 57.5721 132.494 56.9848C132.494 55.7806 132.469 54.0478 132.45 51.8548L132.528 51.938L106.095 51.9919L106.232 51.8548V53.6415C106.232 54.2338 106.232 54.8212 106.232 55.4037V58.8302L106.1 58.698L124.936 58.7567L130.497 58.7959H131.999H132.391C132.436 58.7887 132.483 58.7887 132.528 58.7959H132.406H132.029H130.56L125.034 58.8302L106.105 58.8889H105.973V51.8597L106.105 51.7275L132.538 51.7765H132.621V51.8597C132.621 54.0673 132.587 55.8197 132.577 57.0386C132.577 57.6211 132.577 58.0714 132.577 58.3994C132.577 58.5365 132.577 58.6539 132.577 58.742C132.558 58.784 132.529 58.8209 132.494 58.8497Z" fill="#263238"/>
<path d="M224.043 68.5761C224.04 68.5337 224.04 68.4912 224.043 68.4488C224.043 68.3558 224.043 68.2334 224.043 68.0866C224.043 67.7586 224.043 67.2985 224.043 66.7111C224.043 65.5069 224.043 63.7741 223.999 61.5812L224.083 61.6644L197.65 61.7182C197.708 61.6546 197.513 61.8504 197.782 61.5812V65.13C197.782 66.295 197.782 67.4454 197.782 68.5565L197.655 68.4243L216.486 68.4831L222.046 68.5222H223.549H223.941C223.988 68.5153 224.036 68.5153 224.083 68.5222H223.96H223.583H222.115L216.584 68.5565L197.66 68.6201H197.527V68.488C197.527 67.3621 197.527 66.2118 197.527 65.0615V61.5861C197.797 61.3168 197.601 61.5126 197.664 61.4539L224.097 61.5028H224.181V61.5861C224.181 63.7937 224.141 65.5461 224.132 66.7649C224.132 67.3474 224.132 67.7978 224.132 68.1258V68.4684C224.048 68.5418 224.043 68.5761 224.043 68.5761Z" fill="#263238"/>
<path d="M227.628 61.586C227.624 61.5421 227.624 61.4978 227.628 61.4539C227.628 61.356 227.628 61.2336 227.628 61.0818C227.628 60.7392 227.628 60.2742 227.628 59.6819C227.628 58.4581 227.598 56.7449 227.574 54.596L227.672 54.6939L211.792 54.7282L211.924 54.596V58.1938C211.924 59.3637 211.924 60.4944 211.924 61.5811L211.797 61.4539L223.154 61.5126L226.463 61.5518H227.358H227.677C227.58 61.5587 227.484 61.5587 227.388 61.5518H226.521L223.242 61.586L211.797 61.6448H211.67V61.586C211.67 60.4993 211.67 59.3702 211.67 58.1987C211.67 57.6113 211.67 57.019 211.67 56.4169V54.6009L211.807 54.4638L227.686 54.503H227.784V54.6009C227.784 56.7547 227.745 58.5169 227.73 59.7455C227.73 60.328 227.73 60.7881 227.73 61.1259C227.705 61.2812 227.671 61.4349 227.628 61.586Z" fill="#263238"/>
<path d="M191.15 122.631C191.146 122.589 191.146 122.546 191.15 122.504C191.15 122.411 191.15 122.294 191.15 122.147C191.15 121.814 191.15 121.359 191.15 120.771C191.15 119.562 191.15 117.834 191.106 115.641L191.189 115.72L164.756 115.773L164.888 115.641V119.18C164.888 120.35 164.888 121.496 164.888 122.607L164.756 122.475L183.592 122.533L189.153 122.573H190.656H191.047H191.189H191.067H190.69H189.221L183.695 122.612L164.766 122.67H164.634V115.651L164.771 115.514L191.204 115.568H191.287V115.651C191.287 117.859 191.253 119.611 191.243 120.83C191.243 121.408 191.243 121.863 191.243 122.186C191.243 122.328 191.243 122.44 191.243 122.529C191.215 122.565 191.183 122.599 191.15 122.631Z" fill="#263238"/>
<path d="M206.926 18.5885C206.92 18.5463 206.92 18.5034 206.926 18.4613V18.099C206.926 17.7711 206.926 17.3109 206.926 16.7235C206.926 15.5194 206.902 13.7865 206.882 11.5936L206.965 11.6768L180.533 11.7307C180.591 11.667 180.395 11.8628 180.665 11.5936V15.1425C180.665 16.3075 180.665 17.4578 180.665 18.5689L180.533 18.4368L199.368 18.4955L204.929 18.5347H206.432H206.823C206.871 18.5282 206.918 18.5282 206.965 18.5347H206.843H206.466H204.998L199.471 18.5689L180.542 18.6277H180.41V11.5985C180.679 11.3293 180.484 11.5251 180.547 11.4663L206.98 11.5153H207.058V11.5985C207.058 13.8061 207.024 15.5585 207.014 16.7774C207.014 17.3599 207.014 17.8102 207.014 18.1382C207.014 18.2752 207.014 18.3878 207.014 18.4808C206.988 18.5187 206.958 18.5547 206.926 18.5885Z" fill="#263238"/>
<path d="M114.744 208.494C114.744 208.494 114.744 208.45 114.744 208.367C114.744 208.284 114.744 208.156 114.744 208.01C114.744 207.682 114.744 207.222 114.744 206.634C114.744 205.425 114.714 203.697 114.695 201.504L114.778 201.582L88.345 201.636L88.4772 201.504V208.484L88.345 208.352L107.181 208.411L112.737 208.45H114.24H114.636H114.773C114.732 208.455 114.691 208.455 114.651 208.45H114.274H112.805L107.274 208.489L88.3499 208.548H88.2178V208.416C88.2178 207.29 88.2178 206.148 88.2178 204.989V201.45L88.3548 201.313L114.788 201.367H114.871V201.45C114.871 203.658 114.837 205.41 114.827 206.629C114.827 207.207 114.827 207.662 114.827 207.985C114.827 208.127 114.827 208.24 114.827 208.328C114.827 208.416 114.749 208.499 114.744 208.494Z" fill="#263238"/>
<path d="M314.998 72.7125C315.866 73.445 316.985 73.8134 318.119 73.7409C319.253 73.6684 320.315 73.1604 321.083 72.3232C321.852 71.4859 322.267 70.3842 322.242 69.2481C322.217 68.112 321.754 67.0295 320.95 66.2266C321.881 65.9679 322.708 65.4228 323.312 64.6684C323.916 63.914 324.268 62.9886 324.317 62.0232C324.367 61.0579 324.111 60.1015 323.587 59.2895C323.062 58.4775 322.296 57.851 321.395 57.4989C321.839 56.6575 322.057 55.7156 322.029 54.7649C322 53.8142 321.727 52.887 321.234 52.0735C320.741 51.26 320.046 50.5878 319.217 50.1223C318.387 49.6569 317.452 49.414 316.5 49.4173C316.014 48.1236 315.109 47.0298 313.929 46.3096C312.75 45.5894 311.363 45.2842 309.99 45.4425C309.275 44.8288 308.383 44.4605 307.443 44.3915C306.503 44.3225 305.566 44.5565 304.77 45.0592C303.973 45.562 303.358 46.3069 303.016 47.1846C302.674 48.0624 302.622 49.0267 302.868 49.9361" fill="#263238"/>
<path d="M306.965 48.732L307.802 49.2215C311.875 51.6015 314.902 55.4278 316.28 59.9386C317.659 64.4495 317.289 69.3141 315.243 73.5642C311.293 81.7633 306.828 90.7701 304.322 94.9406C299.129 103.57 289.637 99.8356 289.637 99.8356L284.253 110.717L272.72 113.028L263.532 97.7209L283.822 58.7373C288.335 49.2557 297.606 43.974 306.965 48.732Z" fill="#AE7461"/>
<path d="M289.637 99.8404C289.637 99.8404 283.968 96.9573 280.273 89.8743C280.273 89.8743 279.397 97.7895 288.531 102.082L289.637 99.8404Z" fill="#6F4439"/>
<path d="M316.736 69.0951C316.736 69.0951 317.627 62.3057 315.757 59.5009C313.476 56.1038 310.069 58.7911 307.533 56.1723C304.998 53.5535 302.824 50.2983 298.36 50.8368C293.465 51.4144 294.008 54.1409 291.541 57.8807C281.546 73.0257 276.102 75.7767 279.597 67.935C279.979 67.0735 278.129 65.1252 279.779 61.5176C281.937 56.8429 284.904 51.3752 287.728 48.7907C290.107 46.632 292.687 45.6824 296.568 45.2516C302.697 44.5663 308.6 47.9292 312.35 50.6361C316.099 53.343 321.087 62.4869 316.736 69.0951Z" fill="#263238"/>
<path d="M280.283 68.0231C280.458 67.6976 280.566 67.34 280.6 66.9717C280.633 66.6034 280.592 66.2322 280.478 65.8804C280.364 65.5285 280.18 65.2035 279.937 64.9248C279.694 64.6461 279.397 64.4195 279.064 64.2588C277.351 63.4609 275.006 63.3288 273.156 66.7406C269.866 72.8006 276.626 74.8467 276.729 74.6802C276.832 74.5138 278.927 70.5636 280.283 68.0231Z" fill="#AE7461"/>
<path d="M276.651 71.6894C276.651 71.6552 276.504 71.6894 276.284 71.6894C275.975 71.6613 275.689 71.5138 275.486 71.2783C274.997 70.6958 274.997 69.3888 275.55 68.2776C275.815 67.7518 276.195 67.2919 276.661 66.9315C276.82 66.7728 277.016 66.6552 277.231 66.5887C277.446 66.5222 277.673 66.5088 277.895 66.5497C278.033 66.5828 278.156 66.6638 278.241 66.7784C278.326 66.8929 278.368 67.0338 278.36 67.1763C278.36 67.3916 278.247 67.4895 278.272 67.5189C278.296 67.5483 278.458 67.4895 278.546 67.2105C278.59 67.0481 278.577 66.8757 278.511 66.721C278.467 66.6109 278.4 66.5109 278.316 66.4268C278.232 66.3427 278.132 66.2763 278.022 66.2315C277.747 66.146 277.454 66.1326 277.172 66.1926C276.89 66.2526 276.628 66.384 276.411 66.5742C275.872 66.9529 275.432 67.4568 275.129 68.0427C274.507 69.286 274.512 70.7643 275.251 71.4936C275.387 71.6291 275.552 71.732 275.734 71.7948C275.915 71.8575 276.108 71.8784 276.299 71.8559C276.558 71.8265 276.666 71.709 276.651 71.6894Z" fill="#6F4439"/>
<path d="M287.136 56.5737C287.596 57.5527 288.115 58.5709 288.972 59.2072C289.828 59.8436 291.223 59.9317 291.909 59.0995C292.217 58.7275 292.398 58.189 292.858 58.0275C293.407 57.8366 293.935 58.3065 294.4 58.6492C296.025 59.8436 299.158 59.1387 300.583 57.6947C300.622 58.1477 300.832 58.5689 301.17 58.8732C301.508 59.1776 301.949 59.3424 302.403 59.3345C303.149 59.3175 303.887 59.17 304.582 58.8988C305.453 58.6051 306.501 58.5023 307.22 59.0701C307.622 59.3932 307.881 59.8925 308.346 60.1128C309.168 60.4995 310.084 59.8093 310.656 59.1044C311.229 58.3995 311.846 57.5478 312.756 57.5135C313.593 57.4793 314.259 58.1695 314.915 58.6981C315.571 59.2268 316.599 59.5988 317.191 59.0016C317.332 58.8314 317.438 58.6344 317.501 58.4224C317.564 58.2104 317.583 57.9878 317.558 57.7681C317.495 56.7663 317.096 55.8152 316.425 55.0683C315.754 54.3213 314.852 53.8222 313.863 53.6514C314.148 52.4907 314.083 51.2713 313.676 50.1475C313.269 49.0237 312.537 48.0459 311.574 47.3376C310.612 46.6293 309.46 46.2224 308.266 46.1682C307.072 46.1141 305.889 46.4151 304.866 47.0334C304.569 46.0921 304.049 45.2362 303.351 44.5385C302.653 43.8407 301.796 43.3217 300.855 43.0253C299.913 42.7289 298.914 42.6639 297.942 42.8359C296.97 43.0079 296.054 43.4117 295.271 44.0132C294.655 43.4 293.872 42.9812 293.019 42.8087C292.167 42.6361 291.283 42.7175 290.476 43.0427C289.669 43.3678 288.976 43.9225 288.481 44.6379C287.987 45.3534 287.713 46.1982 287.694 47.0677C286.265 47.0677 284.733 47.5572 283.989 48.7956C283.245 50.034 283.729 51.9382 285.105 52.3102C284.538 52.6347 284.123 53.1711 283.952 53.8013C283.781 54.4315 283.867 55.1039 284.192 55.6706C284.516 56.2373 285.053 56.6518 285.683 56.823C286.313 56.9942 286.985 56.9081 287.552 56.5835" fill="#263238"/>
<path d="M313.299 55.6584C313.299 55.6584 313.299 55.7024 313.231 55.766C313.162 55.8297 313.113 55.9423 313.011 56.0646C312.694 56.4191 312.322 56.7199 311.909 56.9555C311.253 57.3302 310.519 57.548 309.765 57.5919C308.765 57.6655 307.767 57.4093 306.926 56.8625L307.102 56.7891C306.965 57.4346 306.578 57.9995 306.026 58.3604C305.446 58.7386 304.814 59.0305 304.151 59.2268C303.808 59.3628 303.452 59.4613 303.089 59.5205C302.696 59.5498 302.302 59.4808 301.943 59.3198C301.562 59.1658 301.225 58.9204 300.961 58.6055C300.698 58.2905 300.515 57.9155 300.431 57.5135L300.69 57.5821C300.244 58.147 299.684 58.6128 299.048 58.9499C298.412 59.287 297.712 59.488 296.994 59.5401C296.185 59.6326 295.368 59.4609 294.664 59.0506C294.023 58.6334 293.457 58.1104 292.99 57.5038H293.191C292.461 58.0428 291.608 58.391 290.709 58.517C290.286 58.5939 289.85 58.5758 289.435 58.4641C289.019 58.3524 288.633 58.1498 288.306 57.8709C287.76 57.3706 287.373 56.7219 287.191 56.0045C287.009 55.287 287.041 54.5321 287.283 53.8325L287.381 53.9745C286.561 53.939 285.778 53.6228 285.163 53.0787C284.7 52.6807 284.339 52.177 284.111 51.6102C283.967 51.2549 283.886 50.8773 283.871 50.4941C283.865 50.3613 283.875 50.2282 283.9 50.0977C283.915 50.6026 284.023 51.1004 284.218 51.5662C284.458 52.1026 284.818 52.5766 285.271 52.9514C285.863 53.4542 286.609 53.7407 287.385 53.764H287.532L287.483 53.906C287.265 54.5616 287.241 55.2665 287.415 55.9354C287.589 56.6042 287.953 57.2085 288.462 57.6751C288.762 57.9273 289.115 58.1088 289.495 58.2063C289.874 58.3037 290.271 58.3146 290.655 58.238C291.504 58.1099 292.308 57.7735 292.995 57.259L293.103 57.1758L293.196 57.2786C293.644 57.8535 294.185 58.3497 294.796 58.7471C295.445 59.1299 296.201 59.2914 296.95 59.2072C297.629 59.157 298.291 58.9656 298.891 58.6453C299.492 58.325 300.02 57.8829 300.44 57.3471L300.641 57.0877L300.7 57.4108C300.776 57.7655 300.937 58.0962 301.17 58.3743C301.403 58.6525 301.7 58.8695 302.036 59.0065C302.352 59.1494 302.698 59.2132 303.044 59.1925C303.379 59.135 303.707 59.0431 304.023 58.9184C304.664 58.736 305.274 58.4605 305.835 58.1009C306.334 57.7783 306.686 57.2717 306.814 56.6912L306.848 56.5199L306.995 56.6178C307.79 57.1488 308.737 57.4065 309.692 57.352C310.422 57.3227 311.136 57.1304 311.782 56.7891C312.351 56.5047 312.864 56.1219 313.299 55.6584Z" fill="#455A64"/>
<path d="M306.476 79.5948C306.382 79.7585 306.257 79.9021 306.108 80.0175C305.959 80.1329 305.789 80.2178 305.607 80.2674C305.425 80.3169 305.236 80.3302 305.049 80.3063C304.862 80.2825 304.681 80.222 304.518 80.1283C304.354 80.0469 304.208 79.9336 304.088 79.7949C303.968 79.6563 303.878 79.4952 303.821 79.321C303.765 79.1469 303.743 78.9632 303.759 78.7807C303.774 78.5982 303.826 78.4207 303.911 78.2585C304.004 78.0948 304.129 77.9512 304.278 77.8357C304.427 77.7203 304.597 77.6354 304.779 77.5859C304.961 77.5363 305.151 77.5231 305.338 77.547C305.525 77.5708 305.705 77.6313 305.869 77.7249C306.033 77.8063 306.179 77.9197 306.298 78.0583C306.418 78.197 306.509 78.3581 306.565 78.5322C306.622 78.7064 306.643 78.8901 306.628 79.0726C306.612 79.255 306.561 79.4326 306.476 79.5948Z" fill="#263238"/>
<path d="M311.728 77.0886C311.478 77.1571 310.959 75.9089 309.628 75.1306C308.296 74.3523 306.936 74.4208 306.887 74.1516C306.887 74.0341 307.19 73.8383 307.797 73.7844C308.609 73.7285 309.419 73.927 310.113 74.3523C310.803 74.7618 311.345 75.3808 311.659 76.1194C311.88 76.6872 311.845 77.0592 311.728 77.0886Z" fill="#263238"/>
<path d="M291.218 81.171C291.453 81.2836 291.022 82.5661 291.507 84.0346C291.992 85.5031 293.073 86.3401 292.946 86.5555C292.892 86.6632 292.515 86.5946 292.021 86.2373C291.373 85.7408 290.893 85.0573 290.646 84.2793C290.395 83.5144 290.395 82.6897 290.646 81.9248C290.841 81.3717 291.111 81.1123 291.218 81.171Z" fill="#263238"/>
<path d="M294.317 73.2852C294.128 73.6083 293.82 73.8446 293.458 73.9434C293.097 74.0422 292.711 73.9957 292.384 73.8138C292.22 73.7325 292.074 73.6191 291.954 73.4803C291.835 73.3416 291.744 73.1803 291.688 73.006C291.632 72.8317 291.611 72.6479 291.627 72.4655C291.643 72.2831 291.696 72.1057 291.782 71.944C291.97 71.6213 292.277 71.3849 292.638 71.2853C292.998 71.1856 293.383 71.2305 293.71 71.4104C293.875 71.4918 294.022 71.6054 294.142 71.7444C294.262 71.8834 294.353 72.045 294.409 72.2197C294.466 72.3945 294.487 72.5788 294.471 72.7618C294.455 72.9448 294.403 73.1227 294.317 73.2852Z" fill="#263238"/>
<path d="M298.551 69.6139C298.301 69.6825 297.778 68.4293 296.451 67.6559C295.124 66.8825 293.759 66.9462 293.71 66.6769C293.68 66.5644 294.008 66.3686 294.62 66.3147C295.432 66.2588 296.242 66.4572 296.936 66.8825C297.626 67.2921 298.168 67.9111 298.482 68.6496C298.722 69.2125 298.668 69.5846 298.551 69.6139Z" fill="#263238"/>
<path d="M297.205 82.6444C297.244 82.5661 298.15 82.9185 299.589 83.5451C299.946 83.7164 300.308 83.8388 300.504 83.643C300.742 83.3096 300.873 82.912 300.881 82.5024C301.051 81.4941 301.232 80.4351 301.424 79.3256C302.232 74.8222 303.03 71.2048 303.211 71.2391C303.392 71.2733 302.888 74.9495 302.075 79.4528C301.87 80.5591 301.674 81.6115 301.483 82.6199C301.451 83.1563 301.231 83.6642 300.861 84.0541C300.74 84.143 300.601 84.2037 300.454 84.2316C300.306 84.2596 300.155 84.2541 300.01 84.2157C299.792 84.1534 299.584 84.0646 299.388 83.9513C297.998 83.2171 297.161 82.7227 297.205 82.6444Z" fill="#263238"/>
<path d="M302.286 64.9197C301.948 65.2134 300.7 64.2882 299.006 63.598C297.312 62.9078 295.795 62.619 295.771 62.1736C295.771 61.9631 296.182 61.7428 296.896 61.6841C297.828 61.6315 298.76 61.7925 299.62 62.1547C300.48 62.517 301.246 63.0709 301.86 63.7743C302.31 64.3274 302.442 64.7777 302.286 64.9197Z" fill="#263238"/>
<path d="M313.529 71.9978C313.104 72.1593 312.306 71.2734 311.131 70.5783C309.956 69.8832 308.835 69.5161 308.786 69.0657C308.786 68.8552 309.109 68.6399 309.711 68.6056C310.508 68.5941 311.291 68.817 311.963 69.2468C312.646 69.653 313.193 70.2527 313.534 70.9699C313.769 71.5426 313.725 71.9146 313.529 71.9978Z" fill="#263238"/>
<path d="M296.617 115.823L287.61 105.23C278.799 104.917 270.282 98.4356 268.652 87.7352L259.675 83.594L255.024 84.8129L255.225 180.265C255.225 180.265 281.071 153.656 281.071 153.201C281.071 152.745 296.617 115.823 296.617 115.823Z" fill="#172090"/>
<path d="M264.11 150.65L273.953 157.303L287.527 130.772L296.617 115.906C296.617 115.906 303.25 122.308 300.533 134.644C297.817 146.979 292.305 160 292.305 160L289.338 168.155C289.338 168.155 287.145 176.09 284.566 178.547C281.986 181.004 273.391 182.845 269.215 180.759C265.04 178.674 256.136 162.56 256.136 162.56C262.01 159.06 265.436 153.989 264.11 150.65Z" fill="#172090"/>
<path d="M291.82 127.703C291.778 127.767 291.732 127.829 291.683 127.889L291.247 128.408L289.588 130.366L283.602 137.321V137.297L278.163 148.795C276.695 151.825 275.329 154.718 274.066 157.356L274.017 157.2C275.912 158.211 277.64 159.507 279.142 161.042C280.324 162.247 281.314 163.626 282.079 165.13C282.575 166.109 282.97 167.135 283.259 168.194C283.362 168.561 283.411 168.855 283.455 169.046C283.481 169.142 283.499 169.24 283.509 169.339C283.469 169.248 283.439 169.153 283.42 169.055C283.362 168.865 283.298 168.566 283.185 168.218C282.868 167.176 282.455 166.165 281.952 165.198C281.179 163.72 280.189 162.365 279.015 161.179C277.509 159.671 275.782 158.4 273.895 157.41L273.797 157.356L273.846 157.254L277.923 148.683C279.93 144.483 281.839 140.547 283.415 137.209L289.49 130.282L291.199 128.359L291.654 127.869C291.703 127.808 291.759 127.752 291.82 127.703Z" fill="#263238"/>
<path d="M263.846 174.939C263.784 174.872 263.73 174.798 263.684 174.719C263.572 174.548 263.425 174.327 263.244 174.043C262.852 173.436 262.304 172.575 261.619 171.503C260.233 169.3 258.295 166.221 256.033 162.619L255.965 162.511L256.077 162.452C258.361 161.296 260.389 159.695 262.044 157.743C262.9 156.71 263.564 155.531 264.002 154.263C264.204 153.663 264.329 153.039 264.374 152.408C264.402 152.105 264.402 151.8 264.374 151.497C264.355 151.352 264.322 151.21 264.277 151.071C264.247 150.951 264.184 150.841 264.095 150.753L264.223 150.552L272.867 156.343L275.315 158.022L275.966 158.477C276.044 158.528 276.118 158.585 276.186 158.649C276.101 158.612 276.021 158.566 275.946 158.512L275.271 158.091L272.764 156.466L264.066 150.748L264.193 150.548C264.335 150.661 264.436 150.817 264.482 150.993C264.533 151.152 264.569 151.316 264.59 151.482C264.63 151.807 264.64 152.135 264.619 152.461C264.573 153.114 264.446 153.759 264.242 154.38C263.809 155.675 263.145 156.88 262.284 157.939C260.608 159.919 258.548 161.539 256.229 162.702L256.273 162.535L261.78 171.464L263.346 174.043L263.758 174.734C263.79 174.801 263.82 174.869 263.846 174.939Z" fill="#263238"/>
<path d="M261.809 148.521L261.29 148.805L256.136 152.936C256.136 152.936 255.128 156.363 255.157 156.583C255.186 156.803 257.521 161.61 257.521 161.61C264.599 157.445 264.374 152.045 264.374 152.045C264.374 152.045 262.073 148.883 261.809 148.521Z" fill="#AE7461"/>
<path d="M255.025 211.539C254.951 211.539 254.897 166.074 254.897 110.007C254.897 53.9402 254.951 8.46095 255.025 8.46095C255.098 8.46095 255.157 53.9206 255.157 110.012C255.157 166.104 255.093 211.539 255.025 211.539Z" fill="#263238"/>
<path d="M254.849 74.4355C254.849 74.4355 260.845 76.5158 261.443 78.1018C261.774 79.1351 261.684 80.2573 261.193 81.2248C261.193 81.2248 261.966 82.9136 261.653 84.3038C261.34 85.6939 260.845 85.7723 260.845 85.7723C261.241 86.0107 261.544 86.3763 261.705 86.8093C261.866 87.2424 261.875 87.7171 261.731 88.1561C261.558 89.0567 261.068 89.8657 260.351 90.4372C260.351 90.4372 261.046 92.4686 260.155 94.0056C259.264 95.5426 259.064 97.3783 257.375 97.5741C255.686 97.7699 247.908 95.293 247.311 93.6091C246.713 91.9253 249.244 91.0295 249.244 91.0295C249.244 91.0295 244.188 89.5903 244.286 87.8575C244.383 86.1247 246.244 85.5275 246.244 85.5275C246.244 85.5275 244.707 84.7835 245.945 83.2954C247.183 81.8073 249.567 82.6982 250.61 82.8059C250.61 82.8059 250.409 80.6227 252.592 80.7696L254.873 80.7206L254.849 74.4355Z" fill="#AE7461"/>
<path d="M260.933 81.6213C260.892 81.7801 260.831 81.933 260.752 82.0766C260.62 82.3605 260.419 82.7717 260.15 83.271C260.018 83.5157 259.866 83.7898 259.661 84.0688C259.569 84.2335 259.446 84.3783 259.298 84.4947C259.115 84.5686 258.922 84.6148 258.726 84.6318C257.912 84.7134 257.095 84.7526 256.278 84.7492C255.417 84.7492 254.599 84.7492 253.831 84.6856C253.162 84.5723 252.527 84.3133 251.971 83.9269C251.588 83.6936 251.222 83.4353 250.874 83.1535C250.629 82.9528 250.507 82.8255 250.522 82.8157C250.668 82.8864 250.806 82.9734 250.933 83.0751C251.197 83.2465 251.574 83.4961 252.059 83.7751C252.605 84.115 253.212 84.3461 253.845 84.4555C254.585 84.4947 255.402 84.4996 256.259 84.4947C257.115 84.4898 257.933 84.4702 258.662 84.3968C258.829 84.387 258.994 84.3541 259.152 84.2989C259.273 84.2035 259.374 84.0855 259.45 83.9514C259.636 83.6821 259.793 83.4227 259.94 83.1779C260.566 82.2136 260.899 81.6018 260.933 81.6213Z" fill="#6F4439"/>
<path d="M258.29 78.2487C257.659 78.6404 257.099 79.1371 256.636 79.7172C256.488 79.9198 256.36 80.1362 256.254 80.3633L256.219 80.4367H256.136C255.656 80.4335 255.18 80.5389 254.746 80.7451C254.746 80.7451 254.834 80.5983 255.069 80.4612C255.398 80.2728 255.773 80.1812 256.151 80.1969L256.033 80.2703C256.138 80.024 256.271 79.7908 256.43 79.5752C256.75 79.125 257.166 78.752 257.649 78.4836C258.021 78.2732 258.28 78.2193 258.29 78.2487Z" fill="#6F4439"/>
<path d="M256.625 76.1634C256.625 76.1977 256.439 76.3103 256.136 76.5403C255.775 76.8392 255.484 77.2135 255.284 77.6368C255.091 78.0624 254.994 78.5254 255 78.9927C255.016 79.1931 255.016 79.3944 255 79.5948C254.971 79.5948 254.858 79.3892 254.804 79.0074C254.745 78.5025 254.826 77.991 255.039 77.5296C255.253 77.0682 255.59 76.6749 256.013 76.3935C256.366 76.1879 256.625 76.1341 256.625 76.1634Z" fill="#6F4439"/>
<path d="M260.908 85.8604C260.819 86.0609 260.709 86.2512 260.58 86.4282C260.259 86.9344 259.883 87.4038 259.459 87.8282C258.823 88.487 257.965 88.8864 257.051 88.9491C256.008 88.9883 254.956 88.5967 253.859 88.2883C251.661 87.6275 249.699 86.9324 248.284 86.4184C247.579 86.1639 247.006 85.9289 246.615 85.7968C246.408 85.7271 246.208 85.6386 246.018 85.5324C246.233 85.565 246.445 85.6208 246.649 85.6989L248.343 86.252C249.772 86.7415 251.74 87.3827 253.933 88.0436C255.034 88.3568 256.077 88.7435 257.041 88.7142C257.904 88.662 258.719 88.3005 259.337 87.696C259.764 87.2909 260.152 86.8468 260.497 86.3695C260.619 86.1884 260.757 86.0181 260.908 85.8604Z" fill="#6F4439"/>
<path d="M260.61 90.5742C260.54 90.7169 260.453 90.8501 260.35 90.9707C260.092 91.3203 259.806 91.6478 259.494 91.9497C259.033 92.4038 258.487 92.763 257.888 93.007C257.141 93.2818 256.336 93.3659 255.548 93.2518C254.771 93.1426 254.011 92.9336 253.287 92.6301C252.621 92.3658 252.034 92.1015 251.539 91.891C250.56 91.4602 249.914 91.284 249.924 91.2448C250.091 91.2446 250.256 91.2727 250.413 91.3281C250.827 91.4382 251.233 91.5706 251.632 91.7245C252.646 92.0819 253.992 92.7819 255.602 92.9972C256.351 93.1104 257.115 93.0381 257.829 92.7868C258.408 92.5585 258.941 92.2268 259.401 91.8078C260.169 91.0833 260.571 90.54 260.61 90.5742Z" fill="#6F4439"/>
<path d="M241.814 136.915C241.814 136.915 240.629 135.123 242.959 134.213C245.289 133.303 249.851 131.814 251.281 131.682C252.71 131.55 260.199 133.405 260.199 133.405C260.199 133.405 262.833 134.179 262.799 136.073L262.309 137.86C262.922 138.562 263.259 139.463 263.259 140.395C263.181 141.258 262.877 142.086 262.378 142.794L262.074 148.883C262.074 148.883 261.805 153.289 260.116 155.066C258.427 156.842 255.657 156.382 255.657 156.382L255.167 156.563C255.167 156.563 251.922 154.082 252.803 150.944L249.132 148.448C249.132 148.448 241.329 147.366 240.923 145.271L241.06 144.189C241.06 144.189 238.157 143.753 238.157 141.741V140.728C237.888 140.466 237.708 140.127 237.641 139.757C237.574 139.388 237.625 139.007 237.785 138.667C238.358 137.483 238.931 137.111 240.233 137.081C240.765 137.106 241.298 137.05 241.814 136.915Z" fill="#AE7461"/>
<path d="M255.348 145.643C254.641 145.666 253.934 145.591 253.248 145.418C252.602 145.305 251.843 145.148 250.996 144.982C250.575 144.899 250.13 144.811 249.675 144.747C249.22 144.683 248.73 144.683 248.236 144.644C246.248 144.522 244.452 144.39 243.15 144.287L241.613 144.15C241.422 144.144 241.233 144.114 241.05 144.062C241.238 144.04 241.429 144.04 241.618 144.062L243.164 144.12C244.467 144.179 246.263 144.282 248.245 144.404C248.735 144.444 249.224 144.458 249.714 144.517C250.203 144.576 250.624 144.678 251.05 144.767L253.287 145.256C253.924 145.398 254.438 145.496 254.795 145.56C254.981 145.573 255.166 145.601 255.348 145.643Z" fill="#6F4439"/>
<path d="M256.352 141.394C256.114 141.435 255.872 141.443 255.632 141.418C255.172 141.418 254.506 141.36 253.674 141.291C252.842 141.223 251.873 141.134 250.791 141.027L249.088 140.855C248.505 140.802 247.888 140.797 247.262 140.777C244.751 140.743 242.475 140.777 240.825 140.777H238.867C238.628 140.783 238.389 140.772 238.152 140.743C238.387 140.694 238.627 140.671 238.867 140.674C239.327 140.674 239.993 140.625 240.825 140.601C242.475 140.552 244.741 140.498 247.272 140.532C247.903 140.532 248.515 140.557 249.117 140.616L250.821 140.802L253.694 141.125L255.652 141.325C255.886 141.335 256.12 141.358 256.352 141.394Z" fill="#6F4439"/>
<path d="M257.796 136.758C257.597 136.84 257.383 136.878 257.169 136.871C256.592 136.887 256.015 136.864 255.441 136.802C254.717 136.739 253.855 136.626 252.906 136.519C251.88 136.384 250.846 136.322 249.812 136.333C249.277 136.359 248.744 136.416 248.216 136.504C247.692 136.577 247.193 136.626 246.713 136.67C245.734 136.753 244.888 136.807 244.163 136.851C243.439 136.895 242.851 136.915 242.445 136.925C242.235 136.948 242.023 136.948 241.813 136.925C242.018 136.871 242.228 136.841 242.44 136.837L244.153 136.68L246.689 136.445C247.178 136.396 247.668 136.342 248.157 136.269C248.691 136.174 249.231 136.114 249.773 136.088C250.822 136.078 251.871 136.146 252.91 136.293L255.436 136.631C256.156 136.719 256.738 136.773 257.145 136.783C257.551 136.793 257.786 136.739 257.796 136.758Z" fill="#6F4439"/>
</svg>
