<svg width="338" height="220" viewBox="0 0 338 220" fill="none" xmlns="http://www.w3.org/2000/svg">
<path d="M100.854 58.325H34.876V13.1915H100.854V58.325ZM35.397 57.8041H100.333V13.7125H35.397V57.8041Z" fill="#EBEBEB"/>
<path d="M40.034 16.0987C40.034 16.3583 39.957 16.6122 39.8127 16.8281C39.6685 17.044 39.4634 17.2123 39.2235 17.3116C38.9836 17.411 38.7196 17.437 38.465 17.3863C38.2103 17.3357 37.9764 17.2106 37.7927 17.027C37.6091 16.8434 37.4841 16.6095 37.4334 16.3548C37.3828 16.1001 37.4088 15.8361 37.5081 15.5962C37.6075 15.3563 37.7758 15.1513 37.9917 15.007C38.2076 14.8628 38.4614 14.7858 38.7211 14.7858C39.0693 14.7858 39.4032 14.9241 39.6495 15.1703C39.8957 15.4165 40.034 15.7505 40.034 16.0987Z" fill="#A6A6A6"/>
<path d="M45.3953 16.0987C45.3953 16.3583 45.3183 16.6122 45.1741 16.8281C45.0298 17.044 44.8248 17.2123 44.5849 17.3116C44.345 17.411 44.081 17.437 43.8263 17.3863C43.5716 17.3357 43.3377 17.2106 43.1541 17.027C42.9705 16.8434 42.8454 16.6095 42.7948 16.3548C42.7441 16.1001 42.7701 15.8361 42.8695 15.5962C42.9688 15.3563 43.1371 15.1513 43.353 15.007C43.5689 14.8628 43.8228 14.7858 44.0824 14.7858C44.4306 14.7858 44.7646 14.9241 45.0108 15.1703C45.257 15.4165 45.3953 15.7505 45.3953 16.0987Z" fill="#EBEBEB"/>
<path d="M50.7612 16.0986C50.7622 16.3598 50.6857 16.6153 50.5412 16.8329C50.3968 17.0504 50.191 17.2202 49.9499 17.3206C49.7089 17.421 49.4434 17.4475 49.1872 17.3968C48.9311 17.3462 48.6957 17.2205 48.5111 17.0359C48.3264 16.8512 48.2008 16.6159 48.1501 16.3597C48.0994 16.1035 48.1259 15.8381 48.2263 15.597C48.3267 15.3559 48.4965 15.1501 48.714 15.0057C48.9316 14.8612 49.1872 14.7847 49.4483 14.7857C49.7965 14.7857 50.1305 14.924 50.3767 15.1703C50.6229 15.4165 50.7612 15.7504 50.7612 16.0986Z" fill="#172090"/>
<path d="M100.594 18.4067H35.1367V18.9277H100.594V18.4067Z" fill="#EBEBEB"/>
<path d="M316.707 163.743H316.186V98.1862L330.112 79.1804V43.6644H330.633V79.3523L316.707 98.3581V163.743Z" fill="#EBEBEB"/>
<path d="M330.373 43.9457C330.076 43.9457 329.786 43.8577 329.539 43.6928C329.292 43.5279 329.1 43.2936 328.986 43.0194C328.873 42.7452 328.843 42.4436 328.901 42.1525C328.959 41.8614 329.102 41.5941 329.312 41.3842C329.521 41.1744 329.789 41.0315 330.08 40.9736C330.371 40.9157 330.673 40.9454 330.947 41.059C331.221 41.1725 331.455 41.3649 331.62 41.6116C331.785 41.8584 331.873 42.1485 331.873 42.4452C331.873 42.8432 331.715 43.2248 331.434 43.5062C331.152 43.7876 330.77 43.9457 330.373 43.9457ZM330.373 41.471C330.179 41.471 329.989 41.5285 329.828 41.6364C329.667 41.7443 329.541 41.8975 329.467 42.0768C329.393 42.2561 329.374 42.4533 329.412 42.6434C329.451 42.8336 329.544 43.0081 329.682 43.1449C329.819 43.2816 329.994 43.3745 330.185 43.4117C330.375 43.4489 330.572 43.4288 330.751 43.3538C330.93 43.2789 331.082 43.1525 331.189 42.9908C331.296 42.829 331.353 42.6392 331.352 42.4452C331.345 42.1905 331.239 41.9485 331.056 41.7713C330.873 41.594 330.627 41.4956 330.373 41.497V41.471Z" fill="#EBEBEB"/>
<path d="M320.296 163.743H319.775V100.484L333.701 81.4779V56.6839H334.222V81.6446L320.296 100.656V163.743Z" fill="#EBEBEB"/>
<path d="M333.962 56.9704C333.665 56.9715 333.374 56.8844 333.127 56.7201C332.879 56.5559 332.686 56.3219 332.572 56.0478C332.457 55.7737 332.427 55.4719 332.484 55.1805C332.542 54.8891 332.684 54.6212 332.894 54.4109C333.103 54.2005 333.371 54.0571 333.662 53.9988C333.953 53.9404 334.255 53.9698 334.529 54.0833C334.804 54.1967 335.039 54.389 335.204 54.6358C335.369 54.8827 335.457 55.173 335.457 55.47C335.457 55.867 335.3 56.2479 335.019 56.5291C334.739 56.8104 334.359 56.9691 333.962 56.9704ZM333.962 54.4905C333.768 54.4895 333.578 54.5461 333.416 54.6531C333.254 54.7601 333.128 54.9127 333.053 55.0915C332.978 55.2704 332.958 55.4675 332.995 55.6579C333.032 55.8482 333.125 56.0232 333.262 56.1607C333.399 56.2982 333.573 56.392 333.763 56.4302C333.954 56.4685 334.151 56.4494 334.33 56.3754C334.509 56.3014 334.663 56.1759 334.771 56.0147C334.878 55.8535 334.936 55.6639 334.936 55.47C334.936 55.2111 334.833 54.9628 334.651 54.7792C334.468 54.5957 334.221 54.4919 333.962 54.4905Z" fill="#EBEBEB"/>
<path d="M313.252 77.0443H312.731V163.743H313.252V77.0443Z" fill="#EBEBEB"/>
<path d="M312.992 77.3047C312.695 77.3058 312.404 77.2186 312.157 77.0544C311.91 76.8902 311.716 76.6562 311.602 76.3821C311.488 76.108 311.457 75.8062 311.515 75.5148C311.572 75.2234 311.714 74.9555 311.924 74.7452C312.134 74.5348 312.401 74.3914 312.692 74.333C312.983 74.2747 313.285 74.3041 313.56 74.4175C313.834 74.531 314.069 74.7233 314.234 74.9701C314.399 75.217 314.487 75.5073 314.487 75.8043C314.487 76.2013 314.33 76.5822 314.05 76.8634C313.769 77.1447 313.389 77.3034 312.992 77.3047ZM312.992 74.83C312.798 74.829 312.608 74.8857 312.446 74.9929C312.284 75.1001 312.158 75.2531 312.083 75.4323C312.008 75.6114 311.988 75.8088 312.026 75.9993C312.064 76.1898 312.157 76.3648 312.294 76.5021C312.431 76.6394 312.606 76.7327 312.797 76.7704C312.987 76.808 313.185 76.7882 313.364 76.7134C313.543 76.6386 313.696 76.5123 313.803 76.3504C313.911 76.1885 313.967 75.9984 313.966 75.8043C313.962 75.5481 313.858 75.3038 313.676 75.1236C313.494 74.9434 313.248 74.8418 312.992 74.8404V74.83Z" fill="#EBEBEB"/>
<path d="M309.923 163.743H309.402V119.745L299.951 101.911V69.8754H300.472V101.781L309.923 119.615V163.743Z" fill="#EBEBEB"/>
<path d="M300.208 70.1515C299.911 70.1515 299.621 70.0635 299.374 69.8987C299.127 69.7338 298.935 69.4995 298.821 69.2253C298.708 68.9511 298.678 68.6494 298.736 68.3584C298.794 68.0673 298.937 67.8 299.147 67.5901C299.356 67.3803 299.624 67.2374 299.915 67.1795C300.206 67.1216 300.508 67.1513 300.782 67.2649C301.056 67.3784 301.29 67.5707 301.455 67.8175C301.62 68.0642 301.708 68.3543 301.708 68.6511C301.708 69.049 301.55 69.4307 301.268 69.7121C300.987 69.9935 300.605 70.1515 300.208 70.1515ZM300.208 67.6768C300.014 67.6768 299.824 67.7344 299.663 67.8423C299.502 67.9501 299.376 68.1034 299.302 68.2827C299.228 68.462 299.209 68.6592 299.247 68.8493C299.285 69.0394 299.379 69.214 299.517 69.3507C299.654 69.4875 299.829 69.5804 300.02 69.6176C300.21 69.6548 300.407 69.6346 300.586 69.5597C300.765 69.4848 300.917 69.3584 301.024 69.1967C301.131 69.0349 301.188 68.845 301.187 68.6511C301.189 68.5214 301.165 68.3926 301.117 68.2722C301.069 68.1519 300.997 68.0424 300.905 67.9502C300.814 67.858 300.705 67.7849 300.586 67.7353C300.466 67.6857 300.337 67.6605 300.208 67.6612V67.6768Z" fill="#EBEBEB"/>
<path d="M306.615 163.743H306.094V121.652L294.95 101.937V80.8111H295.471V101.802L306.615 121.516V163.743Z" fill="#EBEBEB"/>
<path d="M295.211 81.0924C294.914 81.0934 294.623 81.0062 294.375 80.8417C294.128 80.6772 293.935 80.4429 293.82 80.1686C293.706 79.8942 293.676 79.592 293.734 79.3005C293.791 79.009 293.934 78.7411 294.145 78.531C294.355 78.3208 294.623 78.1778 294.914 78.1201C295.206 78.0623 295.508 78.0925 295.782 78.2067C296.057 78.3209 296.291 78.514 296.455 78.7616C296.62 79.0091 296.707 79.2999 296.706 79.5972C296.705 79.9933 296.547 80.3728 296.267 80.6529C295.986 80.933 295.607 81.091 295.211 81.0924ZM295.211 78.6177C295.017 78.6167 294.827 78.6732 294.665 78.7802C294.503 78.8872 294.377 79.0398 294.302 79.2187C294.227 79.3976 294.207 79.5947 294.244 79.785C294.281 79.9754 294.374 80.1504 294.511 80.2879C294.648 80.4254 294.822 80.5192 295.013 80.5574C295.203 80.5956 295.4 80.5765 295.579 80.5025C295.758 80.4286 295.912 80.303 296.02 80.1418C296.127 79.9807 296.185 79.7911 296.185 79.5972C296.188 79.4672 296.165 79.338 296.117 79.2171C296.069 79.0962 295.998 78.986 295.907 78.8929C295.817 78.7998 295.708 78.7257 295.589 78.6748C295.469 78.624 295.341 78.5975 295.211 78.5968V78.6177Z" fill="#EBEBEB"/>
<path d="M23.6951 163.743H23.1742V129.618L9.24805 110.612V90.5536H9.76904V110.44L23.6951 129.446V163.743Z" fill="#EBEBEB"/>
<path d="M9.5086 90.8349C9.21161 90.836 8.92101 90.7489 8.67357 90.5846C8.42614 90.4204 8.23301 90.1864 8.11865 89.9123C8.00428 89.6382 7.97382 89.3364 8.03113 89.045C8.08843 88.7536 8.23092 88.4857 8.44056 88.2754C8.65019 88.065 8.91754 87.9216 9.20874 87.8633C9.49994 87.8049 9.8019 87.8343 10.0764 87.9478C10.3509 88.0612 10.5855 88.2535 10.7506 88.5003C10.9157 88.7472 11.0038 89.0375 11.0038 89.3345C11.0038 89.7315 10.8465 90.1124 10.5662 90.3936C10.2859 90.6749 9.90564 90.8336 9.5086 90.8349ZM9.5086 88.3602C9.31444 88.3592 9.12435 88.4159 8.96248 88.5231C8.80062 88.6304 8.67427 88.7833 8.59949 88.9625C8.52471 89.1417 8.50487 89.339 8.5425 89.5295C8.58013 89.72 8.67352 89.895 8.81081 90.0323C8.94811 90.1696 9.12311 90.263 9.31359 90.3006C9.50407 90.3382 9.70144 90.3184 9.88062 90.2436C10.0598 90.1688 10.2127 90.0425 10.32 89.8806C10.4272 89.7187 10.4839 89.5287 10.4828 89.3345C10.4748 89.0811 10.3687 88.8407 10.187 88.6638C10.0053 88.487 9.76214 88.3875 9.5086 88.3863V88.3602Z" fill="#EBEBEB"/>
<path d="M20.1053 163.743H19.5843V131.915L5.6582 112.904V103.573H6.17919V112.737L20.1053 131.743V163.743Z" fill="#EBEBEB"/>
<path d="M5.92917 103.86C5.63241 103.86 5.34231 103.772 5.09556 103.607C4.84881 103.442 4.65649 103.208 4.54293 102.933C4.42936 102.659 4.39965 102.358 4.45754 102.066C4.51544 101.775 4.65834 101.508 4.86818 101.298C5.07803 101.088 5.34538 100.945 5.63644 100.888C5.9275 100.83 6.22919 100.859 6.50337 100.973C6.77754 101.087 7.01188 101.279 7.17675 101.526C7.34162 101.772 7.42962 102.062 7.42962 102.359C7.42962 102.757 7.27154 103.139 6.99015 103.42C6.70876 103.702 6.32711 103.86 5.92917 103.86ZM5.92917 101.38C5.73545 101.38 5.54608 101.437 5.38501 101.545C5.22393 101.652 5.09839 101.805 5.02426 101.984C4.95013 102.163 4.93073 102.36 4.96852 102.55C5.00632 102.74 5.0996 102.915 5.23658 103.052C5.37356 103.189 5.54809 103.282 5.73808 103.32C5.92808 103.358 6.12502 103.338 6.30399 103.264C6.48297 103.19 6.63594 103.064 6.74356 102.903C6.85119 102.742 6.90863 102.553 6.90863 102.359C6.90863 102.099 6.80544 101.85 6.62175 101.667C6.43807 101.483 6.18894 101.38 5.92917 101.38Z" fill="#EBEBEB"/>
<path d="M27.1499 108.304H26.6289V163.743H27.1499V108.304Z" fill="#EBEBEB"/>
<path d="M26.8891 108.564C26.5924 108.564 26.3023 108.476 26.0555 108.311C25.8088 108.147 25.6165 107.912 25.5029 107.638C25.3893 107.364 25.3596 107.062 25.4175 106.771C25.4754 106.48 25.6183 106.213 25.8281 106.003C26.038 105.793 26.3053 105.65 26.5964 105.592C26.8875 105.534 27.1892 105.564 27.4633 105.678C27.7375 105.791 27.9718 105.983 28.1367 106.23C28.3016 106.477 28.3896 106.767 28.3896 107.064C28.3896 107.462 28.2315 107.843 27.9501 108.125C27.6687 108.406 27.2871 108.564 26.8891 108.564ZM26.8891 106.09C26.6952 106.09 26.5056 106.147 26.3444 106.255C26.1832 106.363 26.0577 106.516 25.9837 106.695C25.9098 106.875 25.8907 107.072 25.9289 107.262C25.9671 107.452 26.0609 107.627 26.1984 107.763C26.3359 107.9 26.5109 107.993 26.7013 108.03C26.8916 108.068 27.0887 108.047 27.2676 107.972C27.4465 107.897 27.5991 107.771 27.7061 107.609C27.8131 107.448 27.8696 107.258 27.8686 107.064C27.8658 106.806 27.7613 106.56 27.5777 106.38C27.3942 106.199 27.1466 106.099 26.8891 106.1V106.09Z" fill="#EBEBEB"/>
<path d="M30.479 163.743H29.958V135.244L29.9841 135.187L39.4088 117.411V85.5052H39.9298V117.541L39.9037 117.598L30.479 135.375V163.743Z" fill="#EBEBEB"/>
<path d="M39.6694 85.7813C39.3726 85.7813 39.0825 85.6933 38.8358 85.5284C38.589 85.3636 38.3967 85.1292 38.2832 84.8551C38.1696 84.5809 38.1399 84.2792 38.1978 83.9881C38.2557 83.6971 38.3986 83.4297 38.6084 83.2199C38.8183 83.01 39.0856 82.8671 39.3767 82.8092C39.6677 82.7513 39.9694 82.781 40.2436 82.8946C40.5178 83.0082 40.7521 83.2005 40.917 83.4472C41.0819 83.694 41.1699 83.9841 41.1699 84.2809C41.1699 84.6788 41.0118 85.0604 40.7304 85.3418C40.449 85.6232 40.0673 85.7813 39.6694 85.7813ZM39.6694 83.3066C39.4755 83.3066 39.2859 83.3642 39.1247 83.472C38.9635 83.5799 38.838 83.7332 38.764 83.9125C38.69 84.0917 38.6709 84.2889 38.7092 84.4791C38.7474 84.6692 38.8412 84.8437 38.9787 84.9805C39.1162 85.1173 39.2912 85.2101 39.4815 85.2473C39.6719 85.2845 39.869 85.2644 40.0479 85.1895C40.2267 85.1145 40.3793 84.9882 40.4863 84.8264C40.5933 84.6647 40.6499 84.4748 40.6489 84.2809C40.6509 84.1512 40.6271 84.0224 40.5788 83.902C40.5304 83.7817 40.4585 83.6722 40.3673 83.58C40.276 83.4878 40.1673 83.4147 40.0475 83.3651C39.9276 83.3155 39.7991 83.2903 39.6694 83.291V83.3066Z" fill="#EBEBEB"/>
<path d="M33.7876 163.743H33.2666V137.146L33.2979 137.083L44.4106 117.432V96.4408H44.9316V117.567L44.8951 117.624L33.7876 137.281V163.743Z" fill="#EBEBEB"/>
<path d="M44.6707 96.7222C44.3735 96.7232 44.0827 96.6359 43.8351 96.4715C43.5876 96.307 43.3945 96.0727 43.2803 95.7983C43.166 95.5239 43.1359 95.2218 43.1936 94.9303C43.2513 94.6387 43.3944 94.3709 43.6045 94.1607C43.8147 93.9506 44.0825 93.8076 44.374 93.7498C44.6656 93.6921 44.9677 93.7222 45.2421 93.8365C45.5165 93.9507 45.7508 94.1438 45.9152 94.3913C46.0797 94.6389 46.167 94.9297 46.1659 95.2269C46.1646 95.6231 46.0066 96.0026 45.7265 96.2827C45.4464 96.5628 45.0668 96.7208 44.6707 96.7222ZM44.6707 94.2474C44.4768 94.2464 44.2869 94.303 44.1251 94.41C43.9634 94.517 43.837 94.6696 43.7621 94.8485C43.6872 95.0273 43.667 95.2244 43.7042 95.4148C43.7414 95.6051 43.8343 95.7801 43.9711 95.9176C44.1078 96.0551 44.2823 96.1489 44.4725 96.1872C44.6626 96.2254 44.8598 96.2063 45.0391 96.1323C45.2184 96.0583 45.3717 95.9328 45.4795 95.7716C45.5874 95.6104 45.6449 95.4209 45.6449 95.2269C45.6477 95.097 45.6246 94.9678 45.5769 94.8469C45.5293 94.726 45.458 94.6158 45.3674 94.5227C45.2767 94.4296 45.1684 94.3554 45.0488 94.3046C44.9292 94.2538 44.8007 94.2273 44.6707 94.2266V94.2474Z" fill="#EBEBEB"/>
<path d="M331.029 47.6187L334.676 41.7575L332.884 40.6478C332.623 40.4855 332.413 40.2527 332.278 39.9761C332.143 39.6996 332.09 39.3906 332.123 39.0848C332.151 38.7375 332.161 38.3902 332.154 38.0429C332.145 37.7405 332.22 37.4414 332.371 37.1792C332.522 36.917 332.743 36.7019 333.009 36.558L334.869 35.5577L331.55 29.5142L329.69 30.5145C329.422 30.6556 329.12 30.7196 328.817 30.6994C328.514 30.6792 328.223 30.5755 327.976 30.3999C327.695 30.2071 327.403 30.0248 327.101 29.8789C326.833 29.7364 326.61 29.522 326.457 29.2596C326.304 28.9973 326.228 28.6975 326.236 28.3941L326.304 26.2789L319.411 26.0652L319.343 28.1857C319.332 28.4892 319.236 28.7834 319.067 29.0356C318.897 29.2877 318.661 29.4877 318.385 29.6132C318.228 29.6861 318.077 29.7591 317.931 29.8424C317.786 29.9258 317.634 30.0039 317.489 30.0925C317.231 30.251 316.934 30.335 316.632 30.335C316.329 30.335 316.032 30.251 315.774 30.0925L313.967 28.9724L310.32 34.8335L312.117 35.9537C312.379 36.1155 312.589 36.3483 312.724 36.6249C312.859 36.9016 312.912 37.2108 312.878 37.5166C312.849 37.8632 312.838 38.211 312.847 38.5586C312.855 38.8621 312.778 39.1619 312.627 39.4249C312.475 39.6878 312.254 39.9037 311.987 40.0487L310.158 40.976L313.42 47.056L315.28 46.0609C315.547 45.919 315.849 45.8542 316.152 45.8735C316.455 45.8928 316.746 45.9955 316.994 46.1703C317.276 46.3597 317.568 46.5336 317.869 46.6913C318.137 46.8338 318.36 47.0482 318.513 47.3106C318.666 47.5729 318.742 47.8727 318.734 48.1761L318.671 50.2914L325.564 50.505L325.632 48.3897C325.643 48.0869 325.739 47.7932 325.908 47.5419C326.077 47.2905 326.314 47.0916 326.59 46.9674L327.044 46.7382L327.486 46.4829C327.745 46.3245 328.043 46.2407 328.346 46.2407C328.649 46.2407 328.947 46.3245 329.206 46.4829L331.029 47.6187ZM325.194 43.2684C324.209 43.7963 323.089 44.02 321.976 43.9115C320.863 43.8029 319.808 43.3668 318.943 42.6584C318.078 41.95 317.443 41.0011 317.117 39.9316C316.792 38.8621 316.791 37.7201 317.114 36.65C317.437 35.5798 318.071 34.6296 318.934 33.9195C319.798 33.2094 320.852 32.7713 321.965 32.6605C323.077 32.5497 324.198 32.7713 325.184 33.2972C326.171 33.8231 326.979 34.6297 327.507 35.615C327.857 36.271 328.074 36.9895 328.146 37.7294C328.217 38.4693 328.142 39.216 327.925 39.9269C327.708 40.6378 327.352 41.2989 326.879 41.8723C326.406 42.4456 325.825 42.9201 325.168 43.2684H325.194Z" fill="#EBEBEB"/>
<path d="M13.8379 99.723L18.0058 97.3056L17.266 96.024C17.16 95.8395 17.1078 95.629 17.1151 95.4163C17.1225 95.2037 17.1892 94.9973 17.3077 94.8205C17.4397 94.6191 17.5595 94.4107 17.6672 94.1953C17.7638 94.0024 17.9128 93.8405 18.097 93.7281C18.2812 93.6157 18.4934 93.5574 18.7092 93.5597H20.1888V88.7249H18.7092C18.4934 88.7273 18.2812 88.6689 18.097 88.5565C17.9128 88.4442 17.7638 88.2822 17.6672 88.0893C17.5595 87.874 17.4397 87.6656 17.3077 87.4641C17.1892 87.2874 17.1225 87.081 17.1151 86.8683C17.1078 86.6556 17.16 86.4452 17.266 86.2606L18.0058 84.979L13.8379 82.5616L13.0981 83.8484C12.9934 84.0294 12.8406 84.1778 12.6566 84.2771C12.4727 84.3764 12.2648 84.4228 12.0561 84.4111H11.3215C11.1135 84.4222 10.9064 84.3761 10.7227 84.2778C10.539 84.1795 10.3857 84.0328 10.2795 83.8536L9.53449 82.5616L5.36655 84.979L6.10636 86.2658C6.21233 86.4504 6.26459 86.6609 6.25722 86.8735C6.24986 87.0862 6.18317 87.2926 6.06468 87.4693C5.93375 87.6693 5.81375 87.8763 5.7052 88.0893C5.60854 88.2822 5.45959 88.4442 5.27536 88.5565C5.09112 88.6689 4.87901 88.7273 4.66321 88.7249H3.16797V93.5597H4.64759C4.86338 93.5574 5.07549 93.6157 5.25973 93.7281C5.44396 93.8405 5.59291 94.0024 5.68957 94.1953C5.79812 94.4083 5.91812 94.6153 6.04905 94.8153C6.16742 94.9931 6.23401 95.2003 6.24137 95.4137C6.24873 95.6272 6.19658 95.8385 6.09073 96.024L5.35092 97.3056L9.51886 99.723L10.2639 98.4362C10.3699 98.2564 10.5229 98.109 10.7066 98.0099C10.8902 97.9107 11.0974 97.8636 11.3059 97.8735C11.4205 97.8735 11.5403 97.8735 11.6601 97.8735C11.78 97.8735 11.8998 97.8735 12.0196 97.8735C12.228 97.8642 12.435 97.9115 12.6185 98.0106C12.802 98.1097 12.9552 98.2568 13.0616 98.4362L13.8379 99.723ZM11.6601 95.1019C10.8772 95.1008 10.1122 94.8677 9.46175 94.432C8.8113 93.9963 8.3046 93.3776 8.00571 92.654C7.70683 91.9304 7.62916 91.1344 7.78252 90.3667C7.93589 89.5989 8.31341 88.8939 8.86737 88.3407C9.42133 87.7874 10.1269 87.4108 10.8948 87.2585C11.6627 87.1061 12.4586 87.1848 13.1818 87.4847C13.905 87.7845 14.5231 88.292 14.9579 88.9431C15.3928 89.5941 15.6249 90.3594 15.6249 91.1423C15.6256 91.6629 15.5234 92.1785 15.3244 92.6596C15.1253 93.1406 14.8332 93.5776 14.4648 93.9455C14.0965 94.3134 13.6591 94.6049 13.1778 94.8033C12.6965 95.0018 12.1807 95.1032 11.6601 95.1019Z" fill="#EBEBEB"/>
<path d="M309.71 51.8596L307.298 47.6916L306.022 48.4158C305.836 48.5216 305.625 48.5738 305.411 48.5664C305.198 48.5591 304.991 48.4925 304.813 48.3741C304.612 48.2421 304.403 48.122 304.188 48.0146C303.995 47.918 303.833 47.769 303.721 47.5848C303.608 47.4006 303.55 47.1885 303.552 46.9727V45.493H298.728V46.9727C298.73 47.1885 298.672 47.4006 298.559 47.5848C298.447 47.769 298.285 47.918 298.092 48.0146C297.876 48.1231 297.665 48.2431 297.462 48.3741C297.285 48.4926 297.079 48.5593 296.866 48.5667C296.653 48.574 296.443 48.5218 296.258 48.4158L294.977 47.676L292.564 51.8439L293.851 52.5837C294.034 52.6931 294.183 52.8506 294.282 53.0389C294.381 53.2273 294.427 53.4393 294.414 53.6518C294.414 53.7716 294.414 53.8914 294.414 54.006C294.414 54.1207 294.414 54.2457 294.414 54.3655C294.425 54.5741 294.378 54.7815 294.278 54.9652C294.179 55.149 294.031 55.3019 293.851 55.4075L292.564 56.1525L294.977 60.3205L296.264 59.5807C296.448 59.4747 296.659 59.4224 296.871 59.4298C297.084 59.4372 297.29 59.5039 297.467 59.6223C297.672 59.7543 297.88 59.8741 298.092 59.9818C298.285 60.0785 298.447 60.2274 298.559 60.4117C298.672 60.5959 298.73 60.808 298.728 61.0238V62.5034H303.557V61.0238C303.555 60.808 303.613 60.5959 303.726 60.4117C303.838 60.2274 304 60.0785 304.193 59.9818C304.408 59.8707 304.617 59.7508 304.818 59.6223C304.995 59.5039 305.201 59.4372 305.414 59.4298C305.627 59.4224 305.837 59.4747 306.022 59.5807L307.309 60.3205L309.721 56.1525L308.434 55.4127C308.255 55.3061 308.109 55.1527 308.011 54.9691C307.912 54.7855 307.866 54.5787 307.876 54.3707C307.876 54.2509 307.876 54.1311 307.876 54.0113C307.876 53.8914 307.876 53.7768 307.876 53.657C307.863 53.4444 307.908 53.2322 308.007 53.0437C308.107 52.8553 308.256 52.6979 308.439 52.5889L309.71 51.8596ZM305.089 54.0008C305.089 54.7842 304.857 55.5499 304.421 56.2012C303.986 56.8524 303.367 57.3599 302.644 57.6595C301.92 57.959 301.123 58.0371 300.355 57.8839C299.587 57.7307 298.881 57.3531 298.328 56.7988C297.774 56.2445 297.398 55.5385 297.245 54.7701C297.093 54.0017 297.172 53.2054 297.473 52.482C297.773 51.7586 298.282 51.1405 298.934 50.7061C299.585 50.2716 300.351 50.0403 301.135 50.0413C301.655 50.0413 302.169 50.1438 302.649 50.3428C303.129 50.5419 303.565 50.8336 303.933 51.2013C304.3 51.5691 304.591 52.0056 304.79 52.486C304.988 52.9663 305.09 53.4811 305.089 54.0008Z" fill="#EBEBEB"/>
<path d="M323.927 146.414L317.092 146.56L313.622 146.617C312.46 146.644 311.293 146.617 310.132 146.649H309.902V146.414L309.871 140.584V140.324H310.132L317.03 140.36C319.332 140.36 321.63 140.418 323.927 140.444H324.073V140.584C324.073 141.574 324.032 142.559 324.006 143.533L323.927 146.414ZM323.927 146.414L323.854 143.471C323.828 142.502 323.797 141.538 323.787 140.584L323.927 140.725C321.63 140.756 319.332 140.808 317.03 140.814L310.132 140.845L310.392 140.584V146.414L310.158 146.185C311.293 146.185 312.429 146.185 313.57 146.211L316.998 146.268L323.927 146.414Z" fill="#EBEBEB"/>
<path d="M316.232 153.766L309.397 153.911L305.922 153.969C304.765 153.995 303.598 153.969 302.436 154H302.207V153.766V147.936V147.675H302.468L309.365 147.712C311.663 147.712 313.966 147.769 316.263 147.795H316.409V147.936C316.409 148.926 316.368 149.91 316.342 150.884L316.232 153.766ZM316.232 153.766L316.159 150.822C316.133 149.848 316.102 148.889 316.091 147.936L316.232 148.076C313.935 148.108 311.632 148.16 309.334 148.165L302.436 148.196L302.697 147.936V153.766L302.462 153.536C303.598 153.536 304.734 153.536 305.875 153.562L309.298 153.62L316.232 153.766Z" fill="#EBEBEB"/>
<path d="M331.623 153.766L324.787 153.911L321.318 153.969C320.156 153.995 318.989 153.969 317.827 154H317.598V153.766L317.566 147.936V147.675H317.827L324.725 147.712C327.028 147.712 329.325 147.769 331.623 147.795H331.769V147.936C331.769 148.926 331.722 149.91 331.701 150.884L331.623 153.766ZM331.623 153.766L331.55 150.822C331.55 149.848 331.493 148.889 331.482 147.936L331.623 148.076C329.325 148.108 327.028 148.16 324.725 148.165L317.827 148.196L318.087 147.936V153.766L317.853 153.536C318.989 153.536 320.124 153.536 321.265 153.562L324.694 153.62L331.623 153.766Z" fill="#EBEBEB"/>
<path d="M127.212 82.249L120.376 82.3948L116.906 82.4574C115.745 82.4574 114.578 82.4574 113.416 82.4574H113.187V82.2229L113.155 76.4034V76.1429H113.416L120.314 76.1742C122.616 76.1742 124.914 76.2315 127.212 76.2576H127.358V76.4034C127.358 77.3933 127.311 78.378 127.285 79.3523L127.212 82.249ZM127.212 82.249L127.139 79.3054C127.139 78.3363 127.081 77.3777 127.071 76.4191L127.212 76.5649C124.914 76.591 122.616 76.6483 120.314 76.6483L113.416 76.6796L113.676 76.4191L113.65 82.249L113.416 82.0197C114.552 82.0197 115.687 82.0197 116.828 82.0458L120.256 82.1083L127.212 82.249Z" fill="#EBEBEB"/>
<path d="M119.505 89.6002L112.67 89.746L109.195 89.8033C108.038 89.8294 106.871 89.8033 105.709 89.8346H105.48V89.6002L105.438 83.7703V83.5098H105.699L112.597 83.5462C114.894 83.5462 117.197 83.6035 119.495 83.6296H119.641V83.7703C119.641 84.7601 119.599 85.7448 119.573 86.7191L119.505 89.6002ZM119.505 89.6002L119.432 86.6566C119.406 85.6875 119.375 84.7289 119.365 83.7703L119.505 83.9161C117.208 83.9422 114.905 83.9995 112.607 83.9995L105.709 84.0308L105.97 83.7703V89.6002L105.735 89.3709C106.871 89.3709 108.007 89.3709 109.148 89.397L112.576 89.4595L119.505 89.6002Z" fill="#EBEBEB"/>
<path d="M27.8682 146.169L21.038 146.315L17.5682 146.378C16.4116 146.378 15.2446 146.378 14.0828 146.404H13.8483V146.169L13.8223 140.34V140.079H14.0828L20.9807 140.11C23.2783 140.11 25.581 140.168 27.8786 140.194H28.0193V140.334C28.0193 141.324 27.9776 142.309 27.9516 143.283L27.8682 146.169ZM27.8682 146.169L27.7953 143.226C27.7953 142.257 27.7327 141.298 27.7275 140.34L27.8682 140.485C25.5706 140.512 23.2678 140.569 20.9703 140.569L14.0723 140.6L14.3328 140.34L14.3016 146.169L14.0723 145.94C15.2081 145.94 16.3439 145.94 17.4796 145.94L20.9078 146.003L27.8682 146.169Z" fill="#EBEBEB"/>
<path d="M20.1739 153.51L13.3332 153.656L9.86344 153.713C8.70684 153.713 7.53981 153.713 6.378 153.745H6.14355V153.51V147.68V147.42H6.40926L13.3072 147.451C15.6048 147.451 17.9023 147.508 20.2051 147.534H20.3458V147.675C20.3458 148.665 20.2989 149.65 20.2781 150.624L20.1739 153.51ZM20.1739 153.51L20.1009 150.567C20.1009 149.598 20.0384 148.639 20.028 147.68L20.1739 147.826C17.8711 147.852 15.5735 147.91 13.2759 147.91L6.378 147.941L6.6385 147.68L6.60724 153.51L6.378 153.281C7.51376 153.281 8.64432 153.281 9.78529 153.307L13.2134 153.37L20.1739 153.51Z" fill="#EBEBEB"/>
<path d="M134.907 89.6002L128.072 89.746L124.602 89.8033C123.44 89.8294 122.278 89.8033 121.111 89.8346H120.882V89.6002L120.851 83.7703V83.5098H121.111L128.009 83.5462C130.312 83.5462 132.609 83.6035 134.907 83.6296H135.053V83.7703C135.053 84.7601 135.006 85.7448 134.985 86.7191L134.907 89.6002ZM134.907 89.6002L134.834 86.6566C134.834 85.6875 134.777 84.7289 134.766 83.7703L134.907 83.9161C132.609 83.9422 130.312 83.9995 128.009 83.9995L121.111 84.0308L121.372 83.7703L121.346 89.6002L121.111 89.3709C122.252 89.3709 123.383 89.3709 124.524 89.397L127.952 89.4595L134.907 89.6002Z" fill="#EBEBEB"/>
<path d="M293.1 73.0066L286.265 73.1525L282.795 73.2098C281.633 73.2098 280.466 73.2098 279.304 73.241H279.075V73.0066L279.044 67.1767V66.9162H279.304L286.202 66.9527C288.5 66.9527 290.803 67.01 293.1 67.036H293.246V67.1767C293.246 68.1666 293.205 69.1513 293.178 70.1255L293.1 73.0066ZM293.1 73.0066L293.027 70.063C293.027 69.0939 292.97 68.1301 292.96 67.1767L293.1 67.3174C290.803 67.3486 288.5 67.4007 286.202 67.4059L279.304 67.4372L279.565 67.1767L279.539 73.0066L279.304 72.7774C280.44 72.7774 281.576 72.7774 282.717 72.8034L286.145 72.8607L293.1 73.0066Z" fill="#EBEBEB"/>
<path d="M323.131 20.4177L316.295 20.5636L312.82 20.6209C311.664 20.6209 310.497 20.6209 309.335 20.6209H309.105V20.3864V14.5565V14.296H309.366L316.264 14.3273C318.561 14.3273 320.864 14.3846 323.162 14.4106H323.308V14.5513C323.308 15.5412 323.266 16.5207 323.24 17.4949L323.131 20.4177ZM323.131 20.4177L323.058 17.4689C323.032 16.4998 323 15.5412 322.99 14.5878L323.131 14.7284C320.833 14.7284 318.53 14.8118 316.233 14.8118L309.335 14.8483L309.595 14.5878L309.569 20.4177L309.335 20.1832C310.47 20.1832 311.606 20.1832 312.747 20.2145L316.17 20.2718L323.131 20.4177Z" fill="#EBEBEB"/>
<path d="M330.826 27.7689L323.99 27.9148L320.521 27.9721C319.359 27.9721 318.192 27.9721 317.03 27.9721H316.801V27.7376L316.77 21.9077V21.6993H317.03L323.928 21.7306C326.231 21.7306 328.528 21.7879 330.826 21.814H330.972V21.9546C330.972 22.9445 330.925 23.924 330.899 24.8982L330.826 27.7689ZM330.826 27.7689L330.753 24.8253C330.753 23.8562 330.696 22.8976 330.685 21.9442L330.826 22.0849C328.528 22.0849 326.231 22.1682 323.928 22.1682L317.03 22.2203L317.291 21.9598V27.7897L317.056 27.5553C318.192 27.5553 319.328 27.5553 320.469 27.5865L323.897 27.6439L330.826 27.7689Z" fill="#EBEBEB"/>
<path d="M20.1739 20.4229L13.3332 20.5687L9.86344 20.626C8.70684 20.626 7.53981 20.626 6.378 20.626H6.14355V20.3916V14.5617V14.3012H6.40926L13.3072 14.3325C15.6048 14.3325 17.9023 14.3898 20.2051 14.421H20.3458V14.5617C20.3458 15.5516 20.2989 16.5363 20.2781 17.5053L20.1739 20.4229ZM20.1739 20.4229L20.1009 17.4793C20.1009 16.505 20.0384 15.5464 20.028 14.593L20.1739 14.7336C17.8711 14.7597 15.5735 14.817 13.2759 14.8222L6.378 14.8535L6.6385 14.593L6.60724 20.4229L6.378 20.1884C7.51376 20.1884 8.64432 20.1884 9.78529 20.2197L13.2134 20.277L20.1739 20.4229Z" fill="#EBEBEB"/>
<path d="M328.642 111.513C321.504 121.183 314.054 132.4 312.246 144.523C312.238 144.565 312.247 144.609 312.271 144.645C312.295 144.68 312.332 144.705 312.374 144.713C312.416 144.722 312.46 144.713 312.495 144.689C312.531 144.665 312.556 144.628 312.564 144.586C313.385 141.28 314.439 138.037 315.716 134.88C320.405 133.588 325.016 132.525 327.48 127.867C329.996 123.079 329.679 116.838 329.199 111.622C329.163 111.341 328.788 111.31 328.642 111.513Z" fill="#172090"/>
<path d="M315.789 134.786C318.999 127.591 323.114 120.365 328.345 114.467C328.382 114.431 328.434 114.467 328.402 114.524C324.98 118.739 322.375 123.329 319.832 128.003C322.197 125.601 324.787 123.454 327.022 120.907C327.069 120.86 327.136 120.907 327.095 120.98C324.875 123.647 322.442 126.544 319.551 128.518C318.769 129.953 317.984 131.389 317.196 132.827C317.389 132.717 317.592 132.624 317.79 132.525C317.793 132.521 317.797 132.519 317.802 132.517C317.806 132.516 317.811 132.515 317.816 132.516C317.82 132.517 317.825 132.518 317.829 132.521C317.833 132.523 317.836 132.527 317.839 132.531C317.841 132.535 317.842 132.54 317.843 132.544C317.843 132.549 317.843 132.554 317.841 132.558C317.839 132.563 317.837 132.566 317.833 132.57C317.83 132.573 317.826 132.575 317.821 132.577C317.597 132.686 317.383 132.806 317.154 132.9C316.779 133.582 316.404 134.265 316.018 134.942C315.919 135.072 315.721 134.937 315.789 134.786Z" fill="#263238"/>
<path d="M318.175 132.275C320.095 131.205 321.927 129.986 323.655 128.628C323.702 128.591 323.77 128.628 323.723 128.695C322.048 130.143 320.213 131.393 318.253 132.421C318.233 132.431 318.211 132.433 318.19 132.427C318.169 132.42 318.151 132.406 318.141 132.387C318.13 132.367 318.128 132.345 318.134 132.324C318.141 132.303 318.155 132.285 318.175 132.275Z" fill="#263238"/>
<path d="M311.424 142.72C311.424 142.866 311.684 142.866 311.684 142.72C311.721 138.73 311.684 134.718 311.747 130.706C312.789 128.622 314.966 127.497 316.493 125.846C317.59 124.638 318.545 123.307 319.338 121.881C321.179 118.474 322.303 114.725 322.641 110.867C323.063 106.595 321.442 92.5021 319.645 92.9918C318.707 93.2471 315.685 100.228 314.888 102.536C313.59 106.341 312.638 110.256 312.044 114.233C310.585 123.621 310.71 133.264 311.424 142.72Z" fill="#172090"/>
<path d="M311.392 125.496C311.611 120.448 312.747 115.348 313.815 110.445C314.961 105.167 316.3 100.197 319.025 95.4874C319.072 95.404 319.202 95.4874 319.16 95.5655C317.355 99.2216 315.957 103.065 314.992 107.027C315.175 106.741 315.394 106.475 315.586 106.204C315.659 106.1 315.831 106.204 315.758 106.308C315.515 106.735 315.231 107.136 314.909 107.507H314.878C313.94 111.279 313.268 115.139 312.695 118.968C312.735 118.916 312.779 118.865 312.825 118.817C312.851 118.786 312.903 118.817 312.882 118.864L312.653 119.245C312.361 121.198 312.096 123.147 311.825 125.08C315.305 122.11 318.275 118.604 319.952 114.285C319.952 114.285 319.994 114.285 319.984 114.285C318.342 118.76 315.753 122.746 311.767 125.46C311.701 125.981 311.629 126.502 311.549 127.023C311.549 127.132 311.361 127.101 311.366 126.997C311.366 126.538 311.366 126.075 311.408 125.616C311.394 125.6 311.385 125.58 311.382 125.559C311.379 125.537 311.383 125.516 311.392 125.496Z" fill="#263238"/>
<path d="M313.033 118.177C315.69 114.212 318.175 110.362 320.119 105.97C320.119 105.923 320.223 105.97 320.207 106.006C318.566 110.367 316.269 114.78 313.163 118.281C313.101 118.354 312.976 118.26 313.033 118.177Z" fill="#263238"/>
<path d="M316.566 104.99C317.665 103.042 318.827 101.145 319.864 99.1604C319.895 99.103 319.968 99.1604 319.947 99.2073C319.097 101.28 318.02 103.252 316.738 105.089C316.725 105.112 316.703 105.129 316.678 105.136C316.652 105.142 316.625 105.139 316.602 105.126C316.58 105.113 316.563 105.091 316.556 105.066C316.549 105.04 316.553 105.013 316.566 104.99Z" fill="#263238"/>
<path d="M316.133 105.84C316.159 105.84 316.159 105.871 316.133 105.871V105.84Z" fill="#263238"/>
<path d="M308.719 131.175C308.665 133.822 308.353 136.457 307.787 139.042C307.828 139.324 307.87 139.61 307.912 139.902C308.724 137.045 309.197 134.102 309.318 131.134C309.342 131.092 309.354 131.046 309.354 130.998C309.354 130.951 309.342 130.904 309.318 130.863C309.431 126.884 309.136 122.903 308.438 118.984C307.203 111.649 304.499 104.605 299.383 99.1083C299.341 99.0714 299.291 99.0448 299.237 99.0304C299.182 99.016 299.126 99.0143 299.071 99.0253C299.016 99.0364 298.964 99.06 298.92 99.0943C298.876 99.1286 298.84 99.1726 298.815 99.2229C296.731 104.475 297.471 110.737 299.232 115.978C300.19 118.813 301.558 121.493 303.29 123.934C305.057 126.419 307.292 128.503 308.719 131.175Z" fill="#172090"/>
<path d="M299.998 101.552C304.849 109.424 308.225 118.744 308.636 128.055C308.636 128.216 308.365 128.263 308.339 128.096C308.225 127.257 308.1 126.429 307.964 125.606C305.953 123.689 303.895 121.657 302.457 119.255C302.454 119.246 302.454 119.235 302.457 119.226C302.46 119.216 302.466 119.208 302.475 119.202C302.483 119.196 302.493 119.193 302.503 119.193C302.513 119.193 302.522 119.197 302.53 119.203C304.276 121.198 305.901 123.241 307.876 125.022C307.527 122.965 307.115 120.943 306.625 118.948L306.245 118.5C306.162 118.401 306.302 118.255 306.386 118.354L306.505 118.484C305.822 115.752 304.975 113.064 303.968 110.435C302.733 108.96 301.363 107.689 300.457 105.912C300.457 105.871 300.493 105.84 300.519 105.876C301.243 106.892 301.942 107.913 302.76 108.851C303.088 109.226 303.447 109.58 303.801 109.945C302.685 107.091 301.358 104.324 299.832 101.666C299.827 101.645 299.829 101.623 299.837 101.603C299.845 101.583 299.859 101.566 299.877 101.553C299.894 101.541 299.916 101.534 299.937 101.534C299.959 101.534 299.98 101.54 299.998 101.552Z" fill="#263238"/>
<path d="M300.977 111.263C302.54 113.373 304.333 115.384 305.791 117.567C305.833 117.63 305.739 117.692 305.687 117.645C303.817 115.889 302.233 113.477 300.873 111.326C300.811 111.258 300.93 111.2 300.977 111.263Z" fill="#263238"/>
<path d="M306.021 118.083L306.088 118.145C306.13 118.192 306.062 118.265 306.015 118.218L305.948 118.151C305.89 118.083 305.963 118.01 306.021 118.083Z" fill="#263238"/>
<path d="M292.402 116.687C292.787 120.735 294.918 125.569 297.518 128.669C298.666 130.028 300.086 131.132 301.686 131.91C303.483 132.796 305.369 133.822 307.224 134.551C308.095 136.807 308.739 139.144 309.146 141.527L309.323 140.913C308.13 130.66 301.509 121.896 293.011 116.27C292.944 116.232 292.868 116.214 292.791 116.217C292.714 116.22 292.64 116.245 292.577 116.289C292.513 116.332 292.463 116.392 292.432 116.462C292.401 116.533 292.391 116.61 292.402 116.687Z" fill="#172090"/>
<path d="M295.331 119.714C295.273 119.661 295.331 119.552 295.419 119.604C300.082 123.069 303.799 127.65 306.23 132.926C306.292 133.067 306.1 133.192 306.021 133.051C305.625 132.356 305.223 131.682 304.813 131.029C302.88 130.665 301.041 129.3 299.603 128.008C299.561 127.971 299.603 127.914 299.66 127.95C300.4 128.625 301.223 129.203 302.109 129.67C302.912 130.036 303.732 130.361 304.568 130.644C303.854 129.508 303.104 128.414 302.322 127.351C300.231 126.556 298.269 125.453 296.503 124.079C296.446 124.043 296.503 123.949 296.555 123.986C298.306 125.046 300.113 126.011 301.968 126.877C300.784 125.32 299.509 123.834 298.149 122.428C297.488 122.079 296.821 121.73 296.185 121.355C296.172 121.349 296.162 121.339 296.156 121.325C296.151 121.312 296.151 121.297 296.156 121.284C296.162 121.271 296.172 121.261 296.186 121.255C296.199 121.25 296.214 121.25 296.227 121.256C296.756 121.443 297.262 121.694 297.732 122.001C296.967 121.209 296.175 120.459 295.331 119.714Z" fill="#263238"/>
<path d="M295.512 123.251C295.625 123.323 295.735 123.402 295.84 123.486C295.871 123.517 295.84 123.553 295.798 123.538C295.678 123.484 295.563 123.419 295.454 123.345C295.397 123.293 295.454 123.215 295.512 123.251Z" fill="#263238"/>
<path d="M322.588 163.743H299.336L301.212 142.564L301.623 137.896H320.301L320.712 142.564L322.588 163.743Z" fill="#455A64"/>
<path d="M320.713 142.564H301.212L301.623 137.896H320.301L320.713 142.564Z" fill="#263238"/>
<path d="M321.416 134.63H300.514V139.251H321.416V134.63Z" fill="#455A64"/>
<path d="M0.0527344 163.742L42.2895 163.612L84.5263 163.571L169 163.482L253.474 163.571L295.71 163.612L337.947 163.742L295.71 163.868L253.474 163.914L169 164.003L84.5263 163.914L42.2895 163.868L0.0527344 163.742Z" fill="#263238"/>
<path d="M168.999 219.999C261.029 219.999 335.633 212.74 335.633 203.786C335.633 194.832 261.029 187.573 168.999 187.573C76.9698 187.573 2.36523 194.832 2.36523 203.786C2.36523 212.74 76.9698 219.999 168.999 219.999Z" fill="#EBEBEB"/>
<path d="M286.203 16.0569H50.9229V173.443H286.203V16.0569Z" fill="#EBEBEB"/>
<path d="M284.494 17.9742H52.6318V171.521H284.494V17.9742Z" fill="#263238"/>
<path d="M316.848 185.244H20.2783V196.044H316.848V185.244Z" fill="#DBDBDB"/>
<path d="M20.2783 185.244L50.9231 173.443H286.203L316.848 185.244H20.2783Z" fill="#EBEBEB"/>
<path d="M53.6582 181.06L73.4351 173.443H263.691L283.468 181.06H53.6582Z" fill="#263238"/>
<path d="M271.391 29.6445H65.7344V159.861H271.391V29.6445Z" fill="white"/>
<path d="M271.391 29.6445H65.5625V34.6564H271.391V29.6445Z" fill="#455A64"/>
<path d="M69.5431 32.1452C69.5441 32.392 69.4718 32.6334 69.3354 32.839C69.199 33.0445 69.0045 33.2049 68.7768 33.2998C68.5491 33.3947 68.2983 33.4198 68.0563 33.3719C67.8142 33.3241 67.5919 33.2054 67.4174 33.0309C67.243 32.8565 67.1243 32.6341 67.0764 32.3921C67.0285 32.1501 67.0536 31.8993 67.1485 31.6715C67.2434 31.4438 67.4038 31.2494 67.6094 31.113C67.8149 30.9765 68.0564 30.9043 68.3031 30.9053C68.6315 30.9067 68.9461 31.0377 69.1784 31.27C69.4106 31.5022 69.5417 31.8168 69.5431 32.1452Z" fill="#C7C7C7"/>
<path d="M74.6173 32.1452C74.6183 32.392 74.546 32.6334 74.4096 32.839C74.2732 33.0445 74.0788 33.2049 73.851 33.2998C73.6233 33.3947 73.3725 33.4198 73.1305 33.3719C72.8885 33.3241 72.6661 33.2054 72.4917 33.0309C72.3172 32.8565 72.1985 32.6341 72.1506 32.3921C72.1027 32.1501 72.1278 31.8993 72.2227 31.6715C72.3176 31.4438 72.478 31.2494 72.6836 31.113C72.8892 30.9765 73.1306 30.9043 73.3773 30.9053C73.7058 30.9067 74.0203 31.0377 74.2526 31.27C74.4848 31.5022 74.6159 31.8168 74.6173 32.1452Z" fill="white"/>
<path d="M79.6915 32.1452C79.6925 32.3917 79.6204 32.633 79.4842 32.8384C79.348 33.0439 79.1539 33.2043 78.9265 33.2993C78.699 33.3944 78.4485 33.4198 78.2066 33.3723C77.9647 33.3249 77.7424 33.2067 77.5677 33.0328C77.3931 32.8588 77.274 32.637 77.2255 32.3953C77.177 32.1536 77.2014 31.903 77.2955 31.6752C77.3895 31.4473 77.5491 31.2525 77.754 31.1155C77.9589 30.9784 78.1998 30.9053 78.4463 30.9053C78.7757 30.9053 79.0916 31.0357 79.325 31.2681C79.5583 31.5005 79.6901 31.8159 79.6915 32.1452Z" fill="#172090"/>
<path d="M271.39 34.6512H267.738V159.856H271.39V34.6512Z" fill="#DBDBDB"/>
<path d="M269.551 78.0602C269.301 78.0602 269.061 77.9608 268.885 77.784C268.708 77.6071 268.608 77.3673 268.608 77.1172V36.3287C268.608 36.0786 268.708 35.8388 268.885 35.6619C269.061 35.4851 269.301 35.3857 269.551 35.3857C269.801 35.3857 270.041 35.4851 270.218 35.6619C270.395 35.8388 270.494 36.0786 270.494 36.3287V77.1172C270.494 77.3673 270.395 77.6071 270.218 77.784C270.041 77.9608 269.801 78.0602 269.551 78.0602Z" fill="#A6A6A6"/>
<path d="M210.44 112.409H127.524V124.976H210.44V112.409Z" fill="white"/>
<path d="M210.581 125.116H127.384V112.269H210.581V125.116ZM127.665 124.856H210.3V112.55H127.665V124.856Z" fill="#DBDBDB"/>
<path d="M134.844 115.811C135.006 116.279 135.116 116.763 135.172 117.254C135.234 117.731 135.266 118.212 135.266 118.692C135.265 119.173 135.235 119.653 135.177 120.13C135.118 120.62 135.007 121.102 134.844 121.568C134.681 121.102 134.569 120.62 134.51 120.13C134.452 119.653 134.423 119.173 134.422 118.692C134.422 118.212 134.453 117.731 134.516 117.254C134.572 116.763 134.682 116.279 134.844 115.811Z" fill="#37474F"/>
<path d="M137.74 118.692C137.274 118.853 136.792 118.964 136.302 119.021C135.825 119.08 135.345 119.112 134.864 119.114C134.383 119.114 133.903 119.083 133.426 119.021C132.936 118.964 132.454 118.853 131.988 118.692C132.454 118.53 132.936 118.418 133.426 118.359C134.381 118.241 135.347 118.241 136.302 118.359C136.792 118.418 137.274 118.53 137.74 118.692Z" fill="#37474F"/>
<path d="M136.881 116.655C136.663 117.098 136.399 117.518 136.094 117.906C135.8 118.287 135.482 118.649 135.141 118.989C134.801 119.329 134.441 119.647 134.062 119.943C133.673 120.248 133.252 120.51 132.807 120.724C133.022 120.28 133.286 119.861 133.593 119.474C133.887 119.094 134.206 118.734 134.547 118.395C134.884 118.052 135.246 117.733 135.63 117.442C136.016 117.134 136.436 116.87 136.881 116.655Z" fill="#37474F"/>
<path d="M136.881 120.724C136.436 120.511 136.017 120.249 135.63 119.943C135.249 119.649 134.887 119.33 134.547 118.989C134.204 118.65 133.886 118.288 133.593 117.906C133.286 117.519 133.022 117.1 132.807 116.655C133.252 116.869 133.673 117.131 134.062 117.437C134.44 117.733 134.799 118.053 135.135 118.395C135.475 118.735 135.793 119.095 136.089 119.474C136.395 119.863 136.66 120.282 136.881 120.724Z" fill="#37474F"/>
<path d="M146.076 115.811C146.24 116.279 146.352 116.763 146.41 117.254C146.528 118.209 146.528 119.175 146.41 120.13C146.353 120.621 146.242 121.103 146.076 121.568C145.915 121.102 145.805 120.62 145.748 120.13C145.685 119.654 145.655 119.173 145.66 118.692C145.658 118.212 145.688 117.731 145.748 117.254C145.807 116.763 145.917 116.28 146.076 115.811Z" fill="#37474F"/>
<path d="M148.942 118.692C148.476 118.853 147.994 118.963 147.505 119.021C147.031 119.083 146.555 119.118 146.077 119.125C145.596 119.125 145.116 119.093 144.639 119.031C144.149 118.974 143.667 118.864 143.201 118.703C143.667 118.54 144.149 118.428 144.639 118.369C145.596 118.251 146.563 118.251 147.52 118.369C148.004 118.426 148.481 118.534 148.942 118.692Z" fill="#37474F"/>
<path d="M148.098 116.655C147.884 117.099 147.622 117.519 147.317 117.906C146.727 118.669 146.043 119.353 145.28 119.943C144.893 120.248 144.473 120.51 144.029 120.724C144.244 120.28 144.506 119.861 144.811 119.474C145.106 119.095 145.425 118.735 145.764 118.395C146.102 118.052 146.464 117.733 146.848 117.442C147.235 117.135 147.654 116.871 148.098 116.655Z" fill="#37474F"/>
<path d="M148.098 120.724C147.654 120.51 147.235 120.248 146.848 119.943C146.085 119.353 145.4 118.669 144.811 117.906C144.506 117.519 144.244 117.099 144.029 116.655C144.473 116.869 144.893 117.132 145.28 117.437C145.662 117.731 146.024 118.051 146.363 118.395C146.703 118.735 147.021 119.095 147.317 119.474C147.621 119.862 147.883 120.281 148.098 120.724Z" fill="#37474F"/>
<path d="M157.283 115.811C157.445 116.279 157.555 116.763 157.611 117.254C157.674 117.731 157.705 118.212 157.705 118.692C157.704 119.173 157.674 119.653 157.616 120.13C157.558 120.62 157.446 121.102 157.283 121.568C157.12 121.102 157.008 120.62 156.95 120.13C156.828 119.176 156.828 118.209 156.95 117.254C157.005 116.762 157.117 116.278 157.283 115.811Z" fill="#37474F"/>
<path d="M160.143 118.692C159.677 118.853 159.195 118.964 158.705 119.021C158.228 119.08 157.748 119.112 157.267 119.114C156.787 119.114 156.306 119.083 155.83 119.021C155.34 118.964 154.858 118.853 154.392 118.692C154.857 118.53 155.34 118.418 155.83 118.359C156.785 118.241 157.75 118.241 158.705 118.359C159.195 118.418 159.677 118.53 160.143 118.692Z" fill="#37474F"/>
<path d="M159.32 116.655C159.103 117.098 158.839 117.518 158.534 117.906C158.239 118.287 157.921 118.649 157.58 118.989C157.24 119.329 156.88 119.647 156.502 119.943C156.113 120.248 155.692 120.51 155.246 120.724C155.462 120.28 155.726 119.861 156.033 119.474C156.327 119.094 156.645 118.734 156.986 118.395C157.323 118.053 157.684 117.734 158.065 117.442C158.453 117.135 158.874 116.871 159.32 116.655Z" fill="#37474F"/>
<path d="M159.32 120.724C158.874 120.51 158.453 120.248 158.065 119.943C157.686 119.647 157.326 119.329 156.986 118.989C156.644 118.65 156.325 118.288 156.033 117.906C155.726 117.519 155.462 117.1 155.246 116.655C155.692 116.869 156.113 117.131 156.502 117.437C156.882 117.733 157.242 118.053 157.58 118.395C157.92 118.735 158.238 119.095 158.534 119.474C158.838 119.863 159.101 120.282 159.32 120.724Z" fill="#37474F"/>
<path d="M168.479 115.811C168.642 116.279 168.754 116.763 168.812 117.254C168.93 118.209 168.93 119.175 168.812 120.13C168.756 120.621 168.644 121.103 168.479 121.568C168.318 121.102 168.208 120.62 168.15 120.13C168.087 119.654 168.058 119.173 168.062 118.692C168.06 118.212 168.09 117.731 168.15 117.254C168.209 116.763 168.319 116.28 168.479 115.811Z" fill="#37474F"/>
<path d="M171.381 118.692C170.915 118.853 170.433 118.963 169.943 119.021C169.458 119.085 168.969 119.119 168.479 119.125C167.999 119.125 167.518 119.093 167.041 119.031C166.552 118.974 166.07 118.864 165.604 118.703C166.069 118.54 166.551 118.428 167.041 118.369C167.998 118.251 168.966 118.251 169.923 118.369C170.419 118.423 170.908 118.532 171.381 118.692Z" fill="#37474F"/>
<path d="M170.563 116.655C170.349 117.099 170.087 117.519 169.782 117.906C169.192 118.669 168.508 119.353 167.745 119.943C167.357 120.248 166.938 120.51 166.494 120.724C166.708 120.28 166.97 119.861 167.276 119.474C167.571 119.095 167.889 118.735 168.229 118.395C168.567 118.052 168.929 117.733 169.313 117.442C169.7 117.135 170.119 116.871 170.563 116.655Z" fill="#37474F"/>
<path d="M170.563 120.724C170.119 120.51 169.7 120.248 169.313 119.943C168.55 119.353 167.865 118.669 167.276 117.906C166.97 117.519 166.708 117.099 166.494 116.655C166.938 116.869 167.357 117.132 167.745 117.437C168.127 117.731 168.489 118.051 168.828 118.395C169.168 118.735 169.486 119.095 169.782 119.474C170.086 119.862 170.348 120.281 170.563 120.724Z" fill="#37474F"/>
<path d="M179.722 115.811C179.884 116.279 179.994 116.763 180.05 117.254C180.175 118.209 180.175 119.176 180.05 120.13C179.996 120.62 179.885 121.103 179.722 121.568C179.559 121.102 179.447 120.62 179.388 120.13C179.328 119.653 179.298 119.173 179.3 118.692C179.301 118.212 179.33 117.732 179.388 117.254C179.447 116.763 179.559 116.279 179.722 115.811Z" fill="#37474F"/>
<path d="M182.598 118.692C182.132 118.853 181.65 118.964 181.16 119.021C180.683 119.08 180.203 119.112 179.722 119.114C179.241 119.114 178.761 119.083 178.284 119.021C177.793 118.963 177.309 118.853 176.841 118.692C177.309 118.53 177.792 118.418 178.284 118.359C179.239 118.241 180.205 118.241 181.16 118.359C181.65 118.418 182.132 118.53 182.598 118.692Z" fill="#37474F"/>
<path d="M181.754 116.655C181.54 117.099 181.278 117.519 180.973 117.906C180.679 118.287 180.36 118.649 180.02 118.989C179.68 119.329 179.32 119.647 178.941 119.943C178.552 120.248 178.131 120.51 177.686 120.724C177.901 120.28 178.165 119.861 178.472 119.474C179.064 118.716 179.746 118.033 180.504 117.442C180.892 117.136 181.311 116.872 181.754 116.655Z" fill="#37474F"/>
<path d="M181.754 120.724C181.311 120.509 180.892 120.247 180.504 119.943C180.125 119.647 179.765 119.329 179.426 118.989C179.082 118.652 178.763 118.29 178.472 117.906C178.165 117.519 177.901 117.1 177.686 116.655C178.131 116.869 178.552 117.131 178.941 117.437C179.321 117.733 179.681 118.053 180.02 118.395C180.359 118.735 180.678 119.095 180.973 119.474C181.277 119.862 181.539 120.281 181.754 120.724Z" fill="#37474F"/>
<path d="M190.939 115.811C191.102 116.279 191.214 116.763 191.272 117.254C191.39 118.209 191.39 119.175 191.272 120.13C191.213 120.62 191.101 121.102 190.939 121.568C190.778 121.102 190.667 120.62 190.61 120.13C190.548 119.654 190.517 119.173 190.517 118.692C190.519 118.212 190.551 117.731 190.61 117.254C190.667 116.763 190.777 116.279 190.939 115.811Z" fill="#37474F"/>
<path d="M193.82 118.692C193.354 118.853 192.872 118.964 192.383 119.021C191.904 119.08 191.422 119.112 190.939 119.114C190.459 119.114 189.978 119.083 189.501 119.021C189.012 118.964 188.53 118.853 188.063 118.692C188.529 118.53 189.011 118.418 189.501 118.359C189.978 118.298 190.459 118.269 190.939 118.27C191.422 118.269 191.904 118.298 192.383 118.359C192.872 118.418 193.355 118.53 193.82 118.692Z" fill="#37474F"/>
<path d="M192.965 116.655C192.75 117.1 192.486 117.519 192.179 117.906C191.888 118.29 191.569 118.652 191.225 118.989C190.886 119.329 190.525 119.647 190.147 119.943C189.76 120.248 189.34 120.51 188.896 120.724C189.111 120.28 189.373 119.861 189.678 119.474C189.973 119.095 190.292 118.735 190.631 118.395C190.969 118.052 191.331 117.733 191.715 117.442C192.102 117.135 192.521 116.871 192.965 116.655Z" fill="#37474F"/>
<path d="M192.965 120.724C192.521 120.51 192.102 120.248 191.715 119.943C190.952 119.353 190.267 118.669 189.678 117.906C189.373 117.519 189.111 117.099 188.896 116.655C189.34 116.869 189.76 117.132 190.147 117.437C190.527 117.733 190.887 118.053 191.225 118.395C191.568 118.732 191.886 119.093 192.179 119.474C192.485 119.862 192.748 120.281 192.965 120.724Z" fill="#37474F"/>
<path d="M179.389 101.87C175.736 104.069 171.481 105.055 167.233 104.686C162.986 104.318 158.964 102.613 155.745 99.8179C152.525 97.0224 150.274 93.2792 149.314 89.1253C148.353 84.9713 148.733 80.6198 150.398 76.6949C152.064 72.77 154.929 69.4733 158.584 67.2776C162.239 65.0819 166.495 64.0999 170.742 64.4725C174.989 64.8451 179.009 66.5532 182.226 69.3517C185.443 72.1502 187.69 75.8955 188.647 80.0504C189.627 84.1991 189.257 88.5524 187.592 92.4766C185.927 96.4009 183.053 99.6914 179.389 101.87Z" fill="#455A64"/>
<path d="M175.148 82.3375C175.134 83.5525 174.761 84.7362 174.075 85.7389C173.388 86.7416 172.42 87.5182 171.292 87.9705C170.165 88.4228 168.928 88.5304 167.739 88.2798C166.55 88.0293 165.462 87.4317 164.613 86.5627C163.764 85.6938 163.191 84.5925 162.968 83.3981C162.745 82.2037 162.881 80.97 163.359 79.8529C163.837 78.7358 164.635 77.7856 165.653 77.1224C166.671 76.4593 167.863 76.113 169.078 76.1273C170.707 76.1466 172.261 76.8115 173.399 77.976C174.537 79.1405 175.166 80.7093 175.148 82.3375Z" fill="white"/>
<path d="M179.42 99.3271L179.393 101.864C176.179 103.795 172.491 104.794 168.741 104.748C164.992 104.702 161.329 103.613 158.163 101.604L158.194 99.077C158.228 96.2624 159.377 93.5762 161.391 91.6094C163.405 89.6426 166.117 88.5563 168.932 88.5895C171.747 88.6226 174.433 89.7726 176.4 91.7863C178.366 93.8 179.453 96.5125 179.42 99.3271Z" fill="white"/>
<path d="M186.251 94.508C186.322 104.551 185.388 114.576 183.464 124.434C182.505 129.368 181.046 134.191 179.108 138.829C178.138 141.154 176.867 143.342 175.326 145.336C174.55 146.34 173.624 147.219 172.58 147.941C171.539 148.696 170.285 149.103 168.998 149.103C167.712 149.103 166.458 148.696 165.416 147.941C164.368 147.219 163.436 146.341 162.655 145.336C161.107 143.344 159.827 141.158 158.847 138.834C156.894 134.198 155.419 129.374 154.444 124.439C152.481 114.579 151.514 104.546 151.558 94.4923C151.515 84.4369 152.482 74.4026 154.444 64.5405C155.419 59.605 156.894 54.7817 158.847 50.1455C159.828 47.8233 161.108 45.6392 162.655 43.6487C163.435 42.6441 164.364 41.7655 165.411 41.0438C166.454 40.2887 167.708 39.8822 168.996 39.8822C170.283 39.8822 171.537 40.2887 172.58 41.0438C173.623 41.7662 174.549 42.6448 175.326 43.6487C176.868 45.6399 178.139 47.8262 179.108 50.1507C181.046 54.7883 182.505 59.6117 183.464 64.5457C185.393 74.4147 186.327 84.4524 186.251 94.508ZM186.251 94.508C186.291 84.4667 185.326 74.4467 183.37 64.5978C182.397 59.676 180.924 54.8666 178.973 50.2445C178.001 47.9352 176.732 45.7633 175.195 43.7842C174.426 42.8031 173.51 41.9456 172.481 41.2418C171.47 40.5069 170.253 40.1111 169.003 40.1111C167.754 40.1111 166.536 40.5069 165.526 41.2418C164.501 41.9479 163.591 42.8071 162.827 43.7894C161.3 45.7704 160.037 47.9422 159.071 50.2497C157.14 54.8759 155.686 59.687 154.731 64.6082C152.806 74.4532 151.872 84.4663 151.944 94.4975C151.872 104.529 152.806 114.542 154.731 124.387C155.685 129.307 157.139 134.116 159.071 138.74C160.034 141.049 161.297 143.221 162.827 145.2C163.592 146.183 164.502 147.044 165.526 147.753C166.536 148.488 167.754 148.884 169.003 148.884C170.253 148.884 171.47 148.488 172.481 147.753C173.511 147.048 174.426 146.188 175.195 145.206C176.734 143.23 178.004 141.059 178.973 138.751C180.923 134.128 182.396 129.319 183.37 124.397C185.325 114.555 186.29 104.542 186.251 94.508Z" fill="#172090"/>
<path d="M177.629 79.5659C186.363 84.5262 194.578 90.3487 202.152 96.9462C205.944 100.235 209.391 103.901 212.441 107.887C213.97 109.897 215.227 112.098 216.182 114.436C216.658 115.609 216.951 116.847 217.052 118.109C217.158 119.386 216.888 120.667 216.276 121.792C215.608 122.889 214.636 123.769 213.478 124.324C212.335 124.871 211.116 125.24 209.862 125.418C207.364 125.765 204.831 125.781 202.329 125.465C197.336 124.841 192.42 123.708 187.658 122.084C178.139 118.848 168.968 114.67 160.28 109.611C151.555 104.618 143.352 98.7644 135.793 92.1374C132.009 88.8237 128.572 85.1334 125.535 81.1236C124.011 79.1134 122.759 76.9116 121.809 74.5748C121.335 73.3984 121.043 72.1561 120.945 70.8914C120.814 69.611 121.091 68.322 121.737 67.2086C122.382 66.0952 123.363 65.2142 124.539 64.6916C125.682 64.1461 126.901 63.7805 128.155 63.6079C130.652 63.2773 133.181 63.2773 135.678 63.6079C140.66 64.2472 145.563 65.3923 150.313 67.0256C159.814 70.2834 168.965 74.4845 177.629 79.5659ZM177.629 79.5659C168.951 74.5115 159.79 70.3384 150.282 67.109C145.534 65.4922 140.634 64.3628 135.657 63.7381C133.173 63.4229 130.657 63.4386 128.176 63.785C126.942 63.9601 125.742 64.322 124.618 64.8583C123.478 65.3688 122.528 66.2267 121.905 67.3094C121.282 68.392 121.017 69.6439 121.148 70.8861C121.249 72.1281 121.539 73.3473 122.007 74.5018C122.957 76.8164 124.208 78.9956 125.727 80.983C128.765 84.9699 132.202 88.6359 135.986 91.9238C143.549 98.5123 151.752 104.328 160.472 109.283C169.126 114.361 178.266 118.558 187.757 121.813C192.49 123.446 197.378 124.589 202.344 125.226C204.824 125.556 207.336 125.556 209.815 125.226C211.048 125.061 212.247 124.709 213.374 124.184C214.516 123.678 215.469 122.823 216.096 121.742C216.722 120.661 216.989 119.409 216.859 118.166C216.764 116.923 216.477 115.701 216.01 114.545C215.068 112.225 213.824 110.039 212.311 108.043C209.283 104.044 205.854 100.364 202.079 97.0608C194.533 90.428 186.342 84.5672 177.629 79.5659Z" fill="#172090"/>
<path d="M160.373 79.5659C169.037 74.4855 178.188 70.2845 187.688 67.0257C192.444 65.3857 197.355 64.2353 202.344 63.5923C204.841 63.2617 207.37 63.2617 209.867 63.5923C211.12 63.7698 212.339 64.1352 213.483 64.676C214.659 65.1987 215.64 66.0796 216.285 67.193C216.931 68.3064 217.208 69.5954 217.078 70.8758C216.979 72.1406 216.688 73.3828 216.213 74.5592C215.263 76.896 214.011 79.0978 212.488 81.1081C209.452 85.1173 206.015 88.806 202.229 92.1166C194.67 98.7441 186.467 104.6 177.743 109.596C169.057 114.66 159.885 118.838 150.365 122.068C145.591 123.702 140.663 124.842 135.657 125.471C133.155 125.786 130.622 125.77 128.123 125.424C126.87 125.245 125.65 124.876 124.508 124.33C123.35 123.774 122.378 122.894 121.71 121.798C121.097 120.672 120.827 119.391 120.934 118.114C121.035 116.853 121.328 115.614 121.804 114.441C122.759 112.11 124.017 109.916 125.545 107.913C128.595 103.927 132.042 100.261 135.834 96.9723C143.412 90.3649 151.632 84.5337 160.373 79.5659ZM160.373 79.5659C151.658 84.5535 143.463 90.4003 135.912 97.0192C132.137 100.322 128.708 104.002 125.68 108.002C124.167 109.997 122.923 112.183 121.981 114.504C121.514 115.66 121.227 116.881 121.132 118.125C121.002 119.367 121.269 120.619 121.895 121.7C122.522 122.782 123.475 123.636 124.617 124.142C125.744 124.668 126.943 125.019 128.176 125.184C130.655 125.515 133.167 125.515 135.647 125.184C140.614 124.548 145.502 123.403 150.234 121.766C159.723 118.522 168.862 114.333 177.513 109.262C186.233 104.307 194.436 98.4934 202 91.9082C205.786 88.6215 209.225 84.9554 212.264 80.9674C213.781 78.9793 215.03 76.8002 215.978 74.4863C216.447 73.3318 216.737 72.1125 216.838 70.8706C216.969 69.6283 216.704 68.3764 216.081 67.2938C215.458 66.2112 214.508 65.3533 213.368 64.8427C212.244 64.3041 211.044 63.9421 209.81 63.7695C207.329 63.4231 204.813 63.4073 202.328 63.7226C197.35 64.3469 192.448 65.4763 187.699 67.0934C178.196 70.3269 169.042 74.5053 160.373 79.5659Z" fill="#172090"/>
<path d="M202.901 75.8825C202.901 75.8825 197.952 111.758 189.809 119.828C180.04 129.545 172.95 128.102 169.001 133.093C165.057 128.091 157.966 129.513 148.187 119.823C140.044 111.763 135.1 75.8825 135.1 75.8825C156.544 66.4682 169.001 55.9129 169.001 55.9129C169.386 56.2411 181.786 66.6193 202.901 75.8825Z" fill="#172090"/>
<path opacity="0.1" d="M169.001 55.9181V133.093C165.057 128.091 157.966 129.513 148.187 119.823C140.044 111.763 135.1 75.8825 135.1 75.8825C156.544 66.4682 169.001 55.9129 169.001 55.9129V55.9181Z" fill="black"/>
<path d="M197.655 78.7792C197.655 78.7792 193.487 109.08 186.599 115.905C178.336 124.095 172.345 122.892 169.011 127.112C165.676 122.892 159.685 124.095 151.422 115.905C144.514 109.08 140.346 78.7792 140.346 78.7792C158.461 70.8184 169 61.899 169 61.899C169 61.899 179.524 70.8184 197.655 78.7792Z" fill="#172090"/>
<path opacity="0.1" d="M197.655 78.7791C197.655 78.7791 193.487 109.08 186.6 115.905C178.347 124.09 172.356 122.897 169.021 127.101V61.9094C169.324 62.1803 179.806 70.9434 197.655 78.7791Z" fill="black"/>
<path d="M171.684 92.1113L174.335 104.698H163.077L165.729 92.1113C164.69 91.4644 163.89 90.4968 163.451 89.3549C163.011 88.213 162.955 86.9589 163.291 85.7824C163.628 84.6059 164.338 83.571 165.315 82.8342C166.292 82.0974 167.482 81.6989 168.706 81.6989C169.93 81.6989 171.12 82.0974 172.097 82.8342C173.074 83.571 173.785 84.6059 174.121 85.7824C174.457 86.9589 174.402 88.213 173.962 89.3549C173.522 90.4968 172.722 91.4644 171.684 92.1113Z" fill="#263238"/>
<path d="M67.0887 174.011C67.0887 174.011 57.862 192.324 57.8515 192.335C56.0697 195.83 54.5693 198.92 53.9441 200.592C53.9418 200.603 53.9418 200.613 53.9441 200.624C53.7522 200.998 53.6522 201.412 53.6523 201.832C53.6523 201.832 53.6523 201.858 53.6523 201.864C54.3348 203.098 81.8276 218.16 82.9633 218.363C84.0991 218.567 84.766 215.347 84.1668 213.909C83.5677 212.471 75.6121 201.999 75.6121 201.999L84.6618 183.608L67.0887 174.011Z" fill="#D3766A"/>
<path d="M59.7479 188.578C59.7479 188.578 57.862 192.324 57.8515 192.335C56.0697 195.83 54.5693 198.92 53.9441 200.592C53.9418 200.603 53.9418 200.613 53.9441 200.624C53.7993 201.013 53.7014 201.419 53.6523 201.832C53.6523 201.832 53.6523 201.858 53.6523 201.863C54.3348 203.098 81.8276 218.16 82.9633 218.363C84.0991 218.566 84.766 215.347 84.1668 213.909C83.5677 212.471 75.6121 201.999 75.6121 201.999L77.5867 198.206L59.7479 188.578Z" fill="white"/>
<path d="M77.3062 202.885C75.6078 201.624 73.1852 200.801 71.1064 201.431C71.023 201.431 71.0595 201.572 71.1064 201.582C73.1747 201.884 75.2044 202.408 77.1603 203.145C77.1774 203.155 77.1963 203.161 77.2157 203.163C77.2352 203.165 77.2549 203.164 77.2738 203.159C77.2927 203.153 77.3103 203.144 77.3257 203.132C77.3411 203.12 77.3539 203.105 77.3635 203.088C77.3731 203.071 77.3792 203.052 77.3815 203.032C77.3838 203.013 77.3823 202.993 77.3769 202.974C77.3716 202.955 77.3626 202.938 77.3505 202.922C77.3384 202.907 77.3233 202.894 77.3062 202.885Z" fill="#263238"/>
<path d="M78.2642 204.354C76.5658 203.098 74.138 202.27 72.0644 202.9C71.9811 202.926 72.0175 203.041 72.0644 203.051C74.1325 203.354 76.162 203.878 78.1183 204.614C78.1354 204.624 78.1543 204.63 78.1737 204.632C78.1932 204.635 78.2129 204.633 78.2318 204.628C78.2507 204.622 78.2683 204.613 78.2837 204.601C78.2991 204.589 78.3119 204.574 78.3215 204.557C78.3311 204.54 78.3372 204.521 78.3395 204.502C78.3418 204.482 78.3403 204.462 78.3349 204.444C78.3296 204.425 78.3206 204.407 78.3085 204.392C78.2964 204.376 78.2813 204.363 78.2642 204.354Z" fill="#263238"/>
<path d="M79.2179 205.828C77.5194 204.567 75.0916 203.744 73.0128 204.375C72.9347 204.375 72.9712 204.51 73.0389 204.521C75.106 204.815 77.1355 205.33 79.0928 206.057C79.1232 206.074 79.159 206.078 79.1922 206.068C79.2254 206.058 79.2534 206.036 79.27 206.005C79.2865 205.975 79.2904 205.939 79.2806 205.906C79.2708 205.873 79.2483 205.845 79.2179 205.828Z" fill="#263238"/>
<path d="M82.9582 218.363C81.8225 218.16 54.3297 203.103 53.6472 201.863C53.3815 201.4 55.3404 197.263 57.8568 192.334L57.935 192.183L75.779 201.702L75.607 201.999C75.607 201.999 83.5521 212.471 84.1617 213.909C84.7713 215.347 84.0783 218.572 82.9582 218.363Z" fill="#172090"/>
<path d="M83.234 217.129C78.6597 214.477 59.9718 204.208 55.2464 201.936C55.2099 201.936 55.1943 201.936 55.2464 201.962C59.7217 204.692 78.4982 214.805 83.208 217.207C83.2913 217.254 83.3278 217.186 83.234 217.129Z" fill="#263238"/>
<path d="M79.9101 195.971C80.1289 195.867 92.1222 173.365 96.6287 161.924C101.135 150.483 106.877 126.012 108.002 121C108.002 121 111.597 109.898 112.665 100.442H88.4023C88.4023 100.442 84.4115 110.185 85.3232 123.782C85.3805 124.621 78.1596 152.578 76.1173 156.298C72.9913 161.992 60.1072 185.114 59.7061 185.322L79.9101 195.971Z" fill="#455A64"/>
<path d="M103.094 107.866C101.818 113.368 100.708 118.911 99.536 124.434C98.3637 129.956 97.1863 135.536 96.0088 141.105C95.4305 143.841 94.8679 146.586 94.2635 149.316C93.695 152.009 92.902 154.649 91.893 157.209C90.851 159.736 89.684 162.206 88.5222 164.67C87.3604 167.134 86.1673 169.625 84.9638 172.089C82.5325 177.042 80.0439 181.96 77.498 186.843C77.1854 187.448 76.8676 188.047 76.5498 188.646C76.5238 188.693 76.5915 188.734 76.6175 188.688C79.3163 183.884 81.9316 179.028 84.4324 174.1C86.9332 169.171 89.3662 164.258 91.596 159.231C92.706 156.746 93.5968 154.17 94.2583 151.53C94.92 148.842 95.441 146.112 96.0088 143.398L99.4943 126.648C100.651 121.089 101.813 115.535 102.943 109.976C103.084 109.288 103.219 108.606 103.35 107.892C103.355 107.767 103.131 107.705 103.094 107.866Z" fill="#263238"/>
<path d="M62.7176 182.29C63.2386 182.493 63.8013 182.811 64.3275 183.061C64.8537 183.311 65.5049 183.655 66.0989 183.941C67.2451 184.494 68.386 185.061 69.5218 185.645C71.8037 186.807 74.07 188.026 76.2947 189.292L78.1286 190.334C78.7798 190.709 79.4102 191.121 80.0771 191.47C80.1292 191.47 80.0771 191.558 80.0458 191.532C78.9048 190.923 77.6961 190.412 76.5343 189.844C75.3725 189.276 74.2524 188.714 73.1218 188.135C70.8399 186.963 68.5736 185.739 66.3489 184.452C65.7342 184.098 65.1142 183.759 64.5046 183.41C64.1764 183.222 63.8534 183.03 63.5304 182.837C63.2297 182.679 62.9376 182.505 62.6551 182.316C62.603 182.332 62.6447 182.269 62.7176 182.29Z" fill="#263238"/>
<path d="M102.6 187.745C102.6 187.745 102.772 208.246 102.772 208.261C102.772 212.179 102.865 215.618 103.074 217.394C103.071 217.403 103.071 217.412 103.074 217.42C103.074 217.841 103.17 218.256 103.355 218.634C104.527 219.421 135.865 220.239 136.969 219.895C138.074 219.551 137.188 216.389 136 215.388C134.813 214.388 122.981 208.735 122.981 208.735L122.632 188.234L102.6 187.745Z" fill="#D3766A"/>
<path d="M102.735 204.046C102.735 204.046 102.772 208.24 102.772 208.256C102.772 212.174 102.866 215.612 103.074 217.389C103.071 217.397 103.071 217.407 103.074 217.415C103.12 217.831 103.214 218.24 103.355 218.634C104.528 219.421 135.865 220.239 136.97 219.895C138.074 219.551 137.189 216.389 136.001 215.388C134.813 214.388 122.981 208.735 122.981 208.735V204.458L102.735 204.046Z" fill="white"/>
<path d="M124.897 208.735C122.813 208.392 120.276 208.761 118.718 210.298C118.661 210.356 118.744 210.444 118.812 210.418C120.785 209.736 122.825 209.266 124.897 209.017C124.935 209.017 124.97 209.002 124.997 208.975C125.023 208.949 125.038 208.913 125.038 208.876C125.038 208.839 125.023 208.803 124.997 208.777C124.97 208.75 124.935 208.735 124.897 208.735Z" fill="#263238"/>
<path d="M126.42 209.611C124.336 209.267 121.799 209.642 120.241 211.174C120.179 211.231 120.241 211.314 120.33 211.293C122.303 210.608 124.345 210.138 126.42 209.892C126.457 209.892 126.493 209.877 126.52 209.851C126.546 209.824 126.561 209.789 126.561 209.751C126.561 209.714 126.546 209.678 126.52 209.652C126.493 209.625 126.457 209.611 126.42 209.611Z" fill="#263238"/>
<path d="M127.941 210.486C125.857 210.142 123.319 210.512 121.762 212.049C121.699 212.106 121.762 212.195 121.85 212.169C123.823 211.486 125.863 211.016 127.935 210.767C127.973 210.768 128.009 210.754 128.036 210.728C128.062 210.702 128.078 210.666 128.079 210.629C128.079 210.592 128.065 210.556 128.039 210.529C128.013 210.502 127.978 210.487 127.941 210.486Z" fill="#263238"/>
<path d="M137.006 219.921C135.901 220.26 104.564 219.447 103.391 218.655C102.943 218.363 102.792 213.789 102.771 208.235V208.063L122.991 208.36V208.704C122.991 208.704 134.849 214.378 136.047 215.383C137.246 216.389 138.11 219.582 137.006 219.921Z" fill="#172090"/>
<path d="M136.699 218.697C131.421 218.426 110.103 217.847 104.861 217.988C104.82 217.988 104.82 218.019 104.861 218.019C110.071 218.4 131.432 218.806 136.699 218.78C136.793 218.78 136.793 218.702 136.699 218.697Z" fill="#263238"/>
<path d="M98.89 122.147C98.89 122.147 102.344 156.058 102.402 156.855C102.402 157.173 101.938 201.624 101.938 201.624L123.387 202.233C123.387 202.233 123.569 160.658 123.22 155.865C123.179 155.308 121.1 119.953 114.447 100.437H89.0537C89.0537 100.437 89.2777 111.899 94.4929 120.193C95.994 120.761 97.4621 121.413 98.89 122.147Z" fill="#455A64"/>
<path d="M117.724 160.653C117.625 154.401 117.365 148.118 116.875 141.866C116.385 135.614 115.619 129.519 114.609 123.392C113.641 117.223 112.294 111.119 110.576 105.115C110.352 104.365 110.128 103.615 109.899 102.865C109.89 102.848 109.875 102.835 109.857 102.827C109.84 102.82 109.82 102.819 109.802 102.825C109.783 102.83 109.767 102.842 109.757 102.858C109.746 102.873 109.741 102.892 109.742 102.912C111.358 108.924 112.754 114.983 113.811 121.115C114.869 127.247 115.567 133.494 116.093 139.72C116.62 145.945 116.922 152.223 117.078 158.475C117.234 164.727 117.25 170.979 117.187 177.231C117.125 183.483 116.885 185.921 116.864 192.173C116.864 192.96 116.864 193.736 116.838 194.523C116.838 194.58 116.922 194.575 116.922 194.523C117.036 191.397 117.224 188.271 117.328 185.108C117.432 181.946 117.526 182.634 117.599 179.487C117.745 173.24 117.823 166.947 117.724 160.653Z" fill="#263238"/>
<path d="M102.282 123.704C101.032 123.022 99.7554 122.407 98.4477 121.85C97.14 121.292 95.7958 120.782 94.4934 120.198C94.4413 120.198 94.3996 120.25 94.4517 120.276C95.7333 120.938 96.9889 121.646 98.2862 122.272C99.5613 122.883 100.877 123.405 102.225 123.835C102.313 123.871 102.355 123.746 102.282 123.704Z" fill="#263238"/>
<path d="M100.704 137.224C100.386 134.025 100.042 130.831 99.662 127.643C99.5474 126.742 99.4328 125.84 99.313 124.944C99.2256 124.076 99.0829 123.215 98.8858 122.365C98.8858 122.318 98.8076 122.334 98.8076 122.365C98.812 123.184 98.8659 124.002 98.9691 124.814C99.0473 125.585 99.115 126.377 99.1931 127.127C99.3442 128.69 99.4849 130.3 99.6464 131.884C99.9694 135.062 100.251 138.24 100.574 141.413C100.761 143.221 100.928 145.023 101.189 146.821C101.189 146.848 101.2 146.875 101.219 146.894C101.239 146.914 101.265 146.925 101.293 146.925C101.32 146.925 101.347 146.914 101.366 146.894C101.386 146.875 101.397 146.848 101.397 146.821C101.324 143.611 101.017 140.412 100.704 137.224Z" fill="#263238"/>
<path d="M103.397 197.274C103.97 197.221 104.595 197.274 105.179 197.274C105.841 197.274 106.502 197.3 107.164 197.3C108.435 197.3 109.708 197.313 110.983 197.341C113.546 197.399 116.115 197.513 118.673 197.696L120.788 197.852C121.538 197.909 122.288 198.003 123.039 198.029C123.096 198.029 123.091 198.102 123.039 198.097C121.747 198.045 120.434 198.097 119.147 198.097C117.86 198.097 116.599 198.065 115.328 198.034C112.765 197.972 110.191 197.852 107.638 197.659C106.929 197.602 106.226 197.565 105.523 197.518L104.397 197.425C104.059 197.399 103.725 197.425 103.392 197.357C103.355 197.331 103.355 197.274 103.397 197.274Z" fill="#263238"/>
<path d="M104.553 75.0072C105.627 78.6541 111.326 89.6522 117.141 91.1579C122.351 92.4969 136.417 80.5609 140.273 74.5904C141.632 72.5064 131.082 69.9014 128.899 70.4954C127.024 71.0164 118.834 79.3522 118.11 79.0865C116.885 78.6176 114.03 76.1012 109.388 72.1782C105.022 68.4791 103.798 72.4387 104.553 75.0072Z" fill="#D3766A"/>
<path d="M126.372 71.5374L139.361 77.0026C139.361 77.0026 124.57 93.195 116.994 91.6268C115.249 91.2673 107.57 85.3332 104.439 76.07C103.47 73.1993 103.647 67.2131 110.138 72.5273C116.63 77.8414 117.979 78.6281 118.234 78.602C118.49 78.576 126.372 71.5374 126.372 71.5374Z" fill="#A6A6A6"/>
<path d="M136.699 78.9198C135.74 78.3572 134.698 77.9195 133.693 77.4558C132.687 76.9922 131.708 76.5441 130.713 76.0961C128.697 75.1947 126.691 74.2361 124.623 73.4911C124.613 73.4887 124.603 73.4895 124.595 73.4935C124.586 73.4974 124.579 73.5042 124.575 73.5128C124.57 73.5213 124.569 73.5311 124.571 73.5404C124.573 73.5497 124.579 73.5581 124.586 73.564C126.519 74.6685 128.572 75.5751 130.598 76.4972C131.609 76.9557 132.628 77.4037 133.656 77.8414C134.639 78.2903 135.646 78.6834 136.673 79.0188C136.699 79.0084 136.73 78.9407 136.699 78.9198Z" fill="#263238"/>
<path d="M169.145 84.5257L169.328 83.7859C169.486 83.1276 169.377 82.4332 169.025 81.855C168.672 81.2769 168.105 80.8621 167.447 80.7016L101.021 64.5509L99.6348 70.2558L166.061 86.4065C166.387 86.4857 166.726 86.4999 167.057 86.4483C167.389 86.3966 167.707 86.2801 167.993 86.1054C168.28 85.9308 168.529 85.7013 168.727 85.4303C168.924 85.1592 169.067 84.8518 169.145 84.5257Z" fill="#172090"/>
<path opacity="0.2" d="M169.145 84.5257L169.328 83.7859C169.486 83.1276 169.377 82.4332 169.025 81.855C168.672 81.2769 168.105 80.8621 167.447 80.7016L101.021 64.5509L99.6348 70.2558L166.061 86.4065C166.387 86.4857 166.726 86.4999 167.057 86.4483C167.389 86.3966 167.707 86.2801 167.993 86.1054C168.28 85.9308 168.529 85.7013 168.727 85.4303C168.924 85.1592 169.067 84.8518 169.145 84.5257Z" fill="black"/>
<path opacity="0.1" d="M101.016 64.5619L99.6309 70.2676L107.676 72.2213L109.061 66.5156L101.016 64.5619Z" fill="black"/>
<path d="M83.0056 82.2802C84.7054 82.6936 86.4701 82.7681 88.1987 82.4993C89.9273 82.2305 91.5861 81.6237 93.0801 80.7136C94.5742 79.8036 95.8743 78.608 96.9061 77.1953C97.938 75.7826 98.6813 74.1805 99.0938 72.4804L101.553 62.3627C102.004 60.6497 102.109 58.864 101.861 57.11C101.614 55.356 101.019 53.6689 100.112 52.1475C99.2049 50.6261 98.0033 49.3009 96.5778 48.2494C95.1522 47.198 93.5313 46.4414 91.8098 46.0239C90.0883 45.6065 88.3009 45.5365 86.5521 45.8182C84.8032 46.0998 83.1281 46.7274 81.6247 47.6642C80.1214 48.6011 78.8199 49.8283 77.7966 51.2742C76.7732 52.72 76.0485 54.3554 75.6648 56.0848L73.2057 66.2076C72.3754 69.6384 72.9412 73.2585 74.7788 76.2723C76.6164 79.2861 79.5754 81.4471 83.0056 82.2802ZM83.9798 78.2738C79.2909 77.138 76.2848 72.9545 77.2642 68.9272C77.9988 65.9159 80.7497 63.8475 84.0371 63.4724C81.2759 61.6229 79.7754 58.523 80.51 55.5117C81.4843 51.4896 86.0742 49.1399 90.7631 50.2757C95.452 51.4115 98.453 55.6107 97.4787 59.6535C96.7493 62.6649 93.9985 64.728 90.7058 65.1083C93.4723 66.9579 94.9675 70.0578 94.2381 73.0691C93.2587 77.0755 88.6635 79.4148 83.9798 78.2738Z" fill="#172090"/>
<path opacity="0.2" d="M83.0056 82.2802C84.7054 82.6936 86.4701 82.7681 88.1987 82.4993C89.9273 82.2305 91.5861 81.6237 93.0801 80.7136C94.5742 79.8036 95.8743 78.608 96.9061 77.1953C97.938 75.7826 98.6813 74.1805 99.0938 72.4804L101.553 62.3627C102.004 60.6497 102.109 58.864 101.861 57.11C101.614 55.356 101.019 53.6689 100.112 52.1475C99.2049 50.6261 98.0033 49.3009 96.5778 48.2494C95.1522 47.198 93.5313 46.4414 91.8098 46.0239C90.0883 45.6065 88.3009 45.5365 86.5521 45.8182C84.8032 46.0998 83.1281 46.7274 81.6247 47.6642C80.1214 48.6011 78.8199 49.8283 77.7966 51.2742C76.7732 52.72 76.0485 54.3554 75.6648 56.0848L73.2057 66.2076C72.3754 69.6384 72.9412 73.2585 74.7788 76.2723C76.6164 79.2861 79.5754 81.4471 83.0056 82.2802ZM83.9798 78.2738C79.2909 77.138 76.2848 72.9545 77.2642 68.9272C77.9988 65.9159 80.7497 63.8475 84.0371 63.4724C81.2759 61.6229 79.7754 58.523 80.51 55.5117C81.4843 51.4896 86.0742 49.1399 90.7631 50.2757C95.452 51.4115 98.453 55.6107 97.4787 59.6535C96.7493 62.6649 93.9985 64.728 90.7058 65.1083C93.4723 66.9579 94.9675 70.0578 94.2381 73.0691C93.2587 77.0755 88.6635 79.4148 83.9798 78.2738Z" fill="black"/>
<path d="M101.662 73.4046L104.255 62.7272C104.409 62.0953 104.021 61.4586 103.389 61.3051L103.045 61.2215C102.413 61.0681 101.776 61.4559 101.623 62.0879L99.0297 72.7652C98.8762 73.3972 99.2641 74.0338 99.896 74.1873L100.24 74.2709C100.872 74.4243 101.509 74.0365 101.662 73.4046Z" fill="#172090"/>
<path opacity="0.2" d="M101.662 73.4046L104.255 62.7272C104.409 62.0953 104.021 61.4586 103.389 61.3051L103.045 61.2215C102.413 61.0681 101.776 61.4559 101.623 62.0879L99.0297 72.7652C98.8762 73.3972 99.2641 74.0338 99.896 74.1873L100.24 74.2709C100.872 74.4243 101.509 74.0365 101.662 73.4046Z" fill="black"/>
<path d="M104.295 74.0387L106.888 63.3613C107.042 62.7294 106.654 62.0927 106.022 61.9392L105.678 61.8556C105.046 61.7022 104.409 62.09 104.256 62.722L101.663 73.3993C101.509 74.0312 101.897 74.6679 102.529 74.8214L102.873 74.905C103.505 75.0584 104.142 74.6706 104.295 74.0387Z" fill="#172090"/>
<path opacity="0.2" d="M104.295 74.0387L106.888 63.3613C107.042 62.7294 106.654 62.0927 106.022 61.9392L105.678 61.8556C105.046 61.7022 104.409 62.09 104.256 62.722L101.663 73.3993C101.509 74.0312 101.897 74.6679 102.529 74.8214L102.873 74.905C103.505 75.0584 104.142 74.6706 104.295 74.0387Z" fill="black"/>
<path d="M149.306 84.8174L151.291 85.3019L149.89 91.0641L151.583 91.4757L152.318 88.4696L154.292 88.9541L153.568 91.955L155.068 92.3197L156.22 87.5735L158.205 88.0528L157.053 92.8042L159.184 93.32L160.726 86.9743L162.711 87.4589L161.169 93.8045L163.18 94.2943L165.155 86.1824L147.425 81.879L145.456 89.9857L147.905 90.5848L149.306 84.8174Z" fill="#172090"/>
<path opacity="0.2" d="M149.306 84.8174L151.291 85.3019L149.89 91.0641L151.583 91.4757L152.318 88.4696L154.292 88.9541L153.568 91.955L155.068 92.3197L156.22 87.5735L158.205 88.0528L157.053 92.8042L159.184 93.32L160.726 86.9743L162.711 87.4589L161.169 93.8045L163.18 94.2943L165.155 86.1824L147.425 81.879L145.456 89.9857L147.905 90.5848L149.306 84.8174Z" fill="black"/>
<path d="M124.07 68.4271C126.118 67.8071 128.837 65.8794 130.426 65.9263C130.819 65.9232 131.203 66.0467 131.52 66.2785C131.837 66.5102 132.071 66.838 132.187 67.2132C132.187 67.2132 133.198 65.7752 134.636 66.0566C135.371 66.1972 135.793 67.5049 135.793 67.5049C136.039 67.1908 136.367 66.9507 136.742 66.811C137.116 66.6713 137.521 66.6374 137.913 66.713C138.919 66.9787 139.189 68.2499 139.189 68.2499C139.189 68.2499 140.518 67.557 141.456 68.1562C143.357 69.3597 142.034 78.1853 138.58 79.0553C136.97 79.4669 137.408 77.3256 137.408 77.3256C137.408 77.3256 136.032 80.2484 134.209 80.0191C132.385 79.7899 133.125 77.0495 133.125 77.0495C133.125 77.0495 131.765 79.8681 129.895 79.4408C128.025 79.0136 129.16 76.3826 129.16 76.3826C129.16 76.3826 127.535 78.1436 126.18 77.4923C123.94 76.4139 127.452 73.1421 127.285 71.1362L124.247 69.5733L124.07 68.4271Z" fill="#D3766A"/>
<path d="M127.112 67.0777C125.122 67.4945 123.142 64.8114 121.178 64.9364C118.526 65.1084 120.61 68.3802 124.247 69.5837L127.237 70.0213L127.112 67.0777Z" fill="#D3766A"/>
<path d="M139.261 68.4427C139.261 68.4114 139.303 68.4114 139.308 68.4427C139.601 71.5682 138.934 74.7086 137.396 77.4454C137.349 77.534 137.188 77.4871 137.224 77.3829C138.333 74.5173 139.019 71.5057 139.261 68.4427Z" fill="#263238"/>
<path d="M135.818 67.4684C135.818 67.432 135.875 67.4372 135.88 67.4684C136.168 70.9182 135.213 74.3572 133.187 77.1641C133.114 77.2579 132.952 77.2683 133.025 77.1641C134.312 75.1895 135.656 70.3443 135.818 67.4684Z" fill="#263238"/>
<path d="M128.942 76.5389C130.895 73.7776 131.765 70.6673 132.203 67.3434C132.203 67.2965 132.271 67.3121 132.276 67.3434C132.505 69.0262 132.005 71.1154 131.479 72.7096C131.018 74.1978 130.175 75.5395 129.035 76.6014C128.988 76.6483 128.884 76.5962 128.942 76.5389Z" fill="#263238"/>
<path d="M108.774 76.8671C107.399 76.8046 104.794 73.9965 103.882 71.7406C104.07 70.5585 104.317 69.3865 104.622 68.2291C104.861 67.1038 105.101 65.8482 105.236 64.6864C105.236 64.4467 106.023 64.9781 106.023 64.9781L107.487 65.4991L112.327 67.2913C111.742 68.6969 111.329 70.1681 111.098 71.6729C111.085 71.8341 111.085 71.9961 111.098 72.1574C111.098 72.1574 111.098 72.2043 111.098 72.2355C111.139 73.1837 110.92 76.9713 108.774 76.8671Z" fill="#D3766A"/>
<path d="M111.091 72.1782C111.091 72.1782 111.091 72.2251 111.091 72.2564C110.839 72.2604 110.586 72.2447 110.336 72.2095C105.433 71.527 105.548 65.2073 105.548 65.2073L107.481 65.5199L112.321 67.3121C111.736 68.7177 111.323 70.1889 111.091 71.6937C111.078 71.8549 111.078 72.017 111.091 72.1782Z" fill="#263238"/>
<path d="M106.257 54.8083C104.871 57.1528 104.439 64.7905 105.845 66.8589C107.888 69.8546 112.097 71.1102 114.874 68.4583C117.557 65.8898 117.943 55.9285 116.286 53.9591C113.853 51.0572 108.305 51.3437 106.257 54.8083Z" fill="#D3766A"/>
<path d="M112.785 60.8622C112.785 60.8622 112.749 60.8622 112.749 60.9039C112.749 61.4249 112.676 62.0136 112.228 62.1751C112.228 62.1751 112.228 62.2064 112.228 62.2012C112.78 62.1335 112.879 61.3468 112.785 60.8622Z" fill="#263238"/>
<path d="M112.337 60.3153C111.509 60.2371 111.415 61.8782 112.181 61.9668C112.946 62.0554 113.03 60.3778 112.337 60.3153Z" fill="#263238"/>
<path d="M115.531 60.9247C115.531 60.9247 115.567 60.9508 115.567 60.9716C115.52 61.4926 115.567 62.0813 116.01 62.2793C116.01 62.2793 116.01 62.3106 116.01 62.3054C115.442 62.196 115.406 61.4041 115.531 60.9247Z" fill="#263238"/>
<path d="M116.02 60.4142C116.848 60.4142 116.822 62.0605 116.051 62.0761C115.28 62.0918 115.337 60.4298 116.02 60.4142Z" fill="#263238"/>
<path d="M111.723 59.5181C111.945 59.4649 112.164 59.4005 112.379 59.3253C112.62 59.2919 112.843 59.1803 113.015 59.0075C113.058 58.9427 113.078 58.8651 113.071 58.7875C113.065 58.7099 113.032 58.6368 112.978 58.5803C112.859 58.4815 112.715 58.4164 112.562 58.3916C112.409 58.3669 112.253 58.3835 112.108 58.4396C111.795 58.5096 111.519 58.6957 111.337 58.9606C111.302 59.0221 111.285 59.0924 111.287 59.1633C111.29 59.2342 111.313 59.3029 111.354 59.3612C111.394 59.4196 111.45 59.4653 111.516 59.4931C111.581 59.5209 111.653 59.5295 111.723 59.5181Z" fill="#263238"/>
<path d="M116.635 59.7995C116.414 59.741 116.197 59.6715 115.984 59.5911C115.745 59.5477 115.525 59.429 115.358 59.2524C115.318 59.1859 115.301 59.1081 115.31 59.0309C115.318 58.9537 115.352 58.8814 115.405 58.8252C115.528 58.7293 115.673 58.668 115.827 58.6478C115.981 58.6277 116.138 58.6493 116.281 58.7106C116.588 58.7855 116.857 58.971 117.036 59.2316C117.076 59.2944 117.097 59.3679 117.095 59.4425C117.094 59.5172 117.07 59.5897 117.027 59.6507C116.984 59.7117 116.923 59.7584 116.854 59.7849C116.784 59.8114 116.708 59.8165 116.635 59.7995Z" fill="#263238"/>
<path d="M111.732 65.6033C111.852 65.7336 111.961 65.9055 112.149 65.9315C112.341 65.9397 112.533 65.906 112.712 65.8326C112.712 65.8326 112.743 65.8326 112.712 65.8326C112.632 65.9306 112.528 66.0053 112.41 66.0484C112.291 66.0916 112.163 66.1016 112.04 66.0774C111.936 66.0439 111.845 65.9805 111.777 65.8952C111.709 65.81 111.668 65.7066 111.659 65.5981C111.69 65.5929 111.716 65.5877 111.732 65.6033Z" fill="#263238"/>
<path d="M112.363 64.0977C112.482 64.3081 112.644 64.4917 112.837 64.6369C113.031 64.7821 113.253 64.8859 113.488 64.9417C113.692 64.994 113.903 65.0151 114.113 65.0042C114.155 65.0092 114.197 65.0092 114.238 65.0042H114.348C114.376 65.0018 114.402 64.9895 114.422 64.9695C114.442 64.9495 114.455 64.923 114.457 64.8948C114.462 64.8778 114.462 64.8596 114.457 64.8427V64.801C114.494 64.405 114.488 63.8007 114.488 63.8007C114.629 63.8788 115.348 64.254 115.348 64.0456C115.404 62.2522 115.278 60.4578 114.973 58.6898C114.969 58.6793 114.963 58.6703 114.954 58.6638C114.945 58.6574 114.934 58.6539 114.923 58.6539C114.912 58.6539 114.902 58.6574 114.893 58.6638C114.884 58.6703 114.877 58.6793 114.874 58.6898C114.817 60.3413 115.046 61.9928 115.009 63.6548C114.754 63.5168 114.48 63.4151 114.197 63.3526C114.139 63.3526 114.228 64.5249 114.197 64.6968C113.871 64.7109 113.546 64.6591 113.24 64.5445C112.935 64.43 112.656 64.2549 112.42 64.0299C112.378 64.0195 112.331 64.0508 112.363 64.0977Z" fill="#263238"/>
<path d="M113.895 64.7905C113.661 65.0606 113.361 65.2667 113.025 65.3897C112.841 65.4498 112.642 65.4498 112.457 65.3897C112.051 65.2594 112.061 64.8687 112.155 64.5665C112.207 64.3971 112.279 64.2344 112.369 64.082C112.789 64.4745 113.324 64.7227 113.895 64.7905Z" fill="#263238"/>
<path d="M113.025 65.3896C112.841 65.4497 112.642 65.4497 112.457 65.3896C112.051 65.2594 112.061 64.8686 112.155 64.5665C112.372 64.5854 112.576 64.6771 112.734 64.8265C112.892 64.9759 112.994 65.1744 113.025 65.3896Z" fill="#D3766A"/>
<path d="M105.085 62.8212C106.534 62.4304 107.336 57.6113 107.336 57.6113C107.336 57.6113 107.294 59.6692 107.68 59.6223C108.065 59.5754 109.686 56.8089 109.889 54.8135C111.02 55.58 112.246 56.1965 113.536 56.6474C115.354 57.2205 117.381 57.1267 117.386 56.8141C117.386 55.8868 116.589 53.4589 115.343 52.5837C114.435 51.8777 113.357 51.4236 112.217 51.2672C111.078 51.1108 109.917 51.2576 108.852 51.6928C105.846 52.7973 105.038 54.7093 104.575 56.1889C104.111 57.6686 104.554 62.967 105.085 62.8212Z" fill="#263238"/>
<path d="M111.17 63.5505C110.727 63.4594 110.319 63.2458 109.991 62.934C109.664 62.6222 109.43 62.2248 109.317 61.7869C109.204 61.349 109.216 60.8882 109.352 60.4568C109.488 60.0254 109.742 59.6408 110.085 59.3467C110.429 59.0525 110.848 58.8606 111.295 58.7927C111.742 58.7249 112.199 58.7838 112.615 58.9629C113.03 59.1419 113.387 59.4339 113.644 59.8055C113.902 60.1772 114.05 60.6137 114.072 61.0654C114.102 61.7064 113.876 62.333 113.444 62.8077C113.013 63.2824 112.41 63.5664 111.769 63.5974C111.568 63.6083 111.367 63.5926 111.17 63.5505ZM112.077 59.1221C111.905 59.0889 111.73 59.0767 111.556 59.0856C111.027 59.1152 110.528 59.3453 110.163 59.7291C109.797 60.1129 109.592 60.6216 109.588 61.1516C109.584 61.6817 109.783 62.1932 110.143 62.5822C110.503 62.9711 110.998 63.2082 111.526 63.2453C112.055 63.2823 112.578 63.1164 112.989 62.7814C113.4 62.4464 113.667 61.9675 113.738 61.4421C113.808 60.9167 113.675 60.3843 113.366 59.9533C113.058 59.5223 112.597 59.2251 112.077 59.1221Z" fill="#172090"/>
<path d="M116.703 63.9934C115.797 63.8058 115.14 62.7118 115.27 61.451C115.31 60.8492 115.538 60.2752 115.922 59.8098C116.075 59.6002 116.279 59.4335 116.515 59.3258C116.751 59.2181 117.011 59.1731 117.27 59.1951C117.529 59.2171 117.777 59.3053 117.992 59.4513C118.207 59.5973 118.38 59.7962 118.495 60.0287C118.792 60.5539 118.92 61.158 118.86 61.7583C118.745 63.0869 117.849 64.1028 116.859 64.0142C116.807 64.0124 116.754 64.0055 116.703 63.9934ZM117.365 59.5337C117.323 59.5287 117.281 59.5287 117.24 59.5337C117.032 59.5275 116.826 59.5716 116.639 59.6623C116.452 59.753 116.29 59.8877 116.167 60.0547C115.828 60.47 115.626 60.9793 115.588 61.5135C115.494 62.6649 116.073 63.66 116.885 63.7277C117.698 63.7954 118.448 62.9202 118.537 61.7688C118.597 61.2274 118.486 60.6807 118.219 60.2058C118.132 60.0399 118.011 59.8942 117.864 59.7784C117.717 59.6625 117.547 59.5792 117.365 59.5337Z" fill="#172090"/>
<path d="M113.963 61.3364L113.775 61.0706C114.171 60.7945 115.052 60.4559 115.583 61.1332L115.333 61.3364C114.854 60.7268 113.999 61.2947 113.963 61.3364Z" fill="#172090"/>
<path d="M103.163 61.0394L102.892 60.8675C102.97 60.7425 103.699 59.6171 104.429 59.565C105.158 59.5129 109.399 60.2892 109.581 60.3205L109.519 60.6383C108.294 60.4142 104.981 59.8463 104.449 59.888C103.918 59.9297 103.355 60.732 103.163 61.0394Z" fill="#172090"/>
<path d="M106.377 61.1488C106.377 61.1488 105.241 58.4032 104.032 58.7627C102.823 59.1222 103.313 62.8368 104.475 63.5871C104.617 63.6932 104.78 63.7694 104.952 63.8113C105.125 63.8531 105.304 63.8596 105.479 63.8304C105.654 63.8012 105.822 63.7369 105.972 63.6414C106.121 63.5458 106.25 63.421 106.35 63.2745L106.377 61.1488Z" fill="#D3766A"/>
<path d="M104.199 59.8255C104.199 59.8255 104.168 59.8255 104.199 59.8568C105.012 60.409 105.294 61.3364 105.434 62.2637C105.403 62.1604 105.349 62.0653 105.277 61.9853C105.204 61.9053 105.115 61.8423 105.016 61.801C104.916 61.7596 104.808 61.7409 104.7 61.7461C104.593 61.7514 104.487 61.7805 104.392 61.8313C104.366 61.8313 104.392 61.8834 104.392 61.8886C104.558 61.8723 104.725 61.9082 104.87 61.9913C105.015 62.0744 105.13 62.2006 105.2 62.3523C105.317 62.6076 105.406 62.8749 105.465 63.1494C105.465 63.238 105.637 63.2276 105.632 63.1494V63.1234C105.919 61.9824 105.387 60.2058 104.199 59.8255Z" fill="#263238"/>
<path d="M113.812 51.6303C112.897 51.039 111.9 50.586 110.852 50.2861C109.68 49.9735 105.872 49.7651 104.861 50.3799C103.85 50.9947 103.131 54.5478 103.038 55.0688C102.944 55.5898 102.746 58.7575 103.777 59.6692C104.809 60.5809 105.648 55.2616 107.685 53.7403C109.722 52.219 113.812 51.6303 113.812 51.6303Z" fill="#172090"/>
<path opacity="0.1" d="M113.811 51.6303C113.811 51.6303 109.722 52.1929 107.69 53.7142C105.658 55.2355 104.814 60.5549 103.777 59.6431C103.308 59.165 103.048 58.5206 103.053 57.8509C103.506 56.3244 104.465 53.9904 105.996 52.4951C107.424 51.0937 109.643 50.5831 111.904 50.6352C112.566 50.9136 113.204 51.2464 113.811 51.6303Z" fill="black"/>
<path d="M103.657 62.8577C103.954 61.451 105.918 57.8405 107.731 55.866C109.544 53.8914 114.176 53.2297 114.796 53.3496C116.296 53.6465 116.463 54.4489 116.724 54.3447C116.984 54.2405 115.859 52.615 115.468 52.3024C115.077 51.9898 114.015 51.2343 113.358 51.1614C112.702 51.0885 108.586 50.9322 106.877 52.4639C105.168 53.9956 102.417 58.5491 102.631 59.8463C102.683 60.1537 103.053 60.3986 103.121 60.8414C103.209 61.4145 103.235 62.071 103.35 62.4826C103.444 62.816 103.631 62.9775 103.657 62.8577Z" fill="#172090"/>
<path d="M108.216 54.9386C107.896 54.679 107.6 54.3913 107.331 54.0789C107.051 53.7726 106.809 53.4332 106.612 53.0682C106.612 53.0422 106.554 53.0682 106.57 53.0682C106.715 53.4721 106.926 53.8489 107.195 54.1831C107.468 54.5098 107.798 54.7836 108.17 54.9907C108.211 55.0428 108.248 54.9646 108.216 54.9386Z" fill="#263238"/>
<path d="M103.834 61.4354C103.801 61.3292 103.763 61.2249 103.72 61.1228C103.679 61.0027 103.651 60.8787 103.636 60.7529C103.64 60.5132 103.617 60.2738 103.569 60.0391C103.498 59.8557 103.408 59.6808 103.298 59.5181C103.162 59.3425 103.092 59.1251 103.1 58.9033C103.1 58.8721 103.058 58.8617 103.053 58.9033C103.061 59.3132 103.172 59.7144 103.376 60.0704C103.433 60.32 103.465 60.5749 103.47 60.831C103.496 61.0728 103.6 61.2995 103.766 61.477C103.793 61.4927 103.845 61.4718 103.834 61.4354Z" fill="#263238"/>
<path d="M104.538 59.9661C104.418 59.7986 104.306 59.6247 104.205 59.4452C104.114 59.2597 104.035 59.0682 103.97 58.8721C103.908 58.6793 103.856 58.4813 103.793 58.2886C103.731 58.0958 103.621 57.8353 103.564 57.6061C103.564 57.5748 103.512 57.6061 103.517 57.6061C103.579 57.8457 103.6 58.0958 103.658 58.3407C103.707 58.5517 103.771 58.7589 103.85 58.9606C103.921 59.1546 104.01 59.3412 104.116 59.5181C104.216 59.6987 104.353 59.8566 104.517 59.9818C104.517 59.9818 104.543 59.9818 104.538 59.9661Z" fill="#263238"/>
<path d="M105.241 58.648C104.978 58.3544 104.759 58.0246 104.59 57.6686C104.428 57.3195 104.282 56.96 104.147 56.6266C104.147 56.6005 104.095 56.6266 104.1 56.6266C104.164 57.0219 104.28 57.4072 104.444 57.7728C104.522 57.9576 104.622 58.1325 104.741 58.2937C104.879 58.4517 105.034 58.5933 105.204 58.7157C105.204 58.7157 105.262 58.6897 105.241 58.648Z" fill="#263238"/>
<path d="M105.986 57.3925C105.852 57.2705 105.742 57.1237 105.663 56.96C105.564 56.7881 105.465 56.6058 105.372 56.439C105.278 56.2723 105.194 56.0952 105.106 55.918C105.005 55.7478 104.943 55.5575 104.924 55.3606C104.924 55.3345 104.877 55.3293 104.877 55.3606C104.865 55.557 104.893 55.7538 104.96 55.9389C105.025 56.1475 105.109 56.3498 105.21 56.5432C105.308 56.7325 105.417 56.9152 105.538 57.0903C105.634 57.256 105.78 57.3872 105.955 57.4654C105.96 57.4674 105.965 57.4685 105.97 57.4686C105.975 57.4687 105.981 57.4677 105.985 57.4658C105.99 57.4638 105.995 57.461 105.998 57.4573C106.002 57.4537 106.005 57.4493 106.007 57.4446C106.009 57.4398 106.01 57.4346 106.01 57.4294C106.01 57.4242 106.01 57.419 106.008 57.4142C106.006 57.4093 106.003 57.4049 105.999 57.4012C105.996 57.3975 105.991 57.3945 105.986 57.3925Z" fill="#263238"/>
<path d="M106.627 55.7617C106.513 55.6159 106.398 55.47 106.294 55.3137C106.19 55.1574 106.101 54.9959 106.007 54.8344C105.914 54.6729 105.809 54.4957 105.726 54.3134C105.726 54.2821 105.674 54.3134 105.679 54.3134C105.73 54.5019 105.794 54.6864 105.872 54.8656C105.954 55.0455 106.048 55.2196 106.153 55.3866C106.255 55.5474 106.367 55.7023 106.487 55.8503C106.601 56.0049 106.744 56.1359 106.909 56.2358C106.909 56.2358 106.966 56.2359 106.95 56.1942C106.857 56.0395 106.749 55.8946 106.627 55.7617Z" fill="#263238"/>
<path d="M109.414 54.277C109.303 54.0832 109.181 53.8954 109.05 53.7143C108.913 53.5315 108.765 53.3575 108.607 53.1933C108.306 52.8598 107.971 52.5594 107.606 52.2972C107.606 52.2972 107.554 52.2972 107.575 52.3337C108.164 53.0005 108.789 53.6413 109.378 54.3186C109.393 54.3291 109.43 54.303 109.414 54.277Z" fill="#263238"/>
<path d="M110.441 53.1776C110.321 52.9882 110.179 52.8133 110.019 52.6566C109.677 52.3333 109.299 52.0501 108.893 51.8126C108.867 51.8126 108.841 51.8126 108.867 51.8491C109.201 52.1408 109.539 52.4326 109.857 52.7452C110.013 52.9015 110.17 53.063 110.31 53.2349C110.451 53.4069 110.545 53.6048 110.68 53.782H110.712C110.66 53.5654 110.568 53.3604 110.441 53.1776Z" fill="#263238"/>
<path d="M112.649 52.1929C112.519 52.0523 112.378 51.9168 112.238 51.7814C112.105 51.645 111.952 51.5291 111.785 51.4375C111.759 51.4375 111.738 51.4375 111.759 51.4792C112.019 51.7501 112.279 52.0262 112.524 52.3023C112.741 52.5731 112.928 52.8665 113.082 53.1776C113.082 53.1776 113.113 53.1776 113.108 53.1776C113.061 52.8098 112.901 52.4656 112.649 52.1929Z" fill="#263238"/>
<path d="M113.775 52.1096C113.535 51.8163 113.241 51.5707 112.911 51.3854C112.884 51.3854 112.864 51.4115 112.884 51.4271C113.179 51.6417 113.439 51.9 113.656 52.193C113.877 52.4847 114.068 52.7991 114.223 53.1308C114.223 53.1308 114.26 53.1308 114.255 53.1308C114.179 52.7568 114.015 52.4066 113.775 52.1096Z" fill="#263238"/>
<path d="M115.062 52.9588C115.037 52.8783 115.006 52.7999 114.968 52.7244C114.893 52.5726 114.804 52.4279 114.702 52.2919C114.488 52.0249 114.247 51.7805 113.983 51.5626C113.983 51.5626 113.931 51.5626 113.952 51.599C114.204 51.8175 114.428 52.0659 114.619 52.3388C114.714 52.4733 114.799 52.6143 114.874 52.7608C114.911 52.8338 114.942 52.9067 114.973 52.9797C114.995 53.0555 115.025 53.1288 115.062 53.1985H115.104C115.104 53.1167 115.09 53.0356 115.062 52.9588Z" fill="#263238"/>
<path d="M115.906 53.1308C115.773 52.8869 115.614 52.6581 115.432 52.4483C115.338 52.3441 115.239 52.2451 115.145 52.1357C115.145 52.1357 115.088 52.1357 115.114 52.1669C115.21 52.273 115.297 52.3862 115.375 52.5056L115.599 52.839L115.823 53.1725C115.888 53.2928 115.963 53.4078 116.047 53.5163C116.047 53.5163 116.083 53.5163 116.078 53.5163C116.038 53.3808 115.98 53.2511 115.906 53.1308Z" fill="#263238"/>
<path d="M85.0162 110.789C85.0839 110.883 117.516 113.535 117.839 113.222C117.958 113.107 118.98 110.706 118.615 107.053C117.604 97.0556 113.754 77.9195 110.279 72.4856C109.096 70.6309 104.548 69.1304 102.537 70.8132C98.3379 74.2882 89.8874 93.0179 86.1623 103.563C84.6931 107.798 84.9484 110.711 85.0162 110.789Z" fill="#A6A6A6"/>
<path d="M106.434 76.5077C108.044 80.7537 116.156 96.5294 122.064 97.5922C129.222 98.879 138.511 97.9413 142.653 96.2845C144.977 95.3571 139.955 83.9631 137.761 84.5361C134.307 85.4375 127.706 85.526 126.393 85.526C125.08 85.526 116.557 77.4454 111.759 73.2775C107.439 69.5368 105.486 74.0069 106.434 76.5077Z" fill="#D3766A"/>
<path d="M140.414 96.8315C147.02 95.4353 152.657 90.4911 153.438 89.4543C154.095 88.5686 154.423 88.1101 154.423 88.1101C155.632 86.5471 155.418 85.3958 155.418 85.3958C155.418 85.3958 157.346 83.9995 156.695 82.697C155.97 81.233 153.407 83.4785 151.24 83.8484C146.275 84.7028 138.981 84.5257 137.527 84.6299L140.414 96.8315Z" fill="#D3766A"/>
<path d="M146.65 88.3862C148.105 88.1527 149.543 87.822 150.953 87.3963C152.465 86.8296 153.933 86.1522 155.345 85.3697C155.354 85.3675 155.363 85.3681 155.371 85.3715C155.38 85.3748 155.386 85.3807 155.391 85.3882C155.396 85.3958 155.398 85.4046 155.397 85.4135C155.396 85.4223 155.393 85.4307 155.387 85.4374C152.817 87.2402 149.803 88.3051 146.671 88.5165C146.598 88.5269 146.598 88.4123 146.65 88.3862Z" fill="#263238"/>
<path d="M146.728 91.4653C148.13 91.1162 150.589 90.4858 154.382 88.0684C152.213 89.9256 149.57 91.1431 146.749 91.5851C146.682 91.6216 146.635 91.5122 146.728 91.4653Z" fill="#263238"/>
<path d="M145.175 84.4996C144.488 84.3538 144.561 83.9786 145.696 83.4576C146.832 82.9367 151.745 81.655 151.162 79.9774C150.578 78.2998 143.665 80.1546 141.867 81.2278C140.328 82.2478 138.876 83.3945 137.527 84.6559C138.929 84.5361 142.393 84.6403 145.175 84.4996Z" fill="#D3766A"/>
<path d="M135.022 84.385L138.935 98.3268C138.935 98.3268 125.91 100.082 120.929 97.7797C115.948 95.4769 109.884 84.8852 107.102 78.7479C104.32 72.6106 106.373 67.7758 114.161 74.9603C121.95 82.1447 125.759 84.9633 126.326 85.1248C126.894 85.2863 135.022 84.385 135.022 84.385Z" fill="#A6A6A6"/>
<path d="M115.614 93.0075C115.239 92.3875 112.097 87.7975 111.8 87.2766C111.191 86.271 110.587 85.2655 109.998 84.2496C108.805 82.2021 107.653 80.1233 106.351 78.154L106.314 78.18C106.919 79.5711 107.612 80.9309 108.352 82.2646L108.174 82.0823C107.645 81.5885 107.142 81.0667 106.669 80.5193C106.637 80.4828 106.58 80.5193 106.611 80.5766C107.086 81.0976 107.508 81.6967 107.966 82.2438C108.185 82.5147 108.409 82.7648 108.649 83.0253L108.945 83.317C109.18 83.7234 109.42 84.1298 109.664 84.5309C110.279 85.5729 110.956 86.542 111.597 87.5527C112.723 89.3293 115.244 92.575 115.572 93.0491C115.588 93.1065 115.645 93.0752 115.614 93.0075Z" fill="#263238"/>
<path d="M136.021 98.1236C135.849 97.0295 135.5 95.9511 135.235 94.8778C134.969 93.8046 134.667 92.7678 134.375 91.7154C133.781 89.5898 133.234 87.4329 132.505 85.3541C132.507 85.3478 132.508 85.341 132.507 85.3343C132.506 85.3277 132.504 85.3213 132.5 85.3158C132.496 85.3103 132.491 85.3058 132.485 85.3027C132.479 85.2995 132.472 85.2979 132.466 85.2979C132.459 85.2979 132.452 85.2995 132.446 85.3027C132.44 85.3058 132.435 85.3103 132.431 85.3158C132.427 85.3213 132.425 85.3277 132.424 85.3343C132.423 85.341 132.424 85.3478 132.426 85.3541C132.812 87.5475 133.422 89.7044 133.989 91.8509C134.286 92.9293 134.594 93.9974 134.912 95.0654C135.195 96.1074 135.534 97.1334 135.927 98.1392C135.964 98.2018 136.032 98.1705 136.021 98.1236Z" fill="#263238"/>
<path d="M131.213 84.6976C129.926 84.7341 128.65 84.9112 127.363 84.9425C126.791 84.9701 126.226 84.811 125.753 84.4892C125.232 84.1349 119.642 79.868 118.683 79.0292C118.647 78.9927 118.589 79.0553 118.626 79.0865C119.637 79.9253 123.237 83.0669 124.279 83.9109C124.733 84.3104 125.217 84.6744 125.727 84.9998C126.207 85.2782 126.768 85.383 127.316 85.2968C128.619 85.1405 129.921 85.0154 131.229 84.8018C131.286 84.7914 131.27 84.6976 131.213 84.6976Z" fill="#263238"/>
<path d="M108.987 71.2873C106.496 69.7243 99.4577 68.6823 96.4829 70.4276C92.7317 72.6158 88.543 86.4012 89.9601 87.3182C92.4869 88.9593 102.063 81.3997 104.246 78.1852C106.429 74.9707 108.987 71.2873 108.987 71.2873Z" fill="#A6A6A6"/>
<path d="M106.892 75.3614C106.403 75.8147 105.892 76.2628 105.408 76.7264C106.075 75.7939 106.752 74.8665 107.393 73.9183C107.393 73.887 107.367 73.8454 107.341 73.8766C106.474 74.8297 105.658 75.8279 104.897 76.8671C104.09 77.9091 103.272 78.9511 102.407 79.9201C101.559 80.9199 100.638 81.8551 99.6507 82.7178C98.5878 83.598 97.463 84.4007 96.2851 85.1196C95.6217 85.5295 94.9513 85.9272 94.2741 86.3127C93.5448 86.718 92.7854 87.0663 92.0025 87.3547C91.8619 87.4016 91.9504 87.4537 92.0025 87.438C92.6694 87.2395 93.3165 86.9797 93.9354 86.6618C94.5814 86.3439 95.2327 86.0261 95.8735 85.6927C97.1088 85.0791 98.2904 84.3629 99.4058 83.5514C101.573 81.9311 103.214 79.8211 104.756 77.6225C104.789 77.5812 104.818 77.5377 104.845 77.4923C105.137 77.2162 105.423 76.9296 105.699 76.6327C106.101 76.2054 106.517 75.8043 106.95 75.4083C106.951 75.4008 106.951 75.3931 106.948 75.3859C106.946 75.3787 106.941 75.3723 106.935 75.3674C106.929 75.3626 106.922 75.3595 106.915 75.3584C106.907 75.3574 106.899 75.3584 106.892 75.3614Z" fill="#263238"/>
</svg>
